<?xml version="1.0" encoding="UTF-8"?>
<svg xmlns="http://www.w3.org/2000/svg" xmlns:xlink="http://www.w3.org/1999/xlink" width="224.87999pt" height="225pt" viewBox="0 0 224.87999 225" version="1.2">
<defs>
<clipPath id="clip1">
  <path d="M 58 0.0585938 L 93 0.0585938 L 93 43 L 58 43 Z M 58 0.0585938 "/>
</clipPath>
<clipPath id="clip2">
  <path d="M 158 188 L 182 188 L 182 224.9375 L 158 224.9375 Z M 158 188 "/>
</clipPath>
<clipPath id="clip3">
  <path d="M 146 188 L 173 188 L 173 224.9375 L 146 224.9375 Z M 146 188 "/>
</clipPath>
<clipPath id="clip4">
  <path d="M 64 152 L 190.164062 152 L 190.164062 159 L 64 159 Z M 64 152 "/>
</clipPath>
<clipPath id="clip5">
  <path d="M 142 152 L 190.164062 152 L 190.164062 159 L 142 159 Z M 142 152 "/>
</clipPath>
</defs>
<g id="surface1">
<path style=" stroke:none;fill-rule:nonzero;fill:rgb(44.709778%,75.689697%,27.449036%);fill-opacity:1;" d="M 104.265625 126.042969 C 104.265625 126.042969 104.460938 119.710938 116.535156 119.996094 C 116.535156 119.996094 114.222656 128.386719 104.265625 126.042969 "/>
<path style=" stroke:none;fill-rule:nonzero;fill:rgb(44.709778%,75.689697%,27.449036%);fill-opacity:1;" d="M 117.097656 103.203125 C 117.097656 103.203125 120.90625 98.132812 130.628906 105.269531 C 130.628906 105.269531 123.902344 110.816406 117.097656 103.203125 "/>
<path style=" stroke:none;fill-rule:nonzero;fill:rgb(44.709778%,75.689697%,27.449036%);fill-opacity:1;" d="M 117.089844 112.078125 C 117.089844 112.078125 120.898438 107.003906 130.621094 114.144531 C 130.621094 114.144531 123.890625 119.691406 117.089844 112.078125 "/>
<path style=" stroke:none;fill-rule:nonzero;fill:rgb(44.709778%,75.689697%,27.449036%);fill-opacity:1;" d="M 117.484375 122.421875 C 117.484375 122.421875 117.679688 116.085938 129.75 116.371094 C 129.75 116.371094 127.441406 124.761719 117.484375 122.421875 "/>
<path style=" stroke:none;fill-rule:nonzero;fill:rgb(44.709778%,75.689697%,27.449036%);fill-opacity:1;" d="M 117.765625 127.445312 C 117.765625 127.445312 117.90625 123.03125 126.320312 123.226562 C 126.320312 123.226562 124.707031 129.078125 117.765625 127.445312 "/>
<path style=" stroke:none;fill-rule:nonzero;fill:rgb(39.608765%,65.489197%,24.308777%);fill-opacity:1;" d="M 116.1875 122.421875 C 116.1875 122.421875 115.992188 116.085938 103.921875 116.371094 C 103.921875 116.371094 106.230469 124.761719 116.1875 122.421875 "/>
<path style=" stroke:none;fill-rule:nonzero;fill:rgb(38.038635%,61.959839%,23.139954%);fill-opacity:1;" d="M 116.179688 127.445312 C 116.179688 127.445312 116.042969 123.03125 107.621094 123.226562 C 107.621094 123.226562 109.234375 129.078125 116.179688 127.445312 "/>
<path style=" stroke:none;fill-rule:nonzero;fill:rgb(44.709778%,75.689697%,27.449036%);fill-opacity:1;" d="M 117.484375 103.355469 C 117.484375 103.355469 117.289062 97.023438 105.214844 97.304688 C 105.214844 97.304688 107.523438 105.699219 117.484375 103.355469 "/>
<path style=" stroke:none;fill-rule:nonzero;fill:rgb(44.709778%,75.689697%,27.449036%);fill-opacity:1;" d="M 117.910156 99.015625 C 117.910156 99.015625 119.316406 92.835938 107.558594 90.09375 C 107.558594 90.09375 107.679688 98.792969 117.910156 99.015625 "/>
<path style=" stroke:none;fill-rule:nonzero;fill:rgb(44.709778%,75.689697%,27.449036%);fill-opacity:1;" d="M 118.835938 92.035156 C 118.835938 92.035156 121.578125 87.457031 112.902344 82.207031 C 112.902344 82.207031 110.714844 89.191406 118.835938 92.035156 "/>
<path style=" stroke:none;fill-rule:nonzero;fill:rgb(44.709778%,75.689697%,27.449036%);fill-opacity:1;" d="M 116.113281 111.441406 C 116.113281 111.441406 115.976562 107.023438 107.558594 107.222656 C 107.558594 107.222656 109.171875 113.074219 116.113281 111.441406 "/>
<path style=" stroke:none;fill-rule:nonzero;fill:rgb(36.468506%,59.999084%,22.349548%);fill-opacity:1;" d="M 117.625 102.175781 C 117.625 102.175781 117.539062 95.835938 129.609375 95.582031 C 129.609375 95.582031 127.675781 104.070312 117.625 102.175781 "/>
<path style=" stroke:none;fill-rule:nonzero;fill:rgb(29.798889%,46.669006%,19.999695%);fill-opacity:1;" d="M 117.433594 143.765625 C 117.308594 142.785156 117.199219 141.820312 117.09375 140.847656 C 116.992188 139.878906 116.894531 138.90625 116.804688 137.9375 C 116.625 135.996094 116.46875 134.050781 116.34375 132.105469 C 116.28125 131.136719 116.222656 130.164062 116.171875 129.1875 C 116.125 128.214844 116.078125 127.242188 116.042969 126.269531 C 116.003906 125.296875 115.976562 124.320312 115.953125 123.347656 C 115.9375 122.371094 115.917969 121.398438 115.917969 120.421875 C 115.90625 119.449219 115.917969 118.472656 115.921875 117.5 C 115.945312 116.523438 115.957031 115.550781 115.996094 114.574219 C 116.023438 113.601562 116.082031 112.628906 116.128906 111.652344 C 116.195312 110.679688 116.253906 109.707031 116.34375 108.734375 C 116.417969 107.761719 116.53125 106.792969 116.636719 105.824219 L 116.828125 104.371094 C 116.886719 103.886719 116.972656 103.402344 117.042969 102.921875 C 117.113281 102.4375 117.203125 101.957031 117.292969 101.476562 C 117.378906 100.996094 117.460938 100.515625 117.570312 100.039062 C 117.679688 99.5625 117.773438 99.082031 117.894531 98.609375 L 118.257812 97.1875 L 118.246094 97.246094 C 118.398438 95.652344 118.519531 94.046875 118.628906 92.445312 C 118.734375 90.839844 118.820312 89.234375 118.878906 87.628906 C 118.9375 86.023438 118.96875 84.417969 118.945312 82.808594 C 118.929688 82.007812 118.902344 81.203125 118.851562 80.402344 C 118.828125 80 118.792969 79.601562 118.75 79.203125 C 118.710938 78.800781 118.65625 78.402344 118.589844 78.007812 C 118.667969 78.402344 118.738281 78.796875 118.792969 79.195312 C 118.851562 79.59375 118.898438 79.992188 118.941406 80.394531 C 119.019531 81.195312 119.074219 82 119.113281 82.804688 C 119.195312 84.414062 119.222656 86.027344 119.222656 87.636719 C 119.21875 89.246094 119.191406 90.859375 119.140625 92.46875 C 119.09375 94.078125 119.027344 95.683594 118.929688 97.296875 L 118.929688 97.316406 L 118.921875 97.355469 L 118.613281 98.765625 C 118.511719 99.238281 118.4375 99.714844 118.351562 100.1875 C 118.257812 100.660156 118.191406 101.136719 118.121094 101.613281 C 118.050781 102.089844 117.980469 102.566406 117.925781 103.046875 C 117.875 103.527344 117.808594 104.003906 117.761719 104.480469 L 117.628906 105.921875 C 117.558594 106.882812 117.480469 107.84375 117.441406 108.808594 C 117.382812 109.773438 117.359375 110.738281 117.328125 111.703125 C 117.320312 112.667969 117.292969 113.628906 117.300781 114.597656 C 117.300781 115.5625 117.320312 116.527344 117.332031 117.492188 C 117.359375 118.457031 117.382812 119.421875 117.425781 120.386719 C 117.460938 121.355469 117.519531 122.320312 117.566406 123.28125 C 117.625 124.246094 117.6875 125.210938 117.757812 126.171875 C 117.828125 127.136719 117.90625 128.101562 117.988281 129.0625 C 118.074219 130.027344 118.164062 130.984375 118.265625 131.949219 C 118.457031 133.871094 118.679688 135.789062 118.921875 137.707031 C 119.046875 138.660156 119.175781 139.621094 119.3125 140.574219 C 119.449219 141.527344 119.589844 142.484375 119.746094 143.425781 L 117.433594 143.765625 "/>
<path style=" stroke:none;fill-rule:nonzero;fill:rgb(44.709778%,75.689697%,27.449036%);fill-opacity:1;" d="M 119.085938 92.761719 C 119.085938 92.761719 118.21875 86.484375 130.167969 84.753906 C 130.167969 84.753906 129.296875 93.410156 119.085938 92.761719 "/>
<path style=" stroke:none;fill-rule:nonzero;fill:rgb(44.709778%,75.689697%,27.449036%);fill-opacity:1;" d="M 133.1875 126.042969 C 133.1875 126.042969 133.382812 119.710938 145.457031 119.996094 C 145.457031 119.996094 143.148438 128.386719 133.1875 126.042969 "/>
<path style=" stroke:none;fill-rule:nonzero;fill:rgb(44.709778%,75.689697%,27.449036%);fill-opacity:1;" d="M 146.019531 103.203125 C 146.019531 103.203125 149.828125 98.132812 159.546875 105.269531 C 159.546875 105.269531 152.824219 110.816406 146.019531 103.203125 "/>
<path style=" stroke:none;fill-rule:nonzero;fill:rgb(44.709778%,75.689697%,27.449036%);fill-opacity:1;" d="M 146.007812 112.078125 C 146.007812 112.078125 149.824219 107.003906 159.539062 114.144531 C 159.539062 114.144531 152.8125 119.691406 146.007812 112.078125 "/>
<path style=" stroke:none;fill-rule:nonzero;fill:rgb(44.709778%,75.689697%,27.449036%);fill-opacity:1;" d="M 146.40625 122.421875 C 146.40625 122.421875 146.601562 116.085938 158.671875 116.371094 C 158.671875 116.371094 156.363281 124.761719 146.40625 122.421875 "/>
<path style=" stroke:none;fill-rule:nonzero;fill:rgb(44.709778%,75.689697%,27.449036%);fill-opacity:1;" d="M 146.6875 127.445312 C 146.6875 127.445312 146.824219 123.03125 155.242188 123.226562 C 155.242188 123.226562 153.628906 129.078125 146.6875 127.445312 "/>
<path style=" stroke:none;fill-rule:nonzero;fill:rgb(39.608765%,65.489197%,24.308777%);fill-opacity:1;" d="M 145.109375 122.421875 C 145.109375 122.421875 144.914062 116.085938 132.84375 116.371094 C 132.84375 116.371094 135.152344 124.761719 145.109375 122.421875 "/>
<path style=" stroke:none;fill-rule:nonzero;fill:rgb(38.038635%,61.959839%,23.139954%);fill-opacity:1;" d="M 145.097656 127.445312 C 145.097656 127.445312 144.960938 123.03125 136.542969 123.226562 C 136.542969 123.226562 138.15625 129.078125 145.097656 127.445312 "/>
<path style=" stroke:none;fill-rule:nonzero;fill:rgb(44.709778%,75.689697%,27.449036%);fill-opacity:1;" d="M 146.40625 103.355469 C 146.40625 103.355469 146.210938 97.023438 134.136719 97.304688 C 134.136719 97.304688 136.449219 105.699219 146.40625 103.355469 "/>
<path style=" stroke:none;fill-rule:nonzero;fill:rgb(44.709778%,75.689697%,27.449036%);fill-opacity:1;" d="M 146.832031 99.015625 C 146.832031 99.015625 148.238281 92.835938 136.480469 90.09375 C 136.480469 90.09375 136.605469 98.792969 146.832031 99.015625 "/>
<path style=" stroke:none;fill-rule:nonzero;fill:rgb(44.709778%,75.689697%,27.449036%);fill-opacity:1;" d="M 147.757812 92.035156 C 147.757812 92.035156 150.5 87.457031 141.824219 82.207031 C 141.824219 82.207031 139.640625 89.191406 147.757812 92.035156 "/>
<path style=" stroke:none;fill-rule:nonzero;fill:rgb(44.709778%,75.689697%,27.449036%);fill-opacity:1;" d="M 145.035156 111.441406 C 145.035156 111.441406 144.898438 107.023438 136.480469 107.222656 C 136.480469 107.222656 138.09375 113.074219 145.035156 111.441406 "/>
<path style=" stroke:none;fill-rule:nonzero;fill:rgb(36.468506%,59.999084%,22.349548%);fill-opacity:1;" d="M 146.546875 102.175781 C 146.546875 102.175781 146.460938 95.835938 158.53125 95.582031 C 158.53125 95.582031 156.601562 104.070312 146.546875 102.175781 "/>
<path style=" stroke:none;fill-rule:nonzero;fill:rgb(29.798889%,46.669006%,19.999695%);fill-opacity:1;" d="M 146.355469 143.765625 C 146.230469 142.785156 146.121094 141.820312 146.015625 140.847656 C 145.914062 139.878906 145.816406 138.90625 145.726562 137.9375 C 145.546875 135.996094 145.394531 134.050781 145.265625 132.105469 C 145.203125 131.136719 145.144531 130.164062 145.09375 129.1875 C 145.042969 128.214844 145 127.242188 144.960938 126.269531 C 144.925781 125.296875 144.902344 124.320312 144.878906 123.347656 C 144.859375 122.371094 144.835938 121.398438 144.835938 120.421875 C 144.828125 119.449219 144.839844 118.472656 144.847656 117.5 C 144.867188 116.523438 144.878906 115.550781 144.917969 114.574219 C 144.945312 113.601562 145.003906 112.628906 145.050781 111.652344 C 145.117188 110.679688 145.171875 109.707031 145.265625 108.734375 C 145.339844 107.761719 145.453125 106.792969 145.558594 105.824219 L 145.746094 104.371094 C 145.808594 103.886719 145.894531 103.402344 145.964844 102.921875 C 146.035156 102.4375 146.125 101.957031 146.214844 101.476562 C 146.300781 100.996094 146.382812 100.515625 146.496094 100.039062 C 146.605469 99.5625 146.695312 99.082031 146.816406 98.609375 L 147.179688 97.1875 L 147.167969 97.246094 C 147.316406 95.652344 147.441406 94.046875 147.550781 92.445312 C 147.65625 90.839844 147.742188 89.234375 147.800781 87.628906 C 147.859375 86.023438 147.890625 84.417969 147.863281 82.808594 C 147.851562 82.007812 147.828125 81.203125 147.777344 80.402344 C 147.75 80 147.714844 79.601562 147.675781 79.203125 C 147.632812 78.800781 147.578125 78.402344 147.511719 78.007812 C 147.59375 78.402344 147.660156 78.796875 147.714844 79.195312 C 147.773438 79.59375 147.820312 79.992188 147.863281 80.394531 C 147.941406 81.195312 147.996094 82 148.039062 82.804688 C 148.121094 84.414062 148.148438 86.027344 148.144531 87.636719 C 148.144531 89.246094 148.113281 90.859375 148.066406 92.46875 C 148.015625 94.078125 147.949219 95.683594 147.855469 97.296875 L 147.84375 97.355469 L 147.535156 98.765625 C 147.433594 99.238281 147.359375 99.714844 147.269531 100.1875 C 147.179688 100.660156 147.113281 101.136719 147.046875 101.613281 C 146.972656 102.089844 146.902344 102.566406 146.847656 103.046875 C 146.796875 103.527344 146.730469 104.003906 146.683594 104.480469 L 146.550781 105.921875 C 146.480469 106.882812 146.398438 107.84375 146.359375 108.808594 C 146.304688 109.773438 146.285156 110.738281 146.25 111.703125 C 146.242188 112.667969 146.214844 113.628906 146.222656 114.597656 C 146.21875 115.5625 146.242188 116.527344 146.253906 117.492188 C 146.285156 118.457031 146.304688 119.421875 146.347656 120.386719 C 146.382812 121.355469 146.441406 122.320312 146.488281 123.28125 C 146.550781 124.246094 146.609375 125.210938 146.679688 126.171875 C 146.75 127.136719 146.828125 128.101562 146.914062 129.0625 C 146.996094 130.027344 147.085938 130.984375 147.183594 131.949219 C 147.375 133.871094 147.601562 135.789062 147.84375 137.707031 C 147.96875 138.660156 148.097656 139.621094 148.234375 140.574219 C 148.371094 141.527344 148.511719 142.484375 148.667969 143.425781 L 146.355469 143.765625 "/>
<path style=" stroke:none;fill-rule:nonzero;fill:rgb(44.709778%,75.689697%,27.449036%);fill-opacity:1;" d="M 148.007812 92.761719 C 148.007812 92.761719 147.140625 86.484375 159.085938 84.753906 C 159.085938 84.753906 158.21875 93.410156 148.007812 92.761719 "/>
<path style=" stroke:none;fill-rule:nonzero;fill:rgb(65.879822%,42.349243%,29.019165%);fill-opacity:1;" d="M 53.339844 97.1875 C 53.183594 97.546875 53.023438 97.917969 52.867188 98.296875 C 52.597656 98.894531 52.390625 99.535156 52.140625 100.1875 C 51.90625 100.84375 51.628906 101.515625 51.425781 102.222656 C 51.203125 102.925781 50.980469 103.652344 50.75 104.390625 C 50.511719 105.125 50.347656 105.902344 50.140625 106.675781 C 49.714844 108.222656 49.421875 109.847656 49.105469 111.492188 C 48.929688 112.308594 48.832031 113.148438 48.722656 113.984375 C 48.613281 114.820312 48.5 115.660156 48.390625 116.5 C 48.25 118.1875 48.136719 119.871094 48.042969 121.523438 C 48.039062 123.179688 48.03125 124.808594 48.023438 126.382812 C 48.121094 127.949219 48.214844 129.464844 48.304688 130.902344 C 48.394531 132.335938 48.636719 133.671875 48.773438 134.914062 C 48.941406 136.152344 49.058594 137.289062 49.285156 138.28125 C 49.484375 139.273438 49.65625 140.136719 49.800781 140.847656 C 50.082031 142.269531 50.242188 143.082031 50.242188 143.082031 L 53.773438 142.421875 C 53.773438 142.421875 53.691406 141.628906 53.539062 140.246094 C 53.464844 139.554688 53.375 138.71875 53.265625 137.757812 C 53.128906 136.796875 53.117188 135.707031 53.066406 134.523438 C 53.039062 133.335938 52.917969 132.058594 52.957031 130.703125 C 52.992188 129.351562 53.03125 127.925781 53.066406 126.453125 C 53.203125 124.992188 53.339844 123.480469 53.484375 121.945312 C 53.710938 120.421875 53.953125 118.878906 54.210938 117.351562 C 54.382812 116.589844 54.550781 115.832031 54.71875 115.078125 C 54.890625 114.324219 55.035156 113.570312 55.265625 112.839844 C 55.6875 111.378906 56.074219 109.933594 56.585938 108.582031 C 56.835938 107.90625 57.039062 107.222656 57.308594 106.585938 C 57.570312 105.949219 57.828125 105.324219 58.082031 104.714844 C 58.316406 104.101562 58.613281 103.539062 58.871094 102.976562 C 59.144531 102.429688 59.371094 101.875 59.652344 101.382812 C 59.867188 100.976562 60.074219 100.589844 60.277344 100.214844 C 57.917969 99.300781 55.601562 98.292969 53.339844 97.1875 "/>
<path style=" stroke:none;fill-rule:nonzero;fill:rgb(65.879822%,42.349243%,29.019165%);fill-opacity:1;" d="M 98.277344 97.1875 C 98.433594 97.546875 98.589844 97.917969 98.75 98.296875 C 99.015625 98.894531 99.222656 99.535156 99.472656 100.1875 C 99.710938 100.84375 99.984375 101.515625 100.191406 102.222656 C 100.410156 102.925781 100.636719 103.652344 100.871094 104.390625 C 101.105469 105.125 101.265625 105.902344 101.472656 106.675781 C 101.902344 108.222656 102.195312 109.847656 102.511719 111.492188 C 102.6875 112.308594 102.78125 113.148438 102.894531 113.984375 C 103.003906 114.820312 103.113281 115.660156 103.226562 116.5 C 103.363281 118.1875 103.476562 119.871094 103.574219 121.523438 C 103.578125 123.179688 103.585938 124.808594 103.589844 126.382812 C 103.492188 127.949219 103.398438 129.464844 103.308594 130.902344 C 103.222656 132.335938 102.980469 133.671875 102.839844 134.914062 C 102.675781 136.152344 102.558594 137.289062 102.328125 138.28125 C 102.128906 139.273438 101.957031 140.136719 101.816406 140.847656 C 101.53125 142.269531 101.371094 143.082031 101.371094 143.082031 L 97.839844 142.421875 C 97.839844 142.421875 97.925781 141.628906 98.074219 140.246094 C 98.152344 139.554688 98.242188 138.71875 98.347656 137.757812 C 98.484375 136.796875 98.496094 135.707031 98.546875 134.523438 C 98.574219 133.335938 98.699219 132.058594 98.660156 130.703125 C 98.621094 129.351562 98.585938 127.925781 98.546875 126.453125 C 98.414062 124.992188 98.277344 123.480469 98.132812 121.945312 C 97.90625 120.421875 97.664062 118.878906 97.402344 117.351562 C 97.234375 116.589844 97.066406 115.832031 96.894531 115.078125 C 96.726562 114.324219 96.578125 113.570312 96.347656 112.839844 C 95.925781 111.378906 95.539062 109.933594 95.027344 108.582031 C 94.777344 107.90625 94.578125 107.222656 94.308594 106.585938 C 94.042969 105.949219 93.785156 105.324219 93.535156 104.714844 C 93.300781 104.101562 93.003906 103.539062 92.746094 102.976562 C 92.472656 102.429688 92.246094 101.875 91.964844 101.382812 C 91.75 100.976562 91.542969 100.589844 91.339844 100.214844 C 93.699219 99.300781 96.011719 98.292969 98.277344 97.1875 "/>
<g clip-path="url(#clip1)" clip-rule="nonzero">
<path style=" stroke:none;fill-rule:nonzero;fill:rgb(87.059021%,62.748718%,34.509277%);fill-opacity:1;" d="M 92.0625 32.792969 C 92.0625 38.191406 87.671875 42.5625 82.257812 42.5625 L 68.6875 42.5625 C 63.269531 42.5625 58.878906 38.191406 58.878906 32.792969 L 58.878906 9.820312 C 58.878906 4.421875 63.269531 0.046875 68.6875 0.046875 L 82.257812 0.046875 C 87.671875 0.046875 92.0625 4.421875 92.0625 9.820312 L 92.0625 32.792969 "/>
</g>
<path style=" stroke:none;fill-rule:nonzero;fill:rgb(95.689392%,80.778503%,52.549744%);fill-opacity:1;" d="M 117.023438 26.277344 C 117.023438 37.164062 98.6875 45.988281 76.070312 45.988281 C 53.449219 45.988281 35.113281 37.164062 35.113281 26.277344 C 35.113281 15.394531 53.449219 6.570312 76.070312 6.570312 C 98.6875 6.570312 117.023438 15.394531 117.023438 26.277344 "/>
<path style=" stroke:none;fill-rule:nonzero;fill:rgb(87.059021%,62.748718%,34.509277%);fill-opacity:1;" d="M 76.070312 10.339844 C 54.769531 10.339844 37.277344 18.164062 35.304688 28.164062 C 37.277344 38.164062 54.769531 45.988281 76.070312 45.988281 C 97.367188 45.988281 114.863281 38.164062 116.832031 28.164062 C 114.863281 18.164062 97.367188 10.339844 76.070312 10.339844 "/>
<path style=" stroke:none;fill-rule:nonzero;fill:rgb(79.60968%,53.729248%,29.019165%);fill-opacity:1;" d="M 36.246094 30.875 C 40.546875 39.542969 56.738281 45.988281 76.070312 45.988281 C 95.566406 45.988281 111.875 39.425781 116.003906 30.644531 C 111.699219 21.976562 95.507812 15.53125 76.179688 15.53125 C 56.675781 15.53125 40.375 22.09375 36.246094 30.875 "/>
<path style=" stroke:none;fill-rule:nonzero;fill:rgb(81.17981%,91.758728%,91.758728%);fill-opacity:1;" d="M 89.492188 85.613281 C 89.492188 85.613281 101.648438 98.515625 102.820312 100.203125 L 92.699219 106.859375 L 86.050781 97.207031 L 89.492188 85.613281 "/>
<path style=" stroke:none;fill-rule:nonzero;fill:rgb(81.17981%,91.758728%,91.758728%);fill-opacity:1;" d="M 64.039062 92.484375 L 61.355469 87.273438 C 61.6875 86.5625 62.128906 85.90625 62.660156 85.3125 L 62.65625 85.308594 C 62.65625 85.308594 49.628906 98.296875 48.179688 100.125 L 58.042969 107.164062 L 65.054688 97.773438 L 64.039062 92.484375 "/>
<path style=" stroke:none;fill-rule:nonzero;fill:rgb(81.17981%,91.758728%,91.758728%);fill-opacity:1;" d="M 91.75 136.980469 C 91.75 141.480469 88.085938 145.128906 83.570312 145.128906 L 68.433594 145.128906 C 63.917969 145.128906 60.257812 141.480469 60.257812 136.980469 L 60.257812 90.957031 C 60.257812 86.457031 63.917969 82.808594 68.433594 82.808594 L 83.570312 82.808594 C 88.085938 82.808594 91.75 86.457031 91.75 90.957031 L 91.75 136.980469 "/>
<path style=" stroke:none;fill-rule:nonzero;fill:rgb(81.17981%,91.758728%,91.758728%);fill-opacity:1;" d="M 70.265625 83.996094 C 70.265625 83.996094 67.34375 80.261719 69.039062 78.730469 C 69.039062 78.730469 71.839844 75.507812 82.449219 77.375 C 82.449219 77.375 85.78125 80.957031 81.265625 84.695312 C 81.265625 84.695312 78.144531 86.035156 70.265625 83.996094 "/>
<path style=" stroke:none;fill-rule:nonzero;fill:rgb(55.288696%,34.899902%,24.308777%);fill-opacity:1;" d="M 79.128906 78.902344 L 72.910156 78.902344 L 72.910156 69.140625 L 79.128906 69.140625 L 79.128906 78.902344 "/>
<path style=" stroke:none;fill-rule:nonzero;fill:rgb(46.269226%,29.019165%,19.999695%);fill-opacity:1;" d="M 62.71875 47.269531 C 63.664062 50.136719 62.824219 52.984375 60.84375 53.636719 C 58.859375 54.285156 56.488281 52.488281 55.542969 49.621094 C 54.597656 46.753906 55.4375 43.90625 57.417969 43.257812 C 59.398438 42.605469 61.773438 44.40625 62.71875 47.269531 "/>
<path style=" stroke:none;fill-rule:nonzero;fill:rgb(27.449036%,14.509583%,11.369324%);fill-opacity:1;" d="M 56.621094 48.394531 C 56.621094 48.394531 56.457031 42.058594 61.003906 46.230469 C 61.003906 46.230469 63.15625 52.859375 59.96875 52.601562 C 59.96875 52.601562 59.0625 51.976562 58.542969 50.445312 C 58.011719 48.863281 58.058594 47.09375 60.007812 47.464844 C 60.007812 47.464844 57.996094 43.460938 56.621094 48.394531 "/>
<path style=" stroke:none;fill-rule:nonzero;fill:rgb(46.269226%,29.019165%,19.999695%);fill-opacity:1;" d="M 88.945312 47.269531 C 88 50.136719 88.84375 52.984375 90.824219 53.636719 C 92.804688 54.285156 95.175781 52.488281 96.121094 49.621094 C 97.070312 46.753906 96.226562 43.90625 94.25 43.257812 C 92.265625 42.605469 89.890625 44.40625 88.945312 47.269531 "/>
<path style=" stroke:none;fill-rule:nonzero;fill:rgb(27.449036%,14.509583%,11.369324%);fill-opacity:1;" d="M 95.046875 48.394531 C 95.046875 48.394531 95.210938 42.058594 90.660156 46.230469 C 90.660156 46.230469 88.511719 52.859375 91.695312 52.601562 C 91.695312 52.601562 92.605469 51.976562 93.121094 50.445312 C 93.652344 48.863281 93.605469 47.09375 91.660156 47.464844 C 91.660156 47.464844 93.671875 43.460938 95.046875 48.394531 "/>
<path style=" stroke:none;fill-rule:nonzero;fill:rgb(65.879822%,42.349243%,29.019165%);fill-opacity:1;" d="M 83.269531 22.554688 L 68.738281 22.554688 C 64.484375 22.554688 61.003906 26.019531 61.003906 30.253906 L 61.003906 35.738281 C 61.003906 39.972656 61.253906 46.898438 61.554688 51.121094 L 62.5 62.855469 C 62.800781 67.082031 66.527344 70.535156 70.78125 70.535156 L 71.234375 70.535156 C 71.597656 71.882812 73.632812 72.914062 76.101562 72.914062 C 78.570312 72.914062 80.609375 71.882812 80.96875 70.535156 L 81.226562 70.535156 C 85.480469 70.535156 89.203125 67.082031 89.507812 62.855469 L 90.445312 51.292969 C 90.75 47.066406 91 40.144531 91 35.90625 L 91 30.253906 C 91 26.019531 87.523438 22.554688 83.269531 22.554688 "/>
<path style=" stroke:none;fill-rule:nonzero;fill:rgb(100%,100%,100%);fill-opacity:1;" d="M 73.730469 42.761719 C 73.730469 44.761719 72.105469 45.988281 70.09375 45.988281 C 68.085938 45.988281 66.175781 44.140625 66.175781 42.136719 C 66.175781 40.136719 68.085938 38.742188 70.09375 38.742188 C 72.105469 38.742188 73.730469 40.761719 73.730469 42.761719 "/>
<path style=" stroke:none;fill-rule:nonzero;fill:rgb(10.978699%,5.488586%,6.269836%);fill-opacity:1;" d="M 66.175781 42.136719 C 66.175781 42.136719 66.171875 42.089844 66.164062 42.007812 C 66.164062 41.921875 66.132812 41.796875 66.15625 41.632812 C 66.164062 41.464844 66.199219 41.265625 66.25 41.039062 C 66.316406 40.816406 66.402344 40.5625 66.554688 40.3125 C 66.707031 40.066406 66.890625 39.800781 67.140625 39.578125 C 67.382812 39.34375 67.664062 39.121094 67.992188 38.953125 C 68.316406 38.773438 68.671875 38.632812 69.046875 38.546875 C 69.429688 38.449219 69.808594 38.410156 70.226562 38.417969 L 70.503906 38.441406 L 70.816406 38.5 C 71.019531 38.546875 71.207031 38.609375 71.390625 38.6875 C 71.761719 38.828125 72.074219 39.066406 72.355469 39.300781 C 72.636719 39.542969 72.863281 39.816406 73.054688 40.09375 C 73.242188 40.367188 73.382812 40.648438 73.484375 40.914062 C 73.59375 41.179688 73.65625 41.4375 73.695312 41.664062 C 73.734375 41.890625 73.753906 42.085938 73.757812 42.25 C 73.773438 42.414062 73.742188 42.542969 73.742188 42.628906 C 73.734375 42.714844 73.730469 42.761719 73.730469 42.761719 C 73.730469 42.761719 73.703125 42.574219 73.628906 42.265625 C 73.566406 41.957031 73.398438 41.535156 73.140625 41.078125 C 72.882812 40.621094 72.488281 40.140625 71.988281 39.753906 C 71.730469 39.5625 71.453125 39.394531 71.144531 39.277344 C 71 39.21875 70.832031 39.167969 70.683594 39.136719 L 70.457031 39.09375 L 70.183594 39.082031 C 69.871094 39.066406 69.511719 39.089844 69.191406 39.164062 C 68.863281 39.238281 68.542969 39.328125 68.253906 39.472656 C 67.964844 39.605469 67.695312 39.765625 67.464844 39.945312 C 67.226562 40.125 67.035156 40.328125 66.871094 40.523438 C 66.707031 40.726562 66.582031 40.933594 66.480469 41.125 C 66.390625 41.320312 66.320312 41.496094 66.285156 41.648438 C 66.234375 41.796875 66.21875 41.925781 66.199219 42.007812 C 66.183594 42.09375 66.175781 42.136719 66.175781 42.136719 "/>
<path style=" stroke:none;fill-rule:nonzero;fill:rgb(36.468506%,20.779419%,13.328552%);fill-opacity:1;" d="M 72.140625 43.582031 C 72.140625 44.535156 71.363281 45.308594 70.40625 45.308594 C 69.449219 45.308594 68.675781 44.535156 68.675781 43.582031 C 68.675781 42.628906 69.449219 41.855469 70.40625 41.855469 C 71.363281 41.855469 72.140625 42.628906 72.140625 43.582031 "/>
<path style=" stroke:none;fill-rule:nonzero;fill:rgb(100%,100%,100%);fill-opacity:1;" d="M 79.128906 42.761719 C 79.128906 44.761719 80.753906 45.988281 82.761719 45.988281 C 84.773438 45.988281 86.6875 44.140625 86.6875 42.136719 C 86.6875 40.136719 84.773438 38.742188 82.761719 38.742188 C 80.753906 38.742188 79.128906 40.761719 79.128906 42.761719 "/>
<path style=" stroke:none;fill-rule:nonzero;fill:rgb(10.978699%,5.488586%,6.269836%);fill-opacity:1;" d="M 86.6875 42.136719 C 86.6875 42.136719 86.675781 42.09375 86.660156 42.007812 C 86.640625 41.925781 86.625 41.796875 86.574219 41.648438 C 86.539062 41.496094 86.46875 41.320312 86.378906 41.125 C 86.277344 40.933594 86.152344 40.726562 85.988281 40.523438 C 85.820312 40.328125 85.628906 40.125 85.394531 39.945312 C 85.164062 39.765625 84.890625 39.605469 84.601562 39.472656 C 84.3125 39.328125 83.996094 39.238281 83.667969 39.164062 C 83.347656 39.089844 82.988281 39.066406 82.675781 39.082031 L 82.398438 39.09375 L 82.175781 39.136719 C 82.023438 39.171875 81.859375 39.21875 81.714844 39.277344 C 81.40625 39.394531 81.125 39.5625 80.871094 39.753906 C 80.367188 40.140625 79.972656 40.621094 79.714844 41.078125 C 79.457031 41.535156 79.289062 41.957031 79.230469 42.265625 C 79.15625 42.574219 79.128906 42.761719 79.128906 42.761719 C 79.128906 42.761719 79.125 42.714844 79.117188 42.628906 C 79.117188 42.542969 79.085938 42.414062 79.101562 42.25 C 79.101562 42.085938 79.121094 41.890625 79.160156 41.664062 C 79.203125 41.4375 79.265625 41.179688 79.371094 40.914062 C 79.476562 40.648438 79.617188 40.367188 79.804688 40.09375 C 79.992188 39.816406 80.21875 39.542969 80.5 39.300781 C 80.785156 39.066406 81.09375 38.828125 81.46875 38.6875 C 81.648438 38.609375 81.839844 38.550781 82.042969 38.5 L 82.355469 38.441406 L 82.632812 38.417969 C 83.050781 38.410156 83.429688 38.449219 83.8125 38.546875 C 84.1875 38.632812 84.542969 38.773438 84.867188 38.953125 C 85.195312 39.121094 85.476562 39.34375 85.71875 39.578125 C 85.96875 39.800781 86.152344 40.066406 86.304688 40.3125 C 86.453125 40.5625 86.542969 40.8125 86.609375 41.039062 C 86.660156 41.265625 86.695312 41.464844 86.703125 41.632812 C 86.726562 41.796875 86.695312 41.921875 86.691406 42.007812 C 86.6875 42.089844 86.6875 42.136719 86.6875 42.136719 "/>
<path style=" stroke:none;fill-rule:nonzero;fill:rgb(36.468506%,20.779419%,13.328552%);fill-opacity:1;" d="M 80.71875 43.582031 C 80.71875 44.535156 81.492188 45.308594 82.449219 45.308594 C 83.410156 45.308594 84.183594 44.535156 84.183594 43.582031 C 84.183594 42.628906 83.410156 41.855469 82.449219 41.855469 C 81.492188 41.855469 80.71875 42.628906 80.71875 43.582031 "/>
<path style=" stroke:none;fill-rule:nonzero;fill:rgb(10.978699%,5.488586%,6.269836%);fill-opacity:1;" d="M 65.105469 35.453125 L 65.351562 37.609375 L 73.359375 36.59375 L 73.148438 33.832031 L 65.105469 35.453125 "/>
<path style=" stroke:none;fill-rule:nonzero;fill:rgb(10.978699%,5.488586%,6.269836%);fill-opacity:1;" d="M 88.257812 35.363281 L 88.011719 37.519531 L 80 36.503906 L 80.214844 33.742188 L 88.257812 35.363281 "/>
<path style=" stroke:none;fill-rule:nonzero;fill:rgb(38.038635%,21.958923%,16.079712%);fill-opacity:1;" d="M 77.28125 50.390625 C 77.28125 50.390625 78.007812 54.210938 74.554688 54.632812 C 74.554688 54.632812 78.902344 55.863281 79.117188 53.277344 C 79.171875 52.589844 79.117188 51.492188 77.28125 50.390625 "/>
<path style=" stroke:none;fill-rule:nonzero;fill:rgb(10.978699%,5.488586%,6.269836%);fill-opacity:1;" d="M 57.527344 20.886719 C 57.527344 20.886719 54.355469 34.132812 61.238281 45.308594 C 61.238281 45.308594 63.988281 37.941406 63.21875 33.742188 C 63.21875 33.742188 62.796875 28.441406 64.160156 26.910156 C 64.160156 26.910156 66.105469 25.164062 70.40625 26.589844 C 70.40625 26.589844 75.261719 30.453125 88.558594 26.855469 C 88.558594 26.855469 89.976562 32.863281 89.722656 34.132812 C 89.464844 35.402344 89.433594 44.261719 90.773438 45.308594 C 90.773438 45.308594 95.046875 31.472656 93.308594 20.886719 C 93.308594 20.886719 74.414062 14.03125 57.527344 20.886719 "/>
<path style=" stroke:none;fill-rule:nonzero;fill:rgb(29.40979%,15.289307%,9.799194%);fill-opacity:1;" d="M 63.84375 27.390625 L 63.847656 27.394531 L 63.859375 27.371094 Z M 63.84375 27.390625 "/>
<path style=" stroke:none;fill-rule:nonzero;fill:rgb(27.449036%,49.409485%,28.239441%);fill-opacity:1;" d="M 69.230469 120.503906 L 65.105469 120.503906 L 65.105469 82.808594 L 69.230469 82.808594 L 69.230469 120.503906 "/>
<path style=" stroke:none;fill-rule:nonzero;fill:rgb(27.449036%,49.409485%,28.239441%);fill-opacity:1;" d="M 87.148438 120.503906 L 83.019531 120.503906 L 83.019531 82.808594 L 87.148438 82.808594 L 87.148438 120.503906 "/>
<path style=" stroke:none;fill-rule:nonzero;fill:rgb(19.999695%,42.349243%,54.119873%);fill-opacity:1;" d="M 69.96875 203.375 L 62.425781 203.375 L 61.089844 143.261719 L 71.0625 143.261719 L 69.96875 203.375 "/>
<path style=" stroke:none;fill-rule:nonzero;fill:rgb(27.449036%,49.409485%,28.239441%);fill-opacity:1;" d="M 90.460938 125.9375 L 87.148438 99.789062 L 65.210938 99.789062 L 61.894531 125.9375 L 60.257812 125.9375 L 60.257812 144.960938 C 60.257812 146.324219 60.597656 147.605469 61.1875 148.734375 L 62.183594 203.375 L 69.726562 203.375 L 70.839844 153.109375 L 81.207031 153.109375 L 82.117188 203.375 L 89.664062 203.375 L 90.878906 148.605469 C 91.429688 147.507812 91.75 146.273438 91.75 144.960938 L 91.75 125.9375 L 90.460938 125.9375 "/>
<path style=" stroke:none;fill-rule:nonzero;fill:rgb(22.349548%,38.42926%,23.529053%);fill-opacity:1;" d="M 84.503906 191.714844 L 82.0625 191.714844 L 81.398438 153.109375 C 81.398438 153.109375 85.710938 151.980469 87.136719 151.300781 L 84.503906 191.714844 "/>
<path style=" stroke:none;fill-rule:nonzero;fill:rgb(20.779419%,37.649536%,21.179199%);fill-opacity:1;" d="M 67.738281 114.308594 C 67.738281 118.859375 71.4375 122.542969 76.003906 122.542969 C 80.566406 122.542969 84.265625 118.859375 84.265625 114.308594 L 84.265625 106.75 L 67.738281 106.75 L 67.738281 114.308594 "/>
<path style=" stroke:none;fill-rule:nonzero;fill:rgb(16.079712%,27.839661%,15.289307%);fill-opacity:1;" d="M 85.082031 109.074219 L 67.167969 109.074219 L 66.628906 106.132812 L 85.605469 105.335938 L 85.082031 109.074219 "/>
<path style=" stroke:none;fill-rule:nonzero;fill:rgb(40.779114%,30.589294%,20.779419%);fill-opacity:1;" d="M 59.214844 180.167969 C 59.214844 180.167969 65.871094 177.480469 72.351562 179.96875 L 70.5625 208.46875 C 70.5625 208.46875 72.714844 215.945312 71.515625 217.257812 C 71.515625 217.257812 61.089844 222.480469 55.398438 217.074219 C 55.398438 217.074219 52.9375 213.792969 60.507812 208.300781 L 59.214844 180.167969 "/>
<path style=" stroke:none;fill-rule:nonzero;fill:rgb(75.289917%,67.059326%,58.428955%);fill-opacity:1;" d="M 71.695312 216.53125 L 71.644531 216.550781 C 71.144531 216.78125 66.65625 218.671875 62.214844 218.667969 C 60.964844 218.667969 59.722656 218.515625 58.574219 218.15625 C 57.429688 217.796875 56.375 217.226562 55.472656 216.371094 C 55.207031 216.117188 54.789062 216.128906 54.535156 216.394531 C 54.28125 216.65625 54.292969 217.074219 54.558594 217.328125 C 55.621094 218.339844 56.867188 219.007812 58.175781 219.417969 C 59.484375 219.828125 60.863281 219.988281 62.214844 219.988281 C 64.777344 219.988281 67.269531 219.421875 69.132812 218.863281 C 70.996094 218.300781 72.226562 217.742188 72.246094 217.734375 C 72.578125 217.582031 72.726562 217.191406 72.574219 216.859375 C 72.421875 216.523438 72.027344 216.378906 71.695312 216.53125 "/>
<path style=" stroke:none;fill-rule:nonzero;fill:rgb(40.779114%,30.589294%,20.779419%);fill-opacity:1;" d="M 92.535156 180.164062 C 92.535156 180.164062 85.882812 177.476562 79.40625 179.96875 L 81.191406 208.46875 C 81.191406 208.46875 79.039062 215.941406 80.238281 217.257812 C 80.238281 217.257812 90.664062 222.476562 96.355469 217.074219 C 96.355469 217.074219 98.816406 213.789062 91.242188 208.296875 L 92.535156 180.164062 "/>
<path style=" stroke:none;fill-rule:nonzero;fill:rgb(75.289917%,67.059326%,58.428955%);fill-opacity:1;" d="M 79.507812 217.734375 C 79.527344 217.738281 80.757812 218.300781 82.621094 218.863281 C 84.484375 219.421875 86.976562 219.984375 89.539062 219.984375 C 90.890625 219.984375 92.269531 219.828125 93.578125 219.417969 C 94.886719 219.007812 96.132812 218.335938 97.195312 217.328125 C 97.460938 217.074219 97.472656 216.65625 97.21875 216.390625 C 96.964844 216.125 96.546875 216.117188 96.28125 216.367188 C 95.378906 217.222656 94.328125 217.792969 93.179688 218.15625 C 92.03125 218.515625 90.789062 218.664062 89.539062 218.664062 C 87.171875 218.664062 84.785156 218.132812 83.007812 217.59375 C 82.113281 217.328125 81.371094 217.058594 80.855469 216.859375 C 80.597656 216.757812 80.394531 216.675781 80.261719 216.617188 C 80.191406 216.585938 80.140625 216.5625 80.105469 216.550781 L 80.058594 216.527344 C 79.726562 216.375 79.332031 216.523438 79.179688 216.855469 C 79.027344 217.1875 79.175781 217.582031 79.507812 217.734375 "/>
<path style=" stroke:none;fill-rule:nonzero;fill:rgb(10.978699%,5.488586%,6.269836%);fill-opacity:1;" d="M 67.511719 65.128906 C 66.695312 62.816406 65.519531 58.828125 66.175781 56.601562 C 66.175781 56.601562 69.667969 54.296875 75.417969 56.601562 L 75.75 56.601562 C 81.496094 54.296875 84.992188 56.601562 84.992188 56.601562 C 85.691406 58.980469 84.296875 63.378906 83.496094 65.582031 C 76.78125 67.480469 70.238281 65.960938 67.511719 65.128906 Z M 89.949219 42.632812 C 89.949219 49.117188 89.644531 53.667969 89.21875 56.867188 C 89.113281 56.378906 88.964844 55.910156 88.738281 55.492188 C 86.960938 52.1875 77.980469 54.660156 75.582031 55.390625 C 73.179688 54.660156 64.207031 52.1875 62.425781 55.492188 C 61.679688 49.929688 61.714844 43.914062 61.714844 43.914062 L 61.003906 43.582031 C 61.003906 43.582031 59.503906 62.234375 61.089844 67.394531 C 62.777344 72.886719 75.628906 73.5 75.628906 73.5 C 89.160156 73.769531 89.949219 68.546875 89.949219 68.546875 C 90.972656 66.304688 91 43.582031 91 43.582031 L 89.949219 42.632812 "/>
<path style=" stroke:none;fill-rule:nonzero;fill:rgb(100%,100%,100%);fill-opacity:1;" d="M 70.457031 57.546875 L 80.910156 57.546875 C 80.910156 57.546875 80.554688 61.929688 75.679688 62.097656 C 75.679688 62.097656 70.519531 62.105469 70.457031 57.546875 "/>
<path style=" stroke:none;fill-rule:nonzero;fill:rgb(87.449646%,27.839661%,15.289307%);fill-opacity:1;" d="M 93.207031 157.269531 C 95.75 156.160156 97.097656 153.941406 97.769531 152.339844 C 96.769531 151.007812 95.71875 150.59375 95.46875 150.511719 C 95.152344 151.660156 95.089844 152.941406 95.757812 154.039062 C 95.992188 154.421875 95.871094 154.917969 95.480469 155.15625 C 95.351562 155.234375 95.203125 155.273438 95.058594 155.273438 C 94.78125 155.273438 94.511719 155.132812 94.359375 154.878906 C 92.96875 152.589844 93.757812 149.945312 94.609375 148.199219 C 95.097656 146.28125 97 143.980469 97 143.980469 L 94.957031 133.292969 C 101.117188 128.40625 106.359375 133.957031 106.359375 133.957031 L 102.328125 144.621094 C 102.714844 145.589844 102.972656 146.488281 103.121094 147.316406 C 103.550781 148.832031 104.398438 153.078125 101.75 156.738281 C 101.589844 156.957031 101.339844 157.074219 101.085938 157.074219 C 100.921875 157.074219 100.75 157.027344 100.609375 156.921875 C 100.445312 156.800781 100.34375 156.628906 100.300781 156.449219 C 100.042969 156.792969 99.769531 157.128906 99.445312 157.453125 C 99.285156 157.609375 99.074219 157.691406 98.863281 157.691406 C 98.65625 157.691406 98.449219 157.613281 98.289062 157.453125 C 98.199219 157.367188 98.140625 157.265625 98.101562 157.15625 C 97.710938 157.570312 97.277344 157.96875 96.777344 158.335938 C 96.628906 158.4375 96.464844 158.492188 96.292969 158.492188 C 96.042969 158.492188 95.792969 158.375 95.632812 158.15625 C 95.5625 158.058594 95.523438 157.953125 95.496094 157.84375 C 95.007812 158.1875 94.464844 158.496094 93.867188 158.761719 C 93.757812 158.808594 93.648438 158.832031 93.535156 158.832031 C 93.222656 158.832031 92.921875 158.648438 92.789062 158.34375 C 92.605469 157.933594 92.792969 157.453125 93.207031 157.269531 "/>
<path style=" stroke:none;fill-rule:nonzero;fill:rgb(20.779419%,10.198975%,7.839966%);fill-opacity:1;" d="M 70.03125 154.230469 L 185.882812 154.128906 C 185.882812 154.128906 186.769531 151.136719 183.109375 150.457031 C 183.109375 150.457031 185.09375 148.617188 181.445312 148.550781 C 181.445312 148.550781 181.96875 145.011719 176.664062 145.078125 C 176.664062 145.078125 179.597656 142.222656 172.636719 142.085938 C 172.636719 142.085938 174.265625 140.113281 169.082031 140.042969 C 169.082031 140.042969 169.710938 137.796875 165.796875 137.796875 C 165.796875 137.796875 164.671875 135.347656 157.722656 136.234375 C 157.722656 136.234375 158.097656 134.464844 153.933594 134.738281 C 153.933594 134.738281 154.058594 132.015625 147.867188 132.761719 C 147.867188 132.761719 145.789062 129.632812 139.945312 131.878906 C 139.945312 131.878906 135.867188 130.382812 133.46875 132.898438 C 133.46875 132.898438 128.75 131.199219 127 134.054688 C 127 134.054688 124.417969 132.421875 119.65625 135.347656 C 119.65625 135.347656 114.027344 133.785156 112.3125 137.1875 C 112.3125 137.1875 108.960938 136.300781 106.9375 138.820312 C 106.9375 138.820312 104.972656 138.207031 104.183594 140.042969 C 104.183594 140.042969 99.601562 138.003906 98.464844 141.949219 C 98.464844 141.949219 93.664062 141.40625 93.917969 143.992188 C 93.917969 143.992188 90.074219 144.058594 90.292969 145.417969 C 90.292969 145.417969 84.570312 144.875 84.445312 147.460938 C 84.445312 147.460938 81.523438 146.191406 80.773438 148.5625 C 80.773438 148.5625 76.171875 148.246094 77.085938 150.660156 C 77.085938 150.660156 68.507812 149.769531 70.03125 154.230469 "/>
<path style=" stroke:none;fill-rule:nonzero;fill:rgb(23.139954%,29.019165%,33.729553%);fill-opacity:1;" d="M 77.085938 172.535156 C 76.367188 172.535156 75.679688 172.113281 75.378906 171.410156 L 65.261719 147.816406 L 44.960938 142.8125 C 43.964844 142.570312 43.359375 141.566406 43.605469 140.574219 C 43.851562 139.585938 44.855469 138.976562 45.851562 139.222656 L 67.050781 144.445312 C 67.617188 144.585938 68.085938 144.980469 68.3125 145.515625 L 78.792969 169.957031 C 79.195312 170.898438 78.757812 171.984375 77.816406 172.386719 C 77.578125 172.484375 77.328125 172.535156 77.085938 172.535156 "/>
<path style=" stroke:none;fill-rule:nonzero;fill:rgb(13.729858%,18.429565%,21.569824%);fill-opacity:1;" d="M 119.074219 210.183594 C 118.496094 210.183594 117.949219 209.882812 117.636719 209.378906 L 102.742188 185.171875 C 102.253906 184.378906 102.503906 183.339844 103.296875 182.855469 C 104.09375 182.371094 105.136719 182.617188 105.625 183.410156 L 118.414062 204.199219 L 123.511719 183.882812 C 123.738281 182.980469 124.652344 182.429688 125.5625 182.660156 C 126.46875 182.882812 127.015625 183.796875 126.792969 184.699219 L 120.71875 208.90625 C 120.550781 209.566406 120.003906 210.058594 119.332031 210.164062 C 119.246094 210.175781 119.160156 210.183594 119.074219 210.183594 "/>
<path style=" stroke:none;fill-rule:nonzero;fill:rgb(13.729858%,18.429565%,21.569824%);fill-opacity:1;" d="M 158.175781 204.257812 C 157.488281 204.257812 156.824219 203.875 156.503906 203.214844 L 145.578125 180.761719 L 83.148438 180.761719 C 82.121094 180.761719 81.292969 179.933594 81.292969 178.910156 C 81.292969 177.890625 82.121094 177.0625 83.148438 177.0625 L 147.902344 177.0625 L 159.84375 201.601562 C 160.292969 202.519531 159.90625 203.625 158.984375 204.070312 C 158.722656 204.195312 158.449219 204.257812 158.175781 204.257812 "/>
<g clip-path="url(#clip2)" clip-rule="nonzero">
<path style=" stroke:none;fill-rule:nonzero;fill:rgb(5.879211%,7.449341%,8.239746%);fill-opacity:1;" d="M 168.226562 224.953125 C 175.527344 224.953125 181.445312 216.71875 181.445312 206.558594 C 181.445312 196.402344 175.527344 188.167969 168.226562 188.167969 L 160.082031 188.167969 L 158.175781 224.871094 L 168.226562 224.953125 "/>
</g>
<g clip-path="url(#clip3)" clip-rule="nonzero">
<path style=" stroke:none;fill-rule:nonzero;fill:rgb(13.729858%,18.429565%,21.569824%);fill-opacity:1;" d="M 172.636719 206.558594 C 172.636719 216.71875 166.714844 224.953125 159.414062 224.953125 C 152.117188 224.953125 146.195312 216.71875 146.195312 206.558594 C 146.195312 196.402344 152.117188 188.167969 159.414062 188.167969 C 166.714844 188.167969 172.636719 196.402344 172.636719 206.558594 "/>
</g>
<path style=" stroke:none;fill-rule:nonzero;fill:rgb(59.21936%,67.059326%,66.668701%);fill-opacity:1;" d="M 165.796875 206.558594 C 165.796875 214.054688 162.1875 220.128906 157.730469 220.128906 C 153.277344 220.128906 149.664062 214.054688 149.664062 206.558594 C 149.664062 199.066406 153.277344 192.992188 157.730469 192.992188 C 162.1875 192.992188 165.796875 199.066406 165.796875 206.558594 "/>
<path style=" stroke:none;fill-rule:nonzero;fill:rgb(23.139954%,29.019165%,33.729553%);fill-opacity:1;" d="M 155.792969 207.894531 C 155.40625 207.894531 155.023438 207.777344 154.691406 207.53125 L 125.40625 185.984375 L 86.480469 185.984375 C 85.457031 185.984375 84.625 185.152344 84.625 184.132812 C 84.625 183.109375 85.457031 182.285156 86.480469 182.285156 L 126.628906 182.285156 L 156.894531 204.558594 C 157.722656 205.164062 157.894531 206.324219 157.285156 207.144531 C 156.921875 207.636719 156.359375 207.894531 155.792969 207.894531 "/>
<path style=" stroke:none;fill-rule:nonzero;fill:rgb(43.139648%,53.729248%,54.119873%);fill-opacity:1;" d="M 72.035156 154.230469 C 69.058594 154.230469 67.679688 156.414062 68.960938 159.085938 L 77.957031 177.851562 C 79.238281 180.523438 82.71875 182.707031 85.691406 182.707031 L 162.222656 182.707031 C 165.191406 182.707031 169.089844 180.777344 170.878906 178.414062 L 185.964844 158.523438 C 187.75 156.160156 185.066406 153.289062 182.09375 153.289062 L 72.035156 154.230469 "/>
<path style=" stroke:none;fill-rule:nonzero;fill:rgb(59.21936%,67.059326%,66.668701%);fill-opacity:1;" d="M 140.945312 154.230469 L 72.035156 154.230469 C 69.058594 154.230469 67.679688 156.414062 68.960938 159.085938 L 77.957031 177.851562 C 79.238281 180.523438 82.71875 182.707031 85.691406 182.707031 L 124.433594 182.707031 L 140.945312 154.230469 "/>
<g clip-path="url(#clip4)" clip-rule="nonzero">
<path style=" stroke:none;fill-rule:nonzero;fill:rgb(59.21936%,67.059326%,66.668701%);fill-opacity:1;" d="M 190.332031 155.179688 C 190.332031 156.882812 188.945312 158.261719 187.234375 158.261719 L 67.664062 158.261719 C 65.953125 158.261719 64.570312 156.882812 64.570312 155.179688 C 64.570312 153.476562 65.953125 152.09375 67.664062 152.09375 L 187.234375 152.09375 C 188.945312 152.09375 190.332031 153.476562 190.332031 155.179688 "/>
</g>
<g clip-path="url(#clip5)" clip-rule="nonzero">
<path style=" stroke:none;fill-rule:nonzero;fill:rgb(34.899902%,43.139648%,44.309998%);fill-opacity:1;" d="M 187.234375 152.09375 L 142.691406 152.09375 L 142.691406 152.171875 L 142.753906 152.171875 C 145.925781 152.171875 146.460938 156.230469 144.367188 157.617188 C 143.941406 157.972656 143.386719 158.203125 142.691406 158.242188 L 142.691406 158.261719 L 187.234375 158.261719 C 188.945312 158.261719 190.332031 156.882812 190.332031 155.179688 C 190.332031 153.476562 188.945312 152.09375 187.234375 152.09375 "/>
</g>
<path style=" stroke:none;fill-rule:nonzero;fill:rgb(23.139954%,29.019165%,33.729553%);fill-opacity:1;" d="M 96.960938 213.195312 C 96.867188 213.195312 96.773438 213.1875 96.679688 213.175781 C 95.941406 213.0625 95.34375 212.515625 95.160156 211.796875 L 88.492188 185.214844 C 88.242188 184.222656 88.847656 183.21875 89.839844 182.972656 C 90.832031 182.726562 91.84375 183.324219 92.09375 184.316406 L 97.691406 206.625 L 111.734375 183.796875 C 112.269531 182.925781 113.410156 182.652344 114.289062 183.1875 C 115.160156 183.722656 115.433594 184.859375 114.898438 185.734375 L 98.542969 212.3125 C 98.203125 212.867188 97.597656 213.195312 96.960938 213.195312 "/>
<path style=" stroke:none;fill-rule:nonzero;fill:rgb(87.449646%,27.839661%,15.289307%);fill-opacity:1;" d="M 56.703125 147.691406 C 54.160156 146.582031 52.8125 144.363281 52.140625 142.761719 C 52.621094 142.121094 53.273438 141.328125 53.648438 141.132812 C 54.417969 141.332031 55.023438 141.480469 55.867188 141.6875 C 55.8125 141.582031 55.351562 138.722656 55.300781 138.621094 C 54.8125 136.699219 52.910156 134.398438 52.910156 134.398438 L 54.949219 123.710938 C 48.789062 118.824219 43.550781 124.375 43.550781 124.375 L 47.582031 135.039062 C 47.195312 136.011719 46.9375 136.910156 46.785156 137.738281 C 46.355469 139.253906 45.511719 143.5 48.160156 147.15625 C 48.320312 147.378906 48.570312 147.496094 48.824219 147.496094 C 48.988281 147.496094 49.15625 147.445312 49.300781 147.339844 C 49.464844 147.222656 49.5625 147.050781 49.609375 146.867188 C 49.867188 147.210938 50.140625 147.546875 50.464844 147.871094 C 50.625 148.03125 50.835938 148.113281 51.046875 148.113281 C 51.253906 148.113281 51.460938 148.035156 51.621094 147.875 C 51.707031 147.789062 51.765625 147.683594 51.808594 147.574219 C 52.199219 147.992188 52.628906 148.390625 53.132812 148.753906 C 53.277344 148.859375 53.449219 148.910156 53.613281 148.910156 C 53.867188 148.910156 54.113281 148.792969 54.273438 148.578125 C 54.347656 148.480469 54.386719 148.375 54.410156 148.265625 C 54.902344 148.605469 55.445312 148.917969 56.042969 149.179688 C 56.152344 149.230469 56.261719 149.25 56.371094 149.25 C 56.6875 149.25 56.988281 149.070312 57.121094 148.765625 C 57.304688 148.351562 57.113281 147.875 56.703125 147.691406 "/>
<path style=" stroke:none;fill-rule:nonzero;fill:rgb(44.709778%,75.689697%,27.449036%);fill-opacity:1;" d="M 116.601562 126.886719 C 116.601562 126.886719 116.796875 120.554688 128.867188 120.839844 C 128.867188 120.839844 126.558594 129.226562 116.601562 126.886719 "/>
<path style=" stroke:none;fill-rule:nonzero;fill:rgb(44.709778%,75.689697%,27.449036%);fill-opacity:1;" d="M 129.433594 104.046875 C 129.433594 104.046875 133.242188 98.972656 142.960938 106.113281 C 142.960938 106.113281 136.234375 111.660156 129.433594 104.046875 "/>
<path style=" stroke:none;fill-rule:nonzero;fill:rgb(44.709778%,75.689697%,27.449036%);fill-opacity:1;" d="M 129.421875 112.921875 C 129.421875 112.921875 133.234375 107.847656 142.953125 114.984375 C 142.953125 114.984375 136.226562 120.535156 129.421875 112.921875 "/>
<path style=" stroke:none;fill-rule:nonzero;fill:rgb(44.709778%,75.689697%,27.449036%);fill-opacity:1;" d="M 129.816406 123.265625 C 129.816406 123.265625 130.015625 116.929688 142.082031 117.214844 C 142.082031 117.214844 139.773438 125.605469 129.816406 123.265625 "/>
<path style=" stroke:none;fill-rule:nonzero;fill:rgb(44.709778%,75.689697%,27.449036%);fill-opacity:1;" d="M 130.101562 128.289062 C 130.101562 128.289062 130.238281 123.871094 138.652344 124.070312 C 138.652344 124.070312 137.042969 129.921875 130.101562 128.289062 "/>
<path style=" stroke:none;fill-rule:nonzero;fill:rgb(39.608765%,65.489197%,24.308777%);fill-opacity:1;" d="M 128.523438 123.265625 C 128.523438 123.265625 128.328125 116.929688 116.257812 117.214844 C 116.257812 117.214844 118.5625 125.605469 128.523438 123.265625 "/>
<path style=" stroke:none;fill-rule:nonzero;fill:rgb(38.038635%,61.959839%,23.139954%);fill-opacity:1;" d="M 128.511719 128.289062 C 128.511719 128.289062 128.371094 123.871094 119.957031 124.070312 C 119.957031 124.070312 121.566406 129.921875 128.511719 128.289062 "/>
<path style=" stroke:none;fill-rule:nonzero;fill:rgb(44.709778%,75.689697%,27.449036%);fill-opacity:1;" d="M 129.816406 104.199219 C 129.816406 104.199219 129.621094 97.867188 117.550781 98.148438 C 117.550781 98.148438 119.859375 106.539062 129.816406 104.199219 "/>
<path style=" stroke:none;fill-rule:nonzero;fill:rgb(44.709778%,75.689697%,27.449036%);fill-opacity:1;" d="M 130.246094 99.859375 C 130.246094 99.859375 131.648438 93.679688 119.894531 90.9375 C 119.894531 90.9375 120.019531 99.636719 130.246094 99.859375 "/>
<path style=" stroke:none;fill-rule:nonzero;fill:rgb(44.709778%,75.689697%,27.449036%);fill-opacity:1;" d="M 131.167969 92.875 C 131.167969 92.875 133.914062 88.300781 125.234375 83.046875 C 125.234375 83.046875 123.050781 90.035156 131.167969 92.875 "/>
<path style=" stroke:none;fill-rule:nonzero;fill:rgb(44.709778%,75.689697%,27.449036%);fill-opacity:1;" d="M 128.449219 112.285156 C 128.449219 112.285156 128.308594 107.867188 119.894531 108.066406 C 119.894531 108.066406 121.503906 113.914062 128.449219 112.285156 "/>
<path style=" stroke:none;fill-rule:nonzero;fill:rgb(36.468506%,59.999084%,22.349548%);fill-opacity:1;" d="M 129.960938 103.015625 C 129.960938 103.015625 129.871094 96.679688 141.941406 96.425781 C 141.941406 96.425781 140.011719 104.910156 129.960938 103.015625 "/>
<path style=" stroke:none;fill-rule:nonzero;fill:rgb(29.798889%,46.669006%,19.999695%);fill-opacity:1;" d="M 129.769531 144.609375 C 129.644531 143.628906 129.53125 142.664062 129.425781 141.691406 C 129.324219 140.71875 129.230469 139.75 129.136719 138.777344 C 128.960938 136.835938 128.808594 134.894531 128.679688 132.949219 C 128.617188 131.976562 128.558594 131.003906 128.507812 130.03125 C 128.457031 129.058594 128.410156 128.085938 128.378906 127.109375 C 128.339844 126.136719 128.3125 125.160156 128.289062 124.1875 C 128.273438 123.214844 128.25 122.238281 128.25 121.265625 C 128.242188 120.289062 128.253906 119.316406 128.261719 118.34375 C 128.28125 117.367188 128.292969 116.390625 128.332031 115.417969 C 128.359375 114.445312 128.417969 113.46875 128.464844 112.496094 C 128.53125 111.519531 128.585938 110.546875 128.675781 109.578125 C 128.753906 108.601562 128.867188 107.632812 128.972656 106.664062 L 129.160156 105.210938 C 129.222656 104.726562 129.308594 104.246094 129.375 103.761719 C 129.449219 103.277344 129.535156 102.800781 129.625 102.320312 C 129.714844 101.839844 129.796875 101.359375 129.910156 100.882812 C 130.015625 100.40625 130.105469 99.925781 130.230469 99.449219 L 130.59375 98.027344 L 130.582031 98.085938 C 130.734375 96.492188 130.859375 94.886719 130.964844 93.285156 C 131.070312 91.679688 131.15625 90.078125 131.214844 88.472656 C 131.273438 86.867188 131.300781 85.257812 131.277344 83.652344 C 131.265625 82.851562 131.242188 82.046875 131.1875 81.246094 C 131.160156 80.84375 131.128906 80.441406 131.089844 80.042969 C 131.042969 79.644531 130.992188 79.246094 130.925781 78.847656 C 131.003906 79.242188 131.070312 79.640625 131.128906 80.039062 C 131.1875 80.4375 131.234375 80.835938 131.273438 81.238281 C 131.351562 82.039062 131.40625 82.84375 131.453125 83.648438 C 131.53125 85.253906 131.558594 86.867188 131.558594 88.476562 C 131.558594 90.085938 131.527344 91.699219 131.476562 93.308594 C 131.425781 94.921875 131.359375 96.527344 131.265625 98.140625 L 131.265625 98.160156 L 131.253906 98.199219 L 130.949219 99.609375 C 130.847656 100.078125 130.773438 100.554688 130.683594 101.03125 C 130.59375 101.5 130.527344 101.980469 130.457031 102.457031 C 130.382812 102.933594 130.3125 103.410156 130.261719 103.886719 C 130.207031 104.367188 130.140625 104.84375 130.097656 105.324219 L 129.960938 106.765625 C 129.890625 107.726562 129.8125 108.6875 129.777344 109.652344 C 129.71875 110.613281 129.699219 111.578125 129.664062 112.546875 C 129.652344 113.507812 129.628906 114.472656 129.636719 115.4375 C 129.632812 116.40625 129.652344 117.371094 129.667969 118.335938 C 129.699219 119.300781 129.71875 120.265625 129.761719 121.230469 C 129.796875 122.195312 129.851562 123.160156 129.902344 124.125 C 129.960938 125.089844 130.019531 126.054688 130.09375 127.015625 C 130.160156 127.980469 130.238281 128.941406 130.324219 129.902344 C 130.410156 130.867188 130.5 131.828125 130.59375 132.789062 C 130.789062 134.710938 131.011719 136.632812 131.257812 138.546875 C 131.378906 139.503906 131.511719 140.460938 131.644531 141.414062 C 131.78125 142.367188 131.925781 143.328125 132.082031 144.265625 L 129.769531 144.609375 "/>
<path style=" stroke:none;fill-rule:nonzero;fill:rgb(44.709778%,75.689697%,27.449036%);fill-opacity:1;" d="M 131.421875 93.605469 C 131.421875 93.605469 130.550781 87.328125 142.5 85.59375 C 142.5 85.59375 141.632812 94.253906 131.421875 93.605469 "/>
<path style=" stroke:none;fill-rule:nonzero;fill:rgb(44.709778%,75.689697%,27.449036%);fill-opacity:1;" d="M 150.007812 129.214844 C 150.007812 129.214844 150.203125 122.878906 162.277344 123.164062 C 162.277344 123.164062 159.96875 131.554688 150.007812 129.214844 "/>
<path style=" stroke:none;fill-rule:nonzero;fill:rgb(44.709778%,75.689697%,27.449036%);fill-opacity:1;" d="M 162.839844 106.375 C 162.839844 106.375 166.648438 101.300781 176.371094 108.4375 C 176.371094 108.4375 169.644531 113.988281 162.839844 106.375 "/>
<path style=" stroke:none;fill-rule:nonzero;fill:rgb(44.709778%,75.689697%,27.449036%);fill-opacity:1;" d="M 162.832031 115.25 C 162.832031 115.25 166.644531 110.175781 176.359375 117.3125 C 176.359375 117.3125 169.632812 122.863281 162.832031 115.25 "/>
<path style=" stroke:none;fill-rule:nonzero;fill:rgb(44.709778%,75.689697%,27.449036%);fill-opacity:1;" d="M 163.226562 125.589844 C 163.226562 125.589844 163.421875 119.257812 175.492188 119.539062 C 175.492188 119.539062 173.183594 127.929688 163.226562 125.589844 "/>
<path style=" stroke:none;fill-rule:nonzero;fill:rgb(44.709778%,75.689697%,27.449036%);fill-opacity:1;" d="M 163.507812 130.613281 C 163.507812 130.613281 163.644531 126.199219 172.0625 126.394531 C 172.0625 126.394531 170.453125 132.246094 163.507812 130.613281 "/>
<path style=" stroke:none;fill-rule:nonzero;fill:rgb(39.608765%,65.489197%,24.308777%);fill-opacity:1;" d="M 161.933594 125.589844 C 161.933594 125.589844 161.734375 119.257812 149.664062 119.539062 C 149.664062 119.539062 151.972656 127.929688 161.933594 125.589844 "/>
<path style=" stroke:none;fill-rule:nonzero;fill:rgb(38.038635%,61.959839%,23.139954%);fill-opacity:1;" d="M 161.917969 130.613281 C 161.917969 130.613281 161.785156 126.199219 153.367188 126.394531 C 153.367188 126.394531 154.976562 132.246094 161.917969 130.613281 "/>
<path style=" stroke:none;fill-rule:nonzero;fill:rgb(44.709778%,75.689697%,27.449036%);fill-opacity:1;" d="M 163.226562 106.527344 C 163.226562 106.527344 163.03125 100.191406 150.957031 100.476562 C 150.957031 100.476562 153.269531 108.867188 163.226562 106.527344 "/>
<path style=" stroke:none;fill-rule:nonzero;fill:rgb(44.709778%,75.689697%,27.449036%);fill-opacity:1;" d="M 163.652344 102.1875 C 163.652344 102.1875 165.058594 96.003906 153.304688 93.261719 C 153.304688 93.261719 153.421875 101.964844 163.652344 102.1875 "/>
<path style=" stroke:none;fill-rule:nonzero;fill:rgb(44.709778%,75.689697%,27.449036%);fill-opacity:1;" d="M 164.578125 95.199219 C 164.578125 95.199219 167.324219 90.628906 158.644531 85.375 C 158.644531 85.375 156.460938 92.359375 164.578125 95.199219 "/>
<path style=" stroke:none;fill-rule:nonzero;fill:rgb(44.709778%,75.689697%,27.449036%);fill-opacity:1;" d="M 161.855469 114.609375 C 161.855469 114.609375 161.71875 110.195312 153.304688 110.390625 C 153.304688 110.390625 154.914062 116.242188 161.855469 114.609375 "/>
<path style=" stroke:none;fill-rule:nonzero;fill:rgb(36.468506%,59.999084%,22.349548%);fill-opacity:1;" d="M 163.367188 105.34375 C 163.367188 105.34375 163.28125 99.007812 175.351562 98.753906 C 175.351562 98.753906 173.421875 107.238281 163.367188 105.34375 "/>
<path style=" stroke:none;fill-rule:nonzero;fill:rgb(29.798889%,46.669006%,19.999695%);fill-opacity:1;" d="M 163.175781 146.933594 C 163.050781 145.953125 162.941406 144.988281 162.835938 144.019531 C 162.734375 143.046875 162.636719 142.074219 162.546875 141.105469 C 162.367188 139.164062 162.210938 137.222656 162.085938 135.277344 C 162.023438 134.304688 161.96875 133.332031 161.914062 132.359375 C 161.863281 131.382812 161.820312 130.410156 161.785156 129.4375 C 161.746094 128.464844 161.722656 127.488281 161.699219 126.515625 C 161.679688 125.539062 161.660156 124.566406 161.660156 123.59375 C 161.648438 122.617188 161.660156 121.640625 161.664062 120.667969 C 161.6875 119.695312 161.703125 118.71875 161.738281 117.742188 C 161.765625 116.769531 161.824219 115.796875 161.871094 114.824219 C 161.9375 113.847656 161.996094 112.875 162.085938 111.902344 C 162.160156 110.933594 162.273438 109.960938 162.378906 108.992188 L 162.570312 107.539062 C 162.628906 107.054688 162.714844 106.574219 162.785156 106.089844 C 162.855469 105.609375 162.945312 105.125 163.035156 104.644531 C 163.121094 104.167969 163.203125 103.683594 163.316406 103.207031 C 163.425781 102.730469 163.515625 102.253906 163.636719 101.777344 L 164 100.355469 L 163.988281 100.410156 C 164.140625 98.820312 164.265625 97.214844 164.371094 95.613281 C 164.480469 94.007812 164.5625 92.40625 164.621094 90.800781 C 164.679688 89.191406 164.710938 87.585938 164.6875 85.980469 C 164.671875 85.175781 164.644531 84.375 164.597656 83.570312 C 164.570312 83.171875 164.535156 82.769531 164.496094 82.371094 C 164.453125 81.972656 164.398438 81.574219 164.332031 81.175781 C 164.410156 81.570312 164.480469 81.964844 164.539062 82.363281 C 164.59375 82.761719 164.640625 83.164062 164.683594 83.5625 C 164.761719 84.367188 164.816406 85.171875 164.855469 85.972656 C 164.941406 87.582031 164.96875 89.191406 164.964844 90.804688 C 164.964844 92.414062 164.9375 94.027344 164.882812 95.636719 C 164.835938 97.246094 164.769531 98.855469 164.675781 100.46875 L 164.671875 100.484375 L 164.664062 100.523438 L 164.355469 101.9375 C 164.253906 102.40625 164.183594 102.882812 164.089844 103.355469 C 164 103.828125 163.933594 104.304688 163.863281 104.78125 C 163.792969 105.257812 163.722656 105.734375 163.667969 106.214844 C 163.617188 106.695312 163.550781 107.171875 163.503906 107.652344 L 163.371094 109.089844 C 163.300781 110.050781 163.222656 111.015625 163.183594 111.976562 C 163.125 112.941406 163.101562 113.90625 163.074219 114.871094 C 163.0625 115.835938 163.035156 116.800781 163.042969 117.765625 C 163.042969 118.730469 163.0625 119.695312 163.078125 120.660156 C 163.101562 121.628906 163.125 122.59375 163.171875 123.558594 C 163.203125 124.519531 163.261719 125.488281 163.308594 126.453125 C 163.371094 127.414062 163.429688 128.378906 163.5 129.34375 C 163.570312 130.308594 163.648438 131.269531 163.734375 132.234375 C 163.816406 133.195312 163.90625 134.15625 164.007812 135.117188 C 164.199219 137.039062 164.421875 138.960938 164.664062 140.871094 C 164.789062 141.832031 164.917969 142.789062 165.054688 143.742188 C 165.191406 144.695312 165.332031 145.652344 165.488281 146.59375 L 163.175781 146.933594 "/>
<path style=" stroke:none;fill-rule:nonzero;fill:rgb(44.709778%,75.689697%,27.449036%);fill-opacity:1;" d="M 164.828125 95.933594 C 164.828125 95.933594 163.960938 89.65625 175.910156 87.921875 C 175.910156 87.921875 175.039062 96.578125 164.828125 95.933594 "/>
</g>
</svg>
