<?xml version="1.0" encoding="UTF-8"?>
<svg xmlns="http://www.w3.org/2000/svg" xmlns:xlink="http://www.w3.org/1999/xlink" width="224.87999pt" height="225pt" viewBox="0 0 224.87999 225" version="1.2">
<g id="surface1">
<path style=" stroke:none;fill-rule:nonzero;fill:rgb(33.729553%,25.878906%,23.529053%);fill-opacity:1;" d="M 53.96875 171.945312 C 53.96875 171.945312 59.34375 170.570312 61.628906 174.664062 C 63.914062 178.757812 65.148438 178.09375 69.335938 178.1875 C 73.523438 178.285156 91.511719 177.234375 93.890625 176.472656 C 96.269531 175.710938 103.578125 171.710938 107.964844 173.808594 C 112.351562 175.902344 111.113281 175.902344 119.773438 177.332031 C 128.433594 178.757812 136.855469 177.234375 140.542969 175.425781 C 144.230469 173.617188 148.96875 177.996094 153.214844 176.855469 C 157.457031 175.710938 164.519531 170.664062 169.363281 173.617188 C 174.207031 176.570312 184.484375 182.949219 183.53125 189.046875 C 182.578125 195.140625 191.335938 200.855469 190.953125 206.761719 C 190.574219 212.664062 204.46875 219.523438 197.425781 221.425781 C 190.382812 223.332031 171.808594 218.761719 153.214844 221.425781 C 134.617188 224.09375 144.894531 224.09375 112.921875 222.378906 C 80.945312 220.664062 72.382812 224.472656 52.777344 222.949219 C 33.175781 221.425781 34.699219 224.765625 28.605469 219.242188 C 22.515625 213.71875 32.78125 201.902344 37.921875 195.734375 C 43.058594 189.566406 38.597656 188.761719 39.335938 182.042969 C 40.074219 175.332031 48.246094 171.238281 53.96875 171.945312 "/>
<path style=" stroke:none;fill-rule:nonzero;fill:rgb(90.589905%,51.759338%,25.878906%);fill-opacity:1;" d="M 97.457031 151.027344 C 97.457031 150.976562 110.019531 168.726562 110.019531 168.726562 C 110.019531 168.726562 120.535156 182.121094 119.84375 182.789062 C 119.15625 183.457031 71.480469 184.691406 71.765625 184.21875 C 72.050781 183.742188 99.074219 171.742188 99.074219 171.742188 L 88.796875 154.121094 L 97.457031 151.027344 "/>
<path style=" stroke:none;fill-rule:nonzero;fill:rgb(90.589905%,51.759338%,25.878906%);fill-opacity:1;" d="M 140.042969 151.027344 C 140.042969 151.027344 133.429688 182.40625 131.859375 184.503906 C 134.667969 185.933594 154.078125 184.027344 154.078125 184.027344 C 154.078125 184.027344 144.847656 169.265625 144.277344 167.550781 C 143.707031 165.835938 147.257812 151.027344 147.257812 151.027344 L 140.042969 151.027344 "/>
<path style=" stroke:none;fill-rule:nonzero;fill:rgb(48.629761%,16.079712%,19.999695%);fill-opacity:1;" d="M 89.367188 123.929688 C 89.367188 123.929688 108.78125 149.644531 114.492188 153.503906 C 120.203125 157.359375 144.753906 154.503906 146.753906 152.359375 C 148.75 150.214844 150.320312 110.789062 150.320312 110.789062 L 94.652344 112.644531 L 89.367188 123.929688 "/>
<path style=" stroke:none;fill-rule:nonzero;fill:rgb(62.348938%,20.388794%,25.489807%);fill-opacity:1;" d="M 110.78125 112.359375 C 110.351562 112.359375 76.949219 89.929688 72.8125 86.929688 C 68.671875 83.933594 58.820312 81.789062 56.679688 82.074219 C 54.539062 82.359375 50.542969 97.644531 50.542969 99.789062 C 50.542969 101.933594 78.09375 148.929688 76.808594 154.789062 C 80.234375 157.359375 104.214844 160.007812 104.214844 159.042969 C 104.214844 158.074219 93.507812 128.933594 90.511719 123.929688 C 87.511719 118.933594 116.347656 121.789062 116.347656 121.789062 L 110.78125 112.359375 "/>
<path style=" stroke:none;fill-rule:nonzero;fill:rgb(48.629761%,16.079712%,19.999695%);fill-opacity:1;" d="M 89.441406 116.527344 C 89.527344 113.507812 89.671875 110.226562 89.058594 107.328125 C 88.929688 106.714844 88.171875 106.851562 88.105469 107.433594 C 87.878906 109.46875 88.003906 111.640625 88.21875 113.773438 C 87.761719 112.828125 87.289062 111.910156 86.824219 111.035156 C 84.828125 107.253906 82.300781 102.621094 78.839844 100.019531 C 78.347656 99.652344 77.917969 100.425781 78.164062 100.835938 C 80.300781 104.4375 83.234375 107.5 85.28125 111.214844 C 87.445312 115.152344 88.519531 119.472656 90.488281 123.445312 C 90.699219 123.875 91.207031 123.566406 91.175781 123.167969 C 91.007812 120.964844 90.328125 118.707031 89.441406 116.527344 "/>
<path style=" stroke:none;fill-rule:nonzero;fill:rgb(75.289917%,72.158813%,50.588989%);fill-opacity:1;" d="M 96.078125 86.644531 C 96.078125 86.644531 104.214844 101.21875 104.785156 104.214844 C 105.355469 107.21875 100.707031 106.21875 100.175781 107.359375 C 99.648438 108.503906 106.082031 114.074219 106.082031 114.074219 C 106.082031 114.074219 101.5625 116.929688 100.175781 119.503906 C 98.789062 122.074219 116.207031 134.789062 123.484375 134.644531 C 130.765625 134.503906 145.199219 99.929688 145.546875 93.074219 C 145.894531 86.21875 134.335938 60.824219 134.335938 60.824219 L 78.753906 74.515625 L 96.078125 86.644531 "/>
<path style=" stroke:none;fill-rule:nonzero;fill:rgb(89.7995%,85.879517%,58.428955%);fill-opacity:1;" d="M 135.277344 62.445312 C 135.277344 62.445312 131.261719 85.644531 129.371094 90.074219 C 127.480469 94.5 138.902344 101.21875 138.902344 101.21875 C 138.902344 101.21875 112.535156 133.503906 111.585938 133.789062 C 114.777344 136.644531 126.769531 148.503906 127.195312 148.789062 C 127.625 149.074219 142.609375 125.503906 146.753906 120.929688 C 150.890625 116.359375 158.753906 83.066406 158.753906 83.066406 C 158.753906 83.066406 150.179688 62.074219 140.898438 56.5 C 138.472656 55.644531 135.277344 62.445312 135.277344 62.445312 "/>
<path style=" stroke:none;fill-rule:nonzero;fill:rgb(89.7995%,85.879517%,58.428955%);fill-opacity:1;" d="M 75.238281 69.503906 C 75.238281 69.503906 70.957031 80.929688 68.671875 83.929688 C 66.386719 86.929688 72.097656 125.644531 71.953125 126.929688 C 71.8125 128.21875 85.65625 122.929688 86.941406 124.359375 C 87.941406 122.929688 86.515625 98.074219 85.515625 96.359375 C 84.515625 94.644531 98.992188 90.359375 100.175781 89.644531 C 101.359375 88.929688 86.625 78.933594 83.355469 74.789062 C 80.089844 70.644531 75.238281 69.503906 75.238281 69.503906 "/>
<path style=" stroke:none;fill-rule:nonzero;fill:rgb(97.648621%,67.059326%,19.60907%);fill-opacity:1;" d="M 110.972656 8.6875 C 109.457031 8.277344 64.722656 2.972656 58.824219 28.683594 C 52.921875 54.398438 67.007812 81.449219 105.261719 78.210938 C 143.515625 74.972656 148.277344 55.480469 144.46875 43.226562 C 140.664062 30.972656 127.910156 13.257812 110.972656 8.6875 "/>
<path style=" stroke:none;fill-rule:nonzero;fill:rgb(85.879517%,49.798584%,18.03894%);fill-opacity:1;" d="M 129.960938 50.539062 C 128.347656 47.8125 126.648438 45.140625 124.960938 42.53125 C 123.519531 40.300781 122.003906 38.125 120.460938 35.976562 C 121.300781 34.078125 121.742188 31.898438 121.820312 29.511719 C 124.191406 30.871094 126.515625 32.316406 128.75 33.902344 C 129.761719 34.625 130.734375 35.378906 131.6875 36.144531 C 132.144531 41.050781 131.730469 46.035156 129.960938 50.539062 Z M 125.957031 57.1875 C 123.722656 59.75 121.019531 61.734375 118.050781 63.195312 C 117.339844 56.074219 116.226562 48.988281 114.746094 41.980469 C 117.105469 40.792969 118.835938 39.074219 119.992188 36.9375 C 121.351562 38.871094 122.6875 40.8125 123.96875 42.789062 C 125.90625 45.757812 127.660156 48.816406 129.375 51.898438 C 128.496094 53.773438 127.382812 55.554688 125.957031 57.1875 Z M 106.082031 66.300781 C 106.667969 61.4375 107.050781 56.535156 107.460938 51.730469 C 107.683594 49.101562 107.878906 46.46875 108.058594 43.832031 C 109.042969 43.695312 110.007812 43.519531 110.929688 43.320312 C 112.023438 43.078125 113.023438 42.746094 113.941406 42.351562 C 115.308594 49.398438 116.347656 56.492188 117.089844 63.640625 C 113.644531 65.183594 109.878906 66.054688 106.082031 66.300781 Z M 104.957031 66.347656 C 103.59375 66.394531 102.230469 66.371094 100.878906 66.261719 C 98.46875 66.070312 96.078125 65.660156 93.730469 65.074219 C 95.578125 59.628906 97.285156 54.125 99.03125 48.667969 C 99.5625 47.015625 100.089844 45.363281 100.613281 43.710938 C 102.769531 44.203125 105.160156 44.183594 107.476562 43.90625 C 107.273438 46.507812 107.054688 49.109375 106.800781 51.707031 C 106.320312 56.59375 105.609375 61.46875 104.957031 66.347656 Z M 92.898438 64.859375 C 90.636719 64.253906 88.414062 63.496094 86.253906 62.601562 C 83.75 61.566406 81.757812 60.195312 80.140625 58.453125 C 82.878906 54.308594 85.625 50.171875 88.550781 46.152344 C 90.378906 43.636719 92.25 41.160156 94.140625 38.703125 C 95.371094 41.433594 97.578125 42.910156 100.175781 43.597656 C 99.777344 44.890625 99.390625 46.1875 98.972656 47.476562 C 97.097656 53.324219 94.988281 59.089844 92.898438 64.859375 Z M 79.332031 57.492188 C 78.15625 56.011719 77.1875 54.304688 76.386719 52.332031 C 75.078125 49.105469 74.402344 45.691406 74.296875 42.265625 C 77.863281 39.707031 81.566406 37.347656 85.382812 35.132812 C 87.667969 33.8125 90.042969 32.625 92.425781 31.4375 C 92.632812 33.542969 93.078125 35.632812 93.710938 37.613281 C 93.742188 37.714844 93.789062 37.800781 93.824219 37.902344 C 92.03125 40.179688 90.253906 42.46875 88.523438 44.789062 C 85.429688 48.925781 82.292969 53.15625 79.332031 57.492188 Z M 76.167969 30.8125 C 81.601562 29.386719 87.027344 27.933594 92.433594 26.410156 C 92.289062 27.75 92.265625 29.113281 92.347656 30.476562 C 89.457031 31.964844 86.570312 33.464844 83.789062 35.136719 C 80.515625 37.105469 77.351562 39.277344 74.28125 41.574219 C 74.253906 37.910156 74.894531 34.25 76.167969 30.8125 Z M 93.105469 26.214844 C 96.523438 25.246094 99.9375 24.265625 103.339844 23.238281 C 103.425781 23.214844 103.425781 23.054688 103.320312 23.078125 C 99.9375 23.855469 96.558594 24.675781 93.1875 25.515625 C 93.433594 23.664062 93.945312 21.867188 94.769531 20.191406 C 98.746094 20.359375 102.707031 20.847656 106.246094 22.433594 C 106.277344 22.550781 106.316406 22.667969 106.351562 22.78125 C 106.261719 22.886719 106.171875 22.992188 106.078125 23.097656 C 106.105469 22.859375 105.921875 22.585938 105.679688 22.761719 C 101.714844 25.617188 97.386719 27.871094 93.050781 30.113281 C 92.964844 28.808594 92.976562 27.5 93.105469 26.214844 Z M 92.785156 13.246094 C 95.773438 12.367188 98.929688 12.191406 102.195312 13.085938 C 102.339844 13.125 102.441406 12.960938 102.410156 12.84375 C 104.257812 15.648438 106.15625 18.441406 108.351562 20.921875 C 108.515625 21.105469 108.714844 20.84375 108.621094 20.667969 C 107.765625 19.078125 106.800781 17.535156 105.78125 16.023438 C 107.21875 16.210938 108.644531 16.425781 110.058594 16.710938 C 109.792969 17.679688 109.539062 18.640625 109.363281 19.617188 C 109.027344 19.636719 108.742188 19.855469 108.613281 20.410156 C 108.554688 20.667969 108.863281 20.8125 109.042969 20.644531 C 109.101562 20.59375 109.15625 20.554688 109.214844 20.527344 C 109.15625 20.988281 109.117188 21.449219 109.109375 21.925781 C 109.101562 22.371094 109.695312 22.371094 109.707031 21.945312 C 109.722656 21.496094 109.773438 21.054688 109.828125 20.613281 C 109.984375 20.71875 110.132812 20.875 110.273438 21.0625 C 110.179688 21.082031 110.089844 21.101562 110 21.125 C 109.664062 21.195312 109.6875 21.796875 110.066406 21.730469 C 110.253906 21.699219 110.445312 21.667969 110.632812 21.636719 C 110.863281 22.078125 111.023438 22.515625 111.054688 22.707031 C 111.066406 22.804688 111.070312 22.898438 111.070312 22.988281 C 110.597656 22.960938 110.125 22.933594 109.648438 22.910156 C 109.308594 22.890625 109.207031 23.515625 109.574219 23.53125 C 109.695312 23.539062 109.816406 23.550781 109.933594 23.554688 C 109.945312 23.652344 109.988281 23.738281 110.089844 23.78125 C 110.242188 23.839844 110.386719 23.90625 110.539062 23.96875 C 110.476562 24.039062 110.429688 24.128906 110.421875 24.222656 C 110.300781 24.296875 110.171875 24.359375 110.023438 24.398438 C 110.007812 24.40625 109.996094 24.402344 109.984375 24.410156 C 109.878906 24.4375 109.769531 24.453125 109.65625 24.464844 C 108.640625 24.53125 107.9375 23.953125 107.46875 23.179688 C 107.605469 22.878906 107.742188 22.574219 107.890625 22.277344 C 108.289062 22.488281 108.683594 22.703125 109.085938 22.917969 C 109.21875 22.988281 109.335938 22.730469 109.21875 22.648438 C 104.152344 19.042969 98.527344 15.96875 92.785156 13.246094 Z M 110.660156 16.835938 C 111.714844 17.0625 112.757812 17.332031 113.785156 17.65625 C 112.664062 18.441406 111.5625 19.253906 110.453125 20.023438 C 110.445312 20.027344 110.445312 20.03125 110.4375 20.035156 C 110.285156 19.921875 110.121094 19.832031 109.957031 19.757812 C 110.128906 18.773438 110.382812 17.800781 110.660156 16.835938 Z M 111.617188 13.683594 C 115.511719 14.628906 119.359375 15.597656 122.8125 17.800781 C 123.03125 17.941406 123.21875 18.09375 123.429688 18.242188 C 121.953125 18.460938 120.476562 18.734375 119.003906 19.046875 C 118.789062 18.886719 118.558594 18.734375 118.308594 18.59375 C 117.484375 18.132812 116.617188 17.726562 115.722656 17.363281 C 116.367188 16.886719 117 16.394531 117.601562 15.867188 C 117.808594 15.6875 117.652344 15.253906 117.363281 15.410156 C 116.46875 15.886719 115.613281 16.433594 114.765625 17 C 113.519531 16.550781 112.234375 16.1875 110.933594 15.917969 C 111.160156 15.171875 111.390625 14.429688 111.617188 13.683594 Z M 111.488281 24.449219 C 111.503906 24.429688 111.511719 24.40625 111.523438 24.386719 C 114.792969 25.765625 117.980469 27.335938 121.074219 29.070312 C 121.058594 31.21875 120.816406 33.421875 120.050781 35.410156 C 117.332031 31.660156 114.484375 28.003906 111.488281 24.449219 Z M 111.199219 20.851562 C 111.144531 20.773438 111.09375 20.6875 111.035156 20.613281 C 111.035156 20.613281 111.035156 20.613281 111.035156 20.609375 C 112.289062 19.746094 113.574219 18.898438 114.828125 18.011719 C 115.289062 18.179688 115.75 18.355469 116.203125 18.550781 C 116.765625 18.792969 117.289062 19.042969 117.765625 19.320312 C 115.558594 19.816406 113.363281 20.355469 111.199219 20.851562 Z M 120.90625 24.785156 C 121.003906 25.78125 121.03125 26.808594 121.058594 27.769531 C 121.0625 27.832031 121.0625 27.898438 121.0625 27.960938 C 118.019531 26.367188 114.914062 24.964844 111.820312 23.773438 C 111.828125 23.746094 111.839844 23.71875 111.847656 23.691406 C 114.894531 23.902344 117.917969 24.269531 120.90625 24.785156 Z M 111.945312 23.042969 C 111.953125 22.511719 111.804688 21.976562 111.570312 21.484375 C 114.035156 21.085938 116.5625 20.71875 119.0625 20.273438 C 119.863281 21.027344 120.433594 21.988281 120.707031 23.347656 C 120.746094 23.539062 120.769531 23.742188 120.800781 23.9375 C 117.871094 23.5 114.90625 23.230469 111.945312 23.042969 Z M 110.480469 25.21875 C 110.628906 25.160156 110.769531 25.082031 110.90625 24.992188 C 113.953125 28.683594 116.847656 32.503906 119.617188 36.414062 C 119.21875 37.210938 118.722656 37.964844 118.085938 38.640625 C 117.078125 39.71875 115.867188 40.519531 114.5625 41.140625 C 113.402344 35.777344 112.050781 30.460938 110.480469 25.21875 Z M 108.960938 25.371094 C 108.960938 25.371094 108.957031 25.371094 108.957031 25.367188 C 109.300781 25.425781 109.648438 25.421875 109.984375 25.359375 C 111.453125 30.707031 112.699219 36.082031 113.769531 41.484375 C 112.425781 42.023438 111.007812 42.390625 109.589844 42.632812 C 109.105469 42.714844 108.613281 42.785156 108.121094 42.847656 C 108.5 37.027344 108.785156 31.203125 108.960938 25.371094 Z M 103.207031 35.585938 C 104.4375 31.773438 105.449219 27.824219 107.035156 24.128906 C 107.308594 24.492188 107.636719 24.8125 108.054688 25.046875 C 108.203125 25.128906 108.359375 25.199219 108.519531 25.253906 C 108.503906 25.285156 108.480469 25.308594 108.476562 25.355469 C 108.296875 31.222656 107.980469 37.074219 107.546875 42.921875 C 105.335938 43.171875 103.050781 43.210938 100.890625 42.839844 C 101.660156 40.421875 102.425781 38 103.207031 35.585938 Z M 94.40625 37.171875 C 94.316406 36.917969 94.222656 36.671875 94.148438 36.398438 C 93.671875 34.6875 93.320312 32.894531 93.132812 31.082031 C 97.542969 28.878906 101.933594 26.636719 105.734375 23.496094 C 101.863281 27.96875 98.082031 32.53125 94.40625 37.171875 Z M 106.421875 23.632812 C 105.023438 26.71875 104.144531 29.976562 103.230469 33.257812 C 102.34375 36.433594 101.40625 39.585938 100.441406 42.734375 C 97.5625 42.113281 95.773438 40.488281 94.707031 37.972656 C 98.484375 33.089844 102.375 28.308594 106.421875 23.632812 Z M 129.402344 25.84375 C 126.855469 25.074219 124.25 24.492188 121.605469 24.066406 C 121.410156 22.589844 120.992188 21.210938 120.085938 20.085938 C 121.597656 19.800781 123.09375 19.472656 124.558594 19.085938 C 126.808594 20.949219 128.335938 23.203125 129.402344 25.84375 Z M 130.519531 29.339844 C 130.9375 31.007812 131.265625 32.722656 131.496094 34.453125 C 128.421875 32.203125 125.167969 30.167969 121.824219 28.371094 C 121.824219 28.261719 121.828125 28.152344 121.824219 28.039062 C 121.796875 26.996094 121.78125 25.941406 121.695312 24.917969 C 124.429688 25.417969 127.125 26.070312 129.777344 26.878906 C 130.050781 27.671875 130.304688 28.484375 130.519531 29.339844 Z M 144.417969 46.925781 C 141.089844 42.523438 136.953125 38.589844 132.390625 35.140625 C 132.324219 34.445312 132.25 33.753906 132.152344 33.066406 C 131.878906 31.128906 131.511719 29.152344 130.953125 27.246094 C 133.796875 28.179688 136.582031 29.308594 139.285156 30.679688 C 139.460938 30.769531 139.617188 30.433594 139.460938 30.332031 C 136.648438 28.566406 133.679688 27.238281 130.613281 26.21875 C 129.660156 23.378906 128.234375 20.742188 125.96875 18.695312 C 126.371094 18.574219 126.773438 18.457031 127.167969 18.328125 C 127.375 18.257812 127.460938 17.816406 127.171875 17.832031 C 126.488281 17.875 125.804688 17.9375 125.117188 18.011719 C 121.402344 15.074219 116.539062 13.710938 111.847656 12.90625 C 112.179688 11.75 112.472656 10.589844 112.636719 9.40625 C 112.671875 9.144531 112.351562 9.117188 112.257812 9.332031 C 111.78125 10.4375 111.425781 11.605469 111.101562 12.78125 C 110.488281 12.679688 109.875 12.585938 109.269531 12.5 C 108.988281 12.460938 108.84375 13.003906 109.132812 13.074219 C 109.726562 13.226562 110.316406 13.367188 110.910156 13.511719 C 110.707031 14.273438 110.511719 15.039062 110.304688 15.792969 C 108.765625 15.503906 107.214844 15.332031 105.714844 15.285156 C 105.566406 15.28125 105.476562 15.378906 105.417969 15.5 C 103.746094 13.058594 101.941406 10.691406 100.238281 8.320312 C 99.984375 7.964844 99.527344 8.476562 99.738281 8.792969 C 100.625 10.117188 101.503906 11.46875 102.394531 12.816406 C 102.378906 12.785156 102.359375 12.757812 102.324219 12.738281 C 98.707031 11.207031 95.132812 11.515625 91.789062 12.78125 C 88.589844 11.292969 85.367188 9.898438 82.183594 8.589844 C 81.78125 8.425781 81.507812 9.164062 81.914062 9.328125 C 84.890625 10.542969 87.785156 11.867188 90.644531 13.257812 C 90.550781 13.296875 90.457031 13.34375 90.363281 13.386719 C 90.324219 13.339844 90.277344 13.3125 90.207031 13.339844 C 89.164062 13.757812 87.851562 14.078125 86.941406 14.75 C 86.820312 14.835938 86.820312 15.074219 87.011719 15.050781 C 87.195312 15.027344 87.375 14.976562 87.554688 14.914062 C 86.058594 15.851562 84.636719 16.925781 83.308594 18.035156 C 83.125 18.191406 83.316406 18.511719 83.527344 18.339844 C 85.976562 16.371094 88.652344 14.714844 91.496094 13.671875 C 96.410156 16.085938 101.210938 18.691406 106.058594 21.292969 C 106.042969 21.355469 106.035156 21.417969 106.042969 21.484375 C 106.046875 21.519531 106.058594 21.554688 106.0625 21.589844 C 102.726562 20.0625 98.945312 19.589844 95.164062 19.421875 C 95.570312 18.710938 96.035156 18.027344 96.570312 17.375 C 96.734375 17.175781 96.457031 16.832031 96.265625 17.054688 C 95.640625 17.800781 95.101562 18.582031 94.632812 19.398438 C 92.242188 19.3125 89.863281 19.332031 87.605469 19.269531 C 80.046875 19.070312 72.496094 19.238281 64.941406 19.511719 C 64.710938 19.519531 64.640625 19.9375 64.890625 19.929688 C 72.050781 19.761719 79.21875 19.867188 86.378906 20.050781 C 88.914062 20.113281 91.570312 20.078125 94.226562 20.171875 C 93.355469 21.90625 92.800781 23.761719 92.519531 25.679688 C 87.175781 27.015625 81.847656 28.421875 76.523438 29.859375 C 77.472656 27.535156 78.710938 25.324219 80.238281 23.300781 C 80.476562 22.984375 80.046875 22.609375 79.789062 22.953125 C 78.136719 25.136719 76.8125 27.53125 75.808594 30.046875 C 69.691406 31.699219 63.585938 33.390625 57.484375 35.082031 C 57.195312 35.160156 57.214844 35.695312 57.542969 35.609375 C 63.511719 34.085938 69.484375 32.5625 75.445312 31.003906 C 74.171875 34.542969 73.542969 38.304688 73.605469 42.074219 C 70.265625 44.605469 67.039062 47.289062 63.910156 50.050781 C 63.6875 50.246094 63.929688 50.652344 64.179688 50.425781 C 67.1875 47.683594 70.34375 45.144531 73.621094 42.761719 C 73.707031 45.011719 74.03125 47.257812 74.617188 49.457031 C 75.425781 52.488281 76.742188 55.769531 78.738281 58.378906 C 76.125 62.257812 73.648438 66.222656 71.484375 70.292969 C 71.304688 70.628906 71.675781 70.992188 71.925781 70.640625 C 74.546875 66.929688 77.046875 63.136719 79.550781 59.34375 C 80.148438 60.011719 80.785156 60.632812 81.496094 61.15625 C 84.621094 63.453125 88.625 64.890625 92.539062 65.859375 C 91.445312 68.878906 90.359375 71.902344 89.324219 74.945312 C 89.140625 75.480469 89.828125 75.730469 90.035156 75.207031 C 91.230469 72.191406 92.332031 69.136719 93.390625 66.058594 C 94.351562 66.28125 95.308594 66.484375 96.238281 66.660156 C 99.066406 67.195312 101.960938 67.417969 104.828125 67.3125 C 104.363281 70.84375 103.9375 74.378906 103.667969 77.917969 C 103.644531 78.269531 104.054688 78.230469 104.125 77.933594 C 104.933594 74.445312 105.507812 70.863281 105.964844 67.257812 C 109.847656 66.996094 113.660156 66.101562 117.179688 64.5 C 117.507812 67.796875 117.785156 71.101562 117.988281 74.417969 C 118.027344 75.054688 118.847656 74.746094 118.828125 74.203125 C 118.695312 70.816406 118.453125 67.429688 118.132812 64.054688 C 120.445312 62.898438 122.613281 61.429688 124.570312 59.609375 C 126.800781 57.535156 128.496094 55.144531 129.742188 52.558594 C 131.570312 55.859375 133.359375 59.179688 135.277344 62.445312 C 135.476562 62.78125 135.910156 62.347656 135.796875 62.058594 C 134.300781 58.335938 132.402344 54.71875 130.34375 51.195312 C 132.183594 46.726562 132.789062 41.75 132.515625 36.8125 C 136.535156 40.148438 140.125 43.851562 143.859375 47.597656 C 144.199219 47.9375 144.664062 47.25 144.417969 46.925781 "/>
<path style=" stroke:none;fill-rule:nonzero;fill:rgb(62.348938%,20.388794%,25.489807%);fill-opacity:1;" d="M 131.859375 154.121094 C 131.859375 154.121094 145.039062 81.929688 142.757812 76.214844 C 146.5625 76.023438 158.363281 79.644531 161.21875 86.691406 C 164.074219 93.742188 151.511719 154.121094 155.316406 158.503906 C 149.609375 160.980469 131.859375 154.121094 131.859375 154.121094 "/>
<path style=" stroke:none;fill-rule:nonzero;fill:rgb(96.469116%,63.529968%,26.269531%);fill-opacity:1;" d="M 113.09375 135.183594 C 113.09375 135.183594 95.507812 147.074219 95.363281 146.859375 C 95.222656 146.644531 92.296875 145.289062 91.152344 145.003906 C 90.011719 144.71875 82.730469 158.859375 82.515625 161.21875 C 82.304688 163.574219 87.691406 157.636719 87.691406 157.636719 C 87.691406 157.636719 85.945312 163.21875 86.65625 164.21875 C 87.371094 165.21875 93.867188 160.644531 93.867188 160.644531 C 93.867188 160.644531 91.726562 165.71875 92.261719 165.929688 C 92.796875 166.144531 98.648438 163.574219 98.648438 163.574219 C 98.648438 163.574219 96.148438 166.574219 97.007812 166.859375 C 97.863281 167.144531 104.855469 163.21875 107.425781 160.503906 C 109.996094 157.789062 108.78125 154.21875 108.78125 154.21875 L 121.128906 142.933594 L 113.09375 135.183594 "/>
<path style=" stroke:none;fill-rule:nonzero;fill:rgb(96.469116%,63.529968%,26.269531%);fill-opacity:1;" d="M 84.1875 124.3125 C 84.1875 124.3125 85.753906 145.167969 86.039062 145.167969 C 86.324219 145.167969 92.222656 144.121094 92.796875 144.121094 C 93.367188 144.121094 90.417969 166.484375 88.988281 166.875 C 87.5625 167.265625 87.234375 159.246094 87.234375 159.246094 C 87.234375 159.246094 84.8125 168.390625 84.1875 166.875 C 83.5625 165.359375 82.890625 161.761719 82.890625 161.761719 C 82.890625 161.761719 83.375 169.835938 81.566406 168.597656 C 79.757812 167.359375 75 161.265625 75 161.265625 C 75 161.265625 74.714844 166.21875 73.859375 165.167969 C 73 164.121094 70.8125 153.835938 70.90625 151.644531 C 71.003906 149.457031 74.90625 147.742188 74.90625 147.742188 L 73.109375 127.058594 C 73.109375 127.058594 83.050781 124.269531 84.1875 124.3125 "/>
<path style=" stroke:none;fill-rule:nonzero;fill:rgb(61.959839%,55.688477%,42.749023%);fill-opacity:1;" d="M 139.234375 100.84375 C 137.460938 99.511719 135.71875 98.140625 133.949219 96.804688 C 132.105469 95.410156 129.996094 94.601562 130.492188 92.125 C 131.261719 88.246094 133.21875 84.652344 133.617188 80.683594 C 133.675781 80.109375 132.929688 79.75 132.628906 80.324219 C 131.445312 82.574219 130.832031 85.046875 130.101562 87.472656 C 129.574219 89.230469 128.199219 91.820312 128.398438 93.679688 C 128.570312 95.335938 129.984375 95.964844 131.210938 96.957031 C 133.285156 98.636719 135.347656 100.339844 137.402344 102.050781 C 136.699219 103.234375 135.953125 104.390625 135.152344 105.511719 C 130.226562 105.511719 125.355469 106.386719 120.402344 106.070312 C 115.359375 105.75 110.46875 104.5625 106.109375 101.957031 C 105.734375 101.730469 105.347656 102.367188 105.699219 102.585938 C 113.941406 107.703125 125.066406 108.222656 134.492188 106.402344 C 132.378906 109.25 130.019531 111.929688 127.617188 114.539062 C 122.171875 114.53125 116.992188 113.753906 111.789062 111.785156 C 111.375 111.628906 111.082031 112.300781 111.40625 112.550781 C 113.742188 114.355469 116.148438 116.050781 118.683594 117.558594 C 115.542969 117.203125 112.4375 116.664062 109.347656 115.957031 C 109.09375 115.898438 108.929688 116.335938 109.1875 116.398438 C 112.957031 117.335938 116.757812 118.046875 120.597656 118.625 C 120.957031 118.679688 121.195312 118.027344 120.882812 117.839844 C 118.710938 116.519531 116.566406 115.167969 114.484375 113.722656 C 118.371094 115.027344 122.476562 115.730469 126.574219 115.671875 C 126.179688 116.09375 125.789062 116.515625 125.398438 116.9375 C 120.886719 121.785156 116.511719 126.558594 112.457031 131.804688 C 112.296875 132.011719 112.574219 132.359375 112.765625 132.132812 C 117.253906 126.78125 121.691406 121.308594 126.964844 116.699219 C 127.375 116.34375 127.78125 115.976562 128.1875 115.613281 C 128.808594 115.574219 129.429688 115.515625 130.046875 115.441406 C 130.496094 115.382812 130.5625 114.476562 130.050781 114.496094 C 129.832031 114.503906 129.617188 114.5 129.398438 114.507812 C 133.277344 110.910156 136.828125 106.984375 139.378906 102.292969 C 139.621094 101.84375 139.699219 101.195312 139.234375 100.84375 "/>
<path style=" stroke:none;fill-rule:nonzero;fill:rgb(61.959839%,55.688477%,42.749023%);fill-opacity:1;" d="M 122.769531 81.949219 C 115.785156 83.878906 108.914062 83.0625 101.867188 81.941406 C 101.417969 81.871094 101.28125 82.699219 101.769531 82.773438 C 108.695312 83.847656 116.085938 84.964844 122.8125 82.328125 C 123 82.253906 123.007812 81.886719 122.769531 81.949219 "/>
<path style=" stroke:none;fill-rule:nonzero;fill:rgb(48.629761%,16.079712%,19.999695%);fill-opacity:1;" d="M 145.582031 82.625 C 145.53125 82.171875 144.976562 82.398438 144.988281 82.78125 C 145.234375 90.285156 146.042969 98.308594 148.335938 105.488281 C 148.464844 105.890625 148.988281 105.578125 148.941406 105.242188 C 147.878906 97.679688 146.40625 90.234375 145.582031 82.625 "/>
<path style=" stroke:none;fill-rule:nonzero;fill:rgb(48.629761%,16.079712%,19.999695%);fill-opacity:1;" d="M 150.957031 90.660156 C 150.78125 90.078125 150.042969 90.601562 150.183594 91.097656 C 151.296875 94.949219 152.21875 98.9375 153.691406 102.667969 C 153.839844 103.042969 154.355469 102.769531 154.285156 102.425781 C 153.488281 98.441406 152.113281 94.546875 150.957031 90.660156 "/>
<path style=" stroke:none;fill-rule:nonzero;fill:rgb(48.629761%,16.079712%,19.999695%);fill-opacity:1;" d="M 64.324219 108.355469 C 59.992188 104.789062 55.3125 102.003906 51.808594 97.5 C 51.480469 97.074219 50.90625 97.707031 51.191406 98.085938 C 54.550781 102.550781 59.148438 106.265625 64.019531 108.964844 C 64.328125 109.136719 64.5625 108.554688 64.324219 108.355469 "/>
<path style=" stroke:none;fill-rule:nonzero;fill:rgb(48.629761%,16.079712%,19.999695%);fill-opacity:1;" d="M 62.796875 104.148438 C 61.195312 102.542969 59.507812 101.039062 58.015625 99.328125 C 57.652344 98.910156 57.058594 99.558594 57.378906 99.933594 C 58.890625 101.695312 60.503906 103.398438 62.457031 104.671875 C 62.773438 104.878906 63.035156 104.382812 62.796875 104.148438 "/>
<path style=" stroke:none;fill-rule:nonzero;fill:rgb(42.749023%,51.368713%,16.468811%);fill-opacity:1;" d="M 104.246094 179.617188 C 104.246094 179.617188 109.027344 170.117188 107.742188 165.972656 C 106.460938 161.832031 102.035156 170.117188 102.105469 168.6875 C 102.175781 167.257812 103.175781 158.617188 101.605469 156.402344 C 100.035156 154.1875 97.394531 163.78125 96.824219 161.839844 C 96.253906 159.902344 92.753906 152.671875 90.828125 152.359375 C 88.902344 152.046875 88.6875 165.042969 87.757812 164.046875 C 86.832031 163.046875 83.382812 154.558594 81.640625 157.121094 C 79.894531 159.683594 82.621094 170.117188 81.765625 169.546875 C 80.90625 168.972656 77.410156 159.757812 75.910156 163.1875 C 74.414062 166.617188 80.195312 181.472656 80.835938 182.042969 C 81.480469 182.617188 103.175781 183.757812 104.246094 179.617188 "/>
<path style=" stroke:none;fill-rule:nonzero;fill:rgb(56.858826%,68.238831%,20.388794%);fill-opacity:1;" d="M 81.953125 193.332031 C 79.53125 191.632812 76.148438 180.1875 77.195312 180.285156 C 78.242188 180.378906 80.085938 183.046875 81.574219 185.996094 C 81.667969 183.332031 80.050781 175.332031 81.574219 175.332031 C 83.097656 175.332031 85.191406 181.808594 85.191406 181.808594 C 85.191406 181.808594 88.332031 168.285156 89.949219 171.140625 C 91.566406 173.996094 92.804688 182.632812 92.804688 182.632812 C 92.804688 182.632812 96.515625 167.617188 98.417969 171.140625 C 100.320312 174.664062 99.84375 183.808594 99.84375 183.808594 C 99.84375 183.808594 108.035156 173.46875 108.414062 176.449219 C 108.789062 179.425781 102.699219 194.1875 101.558594 193.902344 C 100.417969 193.617188 96.992188 195.339844 93.375 193.90625 C 89.757812 192.472656 83.859375 194.664062 81.953125 193.332031 "/>
<path style=" stroke:none;fill-rule:nonzero;fill:rgb(42.749023%,51.368713%,16.468811%);fill-opacity:1;" d="M 104.246094 209.898438 C 104.246094 209.898438 109.027344 200.394531 107.742188 196.253906 C 106.460938 192.109375 102.035156 200.394531 102.105469 198.96875 C 102.175781 197.539062 103.175781 188.894531 101.605469 186.683594 C 100.035156 184.46875 97.394531 194.058594 96.824219 192.121094 C 96.253906 190.183594 92.753906 182.953125 90.828125 182.640625 C 88.902344 182.324219 88.6875 195.324219 87.757812 194.324219 C 86.832031 193.324219 83.382812 184.839844 81.640625 187.402344 C 79.894531 189.964844 82.621094 200.394531 81.765625 199.824219 C 80.90625 199.253906 77.410156 190.039062 75.910156 193.46875 C 74.414062 196.894531 80.195312 211.753906 80.835938 212.324219 C 81.480469 212.894531 103.175781 214.039062 104.246094 209.898438 "/>
<path style=" stroke:none;fill-rule:nonzero;fill:rgb(42.749023%,51.368713%,16.468811%);fill-opacity:1;" d="M 62.746094 179.617188 C 62.746094 179.617188 67.527344 170.117188 66.242188 165.972656 C 64.960938 161.832031 60.535156 170.117188 60.605469 168.6875 C 60.675781 167.257812 61.675781 158.617188 60.105469 156.402344 C 58.535156 154.1875 55.894531 163.78125 55.324219 161.839844 C 54.753906 159.902344 51.257812 152.671875 49.328125 152.359375 C 47.402344 152.046875 47.1875 165.042969 46.261719 164.046875 C 45.332031 163.046875 41.882812 154.558594 40.136719 157.121094 C 38.394531 159.683594 41.121094 170.117188 40.265625 169.546875 C 39.40625 168.972656 35.910156 159.757812 34.414062 163.1875 C 32.914062 166.617188 38.695312 181.472656 39.335938 182.042969 C 39.980469 182.617188 61.675781 183.757812 62.746094 179.617188 "/>
<path style=" stroke:none;fill-rule:nonzero;fill:rgb(56.858826%,68.238831%,20.388794%);fill-opacity:1;" d="M 40.453125 193.332031 C 38.035156 191.632812 34.648438 180.1875 35.695312 180.285156 C 36.742188 180.378906 38.585938 183.046875 40.074219 185.996094 C 40.167969 183.332031 38.550781 175.332031 40.074219 175.332031 C 41.597656 175.332031 43.691406 181.808594 43.691406 181.808594 C 43.691406 181.808594 46.832031 168.285156 48.449219 171.140625 C 50.066406 173.996094 51.304688 182.632812 51.304688 182.632812 C 51.304688 182.632812 55.015625 167.617188 56.917969 171.140625 C 58.820312 174.664062 58.34375 183.808594 58.34375 183.808594 C 58.34375 183.808594 66.535156 173.46875 66.914062 176.449219 C 67.289062 179.425781 61.199219 194.1875 60.058594 193.902344 C 58.917969 193.617188 55.492188 195.339844 51.875 193.90625 C 48.257812 192.472656 42.359375 194.664062 40.453125 193.332031 "/>
<path style=" stroke:none;fill-rule:nonzero;fill:rgb(42.749023%,51.368713%,16.468811%);fill-opacity:1;" d="M 62.746094 209.898438 C 62.746094 209.898438 67.527344 200.394531 66.242188 196.253906 C 64.960938 192.109375 60.535156 200.394531 60.605469 198.96875 C 60.675781 197.539062 61.675781 188.894531 60.105469 186.683594 C 58.535156 184.46875 55.894531 194.058594 55.324219 192.121094 C 54.753906 190.183594 51.257812 182.953125 49.328125 182.640625 C 47.402344 182.324219 47.1875 195.324219 46.261719 194.324219 C 45.332031 193.324219 41.882812 184.839844 40.136719 187.402344 C 38.394531 189.964844 41.121094 200.394531 40.265625 199.824219 C 39.40625 199.253906 35.910156 190.039062 34.414062 193.46875 C 32.914062 196.894531 38.695312 211.753906 39.335938 212.324219 C 39.980469 212.894531 61.675781 214.039062 62.746094 209.898438 "/>
<path style=" stroke:none;fill-rule:nonzero;fill:rgb(42.749023%,51.368713%,16.468811%);fill-opacity:1;" d="M 143.476562 180.953125 C 143.476562 180.953125 148.257812 171.453125 146.972656 167.3125 C 145.6875 163.167969 141.265625 171.453125 141.335938 170.027344 C 141.40625 168.597656 142.40625 159.957031 140.835938 157.742188 C 139.265625 155.527344 136.625 165.117188 136.054688 163.179688 C 135.484375 161.242188 131.988281 154.011719 130.058594 153.699219 C 128.132812 153.382812 127.917969 166.382812 126.992188 165.382812 C 126.0625 164.382812 122.613281 155.898438 120.867188 158.460938 C 119.125 161.023438 121.851562 171.453125 120.996094 170.882812 C 120.140625 170.3125 116.640625 161.097656 115.144531 164.527344 C 113.644531 167.953125 119.425781 182.8125 120.066406 183.382812 C 120.710938 183.957031 142.40625 185.097656 143.476562 180.953125 "/>
<path style=" stroke:none;fill-rule:nonzero;fill:rgb(56.858826%,68.238831%,20.388794%);fill-opacity:1;" d="M 121.183594 194.671875 C 118.765625 192.972656 115.378906 181.527344 116.425781 181.621094 C 117.472656 181.71875 119.316406 184.382812 120.804688 187.335938 C 120.898438 184.671875 119.28125 176.671875 120.804688 176.671875 C 122.328125 176.671875 124.421875 183.144531 124.421875 183.144531 C 124.421875 183.144531 127.558594 169.621094 129.179688 172.480469 C 130.796875 175.335938 132.03125 183.972656 132.03125 183.972656 C 132.03125 183.972656 135.742188 168.957031 137.648438 172.480469 C 139.550781 176.003906 139.074219 185.144531 139.074219 185.144531 C 139.074219 185.144531 147.265625 174.808594 147.644531 177.785156 C 148.019531 180.765625 141.929688 195.527344 140.789062 195.242188 C 139.648438 194.957031 136.21875 196.679688 132.605469 195.246094 C 128.988281 193.8125 123.085938 196.003906 121.183594 194.671875 "/>
<path style=" stroke:none;fill-rule:nonzero;fill:rgb(42.749023%,51.368713%,16.468811%);fill-opacity:1;" d="M 143.476562 211.234375 C 143.476562 211.234375 148.257812 201.734375 146.972656 197.59375 C 145.6875 193.449219 141.265625 201.734375 141.335938 200.308594 C 141.40625 198.878906 142.40625 190.234375 140.835938 188.019531 C 139.265625 185.804688 136.625 195.398438 136.054688 193.460938 C 135.484375 191.519531 131.988281 184.292969 130.058594 183.976562 C 128.132812 183.664062 127.917969 196.664062 126.992188 195.664062 C 126.0625 194.664062 122.613281 186.179688 120.867188 188.742188 C 119.125 191.304688 121.851562 201.734375 120.996094 201.164062 C 120.140625 200.59375 116.640625 191.378906 115.144531 194.804688 C 113.644531 198.234375 119.425781 213.09375 120.066406 213.664062 C 120.710938 214.234375 142.40625 215.378906 143.476562 211.234375 "/>
<path style=" stroke:none;fill-rule:nonzero;fill:rgb(42.749023%,51.368713%,16.468811%);fill-opacity:1;" d="M 181.796875 180.867188 C 181.796875 180.867188 186.578125 171.367188 185.292969 167.222656 C 184.007812 163.082031 179.582031 171.367188 179.652344 169.9375 C 179.726562 168.507812 180.726562 159.867188 179.152344 157.652344 C 177.582031 155.4375 174.941406 165.027344 174.371094 163.089844 C 173.800781 161.152344 170.304688 153.921875 168.375 153.609375 C 166.449219 153.292969 166.238281 166.292969 165.308594 165.292969 C 164.378906 164.292969 160.933594 155.808594 159.1875 158.371094 C 157.441406 160.933594 160.167969 171.367188 159.3125 170.792969 C 158.457031 170.222656 154.960938 161.007812 153.460938 164.4375 C 151.960938 167.867188 157.742188 182.722656 158.382812 183.292969 C 159.027344 183.867188 180.726562 185.007812 181.796875 180.867188 "/>
<path style=" stroke:none;fill-rule:nonzero;fill:rgb(56.858826%,68.238831%,20.388794%);fill-opacity:1;" d="M 159.503906 194.582031 C 157.082031 192.882812 153.699219 181.4375 154.746094 181.53125 C 155.792969 181.628906 157.636719 184.292969 159.125 187.246094 C 159.21875 184.578125 157.601562 176.578125 159.125 176.578125 C 160.644531 176.578125 162.738281 183.054688 162.738281 183.054688 C 162.738281 183.054688 165.878906 169.53125 167.496094 172.390625 C 169.113281 175.246094 170.351562 183.882812 170.351562 183.882812 C 170.351562 183.882812 174.0625 168.867188 175.96875 172.390625 C 177.871094 175.914062 177.394531 185.054688 177.394531 185.054688 C 177.394531 185.054688 185.582031 174.71875 185.960938 177.695312 C 186.339844 180.675781 180.25 195.4375 179.105469 195.152344 C 177.964844 194.867188 174.539062 196.589844 170.921875 195.15625 C 167.308594 193.722656 161.40625 195.914062 159.503906 194.582031 "/>
<path style=" stroke:none;fill-rule:nonzero;fill:rgb(42.749023%,51.368713%,16.468811%);fill-opacity:1;" d="M 181.796875 211.144531 C 181.796875 211.144531 186.578125 201.644531 185.292969 197.503906 C 184.007812 193.359375 179.582031 201.644531 179.652344 200.21875 C 179.726562 198.789062 180.726562 190.144531 179.152344 187.929688 C 177.582031 185.71875 174.941406 195.308594 174.371094 193.371094 C 173.800781 191.433594 170.304688 184.203125 168.375 183.886719 C 166.449219 183.574219 166.238281 196.574219 165.308594 195.574219 C 164.378906 194.574219 160.933594 186.089844 159.1875 188.652344 C 157.441406 191.214844 160.167969 201.644531 159.3125 201.074219 C 158.457031 200.503906 154.960938 191.289062 153.460938 194.71875 C 151.960938 198.144531 157.742188 213.003906 158.382812 213.574219 C 159.027344 214.144531 180.726562 215.289062 181.796875 211.144531 "/>
</g>
</svg>
