<?xml version="1.0" encoding="UTF-8"?>
<svg xmlns="http://www.w3.org/2000/svg" xmlns:xlink="http://www.w3.org/1999/xlink" width="224.87999pt" height="225pt" viewBox="0 0 224.87999 225" version="1.2">
<defs>
<clipPath id="clip1">
  <path d="M 210.308594 161.191406 L 218.671875 161.191406 L 218.671875 184.066406 L 210.308594 184.066406 Z M 210.308594 161.191406 "/>
</clipPath>
<clipPath id="clip2">
  <path d="M 72.898438 188.886719 L 102.660156 188.886719 L 102.660156 224.933594 L 72.898438 224.933594 Z M 72.898438 188.886719 "/>
</clipPath>
</defs>
<g id="surface1">
<path style=" stroke:none;fill-rule:nonzero;fill:rgb(1.568604%,2.349854%,2.349854%);fill-opacity:1;" d="M 117.539062 132.136719 C 117.539062 132.136719 110.035156 137.402344 108.085938 137.125 C 106.140625 136.847656 106.140625 134.078125 106.140625 134.078125 C 106.140625 134.078125 113.648438 127.425781 116.148438 129.363281 C 118.652344 131.304688 117.539062 132.136719 117.539062 132.136719 "/>
<path style=" stroke:none;fill-rule:nonzero;fill:rgb(47.839355%,79.60968%,25.878906%);fill-opacity:1;" d="M 22.609375 158.878906 C 21.777344 154.722656 24.835938 152.78125 24.277344 150.289062 C 23.722656 147.792969 19.277344 147.792969 20.386719 144.46875 C 21.5 141.140625 27.890625 136.984375 25.390625 133.660156 C 24.265625 132.164062 23.816406 130.105469 23.660156 128.296875 C 17.871094 132.265625 13.996094 139.511719 13.996094 147.792969 C 13.996094 156.554688 18.332031 164.152344 24.6875 167.945312 L 26.226562 164.421875 C 26.226562 164.421875 23.445312 163.035156 22.609375 158.878906 "/>
<path style=" stroke:none;fill-rule:nonzero;fill:rgb(33.729553%,57.249451%,18.818665%);fill-opacity:1;" d="M 24.835938 155.554688 C 24.835938 153.890625 27.058594 151.117188 27.058594 150.011719 C 27.058594 148.902344 25.390625 146.960938 25.113281 145.855469 C 24.835938 144.746094 24 143.914062 27.613281 141.695312 C 31.226562 139.480469 29.5625 138.09375 29.003906 136.984375 C 28.449219 135.878906 29.003906 133.9375 29.28125 132.277344 C 29.46875 131.164062 28.167969 128.199219 27.28125 126.355469 C 26.011719 126.863281 24.796875 127.515625 23.660156 128.296875 C 23.816406 130.105469 24.265625 132.164062 25.390625 133.660156 C 27.890625 136.984375 21.5 141.140625 20.386719 144.46875 C 19.277344 147.792969 23.722656 147.792969 24.277344 150.289062 C 24.835938 152.78125 21.777344 154.722656 22.609375 158.878906 C 23.445312 163.035156 26.226562 164.421875 26.226562 164.421875 L 24.6875 167.945312 C 24.964844 168.109375 25.246094 168.269531 25.53125 168.417969 C 26.90625 166.6875 28.449219 164.328125 28.449219 162.480469 C 28.449219 159.15625 24.835938 157.214844 24.835938 155.554688 "/>
<path style=" stroke:none;fill-rule:nonzero;fill:rgb(47.839355%,79.60968%,25.878906%);fill-opacity:1;" d="M 36.789062 164.421875 C 34.84375 163.589844 32.339844 161.648438 32.339844 161.09375 C 32.339844 160.539062 35.398438 156.382812 35.398438 156.382812 C 35.398438 156.382812 33.175781 152.503906 35.121094 149.457031 C 37.066406 146.40625 37.34375 145.578125 35.675781 145.578125 C 34.007812 145.578125 33.453125 141.972656 34.84375 141.695312 C 36.230469 141.417969 37.34375 134.214844 36.230469 132.277344 C 35.550781 131.085938 34.867188 127.601562 34.441406 125.085938 C 34.25 125.082031 34.0625 125.070312 33.871094 125.070312 C 31.558594 125.070312 29.34375 125.523438 27.28125 126.355469 C 28.167969 128.199219 29.46875 131.164062 29.28125 132.277344 C 29.003906 133.9375 28.449219 135.878906 29.003906 136.984375 C 29.5625 138.09375 31.226562 139.480469 27.613281 141.695312 C 24 143.914062 24.835938 144.746094 25.113281 145.855469 C 25.390625 146.960938 27.058594 148.902344 27.058594 150.011719 C 27.058594 151.117188 24.835938 153.890625 24.835938 155.554688 C 24.835938 157.214844 28.449219 159.15625 28.449219 162.480469 C 28.449219 164.328125 26.90625 166.6875 25.53125 168.417969 C 28.066406 169.761719 30.890625 170.515625 33.871094 170.515625 C 34.210938 170.515625 34.550781 170.507812 34.886719 170.488281 C 36.363281 168.027344 37.941406 164.914062 36.789062 164.421875 "/>
<path style=" stroke:none;fill-rule:nonzero;fill:rgb(33.729553%,57.249451%,18.818665%);fill-opacity:1;" d="M 37.34375 159.710938 C 37.34375 158.878906 39.566406 154.167969 39.566406 154.167969 C 39.566406 154.167969 37.621094 150.566406 37.898438 148.902344 C 38.179688 147.238281 39.84375 143.082031 39.84375 143.082031 L 37.898438 141.140625 C 37.898438 141.140625 38.457031 136.433594 39.289062 135.324219 C 40.125 134.214844 39.289062 132.550781 37.621094 130.335938 C 36.765625 129.199219 36.789062 127.117188 37.011719 125.355469 C 36.171875 125.203125 35.316406 125.113281 34.441406 125.085938 C 34.867188 127.601562 35.550781 131.085938 36.230469 132.277344 C 37.34375 134.214844 36.230469 141.417969 34.84375 141.695312 C 33.453125 141.972656 34.007812 145.578125 35.675781 145.578125 C 37.34375 145.578125 37.066406 146.40625 35.121094 149.457031 C 33.175781 152.503906 35.398438 156.382812 35.398438 156.382812 C 35.398438 156.382812 32.339844 160.539062 32.339844 161.09375 C 32.339844 161.648438 34.84375 163.589844 36.789062 164.421875 C 37.941406 164.914062 36.363281 168.027344 34.886719 170.488281 C 36.304688 170.40625 37.679688 170.148438 39.003906 169.746094 C 39.210938 168.773438 39.480469 167.628906 39.84375 166.359375 C 40.957031 162.480469 37.34375 160.539062 37.34375 159.710938 "/>
<path style=" stroke:none;fill-rule:nonzero;fill:rgb(47.839355%,79.60968%,25.878906%);fill-opacity:1;" d="M 46.238281 136.433594 C 46.238281 136.433594 49.296875 139.480469 48.460938 142.25 C 47.789062 144.488281 47.660156 144.738281 47.636719 144.753906 C 47.699219 144.824219 50.402344 147.808594 49.851562 148.902344 C 49.296875 150.011719 47.628906 153.058594 47.628906 153.058594 C 47.628906 153.058594 52.074219 155.554688 51.519531 156.660156 C 50.964844 157.769531 46.238281 160.539062 46.792969 161.648438 C 46.992188 162.042969 47.191406 163.175781 47.363281 164.472656 C 51.285156 160.320312 53.742188 154.386719 53.742188 147.792969 C 53.742188 140.695312 50.898438 134.359375 46.4375 130.195312 L 45.683594 132 L 46.238281 136.433594 "/>
<path style=" stroke:none;fill-rule:nonzero;fill:rgb(47.839355%,79.60968%,25.878906%);fill-opacity:1;" d="M 43.179688 161.09375 C 44.015625 160.261719 45.960938 156.660156 45.960938 156.660156 C 45.960938 156.660156 42.347656 154.722656 44.292969 152.503906 C 46.238281 150.289062 47.074219 147.515625 45.683594 146.683594 C 44.292969 145.855469 43.738281 142.527344 43.738281 142.527344 C 43.738281 142.527344 46.792969 138.09375 44.292969 135.878906 C 42.664062 134.433594 43.273438 130.648438 43.894531 128.179688 C 41.8125 126.785156 39.492188 125.804688 37.011719 125.355469 C 36.789062 127.117188 36.765625 129.199219 37.621094 130.335938 C 39.289062 132.550781 40.125 134.214844 39.289062 135.324219 C 38.457031 136.433594 37.898438 141.140625 37.898438 141.140625 L 39.84375 143.082031 C 39.84375 143.082031 38.179688 147.238281 37.898438 148.902344 C 37.621094 150.566406 39.566406 154.167969 39.566406 154.167969 C 39.566406 154.167969 37.34375 158.878906 37.34375 159.710938 C 37.34375 160.539062 40.957031 162.480469 39.84375 166.359375 C 39.480469 167.628906 39.210938 168.773438 39.003906 169.746094 C 41.1875 169.082031 43.21875 168 45.035156 166.585938 C 44.511719 162.882812 42.40625 161.867188 43.179688 161.09375 "/>
<path style=" stroke:none;fill-rule:nonzero;fill:rgb(33.729553%,57.249451%,18.818665%);fill-opacity:1;" d="M 47.363281 164.472656 C 47.191406 163.175781 46.992188 162.042969 46.792969 161.648438 C 46.238281 160.539062 50.964844 157.769531 51.519531 156.660156 C 52.074219 155.554688 47.628906 153.058594 47.628906 153.058594 C 47.628906 153.058594 49.296875 150.011719 49.851562 148.902344 C 50.402344 147.808594 47.699219 144.824219 47.636719 144.753906 C 47.628906 144.753906 47.628906 144.746094 47.628906 144.746094 C 47.628906 144.746094 47.632812 144.75 47.636719 144.753906 C 47.660156 144.738281 47.789062 144.488281 48.460938 142.25 C 49.296875 139.480469 46.238281 136.433594 46.238281 136.433594 L 45.683594 132 L 46.4375 130.195312 C 45.640625 129.449219 44.789062 128.777344 43.894531 128.179688 C 43.273438 130.648438 42.664062 134.433594 44.292969 135.878906 C 46.792969 138.09375 43.738281 142.527344 43.738281 142.527344 C 43.738281 142.527344 44.292969 145.855469 45.683594 146.683594 C 47.074219 147.515625 46.238281 150.289062 44.292969 152.503906 C 42.347656 154.722656 45.960938 156.660156 45.960938 156.660156 C 45.960938 156.660156 44.015625 160.261719 43.179688 161.09375 C 42.40625 161.867188 44.511719 162.882812 45.035156 166.585938 C 45.855469 165.945312 46.636719 165.242188 47.363281 164.472656 "/>
<path style=" stroke:none;fill-rule:nonzero;fill:rgb(33.729553%,57.249451%,18.818665%);fill-opacity:1;" d="M 47.636719 144.753906 C 47.632812 144.75 47.628906 144.746094 47.628906 144.746094 C 47.628906 144.746094 47.628906 144.753906 47.636719 144.753906 "/>
<path style=" stroke:none;fill-rule:nonzero;fill:rgb(47.839355%,79.60968%,25.878906%);fill-opacity:1;" d="M 50.128906 166.082031 C 49.296875 161.925781 52.355469 159.984375 51.796875 157.492188 C 51.242188 155 46.792969 155 47.90625 151.671875 C 49.019531 148.347656 55.410156 144.191406 52.910156 140.863281 C 51.785156 139.371094 51.335938 137.3125 51.179688 135.5 C 45.390625 139.472656 41.511719 146.714844 41.511719 154.996094 C 41.511719 163.761719 45.851562 171.359375 52.207031 175.148438 L 53.742188 171.625 C 53.742188 171.625 50.964844 170.242188 50.128906 166.082031 "/>
<path style=" stroke:none;fill-rule:nonzero;fill:rgb(33.729553%,57.249451%,18.818665%);fill-opacity:1;" d="M 52.355469 162.757812 C 52.355469 161.09375 54.578125 158.324219 54.578125 157.214844 C 54.578125 156.105469 52.910156 154.167969 52.632812 153.058594 C 52.355469 151.949219 51.519531 151.121094 55.132812 148.902344 C 58.746094 146.683594 57.078125 145.300781 56.523438 144.191406 C 55.96875 143.082031 56.523438 141.140625 56.800781 139.480469 C 56.988281 138.371094 55.6875 135.40625 54.800781 133.558594 C 53.53125 134.070312 52.316406 134.71875 51.179688 135.5 C 51.335938 137.3125 51.785156 139.371094 52.910156 140.863281 C 55.410156 144.191406 49.019531 148.347656 47.90625 151.671875 C 46.792969 155 51.242188 155 51.796875 157.492188 C 52.355469 159.984375 49.296875 161.925781 50.128906 166.082031 C 50.964844 170.242188 53.742188 171.625 53.742188 171.625 L 52.207031 175.148438 C 52.484375 175.316406 52.765625 175.472656 53.050781 175.625 C 54.425781 173.890625 55.96875 171.53125 55.96875 169.6875 C 55.96875 166.359375 52.355469 164.421875 52.355469 162.757812 "/>
<path style=" stroke:none;fill-rule:nonzero;fill:rgb(47.839355%,79.60968%,25.878906%);fill-opacity:1;" d="M 64.308594 171.625 C 62.359375 170.792969 59.859375 168.855469 59.859375 168.300781 C 59.859375 167.746094 62.917969 163.589844 62.917969 163.589844 C 62.917969 163.589844 60.695312 159.710938 62.640625 156.664062 C 64.585938 153.613281 64.863281 152.78125 63.195312 152.78125 C 61.527344 152.78125 60.972656 149.179688 62.359375 148.902344 C 63.75 148.625 64.863281 141.421875 63.75 139.480469 C 63.070312 138.289062 62.386719 134.808594 61.960938 132.292969 C 61.769531 132.285156 61.582031 132.277344 61.386719 132.277344 C 59.078125 132.277344 56.863281 132.730469 54.800781 133.558594 C 55.6875 135.40625 56.988281 138.371094 56.800781 139.480469 C 56.523438 141.140625 55.96875 143.082031 56.523438 144.191406 C 57.078125 145.300781 58.746094 146.683594 55.132812 148.902344 C 51.519531 151.121094 52.355469 151.949219 52.632812 153.058594 C 52.910156 154.167969 54.578125 156.105469 54.578125 157.214844 C 54.578125 158.324219 52.355469 161.09375 52.355469 162.757812 C 52.355469 164.421875 55.96875 166.359375 55.96875 169.6875 C 55.96875 171.53125 54.425781 173.890625 53.050781 175.625 C 55.585938 176.96875 58.410156 177.722656 61.386719 177.722656 C 61.730469 177.722656 62.070312 177.710938 62.40625 177.691406 C 63.882812 175.234375 65.460938 172.117188 64.308594 171.625 "/>
<path style=" stroke:none;fill-rule:nonzero;fill:rgb(33.729553%,57.249451%,18.818665%);fill-opacity:1;" d="M 64.863281 166.914062 C 64.863281 166.082031 67.085938 161.371094 67.085938 161.371094 C 67.085938 161.371094 65.140625 157.769531 65.417969 156.105469 C 65.695312 154.445312 67.363281 150.289062 67.363281 150.289062 L 65.417969 148.347656 C 65.417969 148.347656 65.976562 143.636719 66.808594 142.527344 C 67.644531 141.421875 66.808594 139.757812 65.140625 137.542969 C 64.285156 136.402344 64.308594 134.320312 64.53125 132.5625 C 63.691406 132.40625 62.832031 132.320312 61.960938 132.292969 C 62.386719 134.808594 63.070312 138.289062 63.75 139.480469 C 64.863281 141.421875 63.75 148.625 62.359375 148.902344 C 60.972656 149.179688 61.527344 152.78125 63.195312 152.78125 C 64.863281 152.78125 64.585938 153.613281 62.640625 156.664062 C 60.695312 159.710938 62.917969 163.589844 62.917969 163.589844 C 62.917969 163.589844 59.859375 167.746094 59.859375 168.300781 C 59.859375 168.855469 62.359375 170.792969 64.308594 171.625 C 65.460938 172.117188 63.882812 175.234375 62.40625 177.691406 C 63.824219 177.609375 65.199219 177.355469 66.523438 176.953125 C 66.730469 175.976562 67 174.832031 67.363281 173.566406 C 68.476562 169.6875 64.863281 167.746094 64.863281 166.914062 "/>
<path style=" stroke:none;fill-rule:nonzero;fill:rgb(47.839355%,79.60968%,25.878906%);fill-opacity:1;" d="M 73.757812 143.636719 C 73.757812 143.636719 76.816406 146.683594 75.980469 149.457031 C 75.308594 151.695312 75.179688 151.945312 75.15625 151.957031 C 75.21875 152.03125 77.921875 155.011719 77.371094 156.105469 C 76.816406 157.214844 75.148438 160.265625 75.148438 160.265625 C 75.148438 160.265625 79.59375 162.757812 79.039062 163.867188 C 78.484375 164.972656 73.757812 167.746094 74.3125 168.855469 C 74.511719 169.25 74.710938 170.382812 74.882812 171.675781 C 78.804688 167.527344 81.261719 161.589844 81.261719 154.996094 C 81.261719 147.898438 78.417969 141.5625 73.957031 137.398438 L 73.203125 139.203125 L 73.757812 143.636719 "/>
<path style=" stroke:none;fill-rule:nonzero;fill:rgb(47.839355%,79.60968%,25.878906%);fill-opacity:1;" d="M 70.699219 168.300781 C 71.535156 167.46875 73.480469 163.867188 73.480469 163.867188 C 73.480469 163.867188 69.867188 161.925781 71.8125 159.710938 C 73.757812 157.492188 74.59375 154.722656 73.203125 153.890625 C 71.8125 153.058594 71.257812 149.734375 71.257812 149.734375 C 71.257812 149.734375 74.3125 145.300781 71.8125 143.082031 C 70.183594 141.640625 70.792969 137.855469 71.414062 135.382812 C 69.332031 133.988281 67.011719 133.011719 64.53125 132.5625 C 64.308594 134.320312 64.285156 136.402344 65.140625 137.542969 C 66.808594 139.757812 67.644531 141.421875 66.808594 142.527344 C 65.976562 143.636719 65.417969 148.347656 65.417969 148.347656 L 67.363281 150.289062 C 67.363281 150.289062 65.695312 154.445312 65.417969 156.105469 C 65.140625 157.769531 67.085938 161.371094 67.085938 161.371094 C 67.085938 161.371094 64.863281 166.082031 64.863281 166.914062 C 64.863281 167.746094 68.476562 169.6875 67.363281 173.566406 C 67 174.832031 66.730469 175.976562 66.523438 176.953125 C 68.703125 176.285156 70.738281 175.203125 72.554688 173.792969 C 72.03125 170.089844 69.925781 169.074219 70.699219 168.300781 "/>
<path style=" stroke:none;fill-rule:nonzero;fill:rgb(33.729553%,57.249451%,18.818665%);fill-opacity:1;" d="M 74.882812 171.675781 C 74.710938 170.382812 74.511719 169.25 74.3125 168.855469 C 73.757812 167.746094 78.484375 164.972656 79.039062 163.867188 C 79.59375 162.757812 75.148438 160.265625 75.148438 160.265625 C 75.148438 160.265625 76.816406 157.214844 77.371094 156.105469 C 77.921875 155.011719 75.21875 152.03125 75.15625 151.957031 C 75.148438 151.960938 75.148438 151.949219 75.148438 151.949219 C 75.148438 151.949219 75.152344 151.957031 75.15625 151.957031 C 75.179688 151.945312 75.308594 151.695312 75.980469 149.457031 C 76.816406 146.683594 73.757812 143.636719 73.757812 143.636719 L 73.203125 139.203125 L 73.957031 137.398438 C 73.160156 136.652344 72.308594 135.980469 71.414062 135.382812 C 70.792969 137.855469 70.183594 141.640625 71.8125 143.082031 C 74.3125 145.300781 71.257812 149.734375 71.257812 149.734375 C 71.257812 149.734375 71.8125 153.058594 73.203125 153.890625 C 74.59375 154.722656 73.757812 157.492188 71.8125 159.710938 C 69.867188 161.925781 73.480469 163.867188 73.480469 163.867188 C 73.480469 163.867188 71.535156 167.46875 70.699219 168.300781 C 69.925781 169.074219 72.03125 170.089844 72.554688 173.792969 C 73.375 173.152344 74.15625 172.445312 74.882812 171.675781 "/>
<path style=" stroke:none;fill-rule:nonzero;fill:rgb(33.729553%,57.249451%,18.818665%);fill-opacity:1;" d="M 75.15625 151.957031 C 75.152344 151.957031 75.148438 151.949219 75.148438 151.949219 C 75.148438 151.949219 75.148438 151.960938 75.15625 151.957031 "/>
<path style=" stroke:none;fill-rule:nonzero;fill:rgb(47.839355%,79.60968%,25.878906%);fill-opacity:1;" d="M 84.320312 161.648438 C 83.488281 157.492188 86.546875 155.554688 85.988281 153.058594 C 85.433594 150.566406 80.984375 150.566406 82.097656 147.238281 C 83.210938 143.914062 89.601562 139.757812 87.101562 136.433594 C 85.976562 134.933594 85.527344 132.878906 85.371094 131.066406 C 79.582031 135.039062 75.703125 142.28125 75.703125 150.566406 C 75.703125 159.324219 80.042969 166.921875 86.398438 170.714844 L 87.933594 167.191406 C 87.933594 167.191406 85.15625 165.804688 84.320312 161.648438 "/>
<path style=" stroke:none;fill-rule:nonzero;fill:rgb(33.729553%,57.249451%,18.818665%);fill-opacity:1;" d="M 86.546875 158.324219 C 86.546875 156.664062 88.769531 153.890625 88.769531 152.78125 C 88.769531 151.671875 87.101562 149.734375 86.824219 148.625 C 86.546875 147.515625 85.710938 146.683594 89.324219 144.46875 C 92.9375 142.25 91.269531 140.863281 90.714844 139.757812 C 90.160156 138.648438 90.714844 136.707031 90.992188 135.046875 C 91.179688 133.9375 89.875 130.972656 88.992188 129.125 C 87.71875 129.632812 86.507812 130.285156 85.371094 131.066406 C 85.527344 132.878906 85.976562 134.933594 87.101562 136.433594 C 89.601562 139.757812 83.210938 143.914062 82.097656 147.238281 C 80.984375 150.566406 85.433594 150.566406 85.988281 153.058594 C 86.546875 155.554688 83.488281 157.492188 84.320312 161.648438 C 85.15625 165.804688 87.933594 167.191406 87.933594 167.191406 L 86.398438 170.714844 C 86.675781 170.882812 86.957031 171.039062 87.242188 171.191406 C 88.613281 169.457031 90.160156 167.097656 90.160156 165.25 C 90.160156 161.925781 86.546875 159.984375 86.546875 158.324219 "/>
<path style=" stroke:none;fill-rule:nonzero;fill:rgb(47.839355%,79.60968%,25.878906%);fill-opacity:1;" d="M 98.5 167.191406 C 96.550781 166.359375 94.050781 164.421875 94.050781 163.867188 C 94.050781 163.3125 97.109375 159.15625 97.109375 159.15625 C 97.109375 159.15625 94.882812 155.277344 96.832031 152.226562 C 98.777344 149.179688 99.054688 148.347656 97.386719 148.347656 C 95.71875 148.347656 95.164062 144.746094 96.550781 144.46875 C 97.941406 144.191406 99.054688 136.984375 97.941406 135.046875 C 97.261719 133.855469 96.578125 130.375 96.152344 127.859375 C 95.960938 127.851562 95.773438 127.839844 95.578125 127.839844 C 93.269531 127.839844 91.054688 128.296875 88.992188 129.125 C 89.875 130.972656 91.179688 133.9375 90.992188 135.046875 C 90.714844 136.707031 90.160156 138.648438 90.714844 139.757812 C 91.269531 140.863281 92.9375 142.25 89.324219 144.46875 C 85.710938 146.683594 86.546875 147.515625 86.824219 148.625 C 87.101562 149.734375 88.769531 151.671875 88.769531 152.78125 C 88.769531 153.890625 86.546875 156.664062 86.546875 158.324219 C 86.546875 159.984375 90.160156 161.925781 90.160156 165.25 C 90.160156 167.097656 88.613281 169.457031 87.242188 171.191406 C 89.777344 172.535156 92.601562 173.285156 95.578125 173.285156 C 95.921875 173.285156 96.257812 173.277344 96.597656 173.257812 C 98.074219 170.796875 99.648438 167.683594 98.5 167.191406 "/>
<path style=" stroke:none;fill-rule:nonzero;fill:rgb(33.729553%,57.249451%,18.818665%);fill-opacity:1;" d="M 99.054688 162.480469 C 99.054688 161.648438 101.277344 156.9375 101.277344 156.9375 C 101.277344 156.9375 99.332031 153.335938 99.609375 151.671875 C 99.886719 150.011719 101.554688 145.855469 101.554688 145.855469 L 99.609375 143.914062 C 99.609375 143.914062 100.164062 139.203125 101 138.09375 C 101.832031 136.984375 101 135.324219 99.332031 133.105469 C 98.476562 131.96875 98.5 129.886719 98.722656 128.125 C 97.882812 127.972656 97.023438 127.886719 96.152344 127.859375 C 96.578125 130.375 97.261719 133.855469 97.941406 135.046875 C 99.054688 136.984375 97.941406 144.191406 96.550781 144.46875 C 95.164062 144.746094 95.71875 148.347656 97.386719 148.347656 C 99.054688 148.347656 98.777344 149.179688 96.832031 152.226562 C 94.882812 155.277344 97.109375 159.15625 97.109375 159.15625 C 97.109375 159.15625 94.050781 163.3125 94.050781 163.867188 C 94.050781 164.421875 96.550781 166.359375 98.5 167.191406 C 99.648438 167.683594 98.074219 170.796875 96.597656 173.257812 C 98.011719 173.175781 99.390625 172.921875 100.714844 172.519531 C 100.917969 171.546875 101.191406 170.398438 101.554688 169.132812 C 102.667969 165.25 99.054688 163.3125 99.054688 162.480469 "/>
<path style=" stroke:none;fill-rule:nonzero;fill:rgb(47.839355%,79.60968%,25.878906%);fill-opacity:1;" d="M 107.949219 139.203125 C 107.949219 139.203125 111.007812 142.25 110.171875 145.023438 C 109.5 147.261719 109.371094 147.507812 109.34375 147.523438 C 109.410156 147.597656 112.113281 150.578125 111.5625 151.671875 C 111.007812 152.78125 109.339844 155.832031 109.339844 155.832031 C 109.339844 155.832031 113.785156 158.324219 113.230469 159.433594 C 112.675781 160.539062 107.949219 163.3125 108.503906 164.421875 C 108.703125 164.8125 108.902344 165.949219 109.074219 167.242188 C 112.996094 163.09375 115.453125 157.15625 115.453125 150.566406 C 115.453125 143.464844 112.605469 137.128906 108.148438 132.964844 L 107.394531 134.769531 L 107.949219 139.203125 "/>
<path style=" stroke:none;fill-rule:nonzero;fill:rgb(47.839355%,79.60968%,25.878906%);fill-opacity:1;" d="M 104.890625 163.867188 C 105.726562 163.035156 107.671875 159.433594 107.671875 159.433594 C 107.671875 159.433594 104.058594 157.492188 106.003906 155.277344 C 107.949219 153.058594 108.78125 150.289062 107.394531 149.457031 C 106.003906 148.625 105.449219 145.300781 105.449219 145.300781 C 105.449219 145.300781 108.503906 140.863281 106.003906 138.648438 C 104.375 137.207031 104.984375 133.421875 105.605469 130.949219 C 103.523438 129.554688 101.199219 128.578125 98.722656 128.125 C 98.5 129.886719 98.476562 131.96875 99.332031 133.105469 C 101 135.324219 101.832031 136.984375 101 138.09375 C 100.164062 139.203125 99.609375 143.914062 99.609375 143.914062 L 101.554688 145.855469 C 101.554688 145.855469 99.886719 150.011719 99.609375 151.671875 C 99.332031 153.335938 101.277344 156.9375 101.277344 156.9375 C 101.277344 156.9375 99.054688 161.648438 99.054688 162.480469 C 99.054688 163.3125 102.667969 165.25 101.554688 169.132812 C 101.191406 170.398438 100.917969 171.546875 100.714844 172.519531 C 102.894531 171.851562 104.925781 170.769531 106.746094 169.355469 C 106.222656 165.65625 104.117188 164.640625 104.890625 163.867188 "/>
<path style=" stroke:none;fill-rule:nonzero;fill:rgb(33.729553%,57.249451%,18.818665%);fill-opacity:1;" d="M 109.074219 167.242188 C 108.902344 165.949219 108.703125 164.8125 108.503906 164.421875 C 107.949219 163.3125 112.675781 160.539062 113.230469 159.433594 C 113.785156 158.324219 109.339844 155.832031 109.339844 155.832031 C 109.339844 155.832031 111.007812 152.78125 111.5625 151.671875 C 112.113281 150.578125 109.410156 147.597656 109.34375 147.523438 C 109.339844 147.527344 109.339844 147.515625 109.339844 147.515625 C 109.339844 147.515625 109.34375 147.523438 109.34375 147.523438 C 109.371094 147.507812 109.5 147.261719 110.171875 145.023438 C 111.007812 142.25 107.949219 139.203125 107.949219 139.203125 L 107.394531 134.769531 L 108.148438 132.964844 C 107.351562 132.21875 106.5 131.546875 105.605469 130.949219 C 104.984375 133.421875 104.375 137.207031 106.003906 138.648438 C 108.503906 140.863281 105.449219 145.300781 105.449219 145.300781 C 105.449219 145.300781 106.003906 148.625 107.394531 149.457031 C 108.78125 150.289062 107.949219 153.058594 106.003906 155.277344 C 104.058594 157.492188 107.671875 159.433594 107.671875 159.433594 C 107.671875 159.433594 105.726562 163.035156 104.890625 163.867188 C 104.117188 164.640625 106.222656 165.65625 106.746094 169.355469 C 107.566406 168.71875 108.347656 168.011719 109.074219 167.242188 "/>
<path style=" stroke:none;fill-rule:nonzero;fill:rgb(33.729553%,57.249451%,18.818665%);fill-opacity:1;" d="M 109.34375 147.523438 C 109.34375 147.523438 109.339844 147.515625 109.339844 147.515625 C 109.339844 147.515625 109.339844 147.527344 109.34375 147.523438 "/>
<path style=" stroke:none;fill-rule:nonzero;fill:rgb(95.689392%,79.219055%,52.159119%);fill-opacity:1;" d="M 133.597656 211.304688 C 133.597656 211.304688 130.726562 213.554688 134.621094 215.597656 C 138.519531 217.640625 146.921875 217.640625 152.253906 216.621094 C 157.585938 215.597656 159.226562 213.757812 159.226562 213.757812 L 157.585938 210.488281 L 139.953125 210.894531 L 133.597656 211.304688 "/>
<path style=" stroke:none;fill-rule:nonzero;fill:rgb(94.898987%,63.919067%,12.939453%);fill-opacity:1;" d="M 155.738281 209.671875 C 156.558594 205.992188 155.738281 201.085938 151.640625 196.386719 C 147.539062 191.683594 147.128906 188.414062 147.128906 188.414062 L 148.261719 187.886719 L 145.078125 187.1875 C 145.078125 187.1875 145.691406 202.109375 143.4375 203.332031 C 141.179688 204.558594 134.007812 203.539062 132.367188 208.648438 C 130.769531 213.628906 137.734375 215.886719 144.917969 215.621094 C 149.878906 214.351562 155.03125 212.851562 155.738281 209.671875 "/>
<path style=" stroke:none;fill-rule:nonzero;fill:rgb(86.669922%,55.688477%,10.5896%);fill-opacity:1;" d="M 158.609375 212.328125 L 157.175781 189.84375 L 148.261719 187.886719 L 147.128906 188.414062 C 147.128906 188.414062 147.539062 191.683594 151.640625 196.386719 C 155.738281 201.085938 156.558594 205.992188 155.738281 209.671875 C 155.03125 212.851562 149.878906 214.351562 144.917969 215.621094 C 145.109375 215.617188 145.296875 215.609375 145.488281 215.597656 C 152.871094 215.1875 158.609375 212.328125 158.609375 212.328125 "/>
<path style=" stroke:none;fill-rule:nonzero;fill:rgb(95.689392%,79.219055%,52.159119%);fill-opacity:1;" d="M 143.027344 205.785156 C 143.027344 205.785156 135.851562 207.625 136.875 210.078125 C 137.902344 212.53125 137.695312 214.371094 135.648438 211.917969 C 133.597656 209.464844 133.1875 207.21875 135.851562 206.605469 C 138.519531 205.992188 143.027344 205.785156 143.027344 205.785156 "/>
<g clip-path="url(#clip1)" clip-rule="nonzero">
<path style=" stroke:none;fill-rule:nonzero;fill:rgb(95.689392%,79.219055%,52.159119%);fill-opacity:1;" d="M 210.324219 182.675781 C 210.324219 182.675781 211.640625 185.628906 214.25 182.730469 C 216.863281 179.828125 218.6875 172.617188 218.957031 167.820312 C 219.234375 163.023438 218 161.21875 218 161.21875 L 214.820312 161.914062 L 211.347656 177.132812 L 210.324219 182.675781 "/>
</g>
<path style=" stroke:none;fill-rule:nonzero;fill:rgb(94.898987%,63.919067%,12.939453%);fill-opacity:1;" d="M 213.714844 163.320312 C 210.714844 161.820312 206.300781 161.457031 201.351562 163.957031 C 196.40625 166.457031 193.492188 166.101562 193.492188 166.101562 L 193.285156 165.015625 L 191.988281 167.59375 C 191.988281 167.59375 205.003906 170.304688 205.578125 172.503906 C 206.144531 174.703125 203.707031 180.640625 207.761719 183.15625 C 211.714844 185.609375 215.179688 180.121094 216.507812 173.898438 C 216.484375 169.367188 216.304688 164.621094 213.714844 163.320312 "/>
<path style=" stroke:none;fill-rule:nonzero;fill:rgb(86.669922%,55.688477%,10.5896%);fill-opacity:1;" d="M 216.628906 161.433594 L 196.90625 157.792969 L 193.28125 165.015625 L 193.492188 166.101562 C 193.492188 166.101562 196.40625 166.457031 201.351562 163.957031 C 206.300781 161.460938 210.714844 161.820312 213.710938 163.324219 C 216.304688 164.621094 216.484375 169.367188 216.507812 173.898438 C 216.542969 173.730469 216.578125 173.570312 216.609375 173.40625 C 217.855469 166.980469 216.628906 161.433594 216.628906 161.433594 "/>
<path style=" stroke:none;fill-rule:nonzero;fill:rgb(95.689392%,79.219055%,52.159119%);fill-opacity:1;" d="M 207.605469 173.386719 C 207.605469 173.386719 207.636719 179.945312 209.976562 179.597656 C 212.316406 179.25 213.859375 179.824219 211.296875 181.050781 C 208.734375 182.277344 206.703125 182.144531 206.753906 179.722656 C 206.800781 177.300781 207.605469 173.386719 207.605469 173.386719 "/>
<path style=" stroke:none;fill-rule:nonzero;fill:rgb(13.729858%,23.529053%,43.919373%);fill-opacity:1;" d="M 173.753906 148.960938 L 176.253906 144.636719 C 174.949219 145.378906 173.828125 146.683594 173.753906 148.960938 "/>
<path style=" stroke:none;fill-rule:nonzero;fill:rgb(13.729858%,23.529053%,43.919373%);fill-opacity:1;" d="M 197.09375 157.167969 C 196.992188 157.238281 196.878906 157.300781 196.746094 157.34375 C 193.054688 158.570312 186.085938 154.890625 181.574219 153.257812 C 178.925781 152.296875 176.84375 154.015625 175.574219 155.597656 C 175.59375 155.632812 175.609375 155.671875 175.628906 155.710938 C 181.78125 168.179688 189.773438 167.972656 194.285156 167.566406 C 198.796875 167.15625 200.230469 162.457031 200.230469 159.390625 C 200.230469 158.273438 198.875 157.621094 197.09375 157.167969 "/>
<path style=" stroke:none;fill-rule:nonzero;fill:rgb(10.198975%,17.248535%,29.798889%);fill-opacity:1;" d="M 181.574219 153.257812 C 186.085938 154.890625 193.054688 158.570312 196.746094 157.34375 C 196.878906 157.300781 196.992188 157.238281 197.09375 157.167969 C 193.96875 156.378906 189.53125 156.210938 188.75 155.300781 C 187.519531 153.871094 180.34375 143.648438 180.34375 143.648438 C 180.34375 143.648438 178.117188 143.570312 176.253906 144.636719 L 173.753906 148.960938 C 173.699219 150.609375 174.195312 152.765625 175.574219 155.597656 C 176.84375 154.015625 178.925781 152.296875 181.574219 153.257812 "/>
<path style=" stroke:none;fill-rule:nonzero;fill:rgb(44.309998%,54.899597%,81.17981%);fill-opacity:1;" d="M 153.074219 103.996094 C 153.074219 103.996094 149.589844 99.5 149.589844 98.273438 C 149.589844 97.046875 150.613281 81.921875 150.613281 81.921875 L 165.992188 80.488281 C 165.992188 80.488281 173.371094 80.898438 175.011719 81.714844 C 176.652344 82.535156 182.597656 88.667969 183.007812 96.636719 C 183.417969 104.609375 184.035156 108.699219 186.289062 111.761719 C 188.542969 114.828125 184.035156 124.640625 184.035156 124.640625 L 153.074219 103.996094 "/>
<path style=" stroke:none;fill-rule:nonzero;fill:rgb(33.329773%,43.528748%,74.899292%);fill-opacity:1;" d="M 137.339844 116.566406 C 140.566406 112.582031 145.488281 104.148438 146.101562 100.011719 C 146.554688 96.976562 146.34375 91.316406 146.199219 88.503906 C 143.5 92.34375 140.164062 97.234375 138.570312 100.164062 C 135.648438 105.53125 133.648438 110.742188 129.804688 114.265625 C 125.960938 117.792969 131.496094 120.859375 133.957031 121.011719 C 134.324219 121.035156 134.898438 120.722656 135.605469 120.160156 C 135.640625 119.289062 136.105469 118.085938 137.339844 116.566406 "/>
<path style=" stroke:none;fill-rule:nonzero;fill:rgb(27.839661%,39.608765%,68.629456%);fill-opacity:1;" d="M 149.332031 100.316406 C 150.871094 94.03125 150.613281 81.921875 150.613281 81.921875 L 150.253906 82.84375 C 150.253906 82.84375 148.445312 85.308594 146.199219 88.503906 C 146.34375 91.316406 146.554688 96.976562 146.101562 100.011719 C 145.488281 104.148438 140.566406 112.582031 137.339844 116.566406 C 136.105469 118.085938 135.640625 119.289062 135.605469 120.160156 C 139.609375 116.976562 148.023438 105.660156 149.332031 100.316406 "/>
<path style=" stroke:none;fill-rule:nonzero;fill:rgb(20.388794%,32.548523%,63.139343%);fill-opacity:1;" d="M 136.261719 121.320312 C 136.261719 121.320312 130.417969 118.558594 129.035156 116.261719 C 127.652344 113.960938 127.1875 115.1875 125.191406 117.332031 C 123.191406 119.480469 125.804688 123.3125 129.648438 124.230469 C 133.492188 125.152344 135.03125 123.464844 135.03125 123.464844 L 136.261719 121.320312 "/>
<path style=" stroke:none;fill-rule:nonzero;fill:rgb(45.098877%,56.079102%,81.959534%);fill-opacity:1;" d="M 140.257812 101.082031 C 140.257812 101.082031 136.875 110.28125 134.722656 111.816406 C 132.570312 113.347656 132.570312 110.742188 134.722656 108.59375 C 136.875 106.449219 140.257812 101.082031 140.257812 101.082031 "/>
<path style=" stroke:none;fill-rule:nonzero;fill:rgb(13.729858%,23.529053%,43.919373%);fill-opacity:1;" d="M 193.003906 128.523438 C 193.925781 119.9375 186.851562 119.171875 181.625 119.480469 C 176.394531 119.785156 172.398438 119.480469 168.246094 123.3125 C 164.09375 127.144531 158.40625 126.992188 158.40625 126.992188 L 168.375 110.613281 C 163.972656 102.457031 172.875 85.863281 174.601562 83.761719 C 176.449219 81.511719 175.421875 81.714844 172.960938 80.285156 C 170.5 78.855469 167.273438 81.492188 166.8125 84.578125 C 166.351562 87.664062 162.300781 100.113281 160.453125 101.75 C 158.609375 103.382812 154.507812 103.585938 152.253906 99.292969 C 150 95.003906 153.28125 81.921875 153.28125 81.921875 C 153.28125 81.921875 152.253906 80.695312 150.613281 81.921875 C 148.976562 83.148438 148.152344 89.890625 148.152344 97.25 C 148.152344 104.609375 152.460938 116.054688 155.738281 125.253906 C 159.019531 134.449219 163.941406 143.648438 160.25 147.738281 C 156.558594 151.824219 148.359375 165.109375 145.078125 176.148438 C 141.796875 187.1875 146.921875 193.113281 152.253906 193.113281 C 157.585938 193.113281 157.996094 191.277344 157.996094 182.894531 C 157.996094 174.511719 163.53125 167.769531 168.042969 162.863281 C 172.554688 157.957031 185.46875 143.035156 192.03125 134.246094 C 192.679688 133.378906 193.164062 132.503906 193.515625 131.636719 C 193.027344 131.398438 192.792969 130.496094 193.003906 128.523438 "/>
<path style=" stroke:none;fill-rule:nonzero;fill:rgb(10.198975%,17.248535%,29.798889%);fill-opacity:1;" d="M 188.75 116.261719 C 188.75 116.261719 188.75 116.261719 188.957031 113.195312 C 189.160156 110.128906 185.878906 111.355469 184.238281 113.601562 C 182.597656 115.851562 176.242188 119.53125 169.476562 112.171875 C 169.039062 111.699219 168.675781 111.175781 168.375 110.613281 L 158.40625 126.992188 C 158.40625 126.992188 164.09375 127.144531 168.246094 123.3125 C 172.398438 119.480469 176.394531 119.785156 181.625 119.480469 C 186.851562 119.171875 193.925781 119.9375 193.003906 128.523438 C 192.792969 130.496094 193.027344 131.398438 193.515625 131.636719 C 196.734375 123.726562 188.75 116.261719 188.75 116.261719 "/>
<path style=" stroke:none;fill-rule:nonzero;fill:rgb(10.198975%,17.248535%,29.798889%);fill-opacity:1;" d="M 162.558594 144.160156 C 162.558594 144.160156 173.167969 129.289062 176.242188 126.683594 C 179.316406 124.078125 170.09375 130.058594 168.246094 133.582031 C 166.402344 137.109375 162.558594 144.160156 162.558594 144.160156 "/>
<path style=" stroke:none;fill-rule:nonzero;fill:rgb(94.509888%,72.938538%,52.938843%);fill-opacity:1;" d="M 153.28125 81.921875 C 153.28125 81.921875 152.664062 89.6875 156.355469 90.710938 C 160.046875 91.730469 161.277344 81.308594 161.277344 81.308594 L 153.28125 81.921875 "/>
<path style=" stroke:none;fill-rule:nonzero;fill:rgb(68.238831%,38.819885%,21.179199%);fill-opacity:1;" d="M 148.410156 19.066406 C 148.410156 18.863281 147.988281 17.667969 147.515625 16.398438 C 145.960938 17.335938 144.875 17.839844 144.875 17.839844 C 144.875 17.839844 161.125 27.070312 176.320312 33.789062 C 162.570312 26.679688 148.410156 19.304688 148.410156 19.066406 "/>
<path style=" stroke:none;fill-rule:nonzero;fill:rgb(68.238831%,38.819885%,21.179199%);fill-opacity:1;" d="M 197.925781 30.71875 C 200.523438 33.433594 202.226562 35.707031 203.308594 37.617188 C 207.339844 31.136719 201.875 19.554688 198.078125 16.308594 C 193.773438 12.628906 183.625 15.082031 179.320312 8.335938 C 175.011719 1.59375 160.25 0.0585938 157.175781 6.804688 C 156.21875 8.90625 154.664062 10.765625 152.976562 12.335938 C 161.585938 13.90625 187.191406 19.507812 197.925781 30.71875 "/>
<path style=" stroke:none;fill-rule:nonzero;fill:rgb(93.328857%,93.728638%,16.468811%);fill-opacity:1;" d="M 201.152344 39.917969 C 202.0625 39.265625 202.769531 38.484375 203.308594 37.617188 C 202.226562 35.707031 200.523438 33.433594 197.925781 30.71875 C 187.1875 19.507812 161.585938 13.90625 152.976562 12.335938 C 151.109375 14.074219 149.078125 15.453125 147.515625 16.398438 C 147.988281 17.667969 148.410156 18.863281 148.410156 19.070312 C 148.410156 19.304688 162.566406 26.679688 176.320312 33.789062 C 187.398438 38.683594 197.914062 42.246094 201.152344 39.917969 "/>
<path style=" stroke:none;fill-rule:nonzero;fill:rgb(61.959839%,31.759644%,16.079712%);fill-opacity:1;" d="M 193.160156 15.542969 C 193.160156 15.542969 195.160156 17.6875 195.160156 21.0625 C 195.160156 24.433594 185.621094 20.292969 183.007812 19.222656 C 180.394531 18.148438 191.773438 23.667969 196.234375 27.652344 C 200.691406 31.636719 202.386719 33.324219 202.386719 33.324219 C 202.386719 33.324219 203.921875 31.945312 202.078125 25.96875 C 200.234375 19.988281 198.847656 17.996094 197.308594 17.230469 C 195.773438 16.460938 193.160156 15.542969 193.160156 15.542969 "/>
<path style=" stroke:none;fill-rule:nonzero;fill:rgb(77.648926%,50.979614%,36.079407%);fill-opacity:1;" d="M 170.863281 5.425781 C 170.863281 5.425781 165.632812 4.046875 163.019531 7.265625 C 160.40625 10.484375 159.480469 11.558594 159.480469 11.558594 C 159.480469 11.558594 158.558594 8.183594 160.40625 6.191406 C 162.25 4.199219 166.707031 3.738281 168.246094 3.894531 C 169.785156 4.046875 170.863281 5.425781 170.863281 5.425781 "/>
<path style=" stroke:none;fill-rule:nonzero;fill:rgb(49.409485%,29.40979%,15.289307%);fill-opacity:1;" d="M 142.414062 43.289062 C 142.414062 43.289062 118.425781 27.960938 124.882812 20.910156 C 131.339844 13.855469 151.332031 11.097656 179.316406 23.667969 C 207.304688 36.238281 217.761719 56.472656 212.535156 62.910156 C 207.304688 69.351562 195.925781 64.445312 187.929688 61.378906 C 179.933594 58.3125 142.414062 43.289062 142.414062 43.289062 "/>
<path style=" stroke:none;fill-rule:nonzero;fill:rgb(1.568604%,2.349854%,2.349854%);fill-opacity:1;" d="M 141.386719 32.050781 C 146.511719 29.800781 149.175781 26.9375 157.378906 34.09375 C 165.582031 41.246094 171.320312 40.632812 175.21875 38.179688 C 178.9375 35.835938 182.09375 34.246094 182.367188 34.105469 C 182.382812 34.097656 182.394531 34.09375 182.394531 34.09375 C 182.394531 34.09375 182.378906 34.101562 182.367188 34.105469 C 181.859375 34.363281 174.226562 38.394531 181.367188 44.722656 C 188.75 51.261719 184.238281 56.984375 184.648438 61.6875 C 185.058594 66.386719 184.648438 67.613281 187.519531 64.753906 C 189.949219 62.332031 194.285156 64.742188 195.808594 68.019531 C 197.605469 62.023438 200.113281 50.328125 195.71875 41.859375 C 189.566406 30.003906 163.734375 19.171875 148.359375 23.054688 C 135.277344 26.359375 131.695312 36.171875 134.953125 46.828125 C 135.625 39.90625 137.214844 33.878906 141.386719 32.050781 "/>
<path style=" stroke:none;fill-rule:nonzero;fill:rgb(1.568604%,2.349854%,2.349854%);fill-opacity:1;" d="M 182.367188 34.105469 C 182.378906 34.097656 182.394531 34.089844 182.394531 34.089844 C 182.394531 34.089844 182.386719 34.097656 182.367188 34.105469 "/>
<path style=" stroke:none;fill-rule:nonzero;fill:rgb(97.24884%,79.60968%,61.178589%);fill-opacity:1;" d="M 177.679688 73.539062 C 178.539062 72.585938 179.230469 71.425781 179.769531 70.128906 C 170.039062 68.445312 142.660156 62.867188 137.285156 52.488281 C 136.308594 50.59375 135.527344 48.699219 134.953125 46.824219 C 134.800781 48.40625 134.699219 50.035156 134.621094 51.667969 C 134.210938 60.457031 129.90625 61.277344 133.1875 68.636719 C 136.464844 75.992188 148.5625 84.167969 156.765625 83.761719 C 159.511719 83.625 163.363281 82.683594 167.273438 81.492188 C 170.347656 79.742188 174.433594 77.132812 177.679688 73.539062 "/>
<path style=" stroke:none;fill-rule:nonzero;fill:rgb(97.24884%,79.60968%,61.178589%);fill-opacity:1;" d="M 179.769531 70.128906 C 182.703125 63.097656 181.316406 52.003906 179.933594 47.171875 C 178.292969 41.449219 175.011719 44.515625 164.554688 41.65625 C 156.777344 39.523438 150.359375 32.875 147.585938 29.605469 C 145.527344 29.886719 143.710938 31.03125 141.386719 32.046875 C 137.214844 33.878906 135.625 39.90625 134.953125 46.824219 C 135.527344 48.699219 136.308594 50.59375 137.285156 52.488281 C 142.660156 62.867188 170.039062 68.445312 179.769531 70.128906 "/>
<path style=" stroke:none;fill-rule:nonzero;fill:rgb(94.509888%,72.938538%,52.938843%);fill-opacity:1;" d="M 188.75 77.628906 C 193.054688 77.425781 196.746094 73.949219 196.335938 69.863281 C 196.273438 69.234375 196.085938 68.613281 195.8125 68.015625 C 195.09375 70.417969 194.492188 71.90625 194.492188 71.90625 L 183.214844 70.679688 C 183.214844 70.679688 181.921875 70.496094 179.769531 70.128906 C 179.230469 71.425781 178.539062 72.585938 177.679688 73.539062 C 174.433594 77.132812 170.347656 79.742188 167.273438 81.492188 C 175.03125 79.132812 183.007812 75.789062 183.007812 75.789062 C 183.007812 75.789062 184.445312 77.832031 188.75 77.628906 "/>
<path style=" stroke:none;fill-rule:nonzero;fill:rgb(94.509888%,72.938538%,52.938843%);fill-opacity:1;" d="M 164.554688 41.65625 C 175.011719 44.515625 178.292969 41.449219 179.933594 47.171875 C 181.316406 52.003906 182.703125 63.097656 179.769531 70.128906 C 181.921875 70.496094 183.214844 70.679688 183.214844 70.679688 L 194.492188 71.90625 C 194.492188 71.90625 195.09375 70.417969 195.8125 68.015625 C 194.285156 64.742188 189.949219 62.328125 187.519531 64.75 C 184.648438 67.613281 185.058594 66.386719 184.648438 61.6875 C 184.238281 56.984375 188.75 51.261719 181.367188 44.722656 C 174.226562 38.394531 181.863281 34.359375 182.367188 34.105469 C 182.09375 34.242188 178.941406 35.835938 175.21875 38.179688 C 171.324219 40.632812 165.582031 41.246094 157.378906 34.089844 C 152.894531 30.179688 150.066406 29.265625 147.585938 29.605469 C 150.359375 32.875 156.777344 39.523438 164.554688 41.65625 "/>
<path style=" stroke:none;fill-rule:nonzero;fill:rgb(87.838745%,62.348938%,41.569519%);fill-opacity:1;" d="M 193.15625 68.023438 C 193.15625 68.023438 189.058594 66.488281 187.929688 69.863281 C 186.800781 73.234375 188.648438 74.050781 188.648438 74.050781 C 188.648438 74.050781 187.625 70.476562 189.671875 69.453125 C 191.722656 68.429688 193.15625 68.023438 193.15625 68.023438 "/>
<path style=" stroke:none;fill-rule:nonzero;fill:rgb(87.838745%,62.348938%,41.569519%);fill-opacity:1;" d="M 147.230469 54.429688 C 147.230469 54.429688 146.308594 59.539062 143.027344 59.847656 C 139.746094 60.152344 143.644531 62.910156 145.386719 63.832031 C 147.128906 64.75 147.640625 62.09375 146.71875 61.074219 C 145.796875 60.050781 147.128906 59.027344 147.4375 57.800781 C 147.742188 56.574219 147.230469 54.429688 147.230469 54.429688 "/>
<path style=" stroke:none;fill-rule:nonzero;fill:rgb(23.529053%,4.309082%,8.239746%);fill-opacity:1;" d="M 154.558594 70.882812 C 154.785156 70.882812 155.003906 70.90625 155.21875 70.9375 C 156.148438 67.71875 156.148438 63.832031 156.148438 63.832031 C 156.148438 63.832031 156.148438 63.832031 153.179688 68.328125 C 150.207031 72.824219 142.71875 68.125 142.71875 68.125 C 142.71875 68.125 147.230469 71.191406 147.128906 72.417969 C 147.054688 73.304688 148.375 75.140625 150.351562 75.363281 C 150.324219 75.1875 150.308594 75.003906 150.308594 74.820312 C 150.308594 72.644531 152.210938 70.882812 154.558594 70.882812 "/>
<path style=" stroke:none;fill-rule:nonzero;fill:rgb(95.689392%,43.528748%,55.688477%);fill-opacity:1;" d="M 152.871094 74.765625 C 153.992188 74.101562 154.730469 72.609375 155.21875 70.9375 C 155.003906 70.90625 154.785156 70.882812 154.558594 70.882812 C 152.210938 70.882812 150.308594 72.644531 150.308594 74.820312 C 150.308594 75.003906 150.324219 75.1875 150.351562 75.363281 C 151.109375 75.449219 151.960938 75.304688 152.871094 74.765625 "/>
<path style=" stroke:none;fill-rule:nonzero;fill:rgb(100%,100%,100%);fill-opacity:1;" d="M 143.949219 49.882812 C 143.949219 51.773438 142.894531 53.304688 141.59375 53.304688 C 140.292969 53.304688 139.234375 51.773438 139.234375 49.882812 C 139.234375 47.992188 140.292969 46.457031 141.59375 46.457031 C 142.894531 46.457031 143.949219 47.992188 143.949219 49.882812 "/>
<path style=" stroke:none;fill-rule:nonzero;fill:rgb(1.568604%,2.349854%,2.349854%);fill-opacity:1;" d="M 143.128906 49.78125 C 143.128906 51.164062 142.578125 52.28125 141.902344 52.28125 C 141.222656 52.28125 140.667969 51.164062 140.667969 49.78125 C 140.667969 48.398438 141.222656 47.277344 141.902344 47.277344 C 142.578125 47.277344 143.128906 48.398438 143.128906 49.78125 "/>
<path style=" stroke:none;fill-rule:nonzero;fill:rgb(100%,100%,100%);fill-opacity:1;" d="M 142.308594 48.808594 C 142.308594 49.371094 142.035156 49.832031 141.695312 49.832031 C 141.355469 49.832031 141.078125 49.371094 141.078125 48.808594 C 141.078125 48.246094 141.355469 47.785156 141.695312 47.785156 C 142.035156 47.785156 142.308594 48.246094 142.308594 48.808594 "/>
<path style=" stroke:none;fill-rule:nonzero;fill:rgb(100%,100%,100%);fill-opacity:1;" d="M 172.65625 52.539062 C 172.65625 54.429688 171.601562 55.960938 170.296875 55.960938 C 168.996094 55.960938 167.941406 54.429688 167.941406 52.539062 C 167.941406 50.648438 168.996094 49.117188 170.296875 49.117188 C 171.601562 49.117188 172.65625 50.648438 172.65625 52.539062 "/>
<path style=" stroke:none;fill-rule:nonzero;fill:rgb(1.568604%,2.349854%,2.349854%);fill-opacity:1;" d="M 171.835938 52.4375 C 171.835938 53.820312 171.285156 54.941406 170.605469 54.941406 C 169.925781 54.941406 169.375 53.820312 169.375 52.4375 C 169.375 51.054688 169.925781 49.933594 170.605469 49.933594 C 171.285156 49.933594 171.835938 51.054688 171.835938 52.4375 "/>
<path style=" stroke:none;fill-rule:nonzero;fill:rgb(100%,100%,100%);fill-opacity:1;" d="M 171.015625 51.464844 C 171.015625 52.03125 170.738281 52.488281 170.398438 52.488281 C 170.058594 52.488281 169.785156 52.03125 169.785156 51.464844 C 169.785156 50.902344 170.058594 50.445312 170.398438 50.445312 C 170.738281 50.445312 171.015625 50.902344 171.015625 51.464844 "/>
<path style=" stroke:none;fill-rule:nonzero;fill:rgb(1.568604%,2.349854%,2.349854%);fill-opacity:1;" d="M 144.113281 40.535156 C 143.242188 39.050781 141.664062 38.242188 140.191406 38.660156 C 138.839844 39.046875 137.964844 40.351562 137.863281 41.890625 C 138.476562 41.144531 139.367188 40.542969 140.445312 40.234375 C 141.765625 39.859375 143.085938 40.003906 144.113281 40.535156 "/>
<path style=" stroke:none;fill-rule:nonzero;fill:rgb(1.568604%,2.349854%,2.349854%);fill-opacity:1;" d="M 168.800781 45.855469 C 169.75 44.425781 171.34375 43.703125 172.753906 44.199219 C 174.042969 44.65625 174.808594 46.003906 174.800781 47.539062 C 174.253906 46.765625 173.425781 46.117188 172.394531 45.753906 C 171.132812 45.308594 169.835938 45.382812 168.800781 45.855469 "/>
<path style=" stroke:none;fill-rule:nonzero;fill:rgb(33.329773%,43.528748%,74.899292%);fill-opacity:1;" d="M 172.757812 108.289062 C 177.8125 100.414062 175.808594 94.359375 174.621094 91.996094 C 174.359375 92.0625 174.191406 92.140625 174.191406 92.140625 C 174.191406 92.140625 167.425781 103.179688 160.25 111.761719 C 154.011719 119.226562 147.773438 123.445312 146.253906 124.417969 C 148.191406 125.3125 150.84375 126.953125 152.460938 127.296875 C 155.332031 127.910156 166.195312 118.507812 172.757812 108.289062 "/>
<path style=" stroke:none;fill-rule:nonzero;fill:rgb(27.839661%,39.608765%,68.629456%);fill-opacity:1;" d="M 152.871094 132.40625 C 156.558594 132.40625 168.042969 119.328125 172.554688 112.988281 C 177.0625 106.652344 178.5 101.132812 178.085938 95.820312 C 177.769531 91.664062 175.566406 91.757812 174.621094 91.996094 C 175.808594 94.359375 177.8125 100.414062 172.757812 108.289062 C 166.195312 118.507812 155.332031 127.910156 152.460938 127.296875 C 150.84375 126.953125 148.191406 125.3125 146.253906 124.417969 C 146.023438 124.566406 145.898438 124.640625 145.898438 124.640625 C 145.898438 124.640625 149.179688 132.40625 152.871094 132.40625 "/>
<path style=" stroke:none;fill-rule:nonzero;fill:rgb(45.098877%,56.079102%,81.959534%);fill-opacity:1;" d="M 166.8125 106.652344 C 166.8125 106.652344 155.332031 120.960938 153.28125 121.371094 C 151.226562 121.777344 152.152344 120.347656 155.433594 117.589844 C 158.710938 114.828125 163.53125 109.515625 163.53125 109.515625 L 166.8125 106.652344 "/>
<path style=" stroke:none;fill-rule:nonzero;fill:rgb(20.388794%,32.548523%,63.139343%);fill-opacity:1;" d="M 153.996094 133.019531 C 153.996094 133.019531 146.511719 123.824219 146.101562 123.109375 C 145.691406 122.390625 142.617188 124.4375 141.59375 125.152344 C 140.566406 125.867188 147.742188 135.167969 148.152344 135.269531 C 148.5625 135.371094 150 135.472656 151.640625 134.859375 C 153.28125 134.246094 153.996094 133.019531 153.996094 133.019531 "/>
<path style=" stroke:none;fill-rule:nonzero;fill:rgb(39.219666%,52.159119%,79.998779%);fill-opacity:1;" d="M 178.089844 97.25 C 178.089844 97.25 177.527344 104.660156 175.730469 107.777344 C 173.9375 110.894531 171.679688 114.113281 171.679688 114.113281 C 171.679688 114.113281 173.320312 115.800781 176.039062 116.414062 C 178.753906 117.027344 181.472656 116.261719 182.597656 115.441406 C 183.726562 114.625 184.597656 113.296875 185.160156 112.683594 C 185.726562 112.070312 185.726562 112.070312 185.726562 112.070312 C 185.726562 112.070312 183.878906 112.019531 180.703125 111.558594 C 177.523438 111.097656 177.421875 108.390625 178.398438 104.507812 C 179.371094 100.625 178.089844 97.25 178.089844 97.25 "/>
<path style=" stroke:none;fill-rule:nonzero;fill:rgb(19.999695%,39.99939%,72.158813%);fill-opacity:1;" d="M 167.835938 143.855469 C 167.835938 143.855469 154.304688 157.957031 151.640625 167.566406 C 148.972656 177.171875 148.359375 170.835938 149.792969 167.15625 C 151.230469 163.476562 167.835938 143.855469 167.835938 143.855469 "/>
<path style=" stroke:none;fill-rule:nonzero;fill:rgb(85.488892%,42.349243%,10.978699%);fill-opacity:1;" d="M 65.695312 206.050781 C 65.695312 213.625 60.375 219.765625 53.8125 219.765625 C 47.25 219.765625 41.929688 213.625 41.929688 206.050781 C 41.929688 198.472656 47.25 192.332031 53.8125 192.332031 C 60.375 192.332031 65.695312 198.472656 65.695312 206.050781 "/>
<path style=" stroke:none;fill-rule:nonzero;fill:rgb(80.778503%,55.688477%,34.899902%);fill-opacity:1;" d="M 80.914062 209.476562 C 80.914062 212.980469 75.734375 215.816406 69.34375 215.816406 C 62.957031 215.816406 57.773438 212.980469 57.773438 209.476562 C 57.773438 205.976562 62.957031 203.140625 69.34375 203.140625 C 75.734375 203.140625 80.914062 205.976562 80.914062 209.476562 "/>
<path style=" stroke:none;fill-rule:nonzero;fill:rgb(39.99939%,15.689087%,8.239746%);fill-opacity:1;" d="M 76.121094 171.550781 C 56.171875 175.09375 51.25 170.292969 50.039062 167.578125 C 30.558594 165.8125 17.949219 159.453125 15.289062 153.09375 C 12.160156 145.613281 6.53125 184.265625 24.042969 199.230469 C 40.574219 213.355469 77.160156 216.367188 99.621094 204.074219 C 101.886719 199.632812 103.914062 193.054688 104.683594 185.679688 C 105.726562 175.707031 103.015625 166.769531 76.121094 171.550781 "/>
<path style=" stroke:none;fill-rule:nonzero;fill:rgb(28.239441%,10.5896%,7.839966%);fill-opacity:1;" d="M 114.726562 143.117188 C 114.726562 143.117188 86.585938 168.058594 60.941406 168.058594 C 57.105469 168.058594 53.46875 167.886719 50.039062 167.578125 C 51.25 170.292969 56.171875 175.09375 76.121094 171.550781 C 103.015625 166.769531 105.726562 175.707031 104.683594 185.679688 C 103.914062 193.054688 101.886719 199.632812 99.621094 204.074219 C 100.957031 203.34375 102.242188 202.5625 103.472656 201.722656 C 125.359375 186.761719 114.726562 143.117188 114.726562 143.117188 "/>
<path style=" stroke:none;fill-rule:nonzero;fill:rgb(77.648926%,45.878601%,37.249756%);fill-opacity:1;" d="M 15.453125 163.234375 C 15.453125 163.234375 18.371094 190.460938 31.507812 199.398438 C 44.640625 208.335938 57.359375 206.464844 57.359375 206.464844 C 57.359375 206.464844 33.382812 193.996094 30.464844 181.730469 C 27.546875 169.46875 42.140625 171.550781 42.140625 171.550781 C 42.140625 171.550781 34.425781 168.847656 26.710938 166.769531 C 18.996094 164.691406 15.453125 163.234375 15.453125 163.234375 "/>
<g clip-path="url(#clip2)" clip-rule="nonzero">
<path style=" stroke:none;fill-rule:nonzero;fill:rgb(96.469116%,52.549744%,13.729858%);fill-opacity:1;" d="M 102.652344 206.953125 C 102.652344 216.882812 95.996094 224.933594 87.78125 224.933594 C 79.570312 224.933594 72.914062 216.882812 72.914062 206.953125 C 72.914062 197.027344 79.570312 188.976562 87.78125 188.976562 C 95.996094 188.976562 102.652344 197.027344 102.652344 206.953125 "/>
</g>
<path style=" stroke:none;fill-rule:nonzero;fill:rgb(95.689392%,60.778809%,35.289001%);fill-opacity:1;" d="M 97.644531 206.292969 C 97.644531 213.832031 93.492188 219.941406 88.371094 219.941406 C 83.25 219.941406 79.097656 213.832031 79.097656 206.292969 C 79.097656 198.753906 83.25 192.644531 88.371094 192.644531 C 93.492188 192.644531 97.644531 198.753906 97.644531 206.292969 "/>
<path style=" stroke:none;fill-rule:nonzero;fill:rgb(74.508667%,44.309998%,23.139954%);fill-opacity:1;" d="M 93.671875 206.878906 C 93.671875 208.746094 92.253906 210.257812 90.507812 210.257812 C 88.757812 210.257812 87.339844 208.746094 87.339844 206.878906 C 87.339844 205.015625 88.757812 203.503906 90.507812 203.503906 C 92.253906 203.503906 93.671875 205.015625 93.671875 206.878906 "/>
<path style=" stroke:none;fill-rule:nonzero;fill:rgb(1.568604%,2.349854%,2.349854%);fill-opacity:1;" d="M 107.394531 155.832031 C 107.394531 155.832031 125.183594 145.023438 129.910156 141.972656 C 134.632812 138.925781 125.738281 135.324219 120.179688 133.660156 C 114.621094 132 112.398438 129.78125 115.730469 128.949219 C 119.066406 128.117188 136.582031 134.769531 137.414062 140.3125 C 138.25 145.855469 113.785156 158.601562 111.285156 159.433594 C 108.78125 160.261719 107.394531 155.832031 107.394531 155.832031 "/>
<path style=" stroke:none;fill-rule:nonzero;fill:rgb(97.24884%,79.60968%,61.178589%);fill-opacity:1;" d="M 142.972656 128.253906 C 142.972656 128.253906 138.457031 129.847656 136.71875 130.054688 C 134.984375 130.261719 132.203125 129.988281 129.839844 129.15625 C 127.476562 128.324219 126.433594 128.738281 124.558594 130.261719 C 122.683594 131.789062 122.125 133.519531 122.195312 134.976562 C 122.265625 136.429688 123.097656 136.359375 123.65625 136.292969 C 124.210938 136.222656 124.558594 136.707031 125.460938 137.398438 C 126.367188 138.09375 127.617188 138.230469 128.449219 138.230469 C 129.285156 138.230469 129.980469 137.953125 129.980469 137.953125 C 129.980469 137.953125 129.5625 136.015625 130.953125 135.597656 C 132.339844 135.183594 133.523438 135.667969 133.523438 135.667969 L 135.050781 136.847656 C 135.050781 136.847656 136.304688 135.320312 136.304688 134.769531 C 136.304688 134.210938 145.265625 132.757812 145.613281 132.414062 C 145.960938 132.066406 142.972656 128.253906 142.972656 128.253906 "/>
<path style=" stroke:none;fill-rule:nonzero;fill:rgb(97.24884%,79.60968%,61.178589%);fill-opacity:1;" d="M 126.011719 119.015625 C 126.011719 119.015625 122.632812 122.402344 121.160156 123.339844 C 119.683594 124.277344 117.058594 125.230469 114.566406 125.5 C 112.078125 125.773438 111.316406 126.597656 110.289062 128.78125 C 109.261719 130.964844 109.511719 132.765625 110.207031 134.046875 C 110.902344 135.328125 111.625 134.90625 112.09375 134.601562 C 112.566406 134.300781 113.089844 134.585938 114.203125 134.820312 C 115.320312 135.054688 116.507812 134.640625 117.257812 134.28125 C 118.011719 133.921875 118.515625 133.371094 118.515625 133.371094 C 118.515625 133.371094 117.296875 131.800781 118.371094 130.828125 C 119.441406 129.851562 120.714844 129.777344 120.714844 129.777344 L 122.605469 130.179688 C 122.605469 130.179688 123.070312 128.265625 122.832031 127.769531 C 122.589844 127.265625 130.035156 122.085938 130.199219 121.621094 C 130.363281 121.160156 126.011719 119.015625 126.011719 119.015625 "/>
<path style=" stroke:none;fill-rule:nonzero;fill:rgb(97.24884%,79.60968%,61.178589%);fill-opacity:1;" d="M 145.335938 49.78125 C 145.335938 52.347656 143.664062 54.429688 141.601562 54.429688 C 139.539062 54.429688 137.863281 52.347656 137.863281 49.78125 C 137.863281 47.214844 139.539062 45.132812 141.601562 45.132812 C 143.664062 45.132812 145.335938 47.214844 145.335938 49.78125 "/>
<path style=" stroke:none;fill-rule:nonzero;fill:rgb(97.24884%,79.60968%,61.178589%);fill-opacity:1;" d="M 174.304688 52.613281 C 174.304688 55.179688 172.632812 57.261719 170.566406 57.261719 C 168.503906 57.261719 166.832031 55.179688 166.832031 52.613281 C 166.832031 50.046875 168.503906 47.964844 170.566406 47.964844 C 172.632812 47.964844 174.304688 50.046875 174.304688 52.613281 "/>
<path style=" stroke:none;fill-rule:nonzero;fill:rgb(100%,100%,100%);fill-opacity:1;" d="M 144.113281 47.753906 C 144.113281 49.804688 142.871094 51.464844 141.335938 51.464844 C 139.804688 51.464844 138.5625 49.804688 138.5625 47.753906 C 138.5625 45.707031 139.804688 44.042969 141.335938 44.042969 C 142.871094 44.042969 144.113281 45.707031 144.113281 47.753906 "/>
<path style=" stroke:none;fill-rule:nonzero;fill:rgb(100%,100%,100%);fill-opacity:1;" d="M 172.917969 51.742188 C 172.917969 53.789062 171.675781 55.453125 170.144531 55.453125 C 168.609375 55.453125 167.367188 53.789062 167.367188 51.742188 C 167.367188 49.691406 168.609375 48.03125 170.144531 48.03125 C 171.675781 48.03125 172.917969 49.691406 172.917969 51.742188 "/>
<path style=" stroke:none;fill-rule:nonzero;fill:rgb(22.349548%,26.669312%,63.529968%);fill-opacity:1;" d="M 143.429688 47.957031 C 143.429688 49.316406 142.492188 50.421875 141.335938 50.421875 C 140.179688 50.421875 139.246094 49.316406 139.246094 47.957031 C 139.246094 46.59375 140.179688 45.488281 141.335938 45.488281 C 142.492188 45.488281 143.429688 46.59375 143.429688 47.957031 "/>
<path style=" stroke:none;fill-rule:nonzero;fill:rgb(22.349548%,26.669312%,63.529968%);fill-opacity:1;" d="M 172.359375 51.738281 C 172.359375 53.097656 171.421875 54.203125 170.265625 54.203125 C 169.113281 54.203125 168.175781 53.097656 168.175781 51.738281 C 168.175781 50.378906 169.113281 49.273438 170.265625 49.273438 C 171.421875 49.273438 172.359375 50.378906 172.359375 51.738281 "/>
<path style=" stroke:none;fill-rule:nonzero;fill:rgb(12.939453%,15.689087%,32.939148%);fill-opacity:1;" d="M 142.910156 47.957031 C 142.910156 48.980469 142.320312 49.808594 141.59375 49.808594 C 140.863281 49.808594 140.277344 48.980469 140.277344 47.957031 C 140.277344 46.933594 140.863281 46.101562 141.59375 46.101562 C 142.320312 46.101562 142.910156 46.933594 142.910156 47.957031 "/>
<path style=" stroke:none;fill-rule:nonzero;fill:rgb(12.939453%,15.689087%,32.939148%);fill-opacity:1;" d="M 171.820312 51.875 C 171.820312 52.898438 171.230469 53.730469 170.503906 53.730469 C 169.773438 53.730469 169.1875 52.898438 169.1875 51.875 C 169.1875 50.851562 169.773438 50.023438 170.503906 50.023438 C 171.230469 50.023438 171.820312 50.851562 171.820312 51.875 "/>
<path style=" stroke:none;fill-rule:nonzero;fill:rgb(100%,100%,100%);fill-opacity:1;" d="M 141.59375 47.410156 C 141.59375 47.933594 141.253906 48.359375 140.832031 48.359375 C 140.414062 48.359375 140.074219 47.933594 140.074219 47.410156 C 140.074219 46.882812 140.414062 46.457031 140.832031 46.457031 C 141.253906 46.457031 141.59375 46.882812 141.59375 47.410156 "/>
<path style=" stroke:none;fill-rule:nonzero;fill:rgb(100%,100%,100%);fill-opacity:1;" d="M 170.507812 50.863281 C 170.507812 51.390625 170.167969 51.816406 169.75 51.816406 C 169.328125 51.816406 168.988281 51.390625 168.988281 50.863281 C 168.988281 50.339844 169.328125 49.914062 169.75 49.914062 C 170.167969 49.914062 170.507812 50.339844 170.507812 50.863281 "/>
<path style=" stroke:none;fill-rule:nonzero;fill:rgb(100%,100%,100%);fill-opacity:1;" d="M 141.335938 49.292969 C 141.335938 49.558594 141.097656 49.773438 140.808594 49.773438 C 140.511719 49.773438 140.277344 49.558594 140.277344 49.292969 C 140.277344 49.023438 140.511719 48.808594 140.808594 48.808594 C 141.097656 48.808594 141.335938 49.023438 141.335938 49.292969 "/>
<path style=" stroke:none;fill-rule:nonzero;fill:rgb(100%,100%,100%);fill-opacity:1;" d="M 170.195312 53.304688 C 170.195312 53.574219 169.957031 53.789062 169.664062 53.789062 C 169.371094 53.789062 169.132812 53.574219 169.132812 53.304688 C 169.132812 53.039062 169.371094 52.824219 169.664062 52.824219 C 169.957031 52.824219 170.195312 53.039062 170.195312 53.304688 "/>
</g>
</svg>
