<?xml version="1.0" encoding="UTF-8"?>
<svg xmlns="http://www.w3.org/2000/svg" xmlns:xlink="http://www.w3.org/1999/xlink" width="224.87999pt" height="225pt" viewBox="0 0 224.87999 225" version="1.2">
<defs>
<clipPath id="clip1">
  <path d="M 7 7.007812 L 218 7.007812 L 218 221 L 7 221 Z M 7 7.007812 "/>
</clipPath>
<clipPath id="clip2">
  <path d="M 16 22 L 224.761719 22 L 224.761719 224.9375 L 16 224.9375 Z M 16 22 "/>
</clipPath>
<clipPath id="clip3">
  <path d="M 16.328125 16.089844 L 224.761719 16.089844 L 224.761719 210.867188 L 16.328125 210.867188 Z M 16.328125 16.089844 "/>
</clipPath>
<clipPath id="clip4">
  <path d="M 4.742188 20.125 L 224.761719 20.125 L 224.761719 224.9375 L 4.742188 224.9375 Z M 4.742188 20.125 "/>
</clipPath>
</defs>
<g id="surface1">
<g clip-path="url(#clip1)" clip-rule="nonzero">
<path style=" stroke:none;fill-rule:nonzero;fill:rgb(32.159424%,76.078796%,50.19989%);fill-opacity:1;" d="M 217.585938 72.988281 C 217.585938 129.566406 216.699219 220.578125 154.433594 220.578125 C 92.167969 220.578125 7.066406 190.339844 7.066406 133.761719 C 7.066406 77.179688 43.574219 7.007812 105.84375 7.007812 C 168.105469 7.007812 217.585938 16.410156 217.585938 72.988281 "/>
</g>
<g clip-path="url(#clip2)" clip-rule="nonzero">
<path style=" stroke:none;fill-rule:nonzero;fill:rgb(96.859741%,79.219055%,7.449341%);fill-opacity:1;" d="M 35.429688 33.785156 L 29.089844 40.878906 L 21.105469 46.046875 C 19.488281 47.089844 19.230469 49.355469 20.570312 50.738281 C 25.242188 55.585938 35.707031 65 45.078125 63.3125 C 46.777344 63.007812 48.160156 61.824219 48.726562 60.1875 C 51.851562 51.179688 44.195312 39.363281 40.144531 33.984375 C 38.984375 32.445312 36.714844 32.347656 35.429688 33.785156 Z M 209.296875 195.214844 C 209.253906 195.195312 209.207031 195.183594 209.15625 195.191406 C 208.816406 195.246094 208.503906 195.246094 208.320312 195.246094 C 205.988281 195.246094 201.351562 194.265625 196.222656 192.691406 C 192.835938 191.648438 189.703125 190.492188 187.394531 189.425781 C 185.761719 188.671875 184.753906 188.082031 184.128906 187.511719 C 184.085938 187.472656 184.03125 187.453125 183.976562 187.449219 C 183.902344 187.445312 183.828125 187.46875 183.773438 187.527344 C 183.679688 187.628906 183.6875 187.789062 183.789062 187.882812 C 183.820312 187.914062 183.859375 187.941406 183.890625 187.96875 C 184.558594 188.550781 185.578125 189.144531 187.183594 189.882812 C 189.511719 190.957031 192.667969 192.128906 196.074219 193.171875 C 201.25 194.761719 205.941406 195.75 208.320312 195.75 C 208.492188 195.75 208.761719 195.746094 209.070312 195.710938 C 209.125 195.703125 209.179688 195.699219 209.234375 195.691406 C 209.371094 195.667969 209.464844 195.539062 209.445312 195.402344 C 209.433594 195.316406 209.375 195.25 209.296875 195.214844 Z M 218.160156 166.285156 C 218.085938 166.292969 218.015625 166.308594 217.941406 166.328125 L 218.183594 165.542969 C 218.183594 165.542969 204.945312 179.4375 186.707031 170.996094 C 185.738281 170.546875 184.757812 170.039062 183.765625 169.464844 C 181.796875 168.269531 181.746094 165.417969 181.746094 165.417969 C 180.507812 170.355469 182.933594 171.886719 184.648438 172.945312 C 185.175781 173.269531 185.703125 173.574219 186.230469 173.855469 C 202.285156 182.40625 216.765625 170.179688 216.765625 170.179688 L 217.066406 169.195312 C 217.1875 169.273438 217.332031 169.3125 217.5 169.300781 C 218.117188 169.253906 218.765625 168.542969 218.945312 167.707031 C 219.128906 166.875 218.777344 166.238281 218.160156 166.285156 Z M 223.957031 163.253906 C 223.910156 163.230469 223.863281 163.214844 223.808594 163.21875 C 223.460938 163.253906 223.144531 163.253906 222.933594 163.253906 C 219.699219 163.253906 213.328125 161.914062 206.304688 159.757812 C 201.613281 158.316406 197.273438 156.707031 194.082031 155.222656 C 192.039062 154.269531 190.695312 153.496094 189.855469 152.785156 C 189.820312 152.75 189.777344 152.738281 189.734375 152.730469 C 189.648438 152.714844 189.558594 152.742188 189.5 152.8125 C 189.410156 152.917969 189.425781 153.078125 189.53125 153.167969 C 189.566406 153.199219 189.605469 153.230469 189.644531 153.261719 C 190.527344 153.976562 191.871094 154.746094 193.871094 155.679688 C 197.078125 157.175781 201.445312 158.796875 206.15625 160.242188 C 213.226562 162.414062 219.652344 163.761719 222.933594 163.761719 C 223.128906 163.761719 223.414062 163.757812 223.734375 163.734375 C 223.777344 163.730469 223.816406 163.726562 223.859375 163.722656 C 224 163.707031 224.097656 163.585938 224.085938 163.445312 C 224.074219 163.359375 224.023438 163.292969 223.957031 163.253906 Z M 32.023438 173.09375 L 45.445312 171.328125 C 45.449219 171.328125 45.453125 171.324219 45.457031 171.324219 C 45.585938 171.300781 45.679688 171.179688 45.660156 171.046875 C 45.644531 170.90625 45.515625 170.8125 45.378906 170.828125 L 45.3125 170.835938 L 32.0625 172.578125 L 31.957031 172.59375 C 31.828125 172.609375 31.742188 172.71875 31.742188 172.84375 C 31.742188 172.855469 31.738281 172.863281 31.738281 172.875 C 31.757812 173.003906 31.863281 173.097656 31.988281 173.097656 C 32 173.097656 32.011719 173.097656 32.023438 173.09375 Z M 68.660156 173.902344 L 66.371094 172.070312 L 66.355469 172.058594 C 66.246094 171.96875 66.089844 171.988281 66 172.097656 C 65.917969 172.199219 65.933594 172.347656 66.027344 172.433594 C 66.03125 172.4375 66.035156 172.445312 66.039062 172.453125 L 68.375 174.324219 C 68.386719 174.332031 68.402344 174.328125 68.414062 174.335938 C 68.453125 174.355469 68.492188 174.378906 68.535156 174.378906 C 68.609375 174.378906 68.679688 174.34375 68.730469 174.28125 C 68.816406 174.175781 68.800781 174.015625 68.691406 173.929688 Z M 45.878906 173.621094 C 46.011719 173.597656 46.101562 173.476562 46.085938 173.34375 C 46.066406 173.207031 45.9375 173.109375 45.804688 173.128906 L 45.789062 173.128906 L 16.859375 176.867188 L 16.847656 176.867188 C 16.707031 176.886719 16.609375 177.011719 16.628906 177.152344 C 16.644531 177.277344 16.753906 177.371094 16.878906 177.371094 C 16.882812 177.371094 16.890625 177.371094 16.898438 177.371094 C 16.902344 177.371094 16.90625 177.371094 16.910156 177.371094 L 45.867188 173.628906 C 45.871094 173.625 45.875 173.625 45.878906 173.621094 Z M 46.570312 177.285156 L 46.554688 177.289062 L 17.171875 181.085938 L 17.160156 181.085938 C 17.019531 181.105469 16.921875 181.234375 16.941406 181.367188 C 16.957031 181.496094 17.066406 181.589844 17.191406 181.589844 C 17.195312 181.589844 17.203125 181.589844 17.210938 181.589844 C 17.214844 181.589844 17.21875 181.589844 17.222656 181.585938 L 46.632812 177.785156 C 46.636719 177.785156 46.640625 177.78125 46.644531 177.78125 C 46.777344 177.757812 46.867188 177.640625 46.851562 177.503906 C 46.832031 177.367188 46.707031 177.265625 46.570312 177.285156 Z M 69.480469 168.773438 C 69.5625 169.011719 69.664062 169.25 69.804688 169.480469 C 70.039062 169.859375 70.328125 170.164062 70.636719 170.398438 C 71.316406 170.914062 72.109375 171.066406 72.703125 170.703125 L 70.039062 166.34375 C 69.339844 166.769531 69.148438 167.769531 69.480469 168.773438 Z M 118.382812 222.566406 C 118.363281 222.742188 118.347656 222.914062 118.324219 223.085938 C 118.273438 223.558594 118.234375 224.023438 118.234375 224.480469 L 125.4375 224.480469 L 125.605469 223.378906 L 128.863281 223.378906 L 129.15625 224.480469 L 138.433594 224.480469 L 138.433594 222.796875 C 138.433594 222.796875 138.410156 222.707031 138.367188 222.566406 Z M 90.875 222.566406 L 90.316406 222.566406 L 90.316406 224.480469 L 102.773438 224.480469 L 102.773438 222.566406 Z M 89.390625 204.4375 L 106.320312 204.4375 L 106.320312 196.9375 L 89.390625 196.9375 Z M 132.421875 196.9375 L 114.785156 196.9375 L 114.785156 204.4375 L 132.421875 204.4375 Z M 98.042969 34.738281 C 99.496094 34.460938 100.902344 34.035156 102.242188 33.519531 C 106.964844 32.453125 116.074219 30.421875 121.703125 29.335938 C 129.5625 27.824219 148.640625 22.136719 144.511719 22.238281 C 140.378906 22.339844 120.738281 25.519531 120.738281 25.519531 C 117.050781 25.929688 114.25 27.425781 111.703125 27.980469 C 112.800781 27.109375 113.425781 26.511719 113.425781 26.511719 C 113.425781 26.511719 110.917969 27.769531 107.347656 29.117188 C 106.40625 29.410156 105.570312 29.710938 104.828125 30.007812 C 99.949219 31.523438 87.121094 33.394531 84.03125 36.488281 C 81.800781 38.722656 98.042969 34.738281 98.042969 34.738281 Z M 161.523438 71.835938 C 161.230469 77.003906 145.539062 86.625 141.21875 85.59375 C 140.34375 85.382812 139.765625 84.917969 139.425781 84.277344 C 136.476562 82.238281 131.792969 77.46875 128.851562 74.355469 C 128.1875 80.414062 127.417969 85.789062 127.417969 85.789062 L 103.71875 85.789062 C 103.71875 85.789062 102.046875 78.757812 100.679688 71.410156 C 99.039062 73.179688 95.980469 76.417969 93.070312 79.15625 C 95.617188 80.738281 99.839844 83.675781 101.082031 86.460938 C 102.898438 90.53125 101.886719 94.671875 96.78125 95.476562 C 91.675781 96.285156 78.957031 82.96875 79.046875 78.523438 C 77.066406 74.679688 96.804688 57.355469 99.957031 54.625 C 100.085938 54.507812 100.226562 54.386719 100.375 54.265625 L 100.375 54.261719 C 101.820312 53.070312 104.160156 51.601562 106.394531 50.300781 C 106.804688 50.058594 107.230469 49.851562 107.664062 49.664062 L 107.015625 49.300781 L 108.488281 46.839844 C 108.488281 46.839844 112.300781 47.910156 113.167969 47.976562 C 113.417969 47.996094 113.65625 48.273438 113.875 48.65625 C 113.875 48.65625 113.875 48.65625 113.878906 48.65625 C 113.882812 48.671875 113.890625 48.6875 113.898438 48.699219 C 113.929688 48.757812 113.960938 48.816406 113.992188 48.878906 C 114.007812 48.910156 114.023438 48.9375 114.039062 48.96875 C 114.070312 49.03125 114.097656 49.101562 114.128906 49.167969 C 114.140625 49.199219 114.15625 49.226562 114.167969 49.257812 C 114.195312 49.328125 114.226562 49.398438 114.257812 49.46875 C 114.269531 49.5 114.277344 49.53125 114.289062 49.558594 C 114.320312 49.632812 114.34375 49.703125 114.371094 49.777344 C 114.382812 49.808594 114.390625 49.835938 114.402344 49.863281 C 114.429688 49.9375 114.453125 50.011719 114.476562 50.082031 C 114.484375 50.105469 114.492188 50.132812 114.503906 50.160156 C 114.527344 50.230469 114.550781 50.300781 114.574219 50.375 C 114.578125 50.394531 114.585938 50.414062 114.59375 50.4375 C 114.613281 50.507812 114.636719 50.578125 114.65625 50.644531 C 114.660156 50.65625 114.664062 50.671875 114.667969 50.683594 C 114.6875 50.757812 114.707031 50.828125 114.726562 50.890625 C 115.152344 50.851562 115.496094 50.785156 115.730469 50.722656 L 116.09375 47.125 C 116.09375 47.125 117.734375 47.050781 118.3125 47.78125 C 118.894531 48.515625 119.246094 49.722656 119.246094 49.722656 L 118.363281 49.699219 C 118.363281 49.699219 118.308594 49.773438 118.214844 49.890625 C 118.289062 49.925781 118.371094 49.964844 118.445312 50.003906 C 122.089844 51.890625 125.582031 53.738281 127.667969 55.65625 L 127.671875 55.628906 C 127.671875 55.628906 138.445312 64.847656 144.730469 72.089844 C 146.792969 69.941406 150.621094 66.347656 153.640625 65.710938 C 158 64.796875 161.824219 66.667969 161.523438 71.835938 "/>
</g>
<g clip-path="url(#clip3)" clip-rule="nonzero">
<path style=" stroke:none;fill-rule:nonzero;fill:rgb(25.878906%,59.21936%,85.099792%);fill-opacity:1;" d="M 125.402344 73.214844 L 124.84375 71.140625 C 124.542969 70.011719 123.730469 69.09375 122.648438 68.65625 L 122.042969 68.617188 C 121.136719 68.558594 120.242188 68.757812 119.457031 69.171875 L 117.382812 67.292969 C 117 66.949219 116.410156 66.988281 116.082031 67.382812 C 115.757812 67.765625 115.808594 68.335938 116.1875 68.660156 L 117.773438 70.445312 L 118.585938 70.445312 C 118.972656 70.757812 119.152344 71.285156 118.984375 71.792969 L 118.304688 73.816406 C 118.191406 74.164062 118.308594 74.546875 118.605469 74.769531 C 119.007812 75.078125 119.589844 74.96875 119.855469 74.535156 L 121.160156 72.414062 L 121.429688 75.304688 C 121.472656 75.800781 121.890625 76.179688 122.386719 76.179688 C 122.949219 76.179688 123.390625 75.707031 123.351562 75.148438 L 123.175781 72.648438 L 124.058594 73.859375 C 124.300781 74.195312 124.769531 74.273438 125.109375 74.03125 C 125.367188 73.847656 125.484375 73.523438 125.402344 73.214844 Z M 127.417969 85.789062 C 127.417969 85.789062 135.34375 129.117188 130.101562 196.9375 L 116.667969 196.9375 L 114.113281 118.324219 L 104.507812 196.9375 L 91.074219 196.9375 C 90.484375 129.121094 103.71875 85.789062 103.71875 85.789062 L 100.375 72.332031 L 101.898438 70.972656 C 104.859375 68.320312 106.324219 64.371094 105.785156 60.429688 C 105.550781 58.695312 105.191406 57.050781 104.675781 55.804688 C 104.164062 54.566406 103.527344 53.386719 102.753906 52.542969 L 105.339844 50.921875 C 105.339844 50.921875 108.640625 53.945312 109.394531 61.902344 L 123.46875 61.902344 C 123.46875 61.902344 124.089844 55.75 122.542969 52.277344 L 126.492188 54.75 C 126.683594 55.875 126.960938 57.148438 127.078125 58.714844 C 127.246094 61 127.933594 63.21875 129.003906 65.242188 L 130.964844 68.945312 Z M 25.988281 42.882812 L 25.988281 42.886719 L 24.390625 43.917969 C 28.53125 46.914062 33.042969 45.507812 33.042969 45.507812 C 33.042969 45.507812 35.132812 41.265625 32.824219 36.703125 L 31.554688 38.121094 C 29.355469 40.003906 25.007812 32.78125 25.007812 32.78125 C 24.285156 34.070312 23.125 35.0625 21.738281 35.578125 C 21.738281 35.578125 28.183594 41.007812 25.988281 42.882812 Z M 206.15625 160.242188 C 201.445312 158.796875 197.078125 157.175781 193.871094 155.679688 C 191.871094 154.746094 190.527344 153.976562 189.644531 153.261719 L 186.707031 170.996094 C 204.945312 179.4375 218.183594 165.542969 218.183594 165.542969 L 217.941406 166.328125 C 218.015625 166.308594 218.085938 166.292969 218.160156 166.285156 C 218.777344 166.238281 219.128906 166.875 218.945312 167.707031 C 218.765625 168.542969 218.117188 169.253906 217.5 169.300781 C 217.332031 169.3125 217.1875 169.273438 217.066406 169.195312 L 216.765625 170.179688 C 216.765625 170.179688 202.285156 182.40625 186.230469 173.855469 L 183.976562 187.449219 C 184.03125 187.453125 184.085938 187.472656 184.128906 187.511719 C 184.753906 188.082031 185.761719 188.671875 187.394531 189.425781 C 189.703125 190.492188 192.835938 191.648438 196.222656 192.691406 C 201.351562 194.265625 205.988281 195.246094 208.320312 195.246094 C 208.503906 195.246094 208.816406 195.246094 209.15625 195.191406 C 209.207031 195.183594 209.253906 195.195312 209.296875 195.214844 L 223.734375 163.734375 C 223.414062 163.757812 223.128906 163.761719 222.933594 163.761719 C 219.652344 163.761719 213.226562 162.414062 206.15625 160.242188 Z M 190.050781 150.808594 L 189.734375 152.730469 C 189.777344 152.738281 189.820312 152.75 189.855469 152.785156 C 190.695312 153.496094 192.039062 154.269531 194.082031 155.222656 C 197.273438 156.707031 201.613281 158.316406 206.304688 159.757812 C 213.328125 161.914062 219.699219 163.253906 222.933594 163.253906 C 223.144531 163.253906 223.460938 163.253906 223.808594 163.21875 C 223.863281 163.214844 223.910156 163.230469 223.957031 163.253906 L 224.773438 161.472656 Z M 196.074219 193.171875 C 192.667969 192.128906 189.511719 190.957031 187.183594 189.882812 C 185.578125 189.144531 184.558594 188.550781 183.890625 187.96875 L 183.742188 188.859375 C 183.457031 189.792969 188.8125 192.265625 195.703125 194.382812 C 202.59375 196.5 208.414062 197.457031 208.699219 196.523438 L 209.070312 195.710938 C 208.761719 195.746094 208.492188 195.75 208.320312 195.75 C 205.941406 195.75 201.25 194.761719 196.074219 193.171875 Z M 69.804688 169.480469 C 69.664062 169.25 69.5625 169.011719 69.480469 168.773438 L 66.371094 172.070312 L 68.660156 173.902344 L 70.636719 170.398438 C 70.328125 170.164062 70.039062 169.859375 69.804688 169.480469 Z M 45.457031 171.324219 C 45.453125 171.324219 45.449219 171.328125 45.445312 171.328125 L 32.023438 173.09375 C 32.011719 173.097656 32 173.097656 31.988281 173.097656 C 31.863281 173.097656 31.757812 173.003906 31.738281 172.875 C 31.738281 172.863281 31.742188 172.855469 31.742188 172.84375 L 16.707031 174.785156 L 16.859375 176.867188 L 45.789062 173.128906 Z M 45.3125 170.835938 C 44.742188 169.164062 41.410156 160.292969 35.207031 161.09375 L 32.0625 172.578125 Z M 45.878906 173.621094 C 45.875 173.625 45.871094 173.625 45.867188 173.628906 L 16.910156 177.371094 C 16.90625 177.371094 16.902344 177.371094 16.898438 177.371094 L 17.171875 181.085938 L 46.554688 177.289062 Z M 68.375 174.324219 L 66.039062 172.453125 C 66.035156 172.445312 66.03125 172.4375 66.027344 172.433594 L 48.988281 190.492188 L 46.644531 177.78125 C 46.640625 177.78125 46.636719 177.785156 46.632812 177.785156 L 17.222656 181.585938 C 17.21875 181.589844 17.214844 181.589844 17.210938 181.589844 L 19.363281 210.625 L 51.921875 206.417969 L 51.523438 204.253906 L 68.414062 174.335938 C 68.402344 174.328125 68.386719 174.332031 68.375 174.324219 Z M 134.484375 21.957031 C 130.632812 22.3125 121.46875 24.59375 121.46875 24.59375 C 121.46875 24.59375 118.039062 17.394531 116.363281 16.65625 C 114.679688 15.914062 107.179688 16.25 104.648438 17.730469 C 102.121094 19.210938 103.800781 27.535156 103.800781 27.535156 C 103.800781 27.535156 102.925781 28.675781 98.828125 29.933594 C 94.730469 31.1875 86.585938 32.824219 84.03125 36.488281 C 84.03125 36.488281 105.921875 29.707031 113.425781 27.957031 C 120.929688 26.210938 143.5625 21.929688 145.378906 22.238281 C 145.378906 22.238281 144.429688 21.039062 134.484375 21.957031 Z M 103.496094 41.296875 C 103.484375 40.765625 103.578125 40.363281 103.707031 40.0625 C 103.835938 39.769531 104.003906 39.570312 104.152344 39.441406 C 104.226562 39.550781 104.292969 39.664062 104.371094 39.769531 C 104.507812 39.957031 104.664062 40.136719 104.820312 40.3125 C 105.347656 40.917969 105.945312 41.460938 106.609375 41.917969 C 106.925781 42.136719 107.261719 42.335938 107.601562 42.515625 C 107.464844 42.730469 107.300781 42.902344 107.191406 43.003906 C 107.117188 43.074219 107.066406 43.117188 107.066406 43.117188 C 105.625 43.699219 103.496094 41.296875 103.496094 41.296875 "/>
</g>
<path style=" stroke:none;fill-rule:nonzero;fill:rgb(97.648621%,82.348633%,56.858826%);fill-opacity:1;" d="M 164.464844 59.34375 C 164.128906 59.125 160.9375 57.511719 160.519531 57.664062 C 160.097656 57.8125 157.464844 58.855469 157.359375 59.109375 C 157.261719 59.363281 157.292969 59.746094 157.578125 59.832031 C 157.863281 59.914062 157.863281 59.914062 157.863281 59.914062 C 157.863281 59.914062 157.613281 60.839844 158.488281 61.078125 C 158.488281 61.078125 158.183594 62.171875 158.890625 62.421875 C 158.890625 62.421875 158.671875 63.144531 158.90625 63.378906 C 159.140625 63.617188 159.375 63.699219 159.375 63.699219 C 159.375 63.699219 158.21875 64.710938 158.199219 65.230469 C 158.183594 65.75 158.269531 66.578125 158.269531 66.578125 L 156.789062 67.335938 C 156.789062 67.335938 155.648438 71.320312 160.03125 70.328125 L 164.171875 65.160156 C 164.507812 64.746094 164.691406 64.230469 164.699219 63.695312 C 164.714844 62.273438 164.714844 59.503906 164.464844 59.34375 Z M 122.058594 31.761719 C 122.054688 31.027344 122.046875 30.359375 121.992188 29.757812 C 119.917969 29.527344 117.914062 28.664062 116.265625 27.328125 L 114.238281 27.773438 C 113.847656 28.742188 113.28125 29.640625 112.5625 30.398438 C 111.230469 31.804688 109.390625 32.71875 107.464844 32.929688 C 108.191406 34.167969 108.238281 35.625 107.773438 36.980469 C 107.335938 36.054688 106.945312 35.527344 105.644531 35.621094 C 105.511719 35.65625 105.382812 35.710938 105.261719 35.796875 C 104.171875 36.5625 105.410156 39.222656 106.824219 40.476562 C 107.53125 41.101562 108.488281 40.222656 108.488281 40.222656 L 108.78125 46.921875 C 109.6875 47.171875 112.445312 47.917969 113.167969 47.976562 C 113.855469 48.03125 114.488281 50.035156 114.726562 50.890625 C 115.152344 50.851562 115.496094 50.785156 115.730469 50.722656 L 116.09375 47.125 L 116.09375 45.058594 C 116.09375 45.058594 118.761719 45.894531 121.207031 43.558594 C 123.023438 41.824219 122.71875 36.605469 122.304688 34.378906 C 122.140625 33.515625 122.066406 32.640625 122.058594 31.761719 Z M 109.074219 93.996094 C 109.277344 95.175781 108.605469 94.871094 107.867188 94.433594 C 107.128906 93.996094 105.097656 92.242188 105.097656 92.242188 C 105.097656 92.242188 105.886719 93.761719 106.421875 94.5 C 106.960938 95.242188 106.859375 97.59375 106.824219 98.066406 C 106.789062 98.539062 106.691406 98.671875 106.21875 98.671875 C 105.75 98.671875 105.652344 95.882812 105.097656 95.511719 C 104.542969 95.140625 103.195312 94.167969 103.195312 94.167969 C 103.195312 94.167969 103.765625 96.351562 104.203125 96.789062 C 104.640625 97.226562 105.082031 97.832031 105.097656 98.539062 C 105.113281 99.242188 104.503906 99.175781 104.203125 99.042969 C 103.902344 98.910156 103.902344 98.910156 103.902344 98.910156 C 103.902344 98.910156 103.699219 99.074219 102.894531 98.941406 C 102.089844 98.808594 101.988281 97.125 101.351562 96.453125 C 100.714844 95.78125 98.023438 95.773438 98.089844 94.398438 C 98.160156 93.019531 99.871094 89.992188 101.082031 90.632812 C 101.082031 90.632812 103.128906 89.488281 104.003906 89.691406 C 104.878906 89.890625 108.875 92.820312 109.074219 93.996094 "/>
<g clip-path="url(#clip4)" clip-rule="nonzero">
<path style=" stroke:none;fill-rule:nonzero;fill:rgb(22.349548%,22.749329%,24.708557%);fill-opacity:1;" d="M 69.660156 50.90625 C 70.292969 51.277344 72.773438 52.621094 74.691406 51.828125 C 76.609375 51.035156 77.421875 48.328125 77.605469 47.621094 C 76.976562 47.246094 74.492188 45.90625 72.574219 46.695312 C 70.65625 47.492188 69.84375 50.195312 69.660156 50.90625 Z M 69.234375 51.238281 L 69.089844 51.140625 L 69.125 50.972656 C 69.15625 50.820312 69.9375 47.242188 72.386719 46.230469 C 74.832031 45.21875 77.902344 47.207031 78.035156 47.289062 L 78.175781 47.386719 L 78.140625 47.550781 C 78.109375 47.703125 77.332031 51.28125 74.882812 52.296875 C 74.390625 52.5 73.867188 52.582031 73.351562 52.582031 C 71.316406 52.582031 69.339844 51.304688 69.234375 51.238281 Z M 188.429688 160.59375 L 189.023438 157.007812 C 183.875 160.773438 182.082031 163.605469 181.761719 165.632812 C 181.808594 166.238281 182.0625 168.035156 183.308594 169.121094 C 181.378906 165.804688 188.429688 160.59375 188.429688 160.59375 Z M 200.792969 150.175781 L 190.546875 150.175781 L 190.546875 150.4375 C 191.890625 150.019531 195.765625 150.519531 200.792969 151.71875 Z M 176.609375 150.175781 L 166.363281 150.175781 L 166.363281 201.207031 L 176.609375 201.207031 Z M 165.859375 150.175781 L 162.550781 150.175781 L 162.550781 201.207031 L 165.859375 201.207031 Z M 160.386719 150.175781 L 152.929688 150.175781 L 152.929688 201.207031 L 160.386719 201.207031 Z M 152.425781 150.175781 L 142.179688 150.175781 L 142.179688 201.207031 L 152.425781 201.207031 Z M 152.425781 126.589844 L 147.300781 119.40625 L 142.179688 126.589844 L 142.179688 141.109375 L 152.425781 141.109375 Z M 166.363281 141.109375 L 176.609375 141.109375 L 176.609375 126.589844 L 171.484375 119.40625 L 166.363281 126.589844 Z M 190.546875 141.109375 L 200.792969 141.109375 L 200.792969 126.589844 L 195.671875 119.40625 L 190.546875 126.589844 Z M 224.773438 161.472656 C 224.363281 162.804688 216.261719 161.496094 206.671875 158.550781 C 197.085938 155.609375 189.644531 152.144531 190.050781 150.808594 L 190.042969 150.851562 L 190.042969 150.175781 L 177.113281 150.175781 L 177.113281 201.207031 L 190.042969 201.207031 L 190.042969 192.4375 C 190.210938 192.5 190.378906 192.566406 190.546875 192.628906 L 190.546875 201.207031 L 194.1875 201.207031 C 194.058594 201.375 193.929688 201.546875 193.796875 201.710938 L 162.550781 201.710938 L 162.550781 225.339844 L 160.386719 225.339844 L 160.386719 201.710938 L 132.421875 201.710938 L 132.421875 201.207031 L 141.675781 201.207031 L 141.675781 150.175781 L 131.890625 150.175781 C 131.890625 150.007812 131.890625 149.839844 131.890625 149.671875 L 160.386719 149.671875 L 160.386719 141.613281 L 131.808594 141.613281 C 131.808594 141.445312 131.804688 141.277344 131.800781 141.109375 L 141.675781 141.109375 L 141.675781 140.082031 L 131.546875 131.765625 C 131.539062 131.539062 131.53125 131.320312 131.523438 131.09375 L 141.675781 139.429688 L 141.675781 126.425781 L 147.300781 118.539062 L 152.929688 126.425781 L 152.929688 141.109375 L 160.386719 141.109375 L 160.386719 106.78125 C 158.390625 107.359375 156.265625 108.066406 153.835938 108.9375 C 150.5 110.132812 146.085938 110.082031 141.410156 110.027344 C 137.84375 109.984375 134.082031 109.945312 130.308594 110.394531 C 130.292969 110.222656 130.28125 110.054688 130.265625 109.886719 C 134.058594 109.441406 137.835938 109.480469 141.417969 109.523438 C 146.246094 109.578125 150.414062 109.628906 153.667969 108.460938 C 156.164062 107.566406 158.339844 106.847656 160.386719 106.257812 L 160.386719 65.398438 C 160.167969 65.277344 159.96875 65.117188 159.820312 64.914062 C 159.625 64.644531 159.515625 64.308594 159.542969 63.980469 C 159.472656 63.9375 159.402344 63.894531 159.335938 63.839844 C 159.292969 63.804688 159.289062 63.742188 159.324219 63.699219 C 159.347656 63.671875 159.382812 63.660156 159.417969 63.667969 L 160.085938 63.789062 C 160.304688 63.824219 160.515625 63.863281 160.734375 63.886719 C 160.949219 63.914062 161.167969 63.929688 161.386719 63.949219 L 162.058594 63.988281 C 162.125 63.992188 162.171875 64.046875 162.167969 64.113281 C 162.167969 64.15625 162.140625 64.195312 162.101562 64.210938 C 161.878906 64.316406 161.640625 64.367188 161.398438 64.394531 C 161.15625 64.425781 160.910156 64.414062 160.667969 64.386719 C 160.429688 64.351562 160.191406 64.296875 159.964844 64.199219 C 159.929688 64.1875 159.898438 64.167969 159.863281 64.152344 C 160.039062 64.597656 160.421875 64.917969 160.871094 65.070312 C 161.402344 65.261719 162 65.179688 162.550781 64.871094 C 162.597656 64.84375 162.65625 64.859375 162.683594 64.90625 C 162.703125 64.941406 162.699219 64.988281 162.671875 65.019531 C 162.636719 65.0625 162.59375 65.101562 162.550781 65.144531 L 162.550781 105.671875 C 167.230469 104.496094 171.582031 103.988281 178.191406 103.648438 C 184.074219 103.347656 186.726562 100.585938 190.085938 97.089844 C 192.71875 94.351562 195.699219 91.246094 200.921875 88.339844 C 204.480469 86.359375 207.742188 85.929688 210.617188 87.0625 C 214.539062 88.605469 216.648438 92.582031 217.445312 94.445312 C 217.441406 94.8125 217.433594 95.183594 217.425781 95.554688 L 217.347656 95.578125 C 217.328125 95.519531 215.296875 89.441406 210.433594 87.53125 C 207.703125 86.457031 204.585938 86.878906 201.167969 88.78125 C 196.011719 91.652344 193.058594 94.726562 190.449219 97.441406 C 187.015625 101.015625 184.296875 103.84375 178.21875 104.152344 C 171.59375 104.496094 167.246094 105.003906 162.550781 106.195312 L 162.550781 141.109375 L 165.859375 141.109375 L 165.859375 126.425781 L 171.484375 118.539062 L 177.113281 126.425781 L 177.113281 141.109375 L 190.042969 141.109375 L 190.042969 126.425781 L 195.671875 118.539062 L 201.296875 126.425781 L 201.296875 141.109375 L 214.488281 141.109375 C 214.464844 141.28125 214.441406 141.445312 214.421875 141.613281 L 162.550781 141.613281 L 162.550781 149.671875 L 213.242188 149.671875 C 213.214844 149.839844 213.183594 150.007812 213.15625 150.175781 L 201.296875 150.175781 L 201.296875 151.835938 C 203.421875 152.355469 205.738281 152.988281 208.148438 153.730469 C 217.738281 156.675781 225.179688 160.140625 224.773438 161.472656 Z M 50.855469 44.554688 C 50.679688 45.226562 49.9375 47.699219 48.21875 48.625 C 48.273438 48.789062 48.324219 48.949219 48.375 49.109375 C 50.628906 47.96875 51.359375 44.636719 51.390625 44.488281 L 51.425781 44.320312 L 51.28125 44.226562 C 51.15625 44.144531 48.289062 42.296875 45.886719 43.082031 C 45.964844 43.230469 46.039062 43.382812 46.113281 43.535156 C 47.980469 42.972656 50.257812 44.203125 50.855469 44.554688 Z M 41.089844 72.046875 C 40.992188 74.121094 43.085938 76.011719 43.648438 76.484375 C 44.257812 76.070312 46.527344 74.390625 46.628906 72.316406 C 46.726562 70.242188 44.628906 68.351562 44.066406 67.882812 C 43.464844 68.292969 41.191406 69.972656 41.089844 72.046875 Z M 40.585938 72.023438 C 40.71875 69.371094 43.820312 67.4375 43.953125 67.355469 L 44.097656 67.265625 L 44.234375 67.367188 C 44.359375 67.460938 47.257812 69.691406 47.128906 72.339844 C 47 74.992188 43.898438 76.929688 43.765625 77.007812 L 43.621094 77.101562 L 43.484375 76.996094 C 43.359375 76.902344 40.460938 74.671875 40.585938 72.023438 Z M 87.023438 77.992188 C 88.046875 78.015625 89.0625 78.132812 90.046875 78.367188 C 91.03125 78.589844 91.980469 78.945312 92.890625 79.378906 L 92.898438 79.382812 C 92.929688 79.398438 92.960938 79.40625 92.996094 79.40625 C 93.132812 79.410156 93.238281 79.304688 93.242188 79.167969 C 93.242188 79.105469 93.238281 79.042969 93.234375 78.980469 C 93.328125 78.773438 93.378906 78.550781 93.394531 78.328125 C 93.417969 78.015625 93.367188 77.703125 93.285156 77.410156 C 93.199219 77.121094 93.078125 76.835938 92.910156 76.582031 C 92.742188 76.332031 92.546875 76.089844 92.273438 75.925781 C 92.242188 75.90625 92.203125 75.90625 92.167969 75.929688 C 92.125 75.957031 92.113281 76.019531 92.144531 76.0625 L 92.148438 76.074219 C 92.300781 76.292969 92.425781 76.539062 92.535156 76.785156 C 92.636719 77.039062 92.734375 77.289062 92.804688 77.550781 C 92.832031 77.652344 92.855469 77.757812 92.875 77.859375 C 92.726562 77.632812 92.542969 77.4375 92.335938 77.269531 C 91.769531 76.820312 91.011719 76.660156 90.335938 76.824219 C 90.28125 76.839844 90.242188 76.894531 90.25 76.949219 C 90.257812 77.011719 90.3125 77.058594 90.375 77.050781 C 90.996094 76.988281 91.625 77.195312 92.074219 77.589844 C 92.421875 77.898438 92.648438 78.316406 92.726562 78.765625 C 91.902344 78.378906 91.03125 78.101562 90.136719 77.921875 C 89.109375 77.730469 88.050781 77.675781 87.015625 77.796875 C 86.96875 77.804688 86.933594 77.84375 86.929688 77.890625 C 86.929688 77.941406 86.972656 77.988281 87.023438 77.992188 Z M 122.058594 31.761719 C 122.0625 32.191406 122.082031 32.625 122.121094 33.054688 C 122.339844 32.355469 122.480469 31.640625 122.5 30.902344 C 122.511719 30.53125 122.488281 30.164062 122.4375 29.792969 C 122.5 29.800781 122.558594 29.804688 122.621094 29.808594 C 122.609375 28.792969 122.097656 27.730469 121.363281 26.882812 C 121.246094 26.699219 121.121094 26.523438 120.988281 26.351562 C 119.265625 26.699219 117.664062 27.027344 116.265625 27.328125 C 117.914062 28.664062 119.917969 29.527344 121.992188 29.757812 C 122.046875 30.359375 122.054688 31.027344 122.058594 31.761719 Z M 15.738281 30.457031 L 20.730469 34.929688 C 21.183594 35.335938 21.710938 35.613281 22.234375 35.71875 L 22.683594 35.808594 C 22.683594 35.808594 23.859375 36.042969 23.886719 34.78125 C 25.136719 34.949219 25.089844 33.75 25.089844 33.75 L 25.070312 33.292969 C 25.046875 32.757812 24.855469 32.191406 24.527344 31.679688 L 20.894531 26.046875 C 20.464844 25.378906 19.828125 24.851562 19.148438 24.59375 C 18.375 24.304688 17.625 24.386719 17.121094 24.820312 L 16.117188 25.675781 L 15.117188 26.53125 C 14.613281 26.964844 14.414062 27.695312 14.578125 28.503906 C 14.726562 29.222656 15.144531 29.929688 15.738281 30.457031 Z M 123.160156 72.707031 C 123.199219 72.714844 123.242188 72.6875 123.246094 72.648438 C 123.339844 72.160156 123.347656 71.671875 123.363281 71.1875 C 123.351562 70.703125 123.351562 70.214844 123.261719 69.726562 C 123.253906 69.691406 123.226562 69.664062 123.191406 69.65625 C 123.144531 69.648438 123.097656 69.679688 123.089844 69.726562 C 123 70.214844 122.996094 70.703125 122.988281 71.1875 C 123.003906 71.671875 123.011719 72.160156 123.101562 72.648438 C 123.109375 72.675781 123.128906 72.699219 123.160156 72.707031 Z M 125.347656 70.445312 C 125.351562 70.339844 125.265625 70.25 125.15625 70.25 L 125.152344 70.25 C 124.925781 70.246094 124.695312 70.246094 124.464844 70.246094 C 124.542969 70.375 124.609375 70.507812 124.667969 70.644531 C 124.734375 70.804688 124.796875 70.96875 124.84375 71.140625 L 124.957031 71.566406 L 125.308594 72.867188 C 125.324219 72.0625 125.339844 71.253906 125.347656 70.445312 Z M 104.371094 39.769531 C 104.507812 39.957031 104.664062 40.136719 104.820312 40.3125 C 105.347656 40.917969 105.945312 41.460938 106.609375 41.917969 C 106.925781 42.136719 107.261719 42.335938 107.601562 42.515625 C 107.929688 42.691406 108.265625 42.835938 108.609375 42.972656 L 108.488281 40.222656 C 108.488281 40.222656 107.53125 41.101562 106.824219 40.476562 C 105.410156 39.222656 104.171875 36.5625 105.261719 35.796875 C 105.382812 35.710938 105.511719 35.65625 105.644531 35.621094 C 106.945312 35.527344 107.335938 36.054688 107.773438 36.980469 C 108.238281 35.625 108.191406 34.167969 107.464844 32.929688 C 109.390625 32.71875 111.230469 31.804688 112.5625 30.398438 C 113.285156 29.640625 113.847656 28.742188 114.238281 27.773438 C 113.949219 27.835938 113.679688 27.898438 113.425781 27.957031 C 111.042969 28.511719 107.203125 29.578125 103.074219 30.773438 C 102.894531 31.238281 102.753906 31.71875 102.65625 32.207031 C 102.171875 34.691406 102.734375 37.351562 104.152344 39.441406 C 104.226562 39.550781 104.292969 39.664062 104.371094 39.769531 Z M 116.183594 40.65625 C 116.667969 40.734375 117.167969 40.734375 117.65625 40.675781 C 118.144531 40.613281 118.628906 40.492188 119.078125 40.296875 C 119.53125 40.105469 119.960938 39.855469 120.324219 39.535156 C 120.363281 39.5 120.375 39.441406 120.351562 39.394531 C 120.324219 39.335938 120.253906 39.316406 120.199219 39.34375 C 119.78125 39.554688 119.359375 39.742188 118.921875 39.878906 C 118.488281 40.015625 118.042969 40.121094 117.59375 40.175781 C 117.140625 40.238281 116.683594 40.25 116.226562 40.230469 C 115.769531 40.210938 115.3125 40.140625 114.855469 40.039062 C 114.8125 40.03125 114.769531 40.050781 114.746094 40.089844 C 114.722656 40.136719 114.742188 40.195312 114.789062 40.21875 C 115.222656 40.441406 115.699219 40.582031 116.183594 40.65625 Z M 106.675781 37.902344 C 106.804688 37.878906 106.964844 37.984375 107.160156 38.179688 L 107.164062 38.183594 C 107.234375 38.257812 107.347656 38.277344 107.445312 38.230469 C 107.558594 38.167969 107.609375 38.023438 107.546875 37.90625 C 107.222656 37.273438 106.644531 36.78125 105.992188 36.585938 C 105.949219 36.574219 105.902344 36.59375 105.878906 36.632812 C 105.851562 36.675781 105.867188 36.738281 105.914062 36.765625 C 106.203125 36.941406 106.453125 37.160156 106.664062 37.40625 C 106.636719 37.410156 106.613281 37.40625 106.589844 37.414062 C 106.382812 37.433594 106.15625 37.640625 106.125 37.863281 C 106.089844 38.078125 106.152344 38.242188 106.214844 38.382812 C 106.441406 38.933594 106.875 39.382812 107.402344 39.609375 C 107.453125 39.632812 107.515625 39.613281 107.546875 39.5625 C 107.578125 39.507812 107.558594 39.4375 107.503906 39.40625 C 107.0625 39.144531 106.722656 38.722656 106.574219 38.253906 C 106.546875 38.136719 106.546875 38.023438 106.574219 37.972656 C 106.601562 37.921875 106.617188 37.921875 106.675781 37.902344 Z M 113.152344 32.023438 C 112.917969 32.125 112.699219 32.261719 112.523438 32.441406 C 112.34375 32.613281 112.195312 32.8125 112.101562 33.054688 C 112.089844 33.085938 112.09375 33.121094 112.117188 33.148438 C 112.148438 33.191406 112.210938 33.199219 112.253906 33.164062 L 112.265625 33.15625 C 112.433594 33.019531 112.609375 32.882812 112.789062 32.773438 C 112.96875 32.664062 113.152344 32.5625 113.34375 32.488281 C 113.535156 32.410156 113.730469 32.351562 113.9375 32.3125 C 114.140625 32.265625 114.355469 32.257812 114.582031 32.226562 L 114.59375 32.226562 C 114.632812 32.21875 114.667969 32.191406 114.683594 32.148438 C 114.707031 32.089844 114.679688 32.023438 114.621094 32 C 114.394531 31.910156 114.144531 31.859375 113.890625 31.867188 C 113.640625 31.863281 113.386719 31.929688 113.152344 32.023438 Z M 106.320312 201.710938 L 114.785156 201.710938 L 114.785156 201.207031 L 106.320312 201.207031 Z M 107.191406 43.003906 C 107.117188 43.074219 107.066406 43.117188 107.066406 43.117188 C 105.625 43.699219 103.496094 41.296875 103.496094 41.296875 C 103.484375 40.765625 103.578125 40.363281 103.707031 40.0625 C 100.097656 40.152344 96.859375 48.214844 92.117188 46.058594 C 96.6875 55.316406 109.433594 48.992188 107.191406 43.003906 Z M 133.347656 218.136719 C 129.238281 217.578125 128.367188 217.328125 127.929688 215.957031 C 127.492188 214.585938 128.335938 204.4375 128.335938 204.4375 L 118.234375 204.4375 C 118.234375 204.4375 118.902344 213.089844 118.984375 216.414062 C 119.046875 218.929688 118.585938 220.921875 118.359375 222.75 C 118.34375 222.863281 118.320312 223.085938 118.320312 223.085938 L 118.324219 223.085938 C 118.347656 222.914062 118.363281 222.742188 118.382812 222.566406 L 138.367188 222.566406 C 138.410156 222.707031 138.433594 222.796875 138.433594 222.796875 C 138.433594 222.796875 137.457031 218.699219 133.347656 218.136719 Z M 16.914062 95.328125 C 18.394531 93.132812 17.070312 89.71875 17.011719 89.574219 L 16.949219 89.414062 L 16.777344 89.414062 C 16.679688 89.414062 15.21875 89.433594 13.777344 89.980469 C 13.710938 90.191406 13.652344 90.402344 13.589844 90.609375 C 14.792969 90.066406 16.132812 89.949219 16.605469 89.925781 C 16.839844 90.617188 17.65625 93.320312 16.496094 95.046875 C 15.34375 96.753906 12.566406 97.019531 11.8125 97.058594 C 11.769531 97.230469 11.722656 97.398438 11.679688 97.570312 C 12.179688 97.558594 15.511719 97.402344 16.914062 95.328125 Z M 218.160156 166.285156 C 217.539062 166.332031 216.890625 167.042969 216.710938 167.875 C 216.527344 168.710938 216.882812 169.347656 217.5 169.300781 C 218.117188 169.253906 218.765625 168.542969 218.945312 167.707031 C 219.128906 166.875 218.777344 166.238281 218.160156 166.285156 Z M 219.65625 167.65625 C 219.359375 169.015625 218.296875 170.183594 217.289062 170.257812 C 216.28125 170.335938 215.703125 169.292969 216 167.929688 C 216.296875 166.570312 217.359375 165.40625 218.367188 165.328125 C 219.378906 165.253906 219.957031 166.296875 219.65625 167.65625 Z M 101.027344 204.4375 L 92.121094 204.4375 C 92.121094 204.4375 93.429688 211.5 92.496094 215.988281 C 91.957031 218.5625 91.324219 220.976562 90.875 222.566406 L 102.617188 222.566406 C 102.304688 220.300781 101.558594 217.769531 101.027344 215.527344 C 100.339844 212.621094 101.027344 204.4375 101.027344 204.4375 Z M 114.851562 141.109375 L 111.328125 141.109375 L 111.269531 141.613281 L 114.867188 141.613281 L 114.863281 141.492188 L 115.132812 149.671875 L 110.285156 149.671875 L 110.222656 150.175781 L 115.148438 150.175781 L 116.058594 178.203125 L 117.730469 115.957031 L 114.113281 118.324219 Z M 21.253906 141.109375 L 31.5 141.109375 L 31.5 126.589844 L 26.378906 119.40625 L 21.253906 126.589844 Z M 45.4375 141.109375 L 55.683594 141.109375 L 55.683594 126.589844 L 50.5625 119.40625 L 45.4375 126.589844 Z M 69.625 141.109375 L 79.871094 141.109375 L 79.871094 126.589844 L 74.746094 119.40625 L 69.625 126.589844 Z M 7.625 141.613281 C 7.601562 141.445312 7.582031 141.277344 7.558594 141.109375 L 20.75 141.109375 L 20.75 126.425781 L 26.378906 118.539062 L 32.003906 126.425781 L 32.003906 141.109375 L 44.933594 141.109375 L 44.933594 126.425781 L 50.5625 118.539062 L 56.1875 126.425781 L 56.1875 141.109375 L 69.121094 141.109375 L 69.121094 126.425781 L 74.746094 118.539062 L 80.375 126.425781 L 80.375 141.109375 L 93.304688 141.109375 L 93.304688 126.425781 L 96.140625 122.453125 C 96.082031 122.816406 96.03125 123.183594 95.976562 123.550781 L 93.808594 126.589844 L 93.808594 140.527344 C 93.769531 140.890625 93.730469 141.25 93.691406 141.613281 Z M 96.894531 94.449219 C 96.949219 94.453125 96.996094 94.414062 97 94.359375 C 97.035156 93.882812 97.121094 93.417969 97.265625 92.976562 C 97.417969 92.535156 97.609375 92.117188 97.867188 91.734375 C 98.117188 91.351562 98.429688 91.007812 98.777344 90.699219 C 99.121094 90.394531 99.515625 90.136719 99.9375 89.914062 C 99.984375 89.890625 100.011719 89.839844 99.996094 89.785156 C 99.984375 89.726562 99.917969 89.6875 99.859375 89.699219 C 99.371094 89.820312 98.90625 90.050781 98.496094 90.347656 C 98.082031 90.648438 97.730469 91.03125 97.445312 91.457031 C 97.167969 91.890625 96.960938 92.367188 96.855469 92.863281 C 96.746094 93.363281 96.71875 93.875 96.804688 94.367188 C 96.8125 94.410156 96.847656 94.445312 96.894531 94.449219 Z M 52.320312 102.546875 C 60.460938 106.855469 68.878906 111.308594 74.796875 110.101562 C 77.0625 109.644531 79.207031 109.113281 81.285156 108.601562 C 87.539062 107.058594 93.101562 105.6875 98.773438 107.054688 C 98.804688 106.886719 98.839844 106.722656 98.871094 106.554688 C 93.101562 105.167969 87.484375 106.550781 81.164062 108.113281 C 79.09375 108.621094 76.953125 109.148438 74.699219 109.609375 C 68.957031 110.777344 60.617188 106.363281 52.554688 102.097656 C 49.121094 100.285156 45.785156 98.519531 42.742188 97.234375 C 44.546875 95.5625 54.765625 86.492188 62.910156 86.953125 C 67.3125 87.199219 71.308594 89.742188 75.171875 92.203125 C 79.269531 94.808594 83.507812 97.503906 88.3125 97.570312 C 88.910156 97.578125 89.53125 97.582031 90.171875 97.585938 C 93.207031 97.601562 96.753906 97.632812 100.617188 98.140625 C 100.652344 97.976562 100.691406 97.808594 100.730469 97.644531 C 96.824219 97.125 93.238281 97.101562 90.175781 97.082031 C 89.535156 97.078125 88.917969 97.074219 88.320312 97.066406 C 83.65625 97.003906 79.480469 94.34375 75.445312 91.777344 C 71.523438 89.285156 67.472656 86.703125 62.9375 86.445312 C 54.171875 85.957031 43.5 95.8125 42.226562 97.023438 C 39.386719 95.863281 36.816406 95.152344 34.695312 95.257812 C 26.792969 95.660156 13.707031 107.199219 8.804688 111.78125 C 8.761719 112.054688 8.722656 112.324219 8.679688 112.597656 C 13.121094 108.429688 26.824219 96.164062 34.71875 95.765625 C 39.078125 95.546875 45.511719 98.945312 52.320312 102.546875 Z M 80.375 150.175781 L 92.871094 150.175781 C 92.886719 150.007812 92.902344 149.839844 92.914062 149.671875 L 9.433594 149.671875 C 9.484375 149.839844 9.53125 150.007812 9.585938 150.175781 L 20.75 150.175781 L 20.75 170.476562 C 20.917969 170.683594 21.085938 170.890625 21.253906 171.09375 L 21.253906 150.175781 L 31.5 150.175781 L 31.5 172.875 L 31.742188 172.84375 C 31.742188 172.71875 31.828125 172.609375 31.957031 172.59375 L 32.003906 172.585938 L 32.003906 150.175781 L 44.933594 150.175781 L 44.933594 169.824219 C 45.109375 170.261719 45.238281 170.613281 45.3125 170.835938 L 45.378906 170.828125 C 45.398438 170.824219 45.417969 170.832031 45.4375 170.832031 L 45.4375 150.175781 L 55.683594 150.175781 L 55.683594 183.398438 L 56.1875 182.863281 L 56.1875 150.175781 L 69.121094 150.175781 L 69.121094 169.15625 L 69.480469 168.773438 C 69.226562 168.011719 69.28125 167.25 69.625 166.746094 L 69.625 150.175781 L 79.871094 150.175781 L 79.871094 201.207031 L 69.625 201.207031 L 69.625 172.191406 L 69.121094 173.085938 L 69.121094 201.207031 L 63.289062 201.207031 C 63.664062 201.375 64.03125 201.546875 64.40625 201.710938 L 89.390625 201.710938 L 89.390625 201.207031 L 80.375 201.207031 Z M 55.683594 197.507812 C 55.851562 197.59375 56.019531 197.683594 56.1875 197.769531 L 56.1875 195.992188 L 55.683594 196.886719 Z M 48.988281 190.492188 L 51.515625 204.269531 L 54.992188 198.113281 L 50.105469 189.308594 Z M 8.601562 194.671875 C 6.742188 192.253906 6.28125 189.324219 7.230469 185.964844 C 8.152344 182.714844 9.589844 180.699219 11.503906 179.976562 C 14.164062 178.96875 17.015625 180.761719 17.0625 180.796875 C 17.0625 180.796875 17.066406 180.796875 17.066406 180.796875 L 17.144531 180.679688 L 17.140625 180.675781 L 16.980469 178.488281 C 15.605469 177.882812 13.222656 177.175781 10.808594 178.082031 C 8.257812 179.039062 6.402344 181.507812 5.292969 185.414062 C 4.175781 189.363281 4.765625 192.992188 7.003906 195.90625 C 10.007812 199.8125 15.335938 201.683594 18.71875 201.933594 L 18.566406 199.898438 C 15.652344 199.601562 11.113281 197.945312 8.601562 194.671875 Z M 104.558594 196.9375 L 104.558594 196.539062 L 104.507812 196.9375 Z M 159.675781 62.597656 C 159.960938 62.59375 160.246094 62.558594 160.527344 62.515625 C 160.8125 62.46875 161.09375 62.414062 161.367188 62.328125 C 161.640625 62.25 161.914062 62.160156 162.171875 62.027344 C 162.210938 62.007812 162.238281 61.96875 162.238281 61.921875 C 162.234375 61.855469 162.179688 61.804688 162.117188 61.808594 C 161.828125 61.820312 161.550781 61.855469 161.273438 61.894531 C 160.996094 61.925781 160.722656 61.976562 160.449219 62.019531 C 160.171875 62.070312 159.898438 62.113281 159.625 62.175781 C 159.351562 62.234375 159.078125 62.289062 158.800781 62.371094 C 158.765625 62.382812 158.738281 62.414062 158.730469 62.453125 C 158.722656 62.503906 158.761719 62.558594 158.816406 62.566406 C 159.101562 62.605469 159.390625 62.605469 159.675781 62.597656 Z M 159.070312 69.160156 C 159.128906 69.136719 159.160156 69.070312 159.136719 69.011719 C 159.011719 68.683594 158.890625 68.367188 158.796875 68.042969 C 158.703125 67.71875 158.621094 67.394531 158.566406 67.0625 C 158.503906 66.730469 158.46875 66.398438 158.441406 66.058594 C 158.421875 65.722656 158.425781 65.382812 158.429688 65.03125 C 158.429688 64.992188 158.40625 64.953125 158.367188 64.9375 C 158.316406 64.917969 158.261719 64.945312 158.242188 64.996094 C 158.113281 65.332031 158.046875 65.691406 158.019531 66.058594 C 157.988281 66.421875 158.011719 66.785156 158.070312 67.148438 C 158.125 67.457031 158.210938 67.765625 158.328125 68.058594 C 158.320312 68.054688 158.3125 68.046875 158.300781 68.046875 C 158.191406 68.050781 158.105469 68.089844 158.019531 68.136719 C 157.933594 68.179688 157.863281 68.246094 157.800781 68.3125 C 157.742188 68.390625 157.683594 68.464844 157.652344 68.558594 C 157.617188 68.648438 157.589844 68.742188 157.597656 68.851562 C 157.597656 68.863281 157.601562 68.875 157.605469 68.886719 C 157.632812 68.945312 157.699219 68.976562 157.761719 68.949219 L 157.765625 68.945312 C 157.859375 68.90625 157.925781 68.859375 157.996094 68.8125 C 158.0625 68.765625 158.117188 68.707031 158.171875 68.652344 C 158.222656 68.597656 158.277344 68.539062 158.316406 68.46875 C 158.355469 68.410156 158.386719 68.351562 158.417969 68.273438 C 158.558594 68.582031 158.722656 68.871094 158.9375 69.125 C 158.96875 69.164062 159.023438 69.179688 159.070312 69.160156 Z M 159.050781 61.03125 C 159.25 60.976562 159.445312 60.902344 159.640625 60.828125 C 159.832031 60.746094 160.023438 60.664062 160.203125 60.5625 C 160.386719 60.460938 160.570312 60.355469 160.738281 60.222656 C 160.765625 60.195312 160.785156 60.15625 160.78125 60.117188 C 160.773438 60.050781 160.714844 60.003906 160.648438 60.011719 C 160.433594 60.035156 160.234375 60.089844 160.035156 60.148438 C 159.832031 60.207031 159.640625 60.285156 159.445312 60.363281 C 159.257812 60.445312 159.070312 60.53125 158.886719 60.636719 C 158.703125 60.738281 158.527344 60.847656 158.355469 60.984375 C 158.332031 61.003906 158.316406 61.035156 158.320312 61.074219 C 158.328125 61.128906 158.375 61.167969 158.429688 61.160156 C 158.644531 61.140625 158.847656 61.085938 159.050781 61.03125 Z M 162.445312 63.199219 C 162.5 63.234375 162.554688 63.265625 162.621094 63.277344 C 162.6875 63.296875 162.753906 63.308594 162.839844 63.292969 C 162.84375 63.292969 162.847656 63.292969 162.851562 63.289062 C 162.933594 63.269531 162.984375 63.183594 162.964844 63.101562 C 162.945312 63.015625 162.90625 62.957031 162.867188 62.90625 C 162.824219 62.851562 162.773438 62.8125 162.722656 62.777344 C 162.667969 62.746094 162.609375 62.714844 162.539062 62.703125 C 162.472656 62.691406 162.40625 62.679688 162.316406 62.695312 C 162.316406 62.695312 162.3125 62.695312 162.3125 62.695312 C 162.242188 62.714844 162.195312 62.785156 162.210938 62.859375 C 162.230469 62.945312 162.265625 63.003906 162.308594 63.0625 C 162.347656 63.117188 162.394531 63.15625 162.445312 63.199219 Z M 140.527344 73.882812 C 141.136719 73.320312 141.835938 72.90625 142.59375 72.613281 C 142.972656 72.460938 143.359375 72.347656 143.757812 72.253906 C 143.960938 72.207031 144.167969 72.167969 144.375 72.136719 C 144.003906 72.347656 143.652344 72.601562 143.332031 72.890625 C 142.851562 73.320312 142.445312 73.828125 142.109375 74.378906 C 141.78125 74.929688 141.523438 75.53125 141.371094 76.15625 C 141.214844 76.78125 141.148438 77.429688 141.207031 78.066406 C 141.210938 78.117188 141.253906 78.164062 141.308594 78.171875 C 141.375 78.175781 141.429688 78.128906 141.433594 78.066406 C 141.492188 77.453125 141.609375 76.855469 141.796875 76.28125 C 141.988281 75.707031 142.230469 75.152344 142.542969 74.636719 C 142.847656 74.117188 143.21875 73.636719 143.628906 73.195312 C 144.035156 72.765625 144.496094 72.386719 144.992188 72.050781 C 145.035156 72.042969 145.074219 72.007812 145.082031 71.964844 C 145.089844 71.898438 145.050781 71.839844 144.988281 71.828125 C 144.558594 71.757812 144.117188 71.761719 143.683594 71.8125 C 143.246094 71.863281 142.820312 71.980469 142.410156 72.140625 C 142.003906 72.308594 141.609375 72.519531 141.261719 72.792969 C 140.914062 73.066406 140.601562 73.386719 140.375 73.765625 C 140.355469 73.800781 140.359375 73.847656 140.390625 73.878906 C 140.425781 73.921875 140.488281 73.921875 140.527344 73.882812 Z M 162.175781 60.6875 C 162.273438 60.695312 162.375 60.6875 162.472656 60.636719 C 162.484375 60.628906 162.496094 60.617188 162.507812 60.605469 C 162.558594 60.554688 162.558594 60.46875 162.503906 60.414062 L 162.496094 60.40625 C 162.425781 60.339844 162.359375 60.300781 162.296875 60.257812 C 162.234375 60.214844 162.171875 60.1875 162.113281 60.15625 C 162.046875 60.128906 161.984375 60.097656 161.910156 60.078125 C 161.835938 60.058594 161.761719 60.03125 161.664062 60.019531 L 161.65625 60.015625 C 161.644531 60.015625 161.632812 60.015625 161.621094 60.019531 C 161.558594 60.027344 161.511719 60.085938 161.523438 60.148438 C 161.539062 60.257812 161.59375 60.34375 161.660156 60.425781 C 161.71875 60.503906 161.800781 60.558594 161.890625 60.609375 C 161.976562 60.652344 162.074219 60.683594 162.175781 60.6875 Z M 185.71875 41.867188 C 186.347656 42.238281 188.832031 43.582031 190.75 42.789062 C 192.667969 41.996094 193.484375 39.292969 193.667969 38.582031 C 193.039062 38.210938 190.550781 36.867188 188.632812 37.660156 C 186.714844 38.453125 185.902344 41.15625 185.71875 41.867188 Z M 185.292969 42.195312 L 185.148438 42.101562 L 185.183594 41.933594 C 185.214844 41.78125 185.996094 38.203125 188.445312 37.191406 C 190.890625 36.179688 193.960938 38.164062 194.09375 38.25 L 194.234375 38.34375 L 194.199219 38.515625 C 194.167969 38.667969 193.390625 42.246094 190.941406 43.253906 C 190.449219 43.460938 189.925781 43.542969 189.410156 43.542969 C 187.371094 43.542969 185.398438 42.265625 185.292969 42.195312 Z M 211.679688 58.34375 L 211.847656 58.34375 C 211.976562 58.339844 214.375 58.3125 216.078125 57.144531 C 216.042969 56.964844 216.003906 56.78125 215.96875 56.601562 C 214.628906 57.617188 212.621094 57.800781 212.023438 57.832031 C 211.785156 57.136719 210.96875 54.433594 212.128906 52.707031 C 212.6875 51.886719 213.625 51.398438 214.527344 51.109375 C 214.480469 50.945312 214.425781 50.785156 214.371094 50.625 C 213.386719 50.9375 212.347656 51.484375 211.714844 52.425781 C 210.230469 54.625 211.558594 58.039062 211.613281 58.183594 Z M 185.539062 74.054688 C 186.269531 74.015625 189.082031 73.761719 190.242188 72.039062 C 191.402344 70.316406 190.589844 67.609375 190.351562 66.917969 C 189.621094 66.957031 186.808594 67.210938 185.648438 68.933594 C 184.484375 70.65625 185.300781 73.363281 185.539062 74.054688 Z M 185.132812 74.40625 C 185.074219 74.261719 183.746094 70.847656 185.230469 68.652344 C 186.714844 66.453125 190.367188 66.410156 190.523438 66.410156 L 190.695312 66.40625 L 190.757812 66.566406 C 190.816406 66.710938 192.140625 70.121094 190.660156 72.320312 C 189.179688 74.519531 185.519531 74.566406 185.367188 74.566406 L 185.195312 74.566406 Z M 190.351562 110.222656 C 189.621094 110.261719 186.808594 110.519531 185.648438 112.238281 C 184.484375 113.964844 185.300781 116.667969 185.539062 117.359375 C 186.269531 117.324219 189.082031 117.066406 190.242188 115.34375 C 191.402344 113.621094 190.589844 110.917969 190.351562 110.222656 Z M 190.695312 109.710938 L 190.757812 109.871094 C 190.816406 110.015625 192.140625 113.429688 190.660156 115.628906 C 189.179688 117.824219 185.519531 117.871094 185.367188 117.871094 L 185.195312 117.871094 L 185.132812 117.710938 C 185.074219 117.566406 183.746094 114.15625 185.230469 111.957031 C 186.714844 109.757812 190.367188 109.714844 190.523438 109.714844 Z M 160.386719 53.605469 L 160.386719 57.710938 C 160.441406 57.691406 160.488281 57.671875 160.519531 57.664062 C 160.625 57.625 160.902344 57.695312 161.261719 57.828125 C 161.15625 57.828125 161.046875 57.832031 160.941406 57.84375 C 160.492188 57.894531 160.070312 58.050781 159.683594 58.265625 C 159.308594 58.484375 158.964844 58.742188 158.644531 59.011719 L 157.703125 59.824219 C 157.671875 59.851562 157.660156 59.898438 157.679688 59.9375 C 157.699219 59.984375 157.757812 60.011719 157.808594 59.988281 C 158.199219 59.816406 158.554688 59.582031 158.902344 59.355469 C 159.25 59.128906 159.582031 58.894531 159.929688 58.703125 C 160.269531 58.515625 160.636719 58.371094 161.011719 58.285156 C 161.386719 58.203125 161.773438 58.199219 162.152344 58.300781 C 162.199219 58.3125 162.25 58.296875 162.277344 58.253906 C 162.371094 58.296875 162.460938 58.335938 162.550781 58.378906 L 162.550781 53.605469 C 169.871094 53.046875 175.660156 46.910156 175.660156 39.4375 L 175.660156 29.703125 C 175.660156 26.863281 175.429688 24.023438 174.976562 21.222656 L 174.882812 20.644531 C 174.835938 20.359375 174.433594 20.355469 174.382812 20.636719 C 173.789062 23.832031 173.492188 27.074219 173.492188 30.320312 L 173.492188 39.4375 C 173.492188 45.710938 168.675781 50.878906 162.550781 51.429688 L 162.550781 29.703125 C 162.550781 26.863281 162.324219 24.023438 161.871094 21.222656 L 161.777344 20.644531 C 161.730469 20.359375 161.328125 20.355469 161.273438 20.636719 L 161.273438 20.640625 C 160.683594 23.832031 160.386719 27.070312 160.386719 30.316406 L 160.386719 51.429688 C 154.261719 50.878906 149.445312 45.710938 149.445312 39.4375 L 149.441406 39.4375 L 149.441406 29.707031 C 149.441406 26.867188 149.214844 24.03125 148.761719 21.226562 L 148.667969 20.644531 C 148.625 20.363281 148.21875 20.359375 148.167969 20.636719 C 147.578125 23.832031 147.28125 27.074219 147.28125 30.320312 L 147.28125 39.4375 L 147.277344 39.4375 C 147.277344 46.910156 153.066406 53.046875 160.386719 53.605469 Z M 156.101562 66.738281 C 156.125 66.699219 156.117188 66.648438 156.082031 66.613281 C 156.046875 66.578125 155.984375 66.582031 155.949219 66.621094 C 155.496094 67.125 155.214844 67.785156 155.117188 68.46875 C 155.019531 69.152344 155.125 69.867188 155.40625 70.511719 C 155.707031 71.144531 156.183594 71.6875 156.765625 72.0625 C 157.347656 72.4375 158.03125 72.65625 158.710938 72.640625 C 158.765625 72.636719 158.8125 72.597656 158.820312 72.539062 C 158.832031 72.480469 158.789062 72.421875 158.722656 72.410156 C 158.101562 72.308594 157.515625 72.0625 157.019531 71.695312 C 156.523438 71.332031 156.109375 70.855469 155.863281 70.300781 C 155.59375 69.753906 155.503906 69.125 155.542969 68.511719 C 155.582031 67.894531 155.773438 67.28125 156.101562 66.738281 Z M 110.863281 51.285156 C 111.105469 51.34375 111.363281 51.394531 111.636719 51.390625 C 111.90625 51.382812 112.214844 51.3125 112.441406 51.128906 C 112.910156 50.765625 113.058594 50.242188 113.167969 49.777344 C 113.179688 49.726562 113.15625 49.671875 113.109375 49.648438 C 113.050781 49.621094 112.984375 49.644531 112.953125 49.699219 C 112.742188 50.125 112.527344 50.558594 112.191406 50.761719 C 111.867188 50.960938 111.429688 50.910156 110.984375 50.796875 C 110.535156 50.691406 110.089844 50.539062 109.644531 50.378906 C 109.199219 50.21875 108.757812 50.035156 108.300781 49.878906 C 108.257812 49.867188 108.210938 49.878906 108.1875 49.917969 C 108.160156 49.964844 108.171875 50.023438 108.214844 50.054688 C 108.617188 50.320312 109.039062 50.558594 109.480469 50.769531 C 109.917969 50.988281 110.382812 51.164062 110.863281 51.285156 Z M 115.699219 82.324219 C 116.207031 82.757812 116.738281 83.167969 117.285156 83.558594 C 117.832031 83.953125 118.40625 84.300781 118.988281 84.640625 C 119.042969 84.671875 119.121094 84.671875 119.179688 84.636719 C 120.21875 83.996094 121.253906 83.339844 122.265625 82.644531 C 123.269531 81.941406 124.265625 81.214844 125.128906 80.328125 C 125.171875 80.28125 125.171875 80.207031 125.128906 80.164062 C 125.082031 80.121094 125.011719 80.121094 124.964844 80.167969 C 124.105469 81.011719 123.105469 81.714844 122.09375 82.390625 C 121.109375 83.039062 120.09375 83.640625 119.082031 84.25 C 118.550781 83.929688 118.023438 83.597656 117.527344 83.222656 C 116.996094 82.832031 116.480469 82.421875 115.980469 81.988281 C 115.011719 81.140625 114.085938 80.226562 113.25 79.257812 L 113.347656 70.695312 C 115.164062 70.6875 116.984375 70.683594 118.804688 70.679688 C 118.640625 70.457031 118.410156 70.285156 118.117188 70.210938 C 116.445312 70.207031 114.773438 70.203125 113.101562 70.195312 C 112.964844 70.195312 112.855469 70.308594 112.851562 70.441406 L 112.773438 79.34375 L 112.773438 79.351562 C 112.773438 79.402344 112.789062 79.457031 112.828125 79.5 C 113.710938 80.527344 114.667969 81.457031 115.699219 82.324219 Z M 118.023438 41.601562 C 118.164062 41.574219 118.300781 41.535156 118.425781 41.464844 C 118.550781 41.402344 118.671875 41.320312 118.765625 41.203125 C 118.78125 41.183594 118.792969 41.152344 118.789062 41.121094 C 118.789062 41.054688 118.730469 41 118.664062 41 L 118.660156 41 C 118.519531 41.003906 118.402344 41.027344 118.28125 41.042969 C 118.160156 41.058594 118.046875 41.085938 117.933594 41.105469 C 117.816406 41.132812 117.703125 41.148438 117.585938 41.183594 C 117.464844 41.210938 117.34375 41.238281 117.214844 41.285156 L 117.210938 41.285156 C 117.1875 41.292969 117.167969 41.308594 117.15625 41.332031 C 117.125 41.378906 117.140625 41.445312 117.191406 41.476562 C 117.316406 41.554688 117.457031 41.589844 117.597656 41.609375 C 117.738281 41.632812 117.882812 41.625 118.023438 41.601562 Z M 114.335938 34.394531 C 114.3125 33.988281 114.027344 33.671875 113.707031 33.695312 C 113.382812 33.714844 113.144531 34.0625 113.171875 34.472656 C 113.199219 34.878906 113.480469 35.195312 113.800781 35.171875 C 114.125 35.152344 114.363281 34.804688 114.335938 34.394531 Z M 116.078125 50.535156 C 116.125 50.1875 116.160156 49.839844 116.164062 49.484375 C 116.171875 49.132812 116.160156 48.777344 116.097656 48.425781 C 116.089844 48.386719 116.058594 48.355469 116.015625 48.347656 C 115.960938 48.339844 115.914062 48.375 115.902344 48.429688 L 115.582031 50.464844 C 115.535156 50.804688 115.480469 51.144531 115.449219 51.492188 C 115.441406 51.5625 115.4375 51.632812 115.429688 51.707031 C 115.382812 51.589844 115.339844 51.46875 115.289062 51.351562 C 115.117188 50.945312 114.941406 50.546875 114.738281 50.15625 C 114.539062 49.765625 114.332031 49.378906 114.089844 49.007812 C 114.070312 48.972656 114.023438 48.953125 113.980469 48.964844 C 113.929688 48.980469 113.902344 49.035156 113.917969 49.089844 C 114.046875 49.507812 114.195312 49.917969 114.347656 50.328125 C 114.496094 50.734375 114.664062 51.140625 114.824219 51.542969 C 114.988281 51.945312 115.152344 52.347656 115.332031 52.746094 C 115.507812 53.144531 115.6875 53.542969 115.890625 53.933594 C 115.914062 53.976562 115.964844 54.003906 116.015625 53.992188 C 116.078125 53.980469 116.117188 53.917969 116.105469 53.855469 C 116.011719 53.421875 115.886719 53.003906 115.75 52.585938 C 115.726562 52.511719 115.699219 52.4375 115.671875 52.367188 C 115.753906 52.101562 115.828125 51.832031 115.890625 51.5625 C 115.96875 51.226562 116.027344 50.882812 116.078125 50.535156 Z M 118.472656 37.824219 L 118.46875 37.824219 C 118.417969 37.839844 118.382812 37.882812 118.386719 37.9375 C 118.386719 38.003906 118.4375 38.050781 118.503906 38.050781 C 118.804688 38.042969 119.105469 37.882812 119.304688 37.636719 C 119.503906 37.382812 119.585938 37.027344 119.519531 36.710938 C 119.457031 36.390625 119.246094 36.078125 118.945312 35.917969 C 118.734375 35.796875 118.484375 35.75 118.242188 35.773438 C 118.1875 35.488281 118.128906 35.203125 118.0625 34.917969 C 117.980469 34.554688 117.886719 34.1875 117.777344 33.828125 C 117.761719 33.785156 117.722656 33.757812 117.679688 33.757812 C 117.628906 33.761719 117.585938 33.804688 117.585938 33.859375 C 117.601562 34.238281 117.628906 34.613281 117.671875 34.984375 C 117.707031 35.359375 117.753906 35.730469 117.808594 36.101562 C 117.8125 36.113281 117.8125 36.125 117.816406 36.136719 C 117.859375 36.265625 117.992188 36.335938 118.121094 36.296875 L 118.128906 36.292969 C 118.3125 36.234375 118.53125 36.265625 118.707031 36.359375 C 118.878906 36.449219 119.007812 36.613281 119.0625 36.8125 C 119.121094 37.015625 119.105469 37.230469 118.992188 37.414062 C 118.882812 37.601562 118.695312 37.757812 118.472656 37.824219 Z M 121.078125 72.390625 L 121.078125 72.394531 C 121.074219 72.429688 121.09375 72.460938 121.125 72.476562 C 121.167969 72.496094 121.21875 72.480469 121.242188 72.4375 C 121.4375 72.054688 121.507812 71.640625 121.539062 71.21875 C 121.535156 71.007812 121.535156 70.792969 121.484375 70.578125 C 121.4375 70.367188 121.359375 70.15625 121.222656 69.984375 C 121.207031 69.964844 121.179688 69.953125 121.148438 69.957031 C 121.109375 69.964844 121.085938 70.003906 121.09375 70.046875 L 121.09375 70.050781 C 121.175781 70.433594 121.191406 70.808594 121.164062 71.203125 C 121.152344 71.59375 121.089844 71.984375 121.078125 72.390625 Z M 120.65625 31.933594 L 120.660156 31.933594 C 120.695312 31.957031 120.742188 31.957031 120.78125 31.933594 C 120.835938 31.902344 120.851562 31.832031 120.820312 31.777344 C 120.675781 31.535156 120.457031 31.347656 120.210938 31.210938 C 119.964844 31.070312 119.679688 30.996094 119.394531 30.980469 C 119.105469 30.972656 118.816406 31.019531 118.558594 31.140625 C 118.300781 31.253906 118.066406 31.421875 117.90625 31.644531 C 117.882812 31.671875 117.878906 31.714844 117.898438 31.746094 C 117.921875 31.796875 117.980469 31.816406 118.027344 31.789062 C 118.253906 31.679688 118.472656 31.59375 118.695312 31.539062 C 118.921875 31.492188 119.148438 31.46875 119.367188 31.484375 C 119.589844 31.492188 119.808594 31.542969 120.023438 31.617188 C 120.242188 31.691406 120.449219 31.800781 120.65625 31.933594 Z M 119.855469 33.847656 C 119.828125 33.4375 119.542969 33.125 119.222656 33.144531 C 118.902344 33.164062 118.664062 33.515625 118.6875 33.925781 C 118.714844 34.332031 119 34.644531 119.320312 34.625 C 119.644531 34.605469 119.882812 34.253906 119.855469 33.847656 Z M 138.839844 101.792969 C 139.570312 101.753906 142.382812 101.5 143.539062 99.777344 C 144.703125 98.054688 143.886719 95.347656 143.648438 94.65625 C 142.917969 94.695312 140.109375 94.949219 138.945312 96.671875 C 137.785156 98.394531 138.601562 101.101562 138.839844 101.792969 Z M 138.429688 102.144531 C 138.371094 102 137.046875 98.585938 138.527344 96.390625 C 140.011719 94.191406 143.667969 94.144531 143.820312 94.144531 L 143.996094 94.144531 L 144.058594 94.304688 C 144.113281 94.449219 145.4375 97.863281 143.957031 100.058594 C 142.476562 102.257812 138.820312 102.300781 138.664062 102.300781 L 138.492188 102.304688 Z M 110.570312 42.824219 C 110.058594 42.4375 109.59375 41.992188 109.171875 41.5 C 109.140625 41.464844 109.089844 41.457031 109.046875 41.480469 C 109.003906 41.503906 108.988281 41.5625 109.011719 41.613281 C 109.347656 42.191406 109.796875 42.710938 110.300781 43.15625 C 110.808594 43.601562 111.386719 43.964844 111.992188 44.269531 C 112.601562 44.550781 113.242188 44.777344 113.898438 44.917969 C 114.554688 45.058594 115.222656 45.132812 115.886719 45.125 C 115.941406 45.125 115.988281 45.085938 116 45.03125 C 116.007812 44.964844 115.96875 44.90625 115.90625 44.898438 C 115.261719 44.785156 114.625 44.664062 114.007812 44.484375 C 113.386719 44.308594 112.78125 44.097656 112.207031 43.8125 C 111.625 43.550781 111.082031 43.207031 110.570312 42.824219 Z M 125.152344 63.628906 C 125.707031 63.628906 126.160156 63.175781 126.160156 62.617188 C 126.160156 62.058594 125.707031 61.609375 125.152344 61.609375 C 124.597656 61.609375 124.144531 62.058594 124.144531 62.617188 C 124.144531 63.175781 124.597656 63.628906 125.152344 63.628906 Z M 107.015625 62.617188 C 107.015625 63.175781 107.464844 63.628906 108.023438 63.628906 C 108.578125 63.628906 109.03125 63.175781 109.03125 62.617188 C 109.03125 62.058594 108.578125 61.609375 108.023438 61.609375 C 107.464844 61.609375 107.015625 62.058594 107.015625 62.617188 Z M 125.179688 79.40625 C 125.179688 79.460938 125.136719 79.503906 125.082031 79.5 C 125.03125 79.5 124.988281 79.457031 124.988281 79.40625 C 124.976562 77.640625 124.96875 75.875 124.960938 74.113281 C 125.011719 74.089844 125.0625 74.0625 125.109375 74.03125 C 125.183594 73.980469 125.242188 73.914062 125.292969 73.839844 C 125.257812 75.695312 125.21875 77.550781 125.179688 79.40625 "/>
</g>
</g>
</svg>
