<?xml version="1.0" encoding="UTF-8"?>
<svg xmlns="http://www.w3.org/2000/svg" xmlns:xlink="http://www.w3.org/1999/xlink" width="224.87999pt" height="225pt" viewBox="0 0 224.87999 225" version="1.2">
<defs>
<clipPath id="clip1">
  <path d="M 87 7.738281 L 120 7.738281 L 120 24 L 87 24 Z M 87 7.738281 "/>
</clipPath>
<clipPath id="clip2">
  <path d="M 95 7.738281 L 120 7.738281 L 120 24 L 95 24 Z M 95 7.738281 "/>
</clipPath>
<clipPath id="clip3">
  <path d="M 72.664062 18 L 137 18 L 137 24 L 72.664062 24 Z M 72.664062 18 "/>
</clipPath>
<clipPath id="clip4">
  <path d="M 72.664062 19 L 137 19 L 137 27 L 72.664062 27 Z M 72.664062 19 "/>
</clipPath>
<clipPath id="clip5">
  <path d="M 110 207 L 122 207 L 122 224.9375 L 110 224.9375 Z M 110 207 "/>
</clipPath>
<clipPath id="clip6">
  <path d="M 90 207 L 102 207 L 102 224.9375 L 90 224.9375 Z M 90 207 "/>
</clipPath>
<clipPath id="clip7">
  <path d="M 91 207 L 102 207 L 102 224.9375 L 91 224.9375 Z M 91 207 "/>
</clipPath>
<clipPath id="clip8">
  <path d="M 111 222 L 122 222 L 122 224.9375 L 111 224.9375 Z M 111 222 "/>
</clipPath>
<clipPath id="clip9">
  <path d="M 106.570312 161.441406 L 134.304688 161.441406 L 134.304688 179.546875 L 106.570312 179.546875 Z M 106.570312 161.441406 "/>
</clipPath>
<clipPath id="clip10">
  <path d="M 121.257812 179.460938 C 121.148438 179.445312 121.039062 179.429688 120.933594 179.410156 C 121.558594 178.027344 122.902344 175.472656 125.027344 173.464844 C 124.347656 171.621094 123.507812 169.683594 122.5 167.902344 C 120.863281 169.660156 119.558594 171.585938 118.574219 173.289062 C 120.1875 176.136719 120.699219 178.359375 120.855469 179.398438 C 120.761719 179.382812 120.667969 179.367188 120.574219 179.347656 C 120.089844 178.425781 119.136719 176.667969 117.835938 174.628906 C 116.816406 176.585938 116.3125 177.984375 116.3125 177.984375 C 116.3125 177.984375 115.941406 175.8125 116.863281 173.160156 C 115.882812 171.722656 114.761719 170.222656 113.53125 168.816406 C 112.808594 172.671875 113.296875 176.21875 113.296875 176.21875 C 113.296875 176.21875 111.546875 174.167969 111.9375 169.960938 C 112.011719 169.160156 112.21875 168.394531 112.496094 167.683594 C 111.226562 166.363281 109.867188 165.1875 108.449219 164.316406 C 108.863281 168.148438 110.726562 172.132812 110.726562 172.132812 C 110.726562 172.132812 109.355469 170.925781 108.414062 167.761719 C 108.019531 166.433594 107.964844 165.128906 108.03125 164.0625 C 107.585938 163.808594 107.132812 163.585938 106.675781 163.398438 C 106.675781 163.398438 107.199219 163.492188 108.050781 163.796875 C 108.164062 162.476562 108.453125 161.582031 108.453125 161.582031 C 108.347656 162.324219 108.347656 163.125 108.414062 163.933594 C 109.59375 164.386719 111.246094 165.191406 113.007812 166.582031 C 113.828125 165.03125 114.921875 163.816406 115.605469 163.144531 C 115.65625 163.160156 115.703125 163.171875 115.753906 163.1875 C 114.871094 164.441406 114.277344 165.875 113.878906 167.320312 C 114.722656 168.074219 115.570312 168.960938 116.390625 170.015625 C 116.816406 170.566406 117.1875 171.09375 117.539062 171.613281 C 117.667969 171.371094 117.808594 171.128906 117.964844 170.882812 C 119.027344 169.210938 120.480469 167.898438 121.90625 166.898438 C 121.332031 165.980469 120.710938 165.125 120.039062 164.367188 C 120.339844 164.441406 120.636719 164.515625 120.933594 164.589844 C 121.484375 165.074219 122.078125 165.667969 122.679688 166.378906 C 123.308594 165.984375 123.917969 165.648438 124.464844 165.367188 C 124.691406 165.414062 124.917969 165.457031 125.140625 165.496094 C 124.476562 165.996094 123.851562 166.539062 123.265625 167.113281 C 124.105469 168.222656 124.929688 169.570312 125.621094 171.199219 C 125.8125 171.648438 125.980469 172.085938 126.136719 172.511719 C 127.6875 171.277344 129.269531 170.445312 130.695312 169.894531 C 130.246094 168.546875 129.683594 167.222656 128.976562 166.027344 C 129.214844 166.046875 129.445312 166.0625 129.671875 166.074219 C 130.3125 166.964844 130.980469 168.113281 131.5625 169.578125 C 132.53125 169.261719 133.394531 169.070312 134.085938 168.953125 C 134.109375 169.023438 134.132812 169.097656 134.15625 169.167969 C 133.359375 169.425781 132.570312 169.769531 131.792969 170.175781 C 131.929688 170.554688 132.058594 170.949219 132.183594 171.363281 C 132.597656 172.757812 132.835938 173.984375 132.957031 175.046875 C 132.703125 175.425781 132.414062 175.796875 132.089844 176.152344 C 131.871094 174.519531 131.515625 172.585938 130.933594 170.65625 C 129.382812 171.5625 127.910156 172.683594 126.582031 173.855469 C 127.230469 175.984375 127.449219 177.75 127.496094 179.042969 C 127.277344 179.113281 127.050781 179.179688 126.820312 179.238281 C 126.519531 178.0625 126.085938 176.519531 125.515625 174.835938 C 123.605469 176.648438 122.09375 178.417969 121.257812 179.460938 "/>
</clipPath>
</defs>
<g id="surface1">
<path style=" stroke:none;fill-rule:nonzero;fill:rgb(100%,71.759033%,57.249451%);fill-opacity:1;" d="M 86.796875 134.953125 L 84.332031 135.765625 C 84.332031 135.765625 81.625 125.113281 80.285156 113.179688 C 79.632812 107.304688 79.535156 101.757812 79.59375 97.9375 C 79.628906 94.726562 79.78125 92.71875 79.78125 92.71875 C 79.78125 92.71875 80.503906 92.035156 81.535156 91.261719 C 84.058594 89.386719 88.4375 86.957031 88.785156 92.425781 C 88.792969 92.496094 88.792969 92.574219 88.800781 92.652344 C 89.152344 100.738281 86.796875 134.953125 86.796875 134.953125 "/>
<path style=" stroke:none;fill-rule:nonzero;fill:rgb(100%,56.079102%,38.819885%);fill-opacity:1;" d="M 86.796875 134.953125 C 86.796875 134.953125 86.390625 110.003906 85.59375 104.914062 C 84.796875 99.835938 79.59375 97.9375 79.59375 97.9375 C 79.628906 94.726562 79.78125 92.71875 79.78125 92.71875 C 79.78125 92.71875 80.503906 92.035156 81.535156 91.261719 L 88.785156 92.425781 C 88.792969 92.496094 88.792969 92.574219 88.800781 92.652344 C 89.152344 100.738281 86.796875 134.953125 86.796875 134.953125 "/>
<path style=" stroke:none;fill-rule:nonzero;fill:rgb(100%,71.759033%,57.249451%);fill-opacity:1;" d="M 128.980469 133.90625 C 128.980469 133.90625 125.910156 136.757812 125.390625 138.570312 C 124.871094 140.382812 127.066406 139.917969 127.066406 139.917969 L 129.707031 137.140625 L 128.980469 133.90625 "/>
<path style=" stroke:none;fill-rule:nonzero;fill:rgb(100%,71.759033%,57.249451%);fill-opacity:1;" d="M 132.335938 133.734375 C 132.324219 133.78125 132.3125 133.816406 132.3125 133.816406 L 128.980469 133.90625 C 128.980469 133.90625 127.027344 114.1875 124.722656 102.339844 C 123.996094 98.574219 123.234375 95.613281 122.496094 94.3125 C 122.070312 93.589844 121.894531 92.878906 121.894531 92.199219 C 121.871094 87.855469 129.179688 84.632812 129.179688 84.632812 C 129.179688 84.632812 129.667969 85.957031 130.378906 88.070312 C 131.625 91.789062 133.53125 97.988281 134.550781 103.910156 C 135.800781 111.101562 132.554688 132.289062 132.335938 133.734375 "/>
<path style=" stroke:none;fill-rule:nonzero;fill:rgb(100%,56.079102%,38.819885%);fill-opacity:1;" d="M 132.335938 133.734375 C 132.324219 133.78125 132.3125 133.816406 132.3125 133.816406 C 132.3125 133.816406 132.398438 113.398438 131.492188 108.636719 C 130.574219 103.867188 124.722656 102.339844 124.722656 102.339844 C 123.996094 98.574219 123.234375 95.613281 122.496094 94.3125 C 122.070312 93.589844 121.894531 92.878906 121.894531 92.199219 L 130.378906 88.070312 C 131.625 91.789062 133.53125 97.988281 134.550781 103.910156 C 135.800781 111.101562 132.554688 132.289062 132.335938 133.734375 "/>
<path style=" stroke:none;fill-rule:nonzero;fill:rgb(98.039246%,30.198669%,23.139954%);fill-opacity:1;" d="M 97.804688 72.074219 L 93.472656 87.234375 L 93.246094 88.21875 L 90.101562 101.878906 L 89.039062 101.796875 L 83.117188 101.347656 L 78.753906 101.003906 C 78.753906 101.003906 78.222656 79.261719 85.292969 70.851562 C 88.320312 67.257812 95.097656 65.359375 95.097656 65.359375 L 97.753906 71.949219 L 97.804688 72.074219 "/>
<path style=" stroke:none;fill-rule:nonzero;fill:rgb(72.938538%,11.369324%,11.369324%);fill-opacity:1;" d="M 78.328125 97.78125 C 78.019531 97.882812 78.203125 100.269531 78.753906 101.003906 C 79.304688 101.738281 90.367188 102.515625 90.691406 102.234375 C 91.015625 101.949219 91.429688 99.710938 91.082031 99.40625 C 90.738281 99.101562 79.175781 97.5 78.328125 97.78125 "/>
<g clip-path="url(#clip1)" clip-rule="nonzero">
<path style=" stroke:none;fill-rule:nonzero;fill:rgb(50.979614%,37.249756%,24.708557%);fill-opacity:1;" d="M 119.105469 23.054688 L 109.019531 22.835938 L 87.445312 22.347656 L 93.699219 10.675781 C 93.699219 10.675781 94.253906 10.421875 95.277344 10.070312 C 97.058594 9.453125 100.265625 8.542969 104.34375 8.226562 C 110.726562 7.738281 111.644531 7.808594 112.621094 9.230469 C 113.597656 10.652344 119.105469 23.054688 119.105469 23.054688 "/>
</g>
<g clip-path="url(#clip2)" clip-rule="nonzero">
<path style=" stroke:none;fill-rule:nonzero;fill:rgb(38.819885%,25.489807%,16.468811%);fill-opacity:1;" d="M 109.019531 22.835938 C 110.414062 21.261719 111.515625 19.042969 110.75 16.300781 C 109.066406 10.292969 95.277344 10.070312 95.277344 10.070312 C 97.058594 9.453125 100.265625 8.542969 104.34375 8.226562 C 110.726562 7.738281 111.644531 7.808594 112.621094 9.230469 C 113.597656 10.652344 119.105469 23.054688 119.105469 23.054688 L 109.019531 22.835938 "/>
</g>
<path style=" stroke:none;fill-rule:nonzero;fill:rgb(100%,71.759033%,57.249451%);fill-opacity:1;" d="M 89.121094 36.78125 C 89.121094 36.78125 86.992188 34.335938 83.386719 36.265625 C 80.03125 38.0625 82.34375 43.296875 85.917969 43.445312 C 89.496094 43.59375 89.71875 41.203125 89.71875 41.203125 L 89.121094 36.78125 "/>
<path style=" stroke:none;fill-rule:nonzero;fill:rgb(92.158508%,44.709778%,28.62854%);fill-opacity:1;" d="M 87.070312 37.871094 C 87.070312 37.871094 85.9375 36.574219 84.019531 37.597656 C 82.238281 38.554688 83.464844 41.339844 85.367188 41.417969 C 87.269531 41.5 87.390625 40.226562 87.390625 40.226562 L 87.070312 37.871094 "/>
<path style=" stroke:none;fill-rule:nonzero;fill:rgb(100%,71.759033%,57.249451%);fill-opacity:1;" d="M 87.832031 39.128906 C 87.832031 39.128906 87.113281 38.382812 85.898438 38.972656 C 84.769531 39.519531 85.546875 41.117188 86.75 41.164062 C 87.957031 41.207031 88.03125 40.480469 88.03125 40.480469 L 87.832031 39.128906 "/>
<path style=" stroke:none;fill-rule:nonzero;fill:rgb(100%,56.079102%,38.819885%);fill-opacity:1;" d="M 98.238281 59.335938 L 96.652344 64.640625 C 96.652344 64.640625 99.039062 68.609375 103.84375 68.320312 C 108.648438 68.03125 110.515625 64.640625 110.515625 64.640625 L 108.445312 59.335938 L 98.238281 59.335938 "/>
<g clip-path="url(#clip3)" clip-rule="nonzero">
<path style=" stroke:none;fill-rule:nonzero;fill:rgb(50.979614%,37.249756%,24.708557%);fill-opacity:1;" d="M 72.878906 23.351562 L 72.878906 22.441406 C 72.878906 22.441406 83.359375 18.417969 104.046875 18.222656 C 124.730469 18.027344 136.136719 22.039062 136.136719 22.039062 L 136.136719 22.902344 L 72.878906 23.351562 "/>
</g>
<g clip-path="url(#clip4)" clip-rule="nonzero">
<path style=" stroke:none;fill-rule:nonzero;fill:rgb(38.819885%,25.489807%,16.468811%);fill-opacity:1;" d="M 102.832031 19.613281 C 123.023438 19.691406 136.210938 22.378906 136.136719 22.902344 C 136.0625 23.425781 122.203125 26.34375 103.578125 26.34375 C 84.652344 26.34375 72.730469 23.949219 72.878906 23.351562 C 73.027344 22.753906 83.832031 19.535156 102.832031 19.613281 "/>
</g>
<path style=" stroke:none;fill-rule:nonzero;fill:rgb(100%,71.759033%,57.249451%);fill-opacity:1;" d="M 93.144531 23.402344 C 93.144531 23.402344 88.898438 30.132812 88.300781 38.507812 C 87.707031 46.886719 94.789062 58.820312 103.988281 58.371094 C 113.1875 57.925781 118.476562 45.820312 118.476562 36.109375 C 118.476562 26.394531 115.722656 21.832031 103.875 22.503906 C 92.027344 23.175781 93.144531 23.402344 93.144531 23.402344 "/>
<path style=" stroke:none;fill-rule:nonzero;fill:rgb(48.239136%,28.239441%,21.179199%);fill-opacity:1;" d="M 114.980469 44.863281 C 114.726562 45.53125 114.386719 46.101562 113.910156 46.59375 C 113.875 46.636719 113.84375 46.671875 113.808594 46.707031 C 113.855469 46.429688 113.886719 46.148438 113.910156 45.855469 L 113.910156 45.832031 C 113.945312 45.515625 113.980469 45.203125 114.003906 44.875 C 114.039062 44.398438 114.074219 43.917969 114.097656 43.429688 C 114.121094 42.890625 114.132812 42.332031 114.132812 41.785156 C 114.132812 41.363281 114.121094 40.945312 114.109375 40.511719 C 114.109375 40.292969 114.097656 40.070312 114.085938 39.847656 C 114.0625 39.371094 114.039062 38.890625 114.003906 38.414062 C 113.96875 38.039062 113.933594 37.675781 113.898438 37.316406 C 113.832031 36.582031 113.738281 35.867188 113.621094 35.203125 C 113.574219 34.925781 113.527344 34.644531 113.46875 34.375 C 113.445312 34.222656 113.410156 34.082031 113.375 33.945312 C 113.367188 33.859375 113.339844 33.769531 113.320312 33.675781 C 113.007812 32.308594 112.609375 31.167969 112.132812 30.394531 C 112.039062 30.246094 111.949219 30.117188 111.84375 29.988281 C 111.738281 29.871094 111.632812 29.765625 111.527344 29.671875 C 108.691406 27.257812 106.007812 28.726562 101.113281 28.226562 C 99.347656 28.039062 97.242188 27.675781 95.277344 27.292969 C 95.699219 26.289062 95.753906 25.273438 95.753906 25.273438 C 102.613281 26.917969 111.84375 24.75 111.84375 24.75 C 111.84375 24.75 112.214844 26.089844 113.039062 28.039062 C 113.855469 29.988281 116.316406 31.703125 116.761719 36.777344 C 117.210938 41.855469 116.015625 42.25 114.980469 44.863281 Z M 117.199219 22.972656 C 117.199219 22.972656 111.644531 21.75 103.3125 22.101562 C 94.964844 22.4375 88.875 23.054688 88.875 23.054688 C 88.875 23.054688 88.816406 24.167969 88.734375 25.820312 C 88.5 30.375 88.058594 39.019531 88.035156 39.777344 C 88.003906 40.828125 88.082031 45.085938 89.199219 49.277344 C 89.675781 51.050781 90.386719 53.054688 91.105469 54.78125 L 91.117188 54.804688 C 91.523438 55.773438 91.929688 57.828125 92.277344 58.515625 C 92.769531 59.460938 93.175781 60.066406 93.371094 60.089844 C 93.640625 60.125 94.082031 60.617188 94.476562 61.128906 C 94.824219 61.574219 95.140625 62.039062 95.292969 62.261719 C 95.347656 62.355469 95.382812 62.414062 95.382812 62.414062 L 95.636719 62.597656 L 97.546875 63.988281 C 97.546875 63.988281 97.671875 63.488281 97.835938 63.007812 C 98.007812 62.496094 98.230469 61.992188 98.394531 62.109375 C 98.589844 62.238281 98.789062 63.136719 99 63.882812 C 99.148438 64.394531 99.300781 64.839844 99.472656 64.957031 C 99.660156 65.074219 100.359375 64.875 101.195312 64.617188 C 101.566406 64.5 101.960938 64.386719 102.359375 64.269531 C 103.242188 64.011719 104.089844 63.824219 104.507812 63.988281 L 104.554688 64.011719 C 105.007812 64.1875 105.355469 64.558594 105.71875 64.839844 C 106.132812 65.167969 106.566406 65.367188 107.15625 64.992188 C 107.554688 64.746094 108.101562 64.246094 108.644531 63.695312 C 109.050781 63.289062 109.460938 62.84375 109.808594 62.472656 C 110.25 61.992188 110.574219 61.609375 110.644531 61.527344 L 110.65625 61.527344 L 111.027344 62.480469 C 111.027344 62.480469 112.0625 62.402344 112.75 62.238281 C 112.96875 62.179688 113.15625 62.121094 113.25 62.050781 L 113.261719 62.039062 C 113.320312 61.992188 113.410156 61.792969 113.515625 61.480469 C 113.632812 61.164062 113.761719 60.734375 113.910156 60.230469 C 114.003906 59.929688 114.097656 59.613281 114.191406 59.273438 L 114.191406 59.261719 C 114.761719 57.242188 115.351562 53.695312 115.351562 53.695312 C 115.351562 53.695312 115.574219 57.023438 116.25 56.578125 C 116.910156 56.125 120.039062 47.410156 119.898438 38.65625 C 119.746094 29.90625 117.199219 22.972656 117.199219 22.972656 "/>
<path style=" stroke:none;fill-rule:nonzero;fill:rgb(100%,71.759033%,57.249451%);fill-opacity:1;" d="M 113.910156 45.855469 C 113.886719 46.148438 113.855469 46.429688 113.808594 46.707031 C 113.515625 47 113.167969 47.269531 112.75 47.5 C 112.027344 47.933594 111.074219 48.261719 109.808594 48.492188 C 109.449219 48.5625 109.066406 48.621094 108.644531 48.65625 C 107.367188 48.820312 105.820312 48.902344 103.949219 48.902344 C 103.390625 48.902344 102.855469 48.890625 102.359375 48.867188 C 101.949219 48.855469 101.566406 48.84375 101.195312 48.808594 C 100.394531 48.75 99.660156 48.667969 99 48.539062 C 98.589844 48.46875 98.195312 48.386719 97.835938 48.269531 C 97 48.050781 96.265625 47.757812 95.636719 47.382812 C 95.207031 47.128906 94.824219 46.835938 94.476562 46.5 C 93.5 45.5625 92.816406 44.316406 92.277344 42.707031 C 92.1875 42.4375 92.105469 42.167969 92.023438 41.875 C 91.558594 40.230469 91.269531 38.867188 91.117188 37.710938 C 90.769531 35.179688 91.023438 33.652344 91.28125 32.34375 C 91.652344 30.429688 92.324219 29.90625 93.964844 28.9375 C 94.605469 28.554688 95.011719 27.921875 95.277344 27.292969 C 97.242188 27.675781 99.347656 28.039062 101.113281 28.226562 C 106.007812 28.726562 108.691406 27.257812 111.527344 29.671875 C 113.703125 31.515625 114.574219 40.070312 113.910156 45.855469 "/>
<path style=" stroke:none;fill-rule:nonzero;fill:rgb(100%,56.079102%,38.819885%);fill-opacity:1;" d="M 119.089844 36.78125 C 119.089844 36.78125 121.222656 34.335938 124.824219 36.265625 C 128.179688 38.0625 125.871094 43.296875 122.292969 43.445312 C 118.71875 43.59375 118.492188 41.203125 118.492188 41.203125 L 119.089844 36.78125 "/>
<path style=" stroke:none;fill-rule:nonzero;fill:rgb(84.309387%,33.729553%,19.999695%);fill-opacity:1;" d="M 120.746094 37.871094 C 120.746094 37.871094 121.882812 36.574219 123.800781 37.597656 C 125.582031 38.554688 124.355469 41.339844 122.453125 41.417969 C 120.550781 41.5 120.429688 40.226562 120.429688 40.226562 L 120.746094 37.871094 "/>
<path style=" stroke:none;fill-rule:nonzero;fill:rgb(100%,56.079102%,38.819885%);fill-opacity:1;" d="M 119.988281 39.128906 C 119.988281 39.128906 120.707031 38.382812 121.921875 38.972656 C 123.050781 39.519531 122.273438 41.117188 121.066406 41.164062 C 119.863281 41.207031 119.789062 40.480469 119.789062 40.480469 L 119.988281 39.128906 "/>
<path style=" stroke:none;fill-rule:nonzero;fill:rgb(100%,56.079102%,38.819885%);fill-opacity:1;" d="M 114.980469 44.863281 C 114.703125 45.578125 114.34375 46.195312 113.808594 46.707031 C 114.65625 40.945312 113.808594 31.609375 111.527344 29.671875 C 108.691406 27.257812 106.007812 28.726562 101.113281 28.226562 C 99.347656 28.039062 97.242188 27.675781 95.277344 27.292969 C 95.699219 26.289062 95.753906 25.273438 95.753906 25.273438 C 102.613281 26.917969 111.84375 24.75 111.84375 24.75 C 111.84375 24.75 112.214844 26.089844 113.039062 28.039062 C 113.855469 29.988281 116.316406 31.703125 116.761719 36.777344 C 117.210938 41.855469 116.015625 42.25 114.980469 44.863281 "/>
<path style=" stroke:none;fill-rule:nonzero;fill:rgb(33.729553%,15.689087%,9.799194%);fill-opacity:1;" d="M 119.898438 38.65625 C 120.039062 47.410156 116.910156 56.125 116.25 56.578125 C 115.574219 57.023438 115.351562 53.695312 115.351562 53.695312 C 114.832031 55.769531 114.414062 59.410156 113.515625 61.480469 C 113.34375 61.566406 113.578125 60.9375 113.535156 60.75 C 112.117188 54.527344 115.871094 47.484375 116.71875 41.46875 C 117.117188 38.664062 116.925781 35.464844 115.835938 32.824219 C 115.121094 31.09375 113.761719 29.742188 113.039062 28.039062 C 112.214844 26.089844 111.84375 24.75 111.84375 24.75 C 111.84375 24.75 102.613281 26.917969 95.753906 25.273438 C 95.753906 25.273438 95.699219 26.289062 95.277344 27.292969 C 91.792969 26.59375 88.734375 25.820312 88.734375 25.820312 C 88.816406 24.167969 88.875 23.054688 88.875 23.054688 C 88.875 23.054688 94.964844 22.4375 103.3125 22.101562 C 111.644531 21.75 117.199219 22.972656 117.199219 22.972656 C 117.199219 22.972656 119.746094 29.90625 119.898438 38.65625 "/>
<path style=" stroke:none;fill-rule:nonzero;fill:rgb(23.139954%,17.649841%,17.248535%);fill-opacity:1;" d="M 99.925781 37.574219 C 99.925781 39.164062 99.242188 40.453125 98.398438 40.453125 C 97.554688 40.453125 96.871094 39.164062 96.871094 37.574219 C 96.871094 35.984375 97.554688 34.695312 98.398438 34.695312 C 99.242188 34.695312 99.925781 35.984375 99.925781 37.574219 "/>
<path style=" stroke:none;fill-rule:nonzero;fill:rgb(23.139954%,17.649841%,17.248535%);fill-opacity:1;" d="M 110.65625 37.574219 C 110.65625 39.164062 109.972656 40.453125 109.128906 40.453125 C 108.285156 40.453125 107.601562 39.164062 107.601562 37.574219 C 107.601562 35.984375 108.285156 34.695312 109.128906 34.695312 C 109.972656 34.695312 110.65625 35.984375 110.65625 37.574219 "/>
<path style=" stroke:none;fill-rule:nonzero;fill:rgb(100%,98.81897%,86.268616%);fill-opacity:1;" d="M 109.234375 36.75 C 109.234375 37.257812 109.011719 37.675781 108.742188 37.675781 C 108.46875 37.675781 108.25 37.257812 108.25 36.75 C 108.25 36.238281 108.46875 35.820312 108.742188 35.820312 C 109.011719 35.820312 109.234375 36.238281 109.234375 36.75 "/>
<path style=" stroke:none;fill-rule:nonzero;fill:rgb(100%,98.81897%,86.268616%);fill-opacity:1;" d="M 98.5 36.804688 C 98.445312 37.3125 98.179688 37.699219 97.910156 37.667969 C 97.640625 37.640625 97.46875 37.203125 97.523438 36.695312 C 97.578125 36.183594 97.84375 35.796875 98.113281 35.828125 C 98.382812 35.859375 98.558594 36.296875 98.5 36.804688 "/>
<path style=" stroke:none;fill-rule:nonzero;fill:rgb(33.729553%,15.689087%,9.799194%);fill-opacity:1;" d="M 93.964844 30.808594 L 93.964844 33.949219 L 101.117188 32.375 L 100.222656 29.308594 L 93.964844 30.808594 "/>
<path style=" stroke:none;fill-rule:nonzero;fill:rgb(33.729553%,15.689087%,9.799194%);fill-opacity:1;" d="M 106.707031 28.9375 L 106.109375 32.203125 L 112.667969 33.347656 L 112.667969 30.40625 L 106.707031 28.9375 "/>
<path style=" stroke:none;fill-rule:nonzero;fill:rgb(33.729553%,15.689087%,9.799194%);fill-opacity:1;" d="M 101.757812 53 C 102.199219 54.132812 102.957031 54.675781 103.78125 54.816406 C 104.191406 54.847656 104.636719 54.804688 105.03125 54.507812 C 105.425781 54.238281 105.726562 53.691406 105.761719 53.082031 L 105.699219 52.996094 C 105.210938 53.617188 104.488281 53.769531 103.8125 53.640625 C 103.128906 53.566406 102.441406 53.28125 101.796875 52.894531 L 101.757812 53 "/>
<path style=" stroke:none;fill-rule:nonzero;fill:rgb(98.039246%,30.198669%,23.139954%);fill-opacity:1;" d="M 121.339844 120.589844 C 121.320312 124.316406 121.257812 127.472656 121.132812 129.40625 C 120.53125 138.246094 105.445312 137.09375 105.445312 137.09375 L 89.964844 133.90625 C 89.964844 133.90625 89.707031 126.804688 89.445312 118.089844 C 89.289062 112.84375 89.132812 107.019531 89.039062 101.796875 C 88.996094 99.367188 88.964844 97.070312 88.957031 95.023438 C 88.925781 89.980469 89.007812 86.453125 89.300781 86.21875 C 90.113281 85.550781 95.316406 76.3125 97.753906 71.949219 C 98.523438 70.59375 99.011719 69.699219 99.011719 69.699219 L 103.582031 68.207031 L 109.527344 70.105469 L 109.871094 70.21875 L 110.515625 70.421875 L 117.71875 81.660156 L 120.925781 86.65625 C 120.925781 86.65625 121.03125 90.851562 121.132812 96.675781 L 121.132812 96.722656 C 121.246094 103.808594 121.382812 113.308594 121.339844 120.589844 "/>
<path style=" stroke:none;fill-rule:nonzero;fill:rgb(72.938538%,11.369324%,11.369324%);fill-opacity:1;" d="M 95.09375 65.355469 L 99.539062 76.371094 L 103.582031 68.207031 Z M 95.09375 65.355469 "/>
<path style=" stroke:none;fill-rule:nonzero;fill:rgb(72.938538%,11.369324%,11.369324%);fill-opacity:1;" d="M 133.761719 95.398438 L 122.613281 100.824219 L 121.226562 96.992188 L 121.226562 96.980469 C 121.226562 96.980469 121.214844 96.9375 121.1875 96.855469 L 121.132812 96.722656 L 117.1875 85.789062 L 108.953125 72.527344 C 108.941406 72.492188 108.933594 72.480469 108.933594 72.480469 L 109.871094 70.21875 L 111.921875 65.265625 C 111.921875 65.265625 115.167969 65.753906 118.800781 67.324219 C 120.082031 67.867188 121.414062 68.558594 122.664062 69.40625 C 130.023438 74.402344 133.761719 95.398438 133.761719 95.398438 "/>
<path style=" stroke:none;fill-rule:nonzero;fill:rgb(72.938538%,11.369324%,11.369324%);fill-opacity:1;" d="M 121.339844 120.589844 C 119.625 118.042969 115.804688 111.304688 116.304688 102.292969 C 116.925781 91.066406 109.410156 73.566406 108.953125 72.527344 C 108.941406 72.492188 108.933594 72.480469 108.933594 72.480469 L 109.527344 70.105469 L 109.871094 70.21875 L 111.921875 65.265625 C 111.921875 65.265625 115.167969 65.753906 118.800781 67.324219 C 118.800781 67.324219 117.457031 74.640625 117.644531 80.519531 C 117.65625 80.882812 117.675781 81.265625 117.71875 81.660156 C 118.1875 87.019531 120.613281 95.023438 121.132812 96.675781 L 121.132812 96.722656 C 121.246094 103.808594 121.382812 113.308594 121.339844 120.589844 "/>
<path style=" stroke:none;fill-rule:nonzero;fill:rgb(72.938538%,11.369324%,11.369324%);fill-opacity:1;" d="M 96.066406 102.894531 C 95.628906 104.089844 90.921875 120.589844 90.921875 120.589844 C 90.921875 120.589844 90.320312 119.613281 89.445312 118.089844 C 89.289062 112.84375 89.132812 107.019531 89.039062 101.796875 L 83.117188 101.347656 C 83.261719 100.304688 80.617188 98.441406 81.574219 98.15625 C 83.5 97.601562 87.988281 97.046875 88.957031 95.023438 C 90.953125 90.84375 92.257812 85.199219 92.257812 85.199219 C 92.558594 83.128906 93.390625 88.410156 94.285156 91.609375 C 95.753906 96.835938 96.335938 102.148438 96.066406 102.894531 "/>
<path style=" stroke:none;fill-rule:nonzero;fill:rgb(72.938538%,11.369324%,11.369324%);fill-opacity:1;" d="M 102.242188 68.867188 L 102.515625 89.800781 L 105.511719 89.800781 L 105.511719 68.335938 L 103.582031 68.207031 L 102.242188 68.867188 "/>
<path style=" stroke:none;fill-rule:nonzero;fill:rgb(0%,47.059631%,70.588684%);fill-opacity:1;" d="M 123.226562 140.621094 L 88.945312 140.621094 L 88.945312 119.230469 L 94.433594 87.472656 L 116.035156 87.855469 L 116.304688 87.855469 L 122.082031 120.226562 L 123.226562 140.621094 "/>
<path style=" stroke:none;fill-rule:nonzero;fill:rgb(94.898987%,87.449646%,79.60968%);fill-opacity:1;" d="M 104.710938 73.066406 C 104.710938 73.808594 104.398438 74.40625 104.011719 74.40625 C 103.625 74.40625 103.3125 73.808594 103.3125 73.066406 C 103.3125 72.324219 103.625 71.726562 104.011719 71.726562 C 104.398438 71.726562 104.710938 72.324219 104.710938 73.066406 "/>
<path style=" stroke:none;fill-rule:nonzero;fill:rgb(94.898987%,87.449646%,79.60968%);fill-opacity:1;" d="M 104.617188 83.828125 C 104.617188 84.589844 104.332031 85.203125 103.980469 85.203125 C 103.628906 85.203125 103.34375 84.589844 103.34375 83.828125 C 103.34375 83.066406 103.628906 82.453125 103.980469 82.453125 C 104.332031 82.453125 104.617188 83.066406 104.617188 83.828125 "/>
<path style=" stroke:none;fill-rule:nonzero;fill:rgb(16.079712%,57.249451%,80.389404%);fill-opacity:1;" d="M 115.082031 96.285156 C 115.082031 96.285156 114.910156 98.527344 114.65625 101.695312 C 114.65625 101.695312 110.488281 102.289062 105.496094 102.289062 C 100.515625 102.289062 96.507812 101.695312 96.507812 101.695312 C 96.25 98.527344 96.082031 96.285156 96.082031 96.285156 C 105.421875 97.488281 115.082031 96.285156 115.082031 96.285156 "/>
<path style=" stroke:none;fill-rule:nonzero;fill:rgb(52.159119%,8.628845%,8.628845%);fill-opacity:1;" d="M 121.597656 98.019531 C 121.597656 98.019531 121.726562 100.023438 121.890625 100.492188 C 122.050781 100.960938 122.484375 101.679688 123.960938 101.003906 C 125.433594 100.324219 134.414062 96.15625 134.414062 95.519531 C 134.414062 94.882812 134.089844 92.59375 133.4375 92.679688 C 132.785156 92.765625 122.023438 96.425781 121.597656 98.019531 "/>
<path style=" stroke:none;fill-rule:nonzero;fill:rgb(0%,32.939148%,57.649231%);fill-opacity:1;" d="M 114.65625 101.695312 C 114.070312 109.070312 113.027344 121.417969 112.589844 121.65625 C 111.957031 121.984375 98.5 122.15625 98.257812 121.65625 C 98.097656 121.300781 97.089844 109.03125 96.507812 101.695312 C 96.507812 101.695312 100.515625 102.289062 105.496094 102.289062 C 110.488281 102.289062 114.65625 101.695312 114.65625 101.695312 "/>
<path style=" stroke:none;fill-rule:nonzero;fill:rgb(0%,32.939148%,57.649231%);fill-opacity:1;" d="M 115.082031 96.285156 C 115.082031 96.285156 105.421875 97.488281 96.082031 96.285156 L 115.082031 96.285156 "/>
<path style=" stroke:none;fill-rule:nonzero;fill:rgb(0%,47.059631%,70.588684%);fill-opacity:1;" d="M 117.355469 206.511719 L 111.972656 206.128906 C 111.972656 206.128906 112.011719 179.839844 111.441406 173.273438 C 111.367188 172.414062 111.265625 171.363281 111.160156 170.175781 L 111.148438 170.152344 C 110.410156 162.214844 109.027344 148.398438 109.027344 148.398438 L 102.59375 148.398438 C 102.59375 148.398438 101.3125 162.453125 100.925781 172.890625 C 100.542969 183.324219 100.242188 205.933594 100.242188 205.933594 L 95.242188 206.894531 C 95.242188 206.894531 93.121094 190.863281 91.972656 176.753906 C 91.851562 175.238281 91.714844 173.632812 91.578125 171.972656 C 90.433594 158.167969 88.945312 140.621094 88.945312 140.621094 C 88.945312 140.621094 101.605469 138.519531 111.542969 138.203125 C 117.730469 138 122.851562 138.496094 123.226562 140.621094 C 124.183594 146.160156 117.355469 206.511719 117.355469 206.511719 "/>
<g clip-path="url(#clip5)" clip-rule="nonzero">
<path style=" stroke:none;fill-rule:nonzero;fill:rgb(42.749023%,20.779419%,20.779419%);fill-opacity:1;" d="M 120.9375 225.300781 C 120.9375 225.300781 112.308594 224.375 111.96875 224.058594 C 111.914062 224.011719 111.859375 223.59375 111.789062 222.914062 C 111.417969 219.230469 110.890625 207.867188 110.890625 207.867188 L 117.929688 208.320312 C 117.929688 208.320312 116.441406 220.699219 116.351562 221.242188 C 116.285156 221.660156 119.359375 222.363281 120.746094 222.746094 C 121.117188 222.847656 121.363281 222.925781 121.410156 222.972656 C 121.613281 223.199219 120.9375 225.300781 120.9375 225.300781 "/>
</g>
<path style=" stroke:none;fill-rule:nonzero;fill:rgb(0%,32.939148%,57.649231%);fill-opacity:1;" d="M 96.703125 136.816406 L 92.167969 144.183594 L 90.832031 143.191406 L 94.902344 135.582031 L 96.703125 136.816406 "/>
<path style=" stroke:none;fill-rule:nonzero;fill:rgb(0%,32.939148%,57.649231%);fill-opacity:1;" d="M 103.175781 134.410156 C 103.175781 134.410156 103.710938 144.671875 103.910156 144.835938 C 104.109375 145 107.578125 144.835938 107.578125 144.835938 L 107.578125 134.410156 L 103.175781 134.410156 "/>
<path style=" stroke:none;fill-rule:nonzero;fill:rgb(0%,32.939148%,57.649231%);fill-opacity:1;" d="M 105.402344 134.617188 C 97.179688 134.820312 88.945312 133.757812 88.945312 133.757812 L 88.945312 131.179688 C 88.945312 131.179688 92.765625 131.746094 99.667969 131.835938 C 98.886719 131.949219 98.210938 132.015625 97.679688 132.050781 C 92.652344 132.367188 101.605469 133.542969 101.957031 133.542969 L 101.96875 133.542969 C 102.5625 133.679688 103.839844 134.007812 105.402344 134.617188 "/>
<path style=" stroke:none;fill-rule:nonzero;fill:rgb(92.158508%,44.709778%,28.62854%);fill-opacity:1;" d="M 103.664062 53.941406 C 105.382812 53.96875 106.167969 52.597656 106.019531 52.429688 C 105.867188 52.265625 104.441406 52.6875 103.550781 52.6875 C 102.65625 52.6875 101.75 52.132812 101.628906 52.265625 C 101.507812 52.402344 101.917969 53.910156 103.664062 53.941406 "/>
<path style=" stroke:none;fill-rule:nonzero;fill:rgb(33.729553%,15.689087%,9.799194%);fill-opacity:1;" d="M 103.90625 46.8125 C 106.988281 46.902344 105.839844 47.589844 109.460938 48.261719 C 112.914062 48.90625 112.070312 44.667969 112.070312 44.667969 C 112.070312 44.667969 114.949219 47.261719 112.367188 49.851562 C 109.785156 52.445312 105.546875 52.84375 103.964844 50.25 C 102.484375 52.59375 96.472656 52.679688 94.933594 49.269531 C 93.394531 45.863281 96.472656 44.964844 96.472656 44.964844 C 96.472656 44.964844 96.226562 47.609375 98.511719 47.90625 C 100.796875 48.207031 100.53125 46.710938 103.90625 46.8125 "/>
<path style=" stroke:none;fill-rule:nonzero;fill:rgb(92.158508%,44.709778%,28.62854%);fill-opacity:1;" d="M 103.515625 36.753906 C 104.378906 36.472656 107.816406 45.527344 106.777344 46.820312 C 105.734375 48.109375 104.601562 48.421875 102.96875 48.183594 C 101.34375 47.945312 100.5625 47.15625 100.664062 45.289062 C 100.765625 43.421875 102.527344 37.074219 103.515625 36.753906 "/>
<path style=" stroke:none;fill-rule:nonzero;fill:rgb(72.938538%,11.369324%,11.369324%);fill-opacity:1;" d="M 103.582031 68.207031 L 107.324219 76.371094 L 111.917969 65.269531 Z M 103.582031 68.207031 "/>
<path style=" stroke:none;fill-rule:nonzero;fill:rgb(33.729553%,15.689087%,9.799194%);fill-opacity:1;" d="M 114.191406 59.261719 L 114.191406 59.273438 C 114.097656 59.613281 114.003906 59.929688 113.910156 60.230469 C 113.761719 60.734375 113.632812 61.164062 113.515625 61.480469 C 113.410156 61.792969 113.320312 61.992188 113.261719 62.039062 L 113.25 62.050781 C 113.15625 62.121094 112.96875 62.179688 112.75 62.238281 C 112.0625 62.402344 111.027344 62.480469 111.027344 62.480469 L 110.65625 61.527344 L 110.644531 61.527344 C 110.574219 61.609375 110.25 61.992188 109.808594 62.472656 C 109.460938 62.84375 109.050781 63.289062 108.644531 63.695312 C 108.101562 64.246094 107.554688 64.746094 107.15625 64.992188 C 106.566406 65.367188 106.132812 65.167969 105.71875 64.839844 C 105.355469 64.558594 105.007812 64.1875 104.554688 64.011719 L 104.507812 63.988281 C 104.089844 63.824219 103.242188 64.011719 102.359375 64.269531 C 101.960938 64.386719 101.566406 64.5 101.195312 64.617188 C 100.359375 64.875 99.660156 65.074219 99.472656 64.957031 C 99.300781 64.839844 99.148438 64.394531 99 63.882812 C 98.789062 63.136719 98.589844 62.238281 98.394531 62.109375 C 98.230469 61.992188 98.007812 62.496094 97.835938 63.007812 C 97.671875 63.488281 97.546875 63.988281 97.546875 63.988281 L 95.636719 62.597656 L 95.382812 62.414062 C 95.382812 62.414062 95.347656 62.355469 95.292969 62.261719 C 95.140625 62.039062 94.824219 61.574219 94.476562 61.128906 C 94.082031 60.617188 93.640625 60.125 93.371094 60.089844 C 93.175781 60.066406 92.769531 59.460938 92.277344 58.515625 C 91.929688 57.828125 91.523438 55.773438 91.117188 54.804688 L 91.105469 54.78125 C 91.6875 55.496094 92.59375 57.558594 93.929688 58.386719 C 95.535156 59.390625 95.476562 54.597656 96.21875 53.429688 C 96.042969 54.039062 97.21875 58.421875 97.265625 59.308594 C 97.417969 61.886719 101.71875 59.414062 102.242188 58.386719 C 102.761719 57.363281 102.742188 61.457031 105.261719 61.886719 C 107.773438 62.332031 110.050781 57.371094 111.507812 57.804688 C 112.957031 58.246094 113.609375 53.089844 113.609375 53.089844 C 113.609375 53.089844 113.957031 57.140625 114.191406 59.261719 "/>
<path style=" stroke:none;fill-rule:nonzero;fill:rgb(72.938538%,11.369324%,11.369324%);fill-opacity:1;" d="M 92.335938 66.328125 L 93.015625 66.0625 L 100.675781 87.585938 L 99.390625 87.5625 L 92.335938 66.328125 "/>
<path style=" stroke:none;fill-rule:nonzero;fill:rgb(0%,47.059631%,70.588684%);fill-opacity:1;" d="M 88.949219 66.414062 L 92.011719 65.355469 L 100.550781 91.050781 L 96.652344 93.078125 C 96.652344 93.078125 92.117188 72.886719 88.949219 66.414062 "/>
<path style=" stroke:none;fill-rule:nonzero;fill:rgb(0%,47.059631%,70.588684%);fill-opacity:1;" d="M 116.566406 65.355469 L 118.96875 66.507812 C 118.96875 66.507812 115.5 83.222656 115.5 92.210938 L 110.71875 91.308594 C 110.71875 91.308594 114.34375 72.027344 116.566406 65.355469 "/>
<path style=" stroke:none;fill-rule:nonzero;fill:rgb(94.898987%,87.449646%,79.60968%);fill-opacity:1;" d="M 98.945312 89.574219 C 99.171875 90.40625 98.910156 91.226562 98.355469 91.410156 C 97.800781 91.589844 97.167969 91.058594 96.9375 90.226562 C 96.707031 89.398438 96.96875 88.574219 97.523438 88.394531 C 98.078125 88.214844 98.714844 88.742188 98.945312 89.574219 "/>
<path style=" stroke:none;fill-rule:nonzero;fill:rgb(94.898987%,87.449646%,79.60968%);fill-opacity:1;" d="M 114.441406 89.53125 C 114.34375 90.261719 113.84375 90.785156 113.328125 90.699219 C 112.8125 90.617188 112.476562 89.960938 112.574219 89.234375 C 112.671875 88.507812 113.171875 87.984375 113.6875 88.066406 C 114.203125 88.148438 114.542969 88.804688 114.441406 89.53125 "/>
<path style=" stroke:none;fill-rule:nonzero;fill:rgb(98.039246%,30.198669%,23.139954%);fill-opacity:1;" d="M 103.582031 68.207031 L 107.21875 73.542969 L 112.316406 64.640625 L 110.203125 63.835938 C 110.203125 63.835938 108.929688 66.574219 103.582031 68.207031 "/>
<path style=" stroke:none;fill-rule:nonzero;fill:rgb(98.039246%,30.198669%,23.139954%);fill-opacity:1;" d="M 97.089844 63.167969 L 94.433594 64.117188 L 99.90625 74.40625 L 103.582031 68.207031 C 103.582031 68.207031 97.546875 66.714844 97.089844 63.167969 "/>
<path style=" stroke:none;fill-rule:nonzero;fill:rgb(0%,32.939148%,57.649231%);fill-opacity:1;" d="M 115.699219 87.851562 L 116.296875 87.863281 L 115.699219 93.800781 L 110.71875 92.210938 L 110.71875 91.308594 L 115.5 92.210938 L 115.699219 87.851562 "/>
<path style=" stroke:none;fill-rule:nonzero;fill:rgb(0%,32.939148%,57.649231%);fill-opacity:1;" d="M 97.175781 92.808594 L 97.488281 93.472656 L 101.601562 91.351562 L 100.039062 87.574219 L 99.390625 87.5625 L 100.550781 91.050781 L 97.175781 92.808594 "/>
<path style=" stroke:none;fill-rule:nonzero;fill:rgb(0%,24.308777%,44.309998%);fill-opacity:1;" d="M 122.839844 133.882812 C 122.839844 133.882812 113.785156 134.402344 105.519531 134.617188 L 105.402344 134.617188 C 103.839844 134.007812 102.5625 133.679688 101.96875 133.542969 L 101.957031 133.542969 C 101.605469 133.542969 92.652344 132.367188 97.679688 132.050781 C 98.210938 132.015625 98.886719 131.949219 99.667969 131.835938 C 101.4375 131.859375 103.40625 131.847656 105.570312 131.789062 C 116.15625 131.5 122.664062 131.011719 122.664062 131.011719 L 122.839844 133.882812 "/>
<path style=" stroke:none;fill-rule:nonzero;fill:rgb(0%,32.939148%,57.649231%);fill-opacity:1;" d="M 117.355469 206.511719 L 111.972656 206.128906 C 111.972656 206.128906 112.011719 179.839844 111.441406 173.273438 C 111.367188 172.414062 111.265625 171.363281 111.160156 170.175781 C 111.347656 170.625 113.804688 182.035156 116 178.40625 C 118.25 174.675781 118.34375 152.03125 115.457031 143.777344 C 115.054688 142.597656 114.480469 141.558594 113.792969 140.621094 C 113.136719 139.707031 112.367188 138.902344 111.542969 138.203125 C 109.570312 136.496094 107.277344 135.351562 105.402344 134.617188 L 105.519531 134.617188 C 113.785156 134.402344 122.839844 133.882812 122.839844 133.882812 L 122.664062 131.011719 C 122.664062 131.011719 116.15625 131.5 105.570312 131.789062 C 103.40625 131.847656 101.4375 131.859375 99.667969 131.835938 C 103.664062 131.238281 110.378906 129.554688 113.667969 126.398438 C 120.195312 120.144531 116.148438 89.382812 116.148438 89.382812 L 116.035156 87.855469 L 116.304688 87.855469 L 122.082031 120.226562 L 123.226562 140.621094 C 124.183594 146.160156 117.355469 206.511719 117.355469 206.511719 "/>
<path style=" stroke:none;fill-rule:nonzero;fill:rgb(0%,24.308777%,44.309998%);fill-opacity:1;" d="M 114.917969 135.875 L 120.125 143.191406 L 121.890625 142.191406 L 117.054688 134.714844 L 114.917969 135.875 "/>
<path style=" stroke:none;fill-rule:nonzero;fill:rgb(27.839661%,14.118958%,14.118958%);fill-opacity:1;" d="M 110.886719 205.53125 L 118.285156 206.316406 L 118.4375 209.03125 L 110.519531 208.257812 L 110.886719 205.53125 "/>
<path style=" stroke:none;fill-rule:nonzero;fill:rgb(0%,32.939148%,57.649231%);fill-opacity:1;" d="M 109.027344 148.398438 L 102.59375 148.398438 C 102.59375 148.398438 101.3125 162.453125 100.925781 172.890625 C 100.542969 183.324219 100.242188 205.933594 100.242188 205.933594 L 95.242188 206.894531 C 95.242188 206.894531 93.121094 190.863281 91.972656 176.753906 C 91.851562 175.238281 91.714844 173.632812 91.578125 171.972656 C 92.789062 175.363281 94.976562 182.878906 96.785156 178.015625 C 98.824219 172.527344 96.347656 147.179688 97.261719 146.75 C 98.179688 146.320312 109.027344 148.398438 109.027344 148.398438 "/>
<path style=" stroke:none;fill-rule:nonzero;fill:rgb(100%,71.759033%,57.249451%);fill-opacity:1;" d="M 84.441406 135.132812 C 84.441406 135.132812 83.308594 141.5 83.890625 142.757812 C 84.476562 144.015625 87.695312 147.871094 88.082031 148.082031 C 88.46875 148.289062 90.472656 147.613281 89.242188 146.453125 C 88.007812 145.292969 86.871094 140.792969 87.363281 140.746094 C 87.851562 140.699219 88.144531 144.378906 88.710938 144.46875 C 90.058594 144.679688 89.648438 141.546875 89.230469 140.179688 C 88.515625 137.867188 86.683594 135.074219 86.683594 133.484375 C 86.683594 131.480469 84.441406 135.132812 84.441406 135.132812 "/>
<path style=" stroke:none;fill-rule:nonzero;fill:rgb(100%,56.079102%,38.819885%);fill-opacity:1;" d="M 86.746094 132.226562 C 86.75 132.335938 85.980469 136.148438 86.226562 137.703125 C 86.359375 138.546875 86.542969 139.140625 87.316406 139.660156 C 88.09375 140.175781 88.570312 143.464844 88.859375 143.003906 C 89.148438 142.546875 89.113281 140.601562 88.164062 138.550781 C 87.210938 136.503906 86.996094 132.011719 87.035156 131.378906 C 87.078125 130.75 86.746094 132.226562 86.746094 132.226562 "/>
<path style=" stroke:none;fill-rule:nonzero;fill:rgb(100%,56.079102%,38.819885%);fill-opacity:1;" d="M 86.496094 121.972656 C 86.496094 121.972656 85.90625 134.332031 86.210938 137.609375 C 86.367188 139.3125 86.964844 137.492188 86.964844 137.492188 L 87.035156 131.378906 L 86.496094 121.972656 "/>
<g clip-path="url(#clip6)" clip-rule="nonzero">
<path style=" stroke:none;fill-rule:nonzero;fill:rgb(42.749023%,20.779419%,20.779419%);fill-opacity:1;" d="M 101.382812 207.867188 C 101.382812 207.867188 100.640625 223.753906 100.304688 224.058594 C 99.964844 224.375 91.324219 225.300781 91.324219 225.300781 C 91.324219 225.300781 91.234375 225.03125 91.136719 224.65625 L 91.136719 224.636719 C 90.941406 224 90.730469 223.121094 90.863281 222.972656 C 91.078125 222.746094 96 221.777344 95.910156 221.242188 C 95.832031 220.699219 94.34375 208.320312 94.34375 208.320312 L 97 208.152344 L 101.382812 207.867188 "/>
</g>
<path style=" stroke:none;fill-rule:nonzero;fill:rgb(27.839661%,14.118958%,14.118958%);fill-opacity:1;" d="M 101.382812 205.53125 L 93.988281 206.316406 L 93.832031 209.03125 L 101.753906 208.257812 L 101.382812 205.53125 "/>
<path style=" stroke:none;fill-rule:nonzero;fill:rgb(27.839661%,14.118958%,14.118958%);fill-opacity:1;" d="M 121.410156 222.972656 C 121.320312 223.550781 115.675781 223.0625 115.070312 221.980469 C 114.449219 220.890625 115.722656 215.386719 115.855469 211.894531 C 116.003906 208.410156 111.960938 208.398438 111.960938 208.398438 L 117.929688 208.320312 C 117.929688 208.320312 116.441406 220.699219 116.351562 221.242188 C 116.273438 221.777344 121.195312 222.746094 121.410156 222.972656 "/>
<g clip-path="url(#clip7)" clip-rule="nonzero">
<path style=" stroke:none;fill-rule:nonzero;fill:rgb(27.839661%,14.118958%,14.118958%);fill-opacity:1;" d="M 101.382812 207.867188 C 101.382812 207.867188 100.640625 223.753906 100.304688 224.058594 C 99.964844 224.375 91.324219 225.300781 91.324219 225.300781 C 91.324219 225.300781 91.234375 225.03125 91.136719 224.65625 L 91.136719 224.636719 C 91.136719 224.636719 97.464844 224.566406 98.5 223.222656 C 99.523438 221.867188 99.761719 213.261719 99.390625 211.429688 C 99.019531 209.585938 95.785156 208.839844 95.785156 208.839844 C 95.785156 208.839844 96.335938 208.523438 97 208.152344 L 101.382812 207.867188 "/>
</g>
<g clip-path="url(#clip8)" clip-rule="nonzero">
<path style=" stroke:none;fill-rule:nonzero;fill:rgb(27.839661%,14.118958%,14.118958%);fill-opacity:1;" d="M 120.9375 225.300781 C 120.9375 225.300781 112.308594 224.375 111.96875 224.058594 C 111.914062 224.011719 111.859375 223.59375 111.789062 222.914062 C 111.789062 222.914062 120.203125 224.953125 120.746094 224.523438 C 121.285156 224.09375 121.21875 223.414062 120.746094 222.746094 C 121.117188 222.847656 121.363281 222.925781 121.410156 222.972656 C 121.613281 223.199219 120.9375 225.300781 120.9375 225.300781 "/>
</g>
<path style=" stroke:none;fill-rule:nonzero;fill:rgb(65.879822%,41.178894%,10.978699%);fill-opacity:1;" d="M 135.386719 154.648438 L 132.761719 154.648438 C 132.761719 154.648438 132.203125 150.34375 131.21875 146.246094 L 133.3125 144.730469 C 134.851562 149.492188 135.386719 154.648438 135.386719 154.648438 "/>
<path style=" stroke:none;fill-rule:nonzero;fill:rgb(65.879822%,41.178894%,10.978699%);fill-opacity:1;" d="M 149.917969 159.804688 C 149.917969 159.804688 146.597656 182.902344 124.824219 181.59375 C 119.460938 181.269531 115.566406 179.113281 112.757812 176.21875 C 107.542969 170.882812 105.976562 163.074219 105.539062 159.804688 C 105.414062 158.851562 105.378906 158.277344 105.378906 158.277344 L 106.335938 158.308594 L 149.917969 159.804688 "/>
<path style=" stroke:none;fill-rule:nonzero;fill:rgb(43.139648%,22.349548%,7.839966%);fill-opacity:1;" d="M 149.917969 159.804688 C 149.917969 159.804688 146.597656 182.902344 124.824219 181.59375 C 119.460938 181.269531 115.566406 179.113281 112.757812 176.21875 C 114.734375 177.539062 117.097656 178.597656 119.910156 179.214844 C 134.332031 182.359375 138.609375 166.507812 129.828125 166.082031 C 121.042969 165.648438 105.539062 159.804688 105.539062 159.804688 L 106.335938 158.308594 L 149.917969 159.804688 "/>
<path style=" stroke:none;fill-rule:nonzero;fill:rgb(78.42865%,57.249451%,23.529053%);fill-opacity:1;" d="M 151.984375 153.316406 C 151.984375 153.316406 139.121094 156.335938 126.21875 156.117188 C 113.328125 155.890625 103.039062 152.445312 103.039062 152.445312 C 103.039062 152.445312 116.511719 150.296875 130.113281 150.90625 C 143.710938 151.527344 151.984375 153.316406 151.984375 153.316406 "/>
<path style=" stroke:none;fill-rule:nonzero;fill:rgb(43.139648%,22.349548%,7.839966%);fill-opacity:1;" d="M 148.386719 153.164062 C 148.386719 153.164062 137.414062 155.164062 126.410156 155.019531 C 115.414062 154.871094 106.636719 152.585938 106.636719 152.585938 C 106.636719 152.585938 118.132812 151.164062 129.730469 151.566406 C 141.328125 151.976562 148.386719 153.164062 148.386719 153.164062 "/>
<path style=" stroke:none;fill-rule:nonzero;fill:rgb(65.879822%,41.178894%,10.978699%);fill-opacity:1;" d="M 151.980469 153.320312 L 151.703125 159.867188 C 151.703125 159.867188 146.796875 161.398438 139.660156 162.285156 C 139.578125 162.300781 139.542969 162.3125 139.542969 162.3125 C 135.464844 162.8125 130.664062 163.09375 125.644531 162.765625 C 117.070312 162.191406 110.722656 161 107.226562 160.207031 L 107.214844 160.207031 C 105.175781 159.738281 104.105469 159.410156 104.105469 159.410156 L 103.03125 152.441406 C 103.03125 152.441406 108.53125 154.289062 116.523438 155.367188 C 116.582031 155.378906 116.640625 155.386719 116.699219 155.386719 C 116.769531 155.398438 116.851562 155.414062 116.929688 155.414062 C 119.761719 155.785156 122.90625 156.054688 126.214844 156.113281 C 135.089844 156.265625 143.933594 154.886719 148.605469 154.007812 L 148.617188 154.007812 C 150.734375 153.609375 151.980469 153.320312 151.980469 153.320312 "/>
<path style=" stroke:none;fill-rule:nonzero;fill:rgb(65.879822%,41.178894%,10.978699%);fill-opacity:1;" d="M 133.3125 144.730469 L 131.21875 146.246094 C 130.347656 142.574219 129.117188 139.058594 127.660156 139 C 124.550781 138.898438 123.667969 156.773438 123.667969 156.773438 L 119.125 156.1875 C 119.277344 155.75 120.320312 136.765625 126.941406 136.914062 C 129.976562 136.980469 132.003906 140.710938 133.3125 144.730469 "/>
<g clip-path="url(#clip9)" clip-rule="nonzero">
<g clip-path="url(#clip10)" clip-rule="nonzero">
<path style=" stroke:none;fill-rule:nonzero;fill:rgb(48.239136%,26.669312%,8.628845%);fill-opacity:1;" d="M 106.675781 179.460938 L 134.15625 179.460938 L 134.15625 161.582031 L 106.675781 161.582031 Z M 106.675781 179.460938 "/>
</g>
</g>
<path style=" stroke:none;fill-rule:nonzero;fill:rgb(43.139648%,22.349548%,7.839966%);fill-opacity:1;" d="M 127.351562 181.515625 C 127.351562 181.515625 127.179688 180.632812 126.820312 179.238281 C 127.050781 179.179688 127.277344 179.113281 127.496094 179.042969 C 127.554688 180.628906 127.351562 181.515625 127.351562 181.515625 M 132.4375 180.414062 C 132.4375 180.414062 132.421875 178.632812 132.089844 176.152344 C 132.414062 175.796875 132.703125 175.425781 132.957031 175.046875 C 133.382812 178.695312 132.4375 180.414062 132.4375 180.414062 M 120.515625 180.414062 C 120.515625 180.414062 120.601562 180.167969 120.78125 179.75 C 120.726562 179.644531 120.65625 179.507812 120.574219 179.347656 C 120.667969 179.367188 120.761719 179.382812 120.855469 179.398438 C 120.863281 179.445312 120.871094 179.492188 120.875 179.535156 C 120.894531 179.496094 120.914062 179.453125 120.933594 179.410156 C 121.039062 179.429688 121.148438 179.445312 121.257812 179.460938 C 121.128906 179.621094 121.015625 179.761719 120.917969 179.886719 C 120.925781 179.988281 120.929688 180.046875 120.929688 180.046875 C 120.929688 180.046875 120.910156 180.003906 120.875 179.941406 C 120.640625 180.238281 120.515625 180.414062 120.515625 180.414062 M 134.15625 169.167969 C 134.132812 169.097656 134.109375 169.023438 134.085938 168.953125 C 135.136719 168.777344 135.789062 168.773438 135.789062 168.773438 C 135.246094 168.859375 134.699219 168.996094 134.15625 169.167969 M 129.671875 166.074219 C 129.445312 166.0625 129.214844 166.046875 128.976562 166.027344 C 128.398438 165.046875 127.722656 164.152344 126.933594 163.398438 C 126.933594 163.398438 128.242188 164.085938 129.671875 166.074219 M 125.140625 165.496094 C 124.917969 165.457031 124.691406 165.414062 124.464844 165.367188 C 125.894531 164.648438 126.933594 164.316406 126.933594 164.316406 C 126.308594 164.671875 125.710938 165.066406 125.140625 165.496094 M 120.933594 164.589844 C 120.636719 164.515625 120.339844 164.441406 120.039062 164.367188 C 119.5 163.753906 118.921875 163.207031 118.316406 162.746094 C 118.316406 162.746094 119.457031 163.285156 120.933594 164.589844 M 115.753906 163.1875 C 115.703125 163.171875 115.65625 163.160156 115.605469 163.144531 C 115.984375 162.769531 116.234375 162.5625 116.234375 162.5625 C 116.066406 162.765625 115.90625 162.972656 115.753906 163.1875 "/>
<path style=" stroke:none;fill-rule:nonzero;fill:rgb(56.469727%,33.329773%,9.799194%);fill-opacity:1;" d="M 135.128906 177.714844 C 135.128906 177.714844 142.539062 173.390625 146.722656 163.507812 C 146.722656 163.507812 145.496094 168.328125 142.839844 172.085938 C 140.183594 175.839844 135.128906 177.714844 135.128906 177.714844 "/>
<path style=" stroke:none;fill-rule:nonzero;fill:rgb(56.469727%,33.329773%,9.799194%);fill-opacity:1;" d="M 135.246094 176.464844 C 135.246094 176.464844 139.539062 171.566406 140.179688 163.457031 C 140.179688 163.457031 140.453125 167.21875 139.441406 170.558594 C 138.429688 173.898438 135.246094 176.464844 135.246094 176.464844 "/>
<path style=" stroke:none;fill-rule:nonzero;fill:rgb(48.239136%,26.669312%,8.628845%);fill-opacity:1;" d="M 126.082031 161.371094 C 126.082031 161.371094 125.121094 160.371094 122.804688 159.40625 C 123.191406 159.078125 123.492188 158.730469 123.726562 158.394531 C 125.691406 159.585938 126.082031 161.371094 126.082031 161.371094 M 121.3125 158.859375 C 119.699219 158.34375 117.632812 157.902344 115.035156 157.714844 C 115.035156 157.714844 116.726562 157.269531 118.84375 157.269531 C 119.894531 157.269531 121.050781 157.382812 122.15625 157.707031 C 122.382812 157.773438 122.597656 157.851562 122.796875 157.929688 C 122.386719 158.222656 121.894531 158.539062 121.3125 158.859375 "/>
<path style=" stroke:none;fill-rule:nonzero;fill:rgb(48.239136%,26.669312%,8.628845%);fill-opacity:1;" d="M 135.789062 162.285156 C 135.789062 162.285156 135.003906 161.316406 133.019531 160.21875 C 133.410156 159.945312 133.734375 159.648438 134 159.351562 C 135.578125 160.671875 135.789062 162.285156 135.789062 162.285156 M 131.605469 159.523438 C 130 158.8125 127.867188 158.125 125.101562 157.683594 C 125.101562 157.683594 126.097656 157.511719 127.507812 157.511719 C 128.867188 157.511719 130.605469 157.671875 132.195312 158.296875 C 132.5 158.417969 132.777344 158.546875 133.03125 158.6875 C 132.625 158.957031 132.148438 159.238281 131.605469 159.523438 "/>
<path style=" stroke:none;fill-rule:nonzero;fill:rgb(48.239136%,26.669312%,8.628845%);fill-opacity:1;" d="M 144.609375 160.820312 C 144.609375 160.820312 143.925781 160.117188 142.320312 159.335938 C 142.660156 159.101562 142.949219 158.855469 143.191406 158.605469 C 143.605469 158.980469 143.90625 159.375 144.121094 159.722656 C 144.074219 159.746094 144.03125 159.773438 143.984375 159.796875 C 143.984375 159.796875 144.042969 159.785156 144.144531 159.765625 C 144.503906 160.363281 144.609375 160.820312 144.609375 160.820312 M 140.964844 158.753906 C 139.515625 158.207031 137.582031 157.695312 135.085938 157.433594 C 135.128906 157.296875 135.15625 157.179688 135.175781 157.085938 C 135.835938 156.980469 136.699219 156.886719 137.652344 156.886719 C 138.652344 156.886719 139.746094 156.992188 140.796875 157.296875 C 141.335938 157.457031 141.800781 157.65625 142.203125 157.886719 C 141.839844 158.167969 141.429688 158.457031 140.964844 158.753906 M 134.6875 157.394531 C 134.433594 157.371094 134.175781 157.351562 133.910156 157.335938 C 133.910156 157.335938 134.308594 157.226562 134.960938 157.117188 C 134.886719 157.199219 134.796875 157.289062 134.6875 157.394531 "/>
<path style=" stroke:none;fill-rule:nonzero;fill:rgb(56.858826%,33.729553%,9.799194%);fill-opacity:1;" d="M 115.972656 161.355469 C 115.046875 161.355469 114.4375 161.28125 114.4375 161.28125 C 117.503906 160.644531 119.734375 159.730469 121.3125 158.859375 C 121.859375 159.035156 122.359375 159.222656 122.804688 159.40625 C 122.394531 159.757812 121.886719 160.089844 121.265625 160.371094 C 119.429688 161.191406 117.351562 161.355469 115.972656 161.355469 M 123.726562 158.394531 C 123.449219 158.226562 123.140625 158.066406 122.796875 157.929688 C 124.054688 157.035156 124.554688 156.355469 124.554688 156.355469 C 124.554688 156.355469 124.476562 157.324219 123.726562 158.394531 "/>
<path style=" stroke:none;fill-rule:nonzero;fill:rgb(46.269226%,25.099182%,8.239746%);fill-opacity:1;" d="M 122.804688 159.40625 C 122.359375 159.222656 121.859375 159.035156 121.3125 158.859375 C 121.894531 158.539062 122.386719 158.222656 122.796875 157.929688 C 123.140625 158.066406 123.449219 158.226562 123.726562 158.394531 C 123.492188 158.730469 123.191406 159.078125 122.804688 159.40625 "/>
<path style=" stroke:none;fill-rule:nonzero;fill:rgb(56.858826%,33.729553%,9.799194%);fill-opacity:1;" d="M 126.636719 161.820312 C 125.710938 161.820312 125.101562 161.746094 125.101562 161.746094 C 127.933594 161.15625 130.058594 160.332031 131.605469 159.523438 C 132.132812 159.753906 132.601562 159.992188 133.019531 160.21875 C 132.703125 160.441406 132.339844 160.648438 131.925781 160.835938 C 130.09375 161.65625 128.015625 161.820312 126.636719 161.820312 M 134 159.351562 C 133.722656 159.117188 133.402344 158.894531 133.03125 158.6875 C 133.796875 158.1875 134.335938 157.730469 134.6875 157.394531 C 134.820312 157.40625 134.953125 157.421875 135.085938 157.433594 C 134.9375 157.925781 134.628906 158.644531 134 159.351562 M 134.960938 157.117188 C 135.140625 156.929688 135.21875 156.820312 135.21875 156.820312 C 135.21875 156.820312 135.210938 156.917969 135.175781 157.085938 C 135.101562 157.09375 135.03125 157.105469 134.960938 157.117188 "/>
<path style=" stroke:none;fill-rule:nonzero;fill:rgb(46.269226%,25.099182%,8.239746%);fill-opacity:1;" d="M 133.019531 160.21875 C 132.601562 159.992188 132.132812 159.753906 131.605469 159.523438 C 132.148438 159.238281 132.625 158.957031 133.03125 158.6875 C 133.402344 158.894531 133.722656 159.117188 134 159.351562 C 133.734375 159.648438 133.410156 159.945312 133.019531 160.21875 "/>
<path style=" stroke:none;fill-rule:nonzero;fill:rgb(46.269226%,25.099182%,8.239746%);fill-opacity:1;" d="M 135.085938 157.433594 C 134.953125 157.421875 134.820312 157.40625 134.6875 157.394531 C 134.796875 157.289062 134.886719 157.199219 134.960938 157.117188 C 135.03125 157.105469 135.101562 157.09375 135.175781 157.085938 C 135.15625 157.179688 135.128906 157.296875 135.085938 157.433594 "/>
<path style=" stroke:none;fill-rule:nonzero;fill:rgb(56.858826%,33.729553%,9.799194%);fill-opacity:1;" d="M 135.789062 161.203125 C 137.992188 160.441406 139.683594 159.578125 140.964844 158.753906 C 141.476562 158.949219 141.925781 159.144531 142.320312 159.335938 C 142.222656 159.40625 142.121094 159.472656 142.011719 159.539062 C 139.328125 161.183594 135.789062 161.203125 135.789062 161.203125 M 143.191406 158.605469 C 142.914062 158.351562 142.589844 158.105469 142.203125 157.886719 C 143.070312 157.214844 143.660156 156.609375 144.035156 156.167969 C 144.1875 156.191406 144.339844 156.214844 144.492188 156.238281 C 144.351562 156.867188 144.011719 157.761719 143.191406 158.605469 "/>
<path style=" stroke:none;fill-rule:nonzero;fill:rgb(46.269226%,25.099182%,8.239746%);fill-opacity:1;" d="M 142.320312 159.335938 C 141.925781 159.144531 141.476562 158.949219 140.964844 158.753906 C 141.429688 158.457031 141.839844 158.167969 142.203125 157.886719 C 142.589844 158.105469 142.914062 158.351562 143.191406 158.605469 C 142.949219 158.855469 142.660156 159.101562 142.320312 159.335938 "/>
<path style=" stroke:none;fill-rule:nonzero;fill:rgb(56.858826%,33.729553%,9.799194%);fill-opacity:1;" d="M 144.472656 155.597656 C 144.550781 155.480469 144.585938 155.417969 144.585938 155.417969 C 144.585938 155.417969 144.589844 155.480469 144.585938 155.589844 C 144.546875 155.59375 144.507812 155.597656 144.472656 155.597656 "/>
<path style=" stroke:none;fill-rule:nonzero;fill:rgb(56.858826%,33.729553%,9.799194%);fill-opacity:1;" d="M 144.144531 159.765625 C 144.136719 159.75 144.128906 159.738281 144.121094 159.722656 C 145.722656 158.808594 146.910156 157.890625 147.789062 157.066406 C 148.160156 157.199219 148.496094 157.332031 148.800781 157.464844 C 148.757812 157.511719 148.707031 157.554688 148.660156 157.597656 C 147.042969 159.039062 144.761719 159.625 144.144531 159.765625 "/>
<path style=" stroke:none;fill-rule:nonzero;fill:rgb(46.269226%,25.099182%,8.239746%);fill-opacity:1;" d="M 143.984375 159.796875 C 144.03125 159.773438 144.074219 159.746094 144.121094 159.722656 C 144.128906 159.738281 144.136719 159.75 144.144531 159.765625 C 144.042969 159.785156 143.984375 159.796875 143.984375 159.796875 "/>
<path style=" stroke:none;fill-rule:nonzero;fill:rgb(56.858826%,33.729553%,9.799194%);fill-opacity:1;" d="M 149.496094 156.632812 C 149.25 156.46875 148.972656 156.3125 148.65625 156.175781 C 149.800781 154.882812 150.105469 153.984375 150.105469 153.984375 C 150.105469 153.984375 150.394531 155.253906 149.496094 156.632812 "/>
<path style=" stroke:none;fill-rule:nonzero;fill:rgb(48.239136%,26.669312%,8.628845%);fill-opacity:1;" d="M 151.253906 158.96875 C 151.253906 158.96875 150.53125 158.222656 148.800781 157.464844 C 149.089844 157.191406 149.316406 156.910156 149.496094 156.632812 C 150.949219 157.617188 151.253906 158.96875 151.253906 158.96875 M 147.789062 157.066406 C 146.890625 156.75 145.800781 156.457031 144.492188 156.238281 C 144.554688 155.960938 144.574219 155.734375 144.585938 155.589844 C 144.800781 155.582031 145.023438 155.574219 145.253906 155.574219 C 146.117188 155.574219 147.058594 155.664062 147.964844 155.925781 C 148.214844 156 148.445312 156.082031 148.65625 156.175781 C 148.410156 156.457031 148.121094 156.753906 147.789062 157.066406 M 144.035156 156.167969 C 143.410156 156.078125 142.738281 156.007812 142.019531 155.957031 C 142.019531 155.957031 143.058594 155.679688 144.472656 155.597656 C 144.386719 155.726562 144.242188 155.925781 144.035156 156.167969 "/>
<path style=" stroke:none;fill-rule:nonzero;fill:rgb(46.269226%,25.099182%,8.239746%);fill-opacity:1;" d="M 144.492188 156.238281 C 144.339844 156.214844 144.1875 156.191406 144.035156 156.167969 C 144.242188 155.925781 144.386719 155.726562 144.472656 155.597656 C 144.507812 155.597656 144.546875 155.59375 144.585938 155.589844 C 144.574219 155.734375 144.554688 155.960938 144.492188 156.238281 "/>
<path style=" stroke:none;fill-rule:nonzero;fill:rgb(46.269226%,25.099182%,8.239746%);fill-opacity:1;" d="M 148.800781 157.464844 C 148.496094 157.332031 148.160156 157.199219 147.789062 157.066406 C 148.121094 156.753906 148.410156 156.457031 148.65625 156.175781 C 148.972656 156.3125 149.25 156.46875 149.496094 156.632812 C 149.316406 156.910156 149.089844 157.191406 148.800781 157.464844 "/>
<path style=" stroke:none;fill-rule:nonzero;fill:rgb(43.139648%,22.349548%,7.839966%);fill-opacity:1;" d="M 151.980469 153.320312 L 151.703125 159.867188 C 151.703125 159.867188 146.796875 161.398438 139.660156 162.285156 C 140.800781 161.996094 148.386719 160.738281 149.550781 157.675781 C 150.425781 155.378906 148.804688 154.078125 148.617188 154.007812 C 150.734375 153.609375 151.980469 153.320312 151.980469 153.320312 "/>
<path style=" stroke:none;fill-rule:nonzero;fill:rgb(72.158813%,49.01886%,17.248535%);fill-opacity:1;" d="M 107.214844 160.207031 C 105.175781 159.738281 104.105469 159.410156 104.105469 159.410156 L 103.03125 152.441406 C 103.03125 152.441406 108.53125 154.289062 116.523438 155.367188 C 115.738281 155.269531 113.9375 155.078125 112.027344 155.078125 C 111.132812 155.078125 110.210938 155.121094 109.363281 155.234375 C 107.609375 154.792969 106.039062 154.757812 105.578125 154.757812 C 105.488281 154.757812 105.4375 154.757812 105.4375 154.757812 C 106.28125 155.019531 107.058594 155.292969 107.769531 155.582031 C 107.328125 155.722656 106.941406 155.902344 106.632812 156.125 C 105.8125 156.726562 105.589844 157.371094 105.664062 157.964844 C 105.402344 157.972656 105.132812 157.976562 104.859375 157.976562 C 104.613281 157.976562 104.363281 157.972656 104.109375 157.96875 C 104.109375 157.96875 104.769531 158.210938 105.785156 158.429688 C 106.125 159.335938 107.027344 160.054688 107.214844 160.207031 "/>
<path style=" stroke:none;fill-rule:nonzero;fill:rgb(78.42865%,57.249451%,23.529053%);fill-opacity:1;" d="M 116.929688 155.414062 L 116.929688 155.421875 C 116.929688 155.421875 116.851562 155.414062 116.699219 155.386719 C 116.769531 155.398438 116.851562 155.414062 116.929688 155.414062 "/>
<path style=" stroke:none;fill-rule:nonzero;fill:rgb(48.239136%,26.669312%,8.628845%);fill-opacity:1;" d="M 115 160.59375 C 115 160.59375 114.316406 159.449219 112.355469 158.039062 C 112.789062 157.8125 113.144531 157.554688 113.4375 157.289062 C 115.019531 158.835938 115 160.59375 115 160.59375 M 111.074219 157.199219 C 110.167969 156.660156 109.074219 156.105469 107.769531 155.582031 C 108.246094 155.425781 108.789062 155.3125 109.363281 155.234375 C 110.273438 155.464844 111.234375 155.804688 112.117188 156.304688 C 112.3125 156.417969 112.496094 156.535156 112.667969 156.652344 C 112.21875 156.835938 111.6875 157.027344 111.074219 157.199219 "/>
<path style=" stroke:none;fill-rule:nonzero;fill:rgb(49.798584%,28.62854%,10.198975%);fill-opacity:1;" d="M 107.769531 155.582031 C 107.058594 155.292969 106.28125 155.019531 105.4375 154.757812 C 105.4375 154.757812 105.488281 154.757812 105.578125 154.757812 C 106.039062 154.757812 107.609375 154.792969 109.363281 155.234375 C 108.789062 155.3125 108.246094 155.425781 107.769531 155.582031 "/>
<path style=" stroke:none;fill-rule:nonzero;fill:rgb(56.858826%,33.729553%,9.799194%);fill-opacity:1;" d="M 108.820312 158.777344 C 107.6875 158.777344 106.617188 158.613281 105.785156 158.429688 C 105.726562 158.28125 105.683594 158.125 105.664062 157.964844 C 107.925781 157.902344 109.707031 157.585938 111.074219 157.199219 C 111.550781 157.484375 111.976562 157.765625 112.355469 158.039062 C 111.894531 158.277344 111.347656 158.480469 110.703125 158.605469 C 110.074219 158.726562 109.4375 158.777344 108.820312 158.777344 "/>
<path style=" stroke:none;fill-rule:nonzero;fill:rgb(60.389709%,38.42926%,13.328552%);fill-opacity:1;" d="M 105.785156 158.429688 C 104.769531 158.210938 104.109375 157.96875 104.109375 157.96875 C 104.363281 157.972656 104.613281 157.976562 104.859375 157.976562 C 105.132812 157.976562 105.402344 157.972656 105.664062 157.964844 C 105.683594 158.125 105.726562 158.28125 105.785156 158.429688 "/>
<path style=" stroke:none;fill-rule:nonzero;fill:rgb(56.858826%,33.729553%,9.799194%);fill-opacity:1;" d="M 113.4375 157.289062 C 113.214844 157.070312 112.960938 156.859375 112.667969 156.652344 C 114.039062 156.089844 114.660156 155.5625 114.660156 155.5625 C 114.660156 155.5625 114.371094 156.449219 113.4375 157.289062 "/>
<path style=" stroke:none;fill-rule:nonzero;fill:rgb(46.269226%,25.099182%,8.239746%);fill-opacity:1;" d="M 112.355469 158.039062 C 111.976562 157.765625 111.550781 157.484375 111.074219 157.199219 C 111.6875 157.027344 112.21875 156.835938 112.667969 156.652344 C 112.960938 156.859375 113.214844 157.070312 113.4375 157.289062 C 113.144531 157.554688 112.789062 157.8125 112.355469 158.039062 "/>
<path style=" stroke:none;fill-rule:nonzero;fill:rgb(43.139648%,22.349548%,7.839966%);fill-opacity:1;" d="M 134.476562 151.15625 C 134.476562 151.15625 132.445312 138.867188 128.21875 137.566406 C 123.703125 136.179688 121.820312 152.441406 122.429688 155.171875 C 122.914062 157.347656 124.316406 142.085938 126.054688 139.722656 C 128.265625 136.710938 129.949219 139.664062 131.21875 142.878906 C 132.492188 146.09375 133.3125 151.722656 133.3125 151.722656 L 135.128906 151.824219 L 134.476562 151.15625 "/>
<path style=" stroke:none;fill-rule:nonzero;fill:rgb(100%,71.759033%,57.249451%);fill-opacity:1;" d="M 132.335938 133.734375 C 132.335938 133.734375 133.144531 140.792969 132.152344 142.003906 C 131.160156 143.214844 125.667969 143.953125 125.847656 141.472656 C 126.046875 138.683594 129.535156 139.398438 128.980469 133.90625 C 128.753906 131.644531 132.335938 133.734375 132.335938 133.734375 "/>
<path style=" stroke:none;fill-rule:nonzero;fill:rgb(100%,56.079102%,38.819885%);fill-opacity:1;" d="M 132.316406 131.769531 C 132.316406 131.769531 131.609375 139.648438 130.050781 140.8125 C 128.492188 141.980469 127.222656 140.378906 126.703125 140.933594 C 126.183594 141.484375 126.269531 142.871094 128.363281 142.863281 C 130.460938 142.855469 131.78125 142.722656 132.105469 141.273438 C 132.429688 139.824219 132.335938 133.734375 132.335938 133.734375 L 132.316406 131.769531 "/>
</g>
</svg>
