<?xml version="1.0" encoding="UTF-8"?>
<svg xmlns="http://www.w3.org/2000/svg" xmlns:xlink="http://www.w3.org/1999/xlink" width="224.87999pt" height="225pt" viewBox="0 0 224.87999 225" version="1.2">
<defs>
<clipPath id="clip1">
  <path d="M 54.535156 162 L 62 162 L 62 173 L 54.535156 173 Z M 54.535156 162 "/>
</clipPath>
<clipPath id="clip2">
  <path d="M 54.535156 162 L 58 162 L 58 173 L 54.535156 173 Z M 54.535156 162 "/>
</clipPath>
<clipPath id="clip3">
  <path d="M 146 0.0585938 L 153 0.0585938 L 153 76 L 146 76 Z M 146 0.0585938 "/>
</clipPath>
<clipPath id="clip4">
  <path d="M 131 89 L 170.722656 89 L 170.722656 102 L 131 102 Z M 131 89 "/>
</clipPath>
</defs>
<g id="surface1">
<path style=" stroke:none;fill-rule:nonzero;fill:rgb(42.349243%,67.059326%,69.799805%);fill-opacity:1;" d="M 83.402344 185.199219 L 85.3125 157.246094 L 108.84375 157.246094 L 110.753906 185.199219 C 110.753906 185.199219 101.035156 191.324219 83.402344 185.199219 "/>
<path style=" stroke:none;fill-rule:nonzero;fill:rgb(19.219971%,33.729553%,36.859131%);fill-opacity:1;" d="M 85.3125 157.246094 C 85.3125 158.152344 90.578125 158.890625 97.078125 158.890625 C 103.574219 158.890625 108.84375 158.152344 108.84375 157.246094 C 108.84375 156.339844 103.574219 155.601562 97.078125 155.601562 C 90.578125 155.601562 85.3125 156.339844 85.3125 157.246094 "/>
<path style=" stroke:none;fill-rule:nonzero;fill:rgb(73.728943%,38.42926%,32.159424%);fill-opacity:1;" d="M 88.472656 157.109375 L 86.878906 157.109375 L 86.878906 150.960938 C 86.878906 146.582031 89.644531 142.585938 93.757812 141.019531 L 94.324219 142.496094 C 90.824219 143.832031 88.472656 147.234375 88.472656 150.960938 L 88.472656 157.109375 "/>
<path style=" stroke:none;fill-rule:nonzero;fill:rgb(46.269226%,29.019165%,19.999695%);fill-opacity:1;" d="M 109.085938 43.355469 C 110.050781 46.269531 109.195312 49.167969 107.171875 49.828125 C 105.152344 50.488281 102.730469 48.660156 101.765625 45.746094 C 100.804688 42.832031 101.660156 39.933594 103.679688 39.273438 C 105.699219 38.613281 108.121094 40.441406 109.085938 43.355469 "/>
<path style=" stroke:none;fill-rule:nonzero;fill:rgb(27.449036%,14.509583%,11.369324%);fill-opacity:1;" d="M 102.867188 44.496094 C 102.867188 44.496094 102.699219 38.054688 107.339844 42.296875 C 107.339844 42.296875 109.53125 49.039062 106.285156 48.773438 C 106.285156 48.773438 105.355469 48.140625 104.828125 46.582031 C 104.285156 44.976562 104.332031 43.171875 106.320312 43.550781 C 106.320312 43.550781 104.269531 39.480469 102.867188 44.496094 "/>
<path style=" stroke:none;fill-rule:nonzero;fill:rgb(46.269226%,29.019165%,19.999695%);fill-opacity:1;" d="M 139.578125 43.355469 C 138.609375 46.269531 139.46875 49.167969 141.488281 49.828125 C 143.507812 50.488281 145.929688 48.660156 146.894531 45.746094 C 147.855469 42.832031 147 39.933594 144.980469 39.273438 C 142.957031 38.613281 140.539062 40.441406 139.578125 43.355469 "/>
<path style=" stroke:none;fill-rule:nonzero;fill:rgb(27.449036%,14.509583%,11.369324%);fill-opacity:1;" d="M 145.796875 44.496094 C 145.796875 44.496094 145.960938 38.054688 141.324219 42.296875 C 141.324219 42.296875 139.128906 49.039062 142.378906 48.773438 C 142.378906 48.773438 143.304688 48.140625 143.832031 46.582031 C 144.375 44.976562 144.328125 43.171875 142.339844 43.550781 C 142.339844 43.550781 144.394531 39.480469 145.796875 44.496094 "/>
<path style=" stroke:none;fill-rule:nonzero;fill:rgb(78.819275%,82.348633%,83.139038%);fill-opacity:1;" d="M 110 130.804688 C 110 135.765625 113.351562 139.78125 117.488281 139.78125 L 131.34375 139.78125 C 135.480469 139.78125 138.835938 135.765625 138.835938 130.804688 L 138.835938 84.015625 C 138.835938 79.0625 135.480469 75.046875 131.34375 75.046875 L 117.488281 75.046875 C 113.351562 75.046875 110 79.0625 110 84.015625 L 110 130.804688 "/>
<path style=" stroke:none;fill-rule:nonzero;fill:rgb(78.819275%,82.348633%,83.139038%);fill-opacity:1;" d="M 129.667969 76.351562 C 129.667969 76.351562 132.34375 72.242188 130.792969 70.558594 C 130.792969 70.558594 128.226562 67.007812 118.511719 69.0625 C 118.511719 69.0625 115.460938 73.007812 119.597656 77.125 C 119.597656 77.125 122.453125 78.597656 129.667969 76.351562 "/>
<path style=" stroke:none;fill-rule:nonzero;fill:rgb(32.939148%,55.288696%,33.729553%);fill-opacity:1;" d="M 130.613281 116.546875 L 134.394531 116.546875 L 134.394531 75.046875 L 130.613281 75.046875 L 130.613281 116.546875 "/>
<path style=" stroke:none;fill-rule:nonzero;fill:rgb(32.939148%,55.288696%,33.729553%);fill-opacity:1;" d="M 114.210938 116.546875 L 117.992188 116.546875 L 117.992188 75.046875 L 114.210938 75.046875 L 114.210938 116.546875 "/>
<path style=" stroke:none;fill-rule:nonzero;fill:rgb(55.688477%,30.979919%,10.198975%);fill-opacity:1;" d="M 134.230469 103.472656 C 134.230469 103.472656 136.59375 111.242188 132.894531 110.792969 L 131.984375 103.960938 L 134.230469 103.472656 "/>
<path style=" stroke:none;fill-rule:nonzero;fill:rgb(19.999695%,42.349243%,54.119873%);fill-opacity:1;" d="M 129.941406 203.90625 L 136.847656 203.90625 L 138.070312 137.722656 L 128.941406 137.722656 L 129.941406 203.90625 "/>
<path style=" stroke:none;fill-rule:nonzero;fill:rgb(32.939148%,55.288696%,33.729553%);fill-opacity:1;" d="M 137.332031 122.527344 L 134.296875 93.738281 L 114.210938 93.738281 L 111.175781 122.527344 L 110 122.527344 L 110 139.59375 C 110 141.039062 110.289062 142.398438 110.796875 143.609375 L 111.910156 203.90625 L 118.816406 203.90625 L 119.652344 148.566406 L 129.140625 148.566406 L 130.164062 203.90625 L 137.070312 203.90625 L 137.980469 143.75 C 138.523438 142.503906 138.835938 141.09375 138.835938 139.59375 L 138.835938 122.527344 L 137.332031 122.527344 "/>
<path style=" stroke:none;fill-rule:nonzero;fill:rgb(25.099182%,42.749023%,26.269531%);fill-opacity:1;" d="M 131.984375 109.726562 C 131.984375 114.730469 128.59375 118.789062 124.414062 118.789062 C 120.234375 118.789062 116.847656 114.730469 116.847656 109.726562 L 116.847656 101.402344 L 131.984375 101.402344 L 131.984375 109.726562 "/>
<path style=" stroke:none;fill-rule:nonzero;fill:rgb(19.999695%,34.899902%,19.999695%);fill-opacity:1;" d="M 116.101562 103.960938 L 132.507812 103.960938 L 132.996094 100.722656 L 115.625 99.847656 L 116.101562 103.960938 "/>
<path style=" stroke:none;fill-rule:nonzero;fill:rgb(90.979004%,36.468506%,18.03894%);fill-opacity:1;" d="M 139.785156 178.355469 C 139.785156 178.355469 133.691406 175.394531 127.761719 178.136719 L 129.394531 209.511719 C 129.394531 209.511719 127.425781 217.738281 128.523438 219.1875 C 128.523438 219.1875 138.070312 224.933594 143.285156 218.984375 C 143.285156 218.984375 145.535156 215.371094 138.601562 209.324219 L 139.785156 178.355469 "/>
<path style=" stroke:none;fill-rule:nonzero;fill:rgb(100%,100%,100%);fill-opacity:1;" d="M 127.816406 219.574219 C 127.835938 219.585938 128.964844 220.203125 130.675781 220.820312 C 132.386719 221.4375 134.675781 222.0625 137.042969 222.066406 C 138.289062 222.066406 139.558594 221.890625 140.769531 221.433594 C 141.976562 220.976562 143.121094 220.234375 144.089844 219.132812 C 144.308594 218.882812 144.28125 218.5 144.03125 218.285156 C 143.777344 218.066406 143.398438 218.09375 143.175781 218.34375 C 142.34375 219.292969 141.382812 219.917969 140.339844 220.308594 C 139.300781 220.703125 138.175781 220.863281 137.042969 220.863281 C 134.890625 220.867188 132.714844 220.28125 131.089844 219.691406 C 130.273438 219.398438 129.597656 219.101562 129.125 218.882812 C 128.890625 218.773438 128.707031 218.683594 128.582031 218.617188 C 128.519531 218.585938 128.472656 218.5625 128.441406 218.546875 L 128.398438 218.523438 C 128.105469 218.363281 127.738281 218.46875 127.578125 218.757812 C 127.417969 219.050781 127.523438 219.414062 127.816406 219.574219 "/>
<path style=" stroke:none;fill-rule:nonzero;fill:rgb(90.979004%,36.468506%,18.03894%);fill-opacity:1;" d="M 109.277344 178.351562 C 109.277344 178.351562 115.367188 175.394531 121.300781 178.132812 L 119.664062 209.511719 C 119.664062 209.511719 121.632812 217.738281 120.539062 219.1875 C 120.539062 219.1875 110.992188 224.933594 105.777344 218.984375 C 105.777344 218.984375 103.523438 215.367188 110.460938 209.324219 L 109.277344 178.351562 "/>
<path style=" stroke:none;fill-rule:nonzero;fill:rgb(100%,100%,100%);fill-opacity:1;" d="M 120.660156 218.519531 L 120.621094 218.542969 C 120.386719 218.667969 119.25 219.25 117.664062 219.800781 C 116.074219 220.351562 114.035156 220.863281 112.019531 220.863281 C 110.886719 220.863281 109.761719 220.703125 108.722656 220.308594 C 107.679688 219.914062 106.71875 219.289062 105.886719 218.339844 C 105.664062 218.089844 105.285156 218.0625 105.035156 218.28125 C 104.78125 218.5 104.753906 218.878906 104.972656 219.128906 C 105.941406 220.234375 107.082031 220.972656 108.292969 221.429688 C 109.5 221.886719 110.773438 222.0625 112.019531 222.0625 C 114.386719 222.0625 116.675781 221.4375 118.386719 220.816406 C 120.097656 220.199219 121.226562 219.582031 121.246094 219.574219 C 121.535156 219.414062 121.644531 219.046875 121.484375 218.757812 C 121.324219 218.46875 120.957031 218.359375 120.664062 218.519531 "/>
<path style=" stroke:none;fill-rule:nonzero;fill:rgb(55.288696%,34.899902%,24.308777%);fill-opacity:1;" d="M 120.730469 71.179688 L 120.730469 59.675781 L 127.699219 59.675781 L 127.699219 71.179688 L 120.730469 71.179688 "/>
<path style=" stroke:none;fill-rule:nonzero;fill:rgb(65.879822%,42.349243%,29.019165%);fill-opacity:1;" d="M 106.746094 23.1875 C 109.386719 7.855469 124.289062 11.714844 124.289062 11.714844 C 124.289062 11.714844 139.191406 7.855469 141.835938 23.1875 C 144.621094 39.320312 139.117188 52.324219 139.117188 52.324219 C 135.132812 61.289062 126.242188 64.992188 126.242188 64.992188 C 124.671875 65.476562 123.835938 65.476562 122.265625 64.992188 C 122.265625 64.992188 113.449219 61.289062 109.464844 52.324219 C 109.464844 52.324219 103.960938 39.320312 106.746094 23.1875 "/>
<path style=" stroke:none;fill-rule:nonzero;fill:rgb(100%,100%,100%);fill-opacity:1;" d="M 127.699219 42.179688 C 127.699219 44.382812 129.496094 45.734375 131.710938 45.734375 C 133.929688 45.734375 136.039062 43.695312 136.039062 41.492188 C 136.039062 39.292969 133.929688 37.757812 131.710938 37.757812 C 129.496094 37.757812 127.699219 39.976562 127.699219 42.179688 "/>
<path style=" stroke:none;fill-rule:nonzero;fill:rgb(10.978699%,5.488586%,6.269836%);fill-opacity:1;" d="M 136 41.496094 C 136 41.496094 135.984375 41.445312 135.960938 41.351562 C 135.929688 41.261719 135.917969 41.113281 135.851562 40.960938 C 135.796875 40.800781 135.710938 40.617188 135.609375 40.410156 C 135.554688 40.3125 135.488281 40.207031 135.421875 40.097656 C 135.34375 39.996094 135.273438 39.886719 135.183594 39.777344 C 135 39.570312 134.792969 39.351562 134.539062 39.164062 C 134.289062 38.976562 134.011719 38.792969 133.699219 38.640625 C 133.394531 38.46875 133.058594 38.347656 132.703125 38.242188 C 132.355469 38.132812 131.960938 38.089844 131.609375 38.078125 L 131.308594 38.089844 L 131.050781 38.128906 C 130.875 38.160156 130.6875 38.203125 130.519531 38.269531 C 130.167969 38.386719 129.851562 38.585938 129.5625 38.792969 C 129.277344 39.011719 129.03125 39.261719 128.8125 39.515625 C 128.597656 39.769531 128.421875 40.035156 128.28125 40.296875 C 128.140625 40.554688 128.039062 40.804688 127.960938 41.035156 C 127.886719 41.261719 127.832031 41.464844 127.804688 41.636719 C 127.765625 41.808594 127.765625 41.945312 127.753906 42.035156 C 127.742188 42.128906 127.738281 42.179688 127.738281 42.179688 L 127.65625 42.179688 C 127.65625 42.179688 127.65625 42.128906 127.65625 42.03125 C 127.660156 41.941406 127.648438 41.796875 127.671875 41.621094 C 127.683594 41.441406 127.714844 41.226562 127.769531 40.980469 C 127.828125 40.734375 127.910156 40.464844 128.027344 40.175781 C 128.152344 39.890625 128.3125 39.589844 128.515625 39.292969 C 128.71875 38.996094 128.96875 38.707031 129.269531 38.441406 C 129.574219 38.1875 129.914062 37.933594 130.3125 37.769531 C 130.503906 37.679688 130.707031 37.609375 130.925781 37.550781 L 131.265625 37.480469 L 131.570312 37.449219 C 132.023438 37.414062 132.441406 37.441406 132.871094 37.519531 C 133.296875 37.589844 133.703125 37.726562 134.074219 37.90625 C 134.816406 38.269531 135.378906 38.855469 135.707031 39.421875 C 135.875 39.707031 135.976562 39.996094 136.046875 40.25 C 136.101562 40.507812 136.136719 40.734375 136.128906 40.925781 C 136.136719 41.117188 136.109375 41.246094 136.101562 41.34375 C 136.085938 41.441406 136.078125 41.492188 136.078125 41.492188 L 136 41.496094 "/>
<path style=" stroke:none;fill-rule:nonzero;fill:rgb(36.468506%,20.779419%,13.328552%);fill-opacity:1;" d="M 129.453125 43.082031 C 129.453125 44.132812 130.308594 44.984375 131.367188 44.984375 C 132.421875 44.984375 133.28125 44.132812 133.28125 43.082031 C 133.28125 42.03125 132.421875 41.183594 131.367188 41.183594 C 130.308594 41.183594 129.453125 42.03125 129.453125 43.082031 "/>
<path style=" stroke:none;fill-rule:nonzero;fill:rgb(10.978699%,5.488586%,6.269836%);fill-opacity:1;" d="M 136.023438 41.183594 C 136.023438 41.183594 137.847656 40.90625 138.128906 39.085938 C 138.128906 39.085938 136.234375 39.84375 135.421875 39.5625 C 135.421875 39.5625 136.035156 40.4375 136.023438 41.183594 "/>
<path style=" stroke:none;fill-rule:nonzero;fill:rgb(100%,100%,100%);fill-opacity:1;" d="M 120.835938 42.179688 C 120.835938 44.382812 119.039062 45.734375 116.820312 45.734375 C 114.605469 45.734375 112.496094 43.695312 112.496094 41.492188 C 112.496094 39.292969 114.605469 37.757812 116.820312 37.757812 C 119.039062 37.757812 120.835938 39.976562 120.835938 42.179688 "/>
<path style=" stroke:none;fill-rule:nonzero;fill:rgb(10.978699%,5.488586%,6.269836%);fill-opacity:1;" d="M 112.453125 41.492188 C 112.453125 41.492188 112.449219 41.441406 112.433594 41.34375 C 112.421875 41.246094 112.394531 41.117188 112.410156 40.925781 C 112.402344 40.734375 112.433594 40.507812 112.488281 40.25 C 112.558594 39.996094 112.660156 39.707031 112.828125 39.421875 C 113.152344 38.855469 113.71875 38.269531 114.460938 37.90625 C 114.832031 37.726562 115.242188 37.589844 115.664062 37.519531 C 116.089844 37.441406 116.511719 37.414062 116.964844 37.449219 L 117.269531 37.480469 L 117.605469 37.550781 C 117.824219 37.609375 118.027344 37.679688 118.222656 37.769531 C 118.617188 37.933594 118.957031 38.1875 119.265625 38.441406 C 119.5625 38.707031 119.816406 38.996094 120.019531 39.292969 C 120.226562 39.589844 120.382812 39.890625 120.503906 40.175781 C 120.625 40.464844 120.707031 40.734375 120.765625 40.980469 C 120.816406 41.226562 120.851562 41.441406 120.863281 41.621094 C 120.886719 41.796875 120.871094 41.941406 120.878906 42.03125 C 120.878906 42.128906 120.878906 42.179688 120.878906 42.179688 L 120.796875 42.179688 C 120.796875 42.179688 120.792969 42.128906 120.78125 42.035156 C 120.769531 41.945312 120.769531 41.808594 120.726562 41.636719 C 120.699219 41.464844 120.648438 41.261719 120.574219 41.035156 C 120.496094 40.804688 120.390625 40.554688 120.25 40.296875 C 120.113281 40.035156 119.933594 39.769531 119.722656 39.515625 C 119.503906 39.261719 119.257812 39.011719 118.972656 38.792969 C 118.679688 38.585938 118.367188 38.386719 118.011719 38.269531 C 117.84375 38.203125 117.65625 38.160156 117.484375 38.128906 L 117.226562 38.089844 L 116.925781 38.078125 C 116.570312 38.089844 116.175781 38.132812 115.828125 38.242188 C 115.476562 38.347656 115.136719 38.46875 114.835938 38.640625 C 114.523438 38.792969 114.246094 38.976562 113.996094 39.164062 C 113.742188 39.351562 113.535156 39.570312 113.351562 39.777344 C 113.265625 39.886719 113.191406 39.996094 113.113281 40.097656 C 113.046875 40.207031 112.980469 40.3125 112.921875 40.410156 C 112.824219 40.617188 112.738281 40.800781 112.683594 40.960938 C 112.617188 41.113281 112.605469 41.261719 112.574219 41.351562 C 112.546875 41.445312 112.535156 41.496094 112.535156 41.496094 L 112.453125 41.492188 "/>
<path style=" stroke:none;fill-rule:nonzero;fill:rgb(36.468506%,20.779419%,13.328552%);fill-opacity:1;" d="M 119.078125 43.082031 C 119.078125 44.132812 118.222656 44.984375 117.167969 44.984375 C 116.109375 44.984375 115.253906 44.132812 115.253906 43.082031 C 115.253906 42.03125 116.109375 41.183594 117.167969 41.183594 C 118.222656 41.183594 119.078125 42.03125 119.078125 43.082031 "/>
<path style=" stroke:none;fill-rule:nonzero;fill:rgb(10.978699%,5.488586%,6.269836%);fill-opacity:1;" d="M 112.515625 41.183594 C 112.515625 41.183594 110.691406 40.90625 110.414062 39.085938 C 110.414062 39.085938 112.304688 39.84375 113.121094 39.5625 C 113.121094 39.5625 112.507812 40.4375 112.515625 41.183594 "/>
<path style=" stroke:none;fill-rule:nonzero;fill:rgb(10.978699%,5.488586%,6.269836%);fill-opacity:1;" d="M 136.523438 33.792969 C 136.523438 33.792969 136.378906 33.726562 136.113281 33.613281 C 135.851562 33.5 135.496094 33.347656 135.039062 33.203125 C 134.816406 33.125 134.570312 33.054688 134.308594 32.988281 C 134.050781 32.917969 133.769531 32.871094 133.488281 32.808594 C 133.203125 32.773438 132.910156 32.71875 132.609375 32.703125 C 132.3125 32.664062 132.011719 32.671875 131.710938 32.664062 C 131.414062 32.695312 131.117188 32.703125 130.832031 32.773438 C 130.546875 32.820312 130.277344 32.902344 130.011719 32.941406 C 129.75 33.007812 129.488281 33.023438 129.246094 33.074219 C 128.996094 33.109375 128.757812 33.140625 128.535156 33.183594 C 128.308594 33.214844 128.101562 33.253906 127.910156 33.289062 C 127.710938 33.316406 127.542969 33.34375 127.398438 33.371094 C 127.113281 33.421875 126.921875 33.433594 126.921875 33.433594 L 126.832031 33.304688 C 126.832031 33.304688 126.914062 33.140625 127.101562 32.890625 C 127.191406 32.761719 127.316406 32.617188 127.476562 32.472656 C 127.632812 32.328125 127.8125 32.152344 128.042969 32.015625 C 128.152344 31.945312 128.273438 31.867188 128.394531 31.789062 C 128.523438 31.730469 128.65625 31.660156 128.800781 31.601562 C 129.074219 31.464844 129.398438 31.394531 129.722656 31.320312 C 130.058594 31.285156 130.40625 31.253906 130.753906 31.292969 C 131.105469 31.308594 131.453125 31.355469 131.796875 31.402344 C 132.140625 31.46875 132.484375 31.519531 132.808594 31.613281 C 133.140625 31.6875 133.445312 31.8125 133.746094 31.914062 C 134.039062 32.046875 134.324219 32.148438 134.578125 32.292969 C 134.835938 32.425781 135.070312 32.558594 135.28125 32.691406 C 135.703125 32.953125 136.050781 33.195312 136.265625 33.375 C 136.484375 33.558594 136.609375 33.660156 136.609375 33.660156 L 136.523438 33.792969 "/>
<path style=" stroke:none;fill-rule:nonzero;fill:rgb(10.978699%,5.488586%,6.269836%);fill-opacity:1;" d="M 111.367188 33.660156 C 111.367188 33.660156 111.492188 33.558594 111.714844 33.375 C 111.929688 33.195312 112.277344 32.953125 112.699219 32.691406 C 112.910156 32.558594 113.144531 32.425781 113.402344 32.292969 C 113.652344 32.148438 113.941406 32.046875 114.234375 31.914062 C 114.53125 31.8125 114.839844 31.6875 115.171875 31.613281 C 115.496094 31.519531 115.839844 31.46875 116.179688 31.402344 C 116.523438 31.355469 116.875 31.308594 117.222656 31.292969 C 117.574219 31.253906 117.921875 31.285156 118.257812 31.320312 C 118.582031 31.394531 118.902344 31.464844 119.179688 31.601562 C 119.324219 31.660156 119.453125 31.730469 119.585938 31.789062 C 119.707031 31.867188 119.824219 31.945312 119.9375 32.015625 C 120.164062 32.152344 120.34375 32.328125 120.503906 32.472656 C 120.664062 32.617188 120.785156 32.761719 120.878906 32.890625 C 121.066406 33.140625 121.148438 33.304688 121.148438 33.304688 L 121.058594 33.433594 C 121.058594 33.433594 120.867188 33.421875 120.578125 33.371094 C 120.4375 33.34375 120.265625 33.316406 120.070312 33.289062 C 119.878906 33.253906 119.671875 33.214844 119.445312 33.183594 C 119.222656 33.140625 118.980469 33.109375 118.734375 33.074219 C 118.488281 33.023438 118.226562 33.007812 117.964844 32.941406 C 117.703125 32.902344 117.433594 32.820312 117.144531 32.773438 C 116.859375 32.703125 116.566406 32.695312 116.265625 32.664062 C 115.96875 32.671875 115.664062 32.664062 115.367188 32.703125 C 115.070312 32.71875 114.777344 32.773438 114.488281 32.808594 C 114.207031 32.871094 113.929688 32.917969 113.671875 32.988281 C 113.410156 33.054688 113.164062 33.125 112.9375 33.203125 C 112.484375 33.347656 112.128906 33.5 111.863281 33.613281 C 111.601562 33.726562 111.453125 33.792969 111.453125 33.792969 L 111.367188 33.660156 "/>
<path style=" stroke:none;fill-rule:nonzero;fill:rgb(65.879822%,42.349243%,29.019165%);fill-opacity:1;" d="M 108.21875 80.753906 C 108.21875 80.753906 108.179688 80.792969 108.101562 80.863281 C 108.003906 80.957031 107.859375 81.101562 107.667969 81.285156 C 107.457031 81.492188 107.285156 81.699219 107.0625 81.953125 C 106.832031 82.203125 106.582031 82.496094 106.335938 82.824219 C 105.804688 83.480469 105.25 84.300781 104.621094 85.242188 C 104.054688 86.207031 103.375 87.28125 102.792969 88.503906 C 102.148438 89.707031 101.613281 91.0625 101.003906 92.476562 C 100.71875 93.191406 100.476562 93.9375 100.207031 94.695312 C 99.9375 95.453125 99.652344 96.222656 99.449219 97.027344 C 99.222656 97.820312 98.992188 98.632812 98.757812 99.453125 C 98.515625 100.269531 98.375 101.117188 98.179688 101.957031 C 97.996094 102.804688 97.796875 103.652344 97.628906 104.507812 C 97.492188 105.371094 97.355469 106.230469 97.21875 107.097656 C 97.09375 107.960938 96.925781 108.820312 96.835938 109.683594 C 96.75 110.542969 96.664062 111.402344 96.578125 112.257812 C 96.496094 113.109375 96.410156 113.953125 96.328125 114.785156 C 96.292969 115.621094 96.253906 116.449219 96.214844 117.257812 C 96.179688 118.074219 96.144531 118.871094 96.109375 119.648438 C 96.089844 120.042969 96.074219 120.425781 96.058594 120.808594 C 96.058594 121.1875 96.0625 121.566406 96.0625 121.9375 C 96.070312 123.421875 96.082031 124.824219 96.089844 126.121094 C 96.070312 127.414062 96.164062 128.597656 96.21875 129.648438 C 96.273438 130.695312 96.328125 131.609375 96.367188 132.363281 C 96.453125 133.867188 96.5 134.726562 96.5 134.726562 L 99.640625 134.546875 C 99.640625 134.546875 99.632812 133.703125 99.613281 132.226562 C 99.601562 131.488281 99.589844 130.59375 99.574219 129.566406 C 99.566406 128.539062 99.523438 127.382812 99.589844 126.121094 C 99.636719 124.859375 99.683594 123.492188 99.734375 122.050781 C 99.75 121.691406 99.757812 121.324219 99.773438 120.953125 C 99.804688 120.585938 99.835938 120.210938 99.871094 119.835938 C 99.9375 119.085938 100.003906 118.3125 100.070312 117.53125 C 100.140625 116.75 100.207031 115.953125 100.277344 115.148438 C 100.390625 114.351562 100.507812 113.542969 100.621094 112.726562 C 100.738281 111.917969 100.851562 111.097656 100.96875 110.277344 C 101.089844 109.453125 101.285156 108.644531 101.4375 107.828125 C 101.601562 107.011719 101.765625 106.199219 101.925781 105.390625 C 102.117188 104.585938 102.339844 103.796875 102.542969 103.007812 C 102.761719 102.226562 102.925781 101.429688 103.1875 100.683594 C 103.433594 99.929688 103.675781 99.183594 103.917969 98.453125 C 104.140625 97.710938 104.429688 97.019531 104.703125 96.335938 C 104.984375 95.65625 105.230469 94.976562 105.519531 94.339844 C 106.121094 93.089844 106.652344 91.882812 107.269531 90.855469 C 107.828125 89.785156 108.453125 88.898438 108.96875 88.089844 C 109.53125 87.324219 110.015625 86.65625 110.453125 86.167969 C 110.664062 85.90625 110.859375 85.699219 111.027344 85.527344 C 111.195312 85.355469 111.347656 85.183594 111.429688 85.121094 C 111.527344 85.027344 111.605469 84.957031 111.65625 84.910156 C 111.734375 84.84375 111.777344 84.808594 111.777344 84.808594 L 108.21875 80.753906 "/>
<path style=" stroke:none;fill-rule:nonzero;fill:rgb(78.819275%,82.348633%,83.139038%);fill-opacity:1;" d="M 112.621094 77.203125 L 99.003906 88.152344 L 106.605469 94.4375 L 114.210938 84.316406 L 112.621094 77.203125 "/>
<path style=" stroke:none;fill-rule:nonzero;fill:rgb(38.038635%,21.958923%,16.079712%);fill-opacity:1;" d="M 123.636719 49.265625 C 123.636719 49.265625 123.210938 51.507812 125.242188 51.757812 C 125.242188 51.757812 122.683594 52.480469 122.554688 50.960938 C 122.523438 50.558594 122.554688 49.914062 123.636719 49.265625 "/>
<path style=" stroke:none;fill-rule:nonzero;fill:rgb(90.979004%,50.979614%,11.369324%);fill-opacity:1;" d="M 102.117188 127.664062 C 102.117188 127.664062 99.546875 126.839844 98.308594 126.765625 C 98.308594 126.765625 96.253906 127.066406 95.273438 127.589844 L 96.027344 136.328125 C 96.027344 136.328125 93.023438 140.214844 93.773438 142.976562 C 93.773438 142.976562 96.175781 145.441406 98.507812 145.21875 C 98.507812 145.21875 100.839844 144.992188 100.6875 143.425781 C 100.6875 143.425781 101.96875 141.855469 101.96875 140.886719 C 101.96875 140.886719 103.472656 140.214844 102.792969 138.496094 C 102.792969 138.496094 102.042969 136.925781 100.613281 135.730469 L 102.117188 127.664062 "/>
<path style=" stroke:none;fill-rule:nonzero;fill:rgb(73.728943%,38.42926%,32.159424%);fill-opacity:1;" d="M 107.90625 157.246094 L 106.3125 157.246094 L 106.3125 151.097656 C 106.3125 147.066406 103.59375 143.484375 99.699219 142.382812 L 100.136719 140.863281 C 104.710938 142.15625 107.90625 146.367188 107.90625 151.097656 L 107.90625 157.246094 "/>
<path style=" stroke:none;fill-rule:nonzero;fill:rgb(65.879822%,42.349243%,29.019165%);fill-opacity:1;" d="M 141.878906 81.464844 C 141.878906 81.464844 141.953125 81.53125 142.097656 81.648438 C 142.21875 81.753906 142.429688 81.921875 142.710938 82.140625 C 143.265625 82.566406 144.082031 83.183594 145.109375 83.867188 C 145.617188 84.21875 146.183594 84.574219 146.78125 84.949219 C 147.382812 85.328125 148.035156 85.699219 148.703125 86.089844 C 149.386719 86.449219 150.074219 86.863281 150.8125 87.214844 C 151.539062 87.578125 152.28125 87.953125 153.042969 88.277344 L 154.175781 88.78125 C 154.558594 88.933594 154.941406 89.085938 155.320312 89.234375 C 156.074219 89.550781 156.835938 89.800781 157.570312 90.050781 C 158.300781 90.320312 159.023438 90.511719 159.710938 90.707031 C 160.050781 90.804688 160.386719 90.898438 160.710938 90.988281 C 161.035156 91.0625 161.351562 91.136719 161.652344 91.203125 C 162.261719 91.332031 162.816406 91.46875 163.3125 91.5625 C 163.8125 91.640625 164.246094 91.710938 164.605469 91.765625 C 165.320312 91.878906 165.734375 91.945312 165.734375 91.945312 L 165.824219 91.960938 C 166.570312 92.078125 167.078125 92.773438 166.960938 93.515625 C 166.847656 94.222656 166.203125 94.714844 165.496094 94.65625 C 165.496094 94.65625 165.054688 94.621094 164.28125 94.558594 C 163.890625 94.523438 163.421875 94.484375 162.882812 94.441406 C 162.34375 94.378906 161.738281 94.277344 161.078125 94.183594 C 160.75 94.136719 160.402344 94.085938 160.046875 94.03125 C 159.695312 93.957031 159.332031 93.886719 158.957031 93.808594 C 158.207031 93.652344 157.417969 93.5 156.613281 93.273438 C 155.808594 93.066406 154.96875 92.855469 154.140625 92.578125 C 153.722656 92.449219 153.300781 92.3125 152.878906 92.183594 C 152.460938 92.035156 152.042969 91.882812 151.625 91.734375 C 150.78125 91.441406 149.960938 91.105469 149.152344 90.769531 C 148.335938 90.453125 147.566406 90.070312 146.800781 89.730469 C 146.050781 89.367188 145.320312 89.019531 144.644531 88.660156 C 143.96875 88.300781 143.328125 87.960938 142.75 87.621094 C 141.582031 86.960938 140.636719 86.355469 139.96875 85.914062 C 139.640625 85.695312 139.375 85.515625 139.179688 85.375 C 139.007812 85.25 138.914062 85.183594 138.914062 85.183594 C 137.839844 84.417969 137.601562 82.933594 138.375 81.867188 C 139.144531 80.804688 140.636719 80.566406 141.707031 81.332031 L 141.839844 81.4375 L 141.878906 81.464844 "/>
<path style=" stroke:none;fill-rule:nonzero;fill:rgb(78.819275%,82.348633%,83.139038%);fill-opacity:1;" d="M 135.132812 76.535156 L 152.789062 82.792969 C 152.789062 82.792969 149.59375 91.644531 146.519531 92.515625 L 134.191406 84.550781 L 135.132812 76.535156 "/>
<path style=" stroke:none;fill-rule:nonzero;fill:rgb(10.978699%,5.488586%,6.269836%);fill-opacity:1;" d="M 142.269531 39.789062 C 142.269531 39.789062 141.421875 45.628906 140.753906 47.191406 C 140.753906 47.191406 141.515625 39.824219 141.101562 37.097656 C 141.101562 37.097656 139.410156 36.910156 139.902344 34.296875 C 139.902344 34.296875 140.691406 33.105469 139.5625 31.757812 C 138.433594 30.414062 137.605469 30.003906 137.945312 28.171875 C 137.945312 28.171875 136.28125 27.574219 136.570312 25 C 136.570312 25 136.894531 23.804688 135.800781 23.019531 C 134.710938 22.230469 134.1875 22.046875 134.148438 20.8125 C 134.148438 20.8125 132.28125 20.851562 132.085938 18.761719 C 132.085938 18.761719 130.617188 20.253906 128.734375 18.761719 C 128.734375 18.761719 127.082031 18.160156 126.21875 18.496094 C 125.351562 18.835938 124.675781 19.84375 123.699219 19.320312 C 123.699219 19.320312 120.953125 20.960938 119.523438 19.167969 C 119.523438 19.167969 117.007812 21 115.089844 19.546875 C 115.089844 19.546875 115.089844 23.242188 113.058594 23.390625 C 113.058594 23.390625 114.148438 27.167969 111.253906 28.605469 C 111.253906 28.605469 111.167969 31.347656 109.480469 32.394531 C 109.480469 32.394531 108.398438 32.851562 108.433594 33.726562 C 108.472656 34.59375 108.542969 37.136719 107.191406 37.433594 C 107.191406 37.433594 107.835938 46.523438 108.191406 48.535156 C 108.191406 48.535156 106.527344 43.128906 106.410156 39.71875 C 106.410156 39.71875 105.648438 38.953125 103.882812 39.222656 C 103.882812 39.222656 103.320312 38.96875 103.585938 37.757812 C 103.585938 37.757812 103.835938 36.691406 102.867188 35.867188 C 101.890625 35.046875 100.964844 35.605469 101.371094 33.289062 C 101.371094 33.289062 102.167969 31.234375 101.371094 29.441406 C 100.578125 27.648438 98.921875 26.230469 100.578125 23.09375 C 100.578125 23.09375 96.820312 21 100.199219 16.890625 C 100.199219 16.890625 102.519531 15.828125 101.617188 12.84375 C 100.714844 9.855469 102.445312 7.984375 104.25 7.539062 C 104.25 7.539062 105.980469 7.835938 106.804688 6.417969 C 107.632812 5 108.746094 1.953125 111.765625 3.519531 C 111.765625 3.519531 112.53125 0.980469 115.617188 3.445312 C 115.617188 3.445312 117.042969 0.394531 120.125 2.367188 C 123.207031 4.339844 124.5625 4.640625 126.140625 4.117188 C 127.71875 3.59375 130.125 1.355469 131.367188 3.746094 C 131.367188 3.746094 134.8125 1.875 136.039062 4.789062 C 136.039062 4.789062 138.402344 7.175781 139.378906 7.097656 C 140.355469 7.023438 144.855469 8.070312 144.898438 10.761719 C 144.945312 13.449219 148.929688 12.402344 147.726562 15.46875 C 146.523438 18.527344 146.667969 21.910156 148.019531 22.582031 C 149.375 23.253906 150.726562 26.691406 148.847656 29.378906 C 146.96875 32.070312 146.933594 33.625 147.289062 34.523438 C 147.644531 35.417969 146.292969 38.554688 144.980469 39.273438 C 144.980469 39.273438 143.34375 38.628906 142.269531 39.789062 "/>
<path style=" stroke:none;fill-rule:nonzero;fill:rgb(100%,100%,100%);fill-opacity:1;" d="M 129.453125 53.410156 L 119.375 53.410156 C 119.375 53.410156 119.71875 57.628906 124.414062 57.789062 C 124.414062 57.789062 129.390625 57.792969 129.453125 53.410156 "/>
<path style=" stroke:none;fill-rule:nonzero;fill:rgb(81.959534%,69.40918%,28.239441%);fill-opacity:1;" d="M 123.894531 7.332031 C 123.894531 7.332031 149.773438 7.328125 143.492188 39.210938 L 142.269531 39.789062 C 142.269531 39.789062 147.890625 12.109375 123.894531 11.621094 C 99.902344 12.109375 105.429688 39.28125 105.429688 39.28125 L 104.300781 39.210938 C 98.324219 6.433594 123.894531 7.332031 123.894531 7.332031 "/>
<path style=" stroke:none;fill-rule:nonzero;fill:rgb(34.509277%,58.039856%,59.999084%);fill-opacity:1;" d="M 85.3125 174.515625 C 85.3125 174.515625 87.226562 178.328125 85.3125 181.761719 L 58.773438 169.511719 L 59.390625 167.730469 L 85.3125 174.515625 "/>
<g clip-path="url(#clip1)" clip-rule="nonzero">
<path style=" stroke:none;fill-rule:nonzero;fill:rgb(10.978699%,19.60907%,25.878906%);fill-opacity:1;" d="M 54.980469 172.308594 C 57.753906 173.023438 60.585938 171.367188 61.304688 168.613281 C 62.023438 165.859375 60.359375 163.046875 57.585938 162.332031 L 54.980469 172.308594 "/>
</g>
<g clip-path="url(#clip2)" clip-rule="nonzero">
<path style=" stroke:none;fill-rule:nonzero;fill:rgb(90.979004%,36.468506%,18.03894%);fill-opacity:1;" d="M 54.980469 172.308594 C 55.382812 172.414062 56.289062 170.261719 57.007812 167.507812 C 57.726562 164.753906 57.984375 162.433594 57.582031 162.332031 C 57.183594 162.230469 56.277344 164.378906 55.558594 167.132812 C 54.839844 169.890625 54.582031 172.207031 54.980469 172.308594 "/>
</g>
<path style=" stroke:none;fill-rule:nonzero;fill:rgb(30.979919%,74.119568%,75.689697%);fill-opacity:1;" d="M 108.363281 157.707031 C 106.9375 158.390625 102.425781 158.890625 97.078125 158.890625 C 91.726562 158.890625 87.21875 158.390625 85.792969 157.707031 C 87.796875 156.773438 92.089844 156.125 97.078125 156.125 C 102.0625 156.125 106.359375 156.773438 108.363281 157.707031 "/>
<path style=" stroke:none;fill-rule:nonzero;fill:rgb(44.709778%,75.689697%,27.449036%);fill-opacity:1;" d="M 133.441406 55.808594 C 133.441406 55.808594 133.667969 48.585938 147.472656 48.910156 C 147.472656 48.910156 144.832031 58.480469 133.441406 55.808594 "/>
<path style=" stroke:none;fill-rule:nonzero;fill:rgb(44.709778%,75.689697%,27.449036%);fill-opacity:1;" d="M 148.785156 28.8125 C 148.785156 28.8125 153.144531 23.027344 164.261719 31.167969 C 164.261719 31.167969 156.566406 37.496094 148.785156 28.8125 "/>
<path style=" stroke:none;fill-rule:nonzero;fill:rgb(44.709778%,75.689697%,27.449036%);fill-opacity:1;" d="M 148.773438 38.933594 C 148.773438 38.933594 153.132812 33.148438 164.25 41.289062 C 164.25 41.289062 156.554688 47.617188 148.773438 38.933594 "/>
<path style=" stroke:none;fill-rule:nonzero;fill:rgb(44.709778%,75.689697%,27.449036%);fill-opacity:1;" d="M 149.226562 50.730469 C 149.226562 50.730469 149.449219 43.507812 163.257812 43.828125 C 163.257812 43.828125 160.617188 53.402344 149.226562 50.730469 "/>
<path style=" stroke:none;fill-rule:nonzero;fill:rgb(44.709778%,75.689697%,27.449036%);fill-opacity:1;" d="M 149.550781 56.460938 C 149.550781 56.460938 149.707031 51.425781 159.335938 51.648438 C 159.335938 51.648438 157.492188 58.320312 149.550781 56.460938 "/>
<path style=" stroke:none;fill-rule:nonzero;fill:rgb(44.709778%,75.689697%,27.449036%);fill-opacity:1;" d="M 147.746094 50.730469 C 147.746094 50.730469 147.519531 43.507812 133.714844 43.828125 C 133.714844 43.828125 136.355469 53.402344 147.746094 50.730469 "/>
<path style=" stroke:none;fill-rule:nonzero;fill:rgb(44.709778%,75.689697%,27.449036%);fill-opacity:1;" d="M 147.730469 56.460938 C 147.730469 56.460938 147.578125 51.425781 137.949219 51.648438 C 137.949219 51.648438 139.789062 58.320312 147.730469 56.460938 "/>
<path style=" stroke:none;fill-rule:nonzero;fill:rgb(44.709778%,75.689697%,27.449036%);fill-opacity:1;" d="M 148.773438 28.988281 C 148.773438 28.988281 148.550781 21.761719 134.746094 22.085938 C 134.746094 22.085938 137.386719 31.65625 148.773438 28.988281 "/>
<path style=" stroke:none;fill-rule:nonzero;fill:rgb(44.709778%,75.689697%,27.449036%);fill-opacity:1;" d="M 149.714844 24.035156 C 149.714844 24.035156 151.320312 16.988281 137.875 13.859375 C 137.875 13.859375 138.019531 23.78125 149.714844 24.035156 "/>
<path style=" stroke:none;fill-rule:nonzero;fill:rgb(44.709778%,75.689697%,27.449036%);fill-opacity:1;" d="M 150.773438 16.070312 C 150.773438 16.070312 153.914062 10.851562 143.984375 4.859375 C 143.984375 4.859375 141.488281 12.832031 150.773438 16.070312 "/>
<path style=" stroke:none;fill-rule:nonzero;fill:rgb(44.709778%,75.689697%,27.449036%);fill-opacity:1;" d="M 147.660156 38.203125 C 147.660156 38.203125 147.503906 33.167969 137.875 33.394531 C 137.875 33.394531 139.71875 40.070312 147.660156 38.203125 "/>
<path style=" stroke:none;fill-rule:nonzero;fill:rgb(44.709778%,75.689697%,27.449036%);fill-opacity:1;" d="M 150.023438 26.957031 C 150.023438 26.957031 149.925781 19.726562 163.734375 19.441406 C 163.734375 19.441406 161.523438 29.117188 150.023438 26.957031 "/>
<g clip-path="url(#clip3)" clip-rule="nonzero">
<path style=" stroke:none;fill-rule:nonzero;fill:rgb(29.798889%,46.669006%,19.999695%);fill-opacity:1;" d="M 148.316406 75.203125 C 148.1875 74.066406 148.074219 72.960938 147.964844 71.847656 L 147.671875 68.507812 C 147.488281 66.289062 147.339844 64.0625 147.21875 61.835938 C 146.980469 57.382812 146.847656 52.925781 146.878906 48.464844 C 146.886719 46.234375 146.941406 44.003906 147.046875 41.773438 C 147.144531 39.542969 147.296875 37.316406 147.519531 35.089844 C 147.617188 33.980469 147.761719 32.871094 147.894531 31.761719 C 148.046875 30.652344 148.203125 29.546875 148.398438 28.445312 C 148.484375 27.890625 148.59375 27.34375 148.703125 26.792969 C 148.8125 26.242188 148.910156 25.695312 149.042969 25.148438 C 149.28125 24.050781 149.570312 22.96875 149.867188 21.886719 L 149.847656 21.996094 C 150.226562 18.359375 150.519531 14.703125 150.695312 11.046875 C 150.785156 9.21875 150.835938 7.386719 150.832031 5.554688 C 150.824219 5.097656 150.832031 4.640625 150.8125 4.183594 L 150.761719 2.808594 L 150.660156 1.4375 L 150.492188 0.0742188 L 150.742188 1.429688 L 150.925781 2.792969 L 151.054688 4.167969 C 151.101562 4.625 151.121094 5.085938 151.152344 5.546875 C 151.265625 7.382812 151.328125 9.222656 151.339844 11.058594 C 151.378906 14.738281 151.300781 18.414062 151.136719 22.09375 L 151.136719 22.125 L 151.117188 22.207031 C 150.890625 23.277344 150.667969 24.34375 150.503906 25.425781 C 150.40625 25.964844 150.339844 26.507812 150.261719 27.046875 C 150.1875 27.589844 150.113281 28.132812 150.0625 28.675781 C 149.929688 29.765625 149.84375 30.859375 149.757812 31.949219 C 149.6875 33.042969 149.613281 34.132812 149.582031 35.234375 C 149.488281 37.421875 149.46875 39.621094 149.5 41.816406 C 149.523438 44.011719 149.601562 46.203125 149.71875 48.398438 C 149.945312 52.789062 150.332031 57.167969 150.824219 61.539062 C 151.070312 63.71875 151.347656 65.902344 151.652344 68.074219 L 152.132812 71.332031 C 152.300781 72.410156 152.476562 73.503906 152.664062 74.558594 L 148.316406 75.203125 "/>
</g>
<path style=" stroke:none;fill-rule:nonzero;fill:rgb(44.709778%,75.689697%,27.449036%);fill-opacity:1;" d="M 151.0625 16.902344 C 151.0625 16.902344 150.066406 9.746094 163.734375 7.769531 C 163.734375 7.769531 162.738281 17.644531 151.0625 16.902344 "/>
<path style=" stroke:none;fill-rule:nonzero;fill:rgb(62.748718%,9.408569%,19.60907%);fill-opacity:1;" d="M 156.152344 18.382812 C 156.152344 19.921875 154.898438 21.167969 153.347656 21.167969 C 151.800781 21.167969 150.550781 19.921875 150.550781 18.382812 C 150.550781 16.84375 151.800781 15.597656 153.347656 15.597656 C 154.898438 15.597656 156.152344 16.84375 156.152344 18.382812 "/>
<path style=" stroke:none;fill-rule:nonzero;fill:rgb(50.19989%,7.449341%,17.649841%);fill-opacity:1;" d="M 152.25 20.941406 C 154.089844 20.003906 154.316406 17.273438 154.289062 15.761719 C 155.375 16.148438 156.152344 17.171875 156.152344 18.382812 C 156.152344 19.921875 154.898438 21.167969 153.347656 21.167969 C 152.960938 21.167969 152.585938 21.085938 152.25 20.941406 "/>
<path style=" stroke:none;fill-rule:nonzero;fill:rgb(100%,100%,100%);fill-opacity:1;" d="M 151.5 19.738281 C 151.5 19.738281 150.265625 17.511719 152.25 16.308594 C 152.25 16.308594 152.925781 16.121094 152.925781 16.738281 C 152.925781 16.738281 153.03125 17.015625 152.25 17.449219 C 151.46875 17.882812 151.253906 19.191406 151.5 19.738281 "/>
<path style=" stroke:none;fill-rule:nonzero;fill:rgb(62.748718%,9.408569%,19.60907%);fill-opacity:1;" d="M 150.265625 26.140625 C 150.265625 27.675781 149.007812 28.921875 147.460938 28.921875 C 145.914062 28.921875 144.660156 27.675781 144.660156 26.140625 C 144.660156 24.601562 145.914062 23.355469 147.460938 23.355469 C 149.007812 23.355469 150.265625 24.601562 150.265625 26.140625 "/>
<path style=" stroke:none;fill-rule:nonzero;fill:rgb(50.19989%,7.449341%,17.649841%);fill-opacity:1;" d="M 146.363281 28.699219 C 148.199219 27.761719 148.425781 25.03125 148.402344 23.519531 C 149.488281 23.902344 150.265625 24.929688 150.265625 26.140625 C 150.265625 27.675781 149.007812 28.921875 147.460938 28.921875 C 147.070312 28.921875 146.699219 28.84375 146.363281 28.699219 "/>
<path style=" stroke:none;fill-rule:nonzero;fill:rgb(100%,100%,100%);fill-opacity:1;" d="M 145.609375 27.496094 C 145.609375 27.496094 144.375 25.265625 146.363281 24.0625 C 146.363281 24.0625 147.039062 23.878906 147.039062 24.496094 C 147.039062 24.496094 147.140625 24.773438 146.363281 25.203125 C 145.578125 25.636719 145.363281 26.949219 145.609375 27.496094 "/>
<path style=" stroke:none;fill-rule:nonzero;fill:rgb(62.748718%,9.408569%,19.60907%);fill-opacity:1;" d="M 153.351562 37.835938 C 153.351562 39.371094 152.097656 40.621094 150.550781 40.621094 C 149 40.621094 147.746094 39.371094 147.746094 37.835938 C 147.746094 36.296875 149 35.050781 150.550781 35.050781 C 152.097656 35.050781 153.351562 36.296875 153.351562 37.835938 "/>
<path style=" stroke:none;fill-rule:nonzero;fill:rgb(50.19989%,7.449341%,17.649841%);fill-opacity:1;" d="M 149.445312 40.394531 C 151.285156 39.457031 151.511719 36.726562 151.488281 35.214844 C 152.574219 35.597656 153.351562 36.625 153.351562 37.835938 C 153.351562 39.371094 152.097656 40.621094 150.550781 40.621094 C 150.15625 40.621094 149.785156 40.539062 149.445312 40.394531 "/>
<path style=" stroke:none;fill-rule:nonzero;fill:rgb(100%,100%,100%);fill-opacity:1;" d="M 148.699219 39.191406 C 148.699219 39.191406 147.460938 36.960938 149.445312 35.757812 C 149.445312 35.757812 150.125 35.574219 150.125 36.191406 C 150.125 36.191406 150.226562 36.46875 149.445312 36.902344 C 148.667969 37.332031 148.449219 38.644531 148.699219 39.191406 "/>
<path style=" stroke:none;fill-rule:nonzero;fill:rgb(62.748718%,9.408569%,19.60907%);fill-opacity:1;" d="M 149.65625 49.746094 C 149.65625 51.285156 148.402344 52.53125 146.855469 52.53125 C 145.308594 52.53125 144.050781 51.285156 144.050781 49.746094 C 144.050781 48.207031 145.308594 46.960938 146.855469 46.960938 C 148.402344 46.960938 149.65625 48.207031 149.65625 49.746094 "/>
<path style=" stroke:none;fill-rule:nonzero;fill:rgb(50.19989%,7.449341%,17.649841%);fill-opacity:1;" d="M 145.753906 52.308594 C 147.59375 51.371094 147.816406 48.640625 147.796875 47.125 C 148.878906 47.511719 149.65625 48.539062 149.65625 49.746094 C 149.65625 51.285156 148.402344 52.53125 146.855469 52.53125 C 146.460938 52.53125 146.089844 52.449219 145.753906 52.308594 "/>
<path style=" stroke:none;fill-rule:nonzero;fill:rgb(100%,100%,100%);fill-opacity:1;" d="M 145.003906 51.105469 C 145.003906 51.105469 143.769531 48.875 145.753906 47.671875 C 145.753906 47.671875 146.433594 47.484375 146.433594 48.101562 C 146.433594 48.101562 146.53125 48.378906 145.753906 48.8125 C 144.972656 49.246094 144.753906 50.554688 145.003906 51.105469 "/>
<path style=" stroke:none;fill-rule:nonzero;fill:rgb(9.408569%,9.01947%,9.01947%);fill-opacity:1;" d="M 136.621094 77.183594 C 135.640625 74.179688 136.777344 69.558594 136.777344 69.558594 C 133.5 68.0625 135.421875 65.726562 135.421875 65.726562 C 136.65625 66.074219 138.070312 65.726562 138.070312 65.726562 C 143.609375 64.429688 144.5625 65.726562 144.5625 65.726562 C 147.71875 63.234375 150.125 65.226562 152.789062 65.171875 C 155.449219 65.121094 157.042969 63.21875 157.042969 63.21875 C 157.796875 66.292969 155.839844 69.894531 155.839844 69.894531 C 156.46875 71.15625 156.4375 72.320312 156.273438 73.152344 C 161.804688 76.238281 165.617188 82.648438 165.617188 90.078125 C 165.617188 100.515625 158.109375 108.976562 148.851562 108.976562 C 139.59375 108.976562 132.085938 100.515625 132.085938 90.078125 C 132.085938 85.085938 133.816406 80.5625 136.621094 77.183594 "/>
<g clip-path="url(#clip4)" clip-rule="nonzero">
<path style=" stroke:none;fill-rule:nonzero;fill:rgb(65.879822%,42.349243%,29.019165%);fill-opacity:1;" d="M 166.332031 90.191406 C 166.332031 90.191406 166.230469 90.261719 166.039062 90.390625 C 165.894531 90.496094 165.582031 90.683594 165.207031 90.917969 C 164.816406 91.136719 164.351562 91.425781 163.777344 91.710938 C 163.21875 92.015625 162.5625 92.332031 161.84375 92.664062 C 161.117188 92.996094 160.320312 93.335938 159.46875 93.667969 C 158.605469 93.988281 157.703125 94.339844 156.738281 94.625 C 155.785156 94.949219 154.777344 95.210938 153.75 95.476562 C 152.730469 95.765625 151.660156 95.933594 150.605469 96.171875 C 149.542969 96.359375 148.46875 96.503906 147.414062 96.671875 C 146.351562 96.773438 145.308594 96.871094 144.292969 96.96875 C 143.273438 97.007812 142.289062 97.042969 141.355469 97.078125 C 140.421875 97.128906 139.535156 97.050781 138.71875 97.046875 C 137.898438 97.019531 137.148438 97.03125 136.484375 96.953125 C 135.820312 96.898438 135.242188 96.84375 134.765625 96.804688 C 133.808594 96.722656 133.265625 96.671875 133.265625 96.671875 L 133.144531 96.664062 C 132.09375 96.574219 131.167969 97.34375 131.078125 98.390625 C 130.988281 99.402344 131.722656 100.300781 132.730469 100.4375 C 132.730469 100.4375 133.304688 100.511719 134.3125 100.644531 C 134.816406 100.710938 135.429688 100.792969 136.132812 100.882812 C 136.832031 100.996094 137.636719 101.023438 138.507812 101.089844 C 139.378906 101.132812 140.324219 101.25 141.328125 101.246094 C 142.332031 101.25 143.390625 101.257812 144.488281 101.265625 C 145.585938 101.207031 146.71875 101.148438 147.871094 101.089844 C 149.019531 100.960938 150.1875 100.859375 151.351562 100.699219 C 152.511719 100.496094 153.683594 100.359375 154.8125 100.09375 C 155.949219 99.851562 157.066406 99.613281 158.128906 99.304688 C 159.207031 99.03125 160.226562 98.691406 161.199219 98.378906 C 162.164062 98.050781 163.066406 97.710938 163.898438 97.375 C 164.726562 97.03125 165.484375 96.710938 166.144531 96.386719 C 166.8125 96.085938 167.382812 95.769531 167.859375 95.527344 C 168.335938 95.261719 168.699219 95.0625 168.996094 94.878906 C 169.246094 94.71875 169.382812 94.636719 169.382812 94.636719 C 170.648438 93.847656 171.03125 92.183594 170.234375 90.929688 C 169.441406 89.667969 167.769531 89.289062 166.503906 90.078125 L 166.414062 90.132812 L 166.332031 90.191406 "/>
</g>
<path style=" stroke:none;fill-rule:nonzero;fill:rgb(78.42865%,56.079102%,37.249756%);fill-opacity:1;" d="M 156.273438 73.152344 C 156.273438 73.152344 156.042969 73.375 155.59375 73.722656 C 155.140625 74.0625 154.46875 74.511719 153.613281 74.976562 C 153.179688 75.1875 152.714844 75.449219 152.203125 75.65625 C 151.945312 75.765625 151.683594 75.878906 151.414062 75.992188 C 151.140625 76.097656 150.855469 76.191406 150.570312 76.296875 C 149.996094 76.503906 149.390625 76.671875 148.777344 76.84375 C 148.160156 77 147.523438 77.136719 146.890625 77.273438 C 146.25 77.371094 145.609375 77.480469 144.976562 77.554688 C 144.34375 77.621094 143.714844 77.664062 143.113281 77.703125 C 142.507812 77.726562 141.917969 77.722656 141.363281 77.722656 C 140.808594 77.722656 140.285156 77.671875 139.804688 77.640625 C 138.839844 77.59375 138.042969 77.433594 137.488281 77.347656 C 136.933594 77.253906 136.621094 77.183594 136.621094 77.183594 C 136.621094 77.183594 136.941406 77.148438 137.5 77.097656 C 137.78125 77.078125 138.117188 77.058594 138.507812 77.027344 C 138.894531 77.015625 139.328125 76.960938 139.804688 76.921875 C 140.277344 76.882812 140.785156 76.839844 141.328125 76.792969 C 141.867188 76.730469 142.433594 76.65625 143.019531 76.605469 C 143.605469 76.539062 144.203125 76.425781 144.816406 76.359375 C 145.425781 76.273438 146.042969 76.152344 146.660156 76.050781 C 147.273438 75.929688 147.890625 75.8125 148.488281 75.675781 C 149.082031 75.515625 149.683594 75.421875 150.246094 75.246094 C 150.8125 75.09375 151.359375 74.949219 151.875 74.789062 C 152.394531 74.636719 152.871094 74.460938 153.324219 74.320312 C 153.761719 74.15625 154.179688 74.023438 154.535156 73.878906 C 154.894531 73.734375 155.210938 73.609375 155.46875 73.507812 C 155.980469 73.292969 156.273438 73.152344 156.273438 73.152344 "/>
<path style=" stroke:none;fill-rule:nonzero;fill:rgb(90.979004%,50.979614%,11.369324%);fill-opacity:1;" d="M 142.621094 94.4375 C 142.621094 94.4375 145.027344 99.886719 143.195312 102.691406 L 135.167969 101.972656 C 135.167969 101.972656 136.179688 103.960938 133.507812 104.929688 C 133.507812 104.929688 134.789062 113.257812 132.507812 111.613281 C 132.507812 111.613281 126.816406 103.960938 129.226562 98.09375 C 129.226562 98.09375 131.078125 95.628906 134.191406 96.300781 C 134.191406 96.300781 138.53125 95.796875 142.621094 94.4375 "/>
<path style=" stroke:none;fill-rule:nonzero;fill:rgb(78.42865%,56.079102%,37.249756%);fill-opacity:1;" d="M 156.273438 71.179688 C 156.273438 71.179688 154.996094 71.636719 153.035156 72.09375 C 152.054688 72.328125 150.902344 72.566406 149.660156 72.769531 C 149.035156 72.863281 148.394531 72.976562 147.738281 73.046875 C 147.078125 73.125 146.40625 73.195312 145.734375 73.257812 C 145.0625 73.308594 144.390625 73.34375 143.722656 73.367188 C 143.058594 73.394531 142.398438 73.375 141.761719 73.355469 C 140.488281 73.304688 139.289062 73.164062 138.277344 72.84375 C 137.777344 72.683594 137.320312 72.488281 136.964844 72.199219 C 136.597656 71.933594 136.382812 71.535156 136.363281 71.207031 C 136.332031 70.878906 136.449219 70.65625 136.503906 70.507812 C 136.578125 70.371094 136.621094 70.296875 136.621094 70.296875 C 136.621094 70.296875 136.601562 70.378906 136.570312 70.53125 C 136.550781 70.683594 136.523438 70.914062 136.609375 71.164062 C 136.6875 71.410156 136.898438 71.640625 137.226562 71.804688 C 137.550781 71.972656 137.980469 72.070312 138.445312 72.144531 C 139.394531 72.289062 140.539062 72.296875 141.769531 72.257812 C 142.382812 72.246094 143.019531 72.191406 143.667969 72.164062 C 144.316406 72.128906 144.976562 72.074219 145.636719 72.015625 C 146.296875 71.972656 146.957031 71.914062 147.605469 71.851562 C 148.257812 71.792969 148.898438 71.738281 149.519531 71.679688 C 150.761719 71.570312 151.921875 71.464844 152.921875 71.390625 C 154.921875 71.226562 156.273438 71.179688 156.273438 71.179688 "/>
</g>
</svg>
