<?xml version="1.0" encoding="UTF-8"?>
<svg xmlns="http://www.w3.org/2000/svg" xmlns:xlink="http://www.w3.org/1999/xlink" width="224.87999pt" height="225pt" viewBox="0 0 224.87999 225" version="1.2">
<defs>
<clipPath id="clip1">
  <path d="M 94 0.0585938 L 128 0.0585938 L 128 44 L 94 44 Z M 94 0.0585938 "/>
</clipPath>
<clipPath id="clip2">
  <path d="M 70.285156 6 L 152.742188 6 L 152.742188 47 L 70.285156 47 Z M 70.285156 6 "/>
</clipPath>
<clipPath id="clip3">
  <path d="M 70.285156 10 L 152.742188 10 L 152.742188 47 L 70.285156 47 Z M 70.285156 10 "/>
</clipPath>
</defs>
<g id="surface1">
<path style=" stroke:none;fill-rule:nonzero;fill:rgb(65.879822%,42.349243%,29.019165%);fill-opacity:1;" d="M 88.660156 98.285156 C 88.503906 98.648438 88.347656 99.019531 88.183594 99.40625 C 87.914062 100.003906 87.703125 100.652344 87.453125 101.3125 C 87.214844 101.976562 86.9375 102.652344 86.730469 103.363281 C 86.507812 104.078125 86.28125 104.804688 86.050781 105.550781 C 85.8125 106.296875 85.644531 107.074219 85.4375 107.859375 C 85.003906 109.417969 84.710938 111.058594 84.390625 112.714844 C 84.214844 113.542969 84.121094 114.386719 84.007812 115.234375 C 83.894531 116.074219 83.785156 116.921875 83.671875 117.769531 C 83.535156 119.472656 83.421875 121.171875 83.324219 122.839844 C 83.316406 124.511719 83.3125 126.152344 83.304688 127.742188 C 83.402344 129.324219 83.496094 130.851562 83.585938 132.300781 C 83.675781 133.746094 83.921875 135.097656 84.0625 136.347656 C 84.226562 137.597656 84.34375 138.746094 84.574219 139.742188 C 84.773438 140.746094 84.945312 141.617188 85.089844 142.335938 C 85.378906 143.769531 85.542969 144.589844 85.542969 144.589844 L 89.101562 143.921875 C 89.101562 143.921875 89.011719 143.125 88.859375 141.726562 C 88.785156 141.03125 88.691406 140.183594 88.589844 139.214844 C 88.449219 138.25 88.4375 137.148438 88.382812 135.953125 C 88.355469 134.757812 88.234375 133.464844 88.273438 132.097656 C 88.308594 130.738281 88.347656 129.300781 88.382812 127.8125 C 88.519531 126.339844 88.660156 124.8125 88.804688 123.261719 C 89.03125 121.726562 89.273438 120.171875 89.535156 118.625 C 89.710938 117.859375 89.878906 117.097656 90.046875 116.332031 C 90.21875 115.574219 90.371094 114.8125 90.601562 114.078125 C 91.027344 112.601562 91.417969 111.144531 91.933594 109.78125 C 92.183594 109.097656 92.386719 108.414062 92.65625 107.769531 C 92.921875 107.125 93.183594 106.496094 93.4375 105.882812 C 93.671875 105.261719 93.972656 104.691406 94.234375 104.128906 C 94.507812 103.574219 94.734375 103.015625 95.015625 102.519531 C 95.234375 102.105469 95.445312 101.71875 95.648438 101.339844 C 93.269531 100.414062 90.9375 99.398438 88.660156 98.285156 "/>
<path style=" stroke:none;fill-rule:nonzero;fill:rgb(65.879822%,42.349243%,29.019165%);fill-opacity:1;" d="M 133.9375 98.285156 C 134.09375 98.648438 134.25 99.019531 134.410156 99.40625 C 134.683594 100.003906 134.890625 100.652344 135.144531 101.3125 C 135.382812 101.976562 135.660156 102.652344 135.863281 103.363281 C 136.085938 104.078125 136.316406 104.804688 136.546875 105.550781 C 136.785156 106.296875 136.949219 107.074219 137.160156 107.859375 C 137.589844 109.417969 137.882812 111.058594 138.203125 112.714844 C 138.382812 113.542969 138.476562 114.386719 138.589844 115.234375 C 138.699219 116.074219 138.808594 116.921875 138.921875 117.769531 C 139.0625 119.472656 139.175781 121.171875 139.269531 122.839844 C 139.277344 124.511719 139.285156 126.152344 139.292969 127.742188 C 139.191406 129.324219 139.097656 130.851562 139.007812 132.300781 C 138.921875 133.746094 138.675781 135.097656 138.535156 136.347656 C 138.367188 137.597656 138.25 138.746094 138.019531 139.742188 C 137.820312 140.746094 137.648438 141.617188 137.503906 142.335938 C 137.21875 143.769531 137.054688 144.589844 137.054688 144.589844 L 133.496094 143.921875 C 133.496094 143.921875 133.582031 143.125 133.738281 141.726562 C 133.808594 141.03125 133.90625 140.183594 134.007812 139.214844 C 134.148438 138.25 134.160156 137.148438 134.210938 135.953125 C 134.238281 134.757812 134.363281 133.464844 134.324219 132.097656 C 134.289062 130.738281 134.25 129.300781 134.210938 127.8125 C 134.074219 126.339844 133.933594 124.8125 133.792969 123.261719 C 133.566406 121.726562 133.320312 120.171875 133.058594 118.625 C 132.886719 117.859375 132.714844 117.097656 132.546875 116.332031 C 132.375 115.574219 132.222656 114.8125 131.992188 114.078125 C 131.566406 112.601562 131.179688 111.144531 130.664062 109.78125 C 130.414062 109.097656 130.210938 108.414062 129.9375 107.769531 C 129.671875 107.125 129.410156 106.496094 129.160156 105.882812 C 128.921875 105.261719 128.621094 104.691406 128.363281 104.128906 C 128.085938 103.574219 127.859375 103.015625 127.578125 102.519531 C 127.359375 102.105469 127.152344 101.71875 126.949219 101.339844 C 129.324219 100.414062 131.65625 99.398438 133.9375 98.285156 "/>
<g clip-path="url(#clip1)" clip-rule="nonzero">
<path style=" stroke:none;fill-rule:nonzero;fill:rgb(87.059021%,62.748718%,34.509277%);fill-opacity:1;" d="M 127.675781 33.3125 C 127.675781 38.757812 123.253906 43.171875 117.796875 43.171875 L 104.125 43.171875 C 98.664062 43.171875 94.246094 38.757812 94.246094 33.3125 L 94.246094 10.136719 C 94.246094 4.6875 98.664062 0.277344 104.125 0.277344 L 117.796875 0.277344 C 123.253906 0.277344 127.675781 4.6875 127.675781 10.136719 L 127.675781 33.3125 "/>
</g>
<g clip-path="url(#clip2)" clip-rule="nonzero">
<path style=" stroke:none;fill-rule:nonzero;fill:rgb(95.689392%,80.778503%,52.549744%);fill-opacity:1;" d="M 152.828125 26.742188 C 152.828125 37.726562 134.351562 46.628906 111.5625 46.628906 C 88.769531 46.628906 70.292969 37.726562 70.292969 26.742188 C 70.292969 15.761719 88.769531 6.855469 111.5625 6.855469 C 134.351562 6.855469 152.828125 15.761719 152.828125 26.742188 "/>
</g>
<g clip-path="url(#clip3)" clip-rule="nonzero">
<path style=" stroke:none;fill-rule:nonzero;fill:rgb(87.059021%,62.748718%,34.509277%);fill-opacity:1;" d="M 111.5625 10.660156 C 90.101562 10.660156 72.472656 18.554688 70.484375 28.644531 C 72.472656 38.734375 90.101562 46.628906 111.5625 46.628906 C 133.023438 46.628906 150.648438 38.734375 152.632812 28.644531 C 150.648438 18.554688 133.023438 10.660156 111.5625 10.660156 "/>
</g>
<path style=" stroke:none;fill-rule:nonzero;fill:rgb(79.60968%,53.729248%,29.019165%);fill-opacity:1;" d="M 71.4375 31.378906 C 75.769531 40.125 92.085938 46.628906 111.5625 46.628906 C 131.207031 46.628906 147.636719 40.007812 151.796875 31.148438 C 147.460938 22.40625 131.148438 15.902344 111.667969 15.902344 C 92.023438 15.902344 75.597656 22.519531 71.4375 31.378906 "/>
<path style=" stroke:none;fill-rule:nonzero;fill:rgb(81.17981%,91.758728%,91.758728%);fill-opacity:1;" d="M 125.089844 86.605469 C 125.089844 86.605469 137.335938 99.625 138.515625 101.328125 L 128.316406 108.042969 L 121.621094 98.300781 L 125.089844 86.605469 "/>
<path style=" stroke:none;fill-rule:nonzero;fill:rgb(81.17981%,91.758728%,91.758728%);fill-opacity:1;" d="M 99.4375 93.542969 L 96.734375 88.285156 C 97.070312 87.566406 97.519531 86.902344 98.050781 86.304688 L 98.046875 86.296875 C 98.046875 86.296875 84.917969 99.40625 83.460938 101.25 L 93.398438 108.351562 L 100.464844 98.875 L 99.4375 93.542969 "/>
<path style=" stroke:none;fill-rule:nonzero;fill:rgb(81.17981%,91.758728%,91.758728%);fill-opacity:1;" d="M 127.359375 138.429688 C 127.359375 142.972656 123.671875 146.65625 119.117188 146.65625 L 103.871094 146.65625 C 99.316406 146.65625 95.625 142.972656 95.625 138.429688 L 95.625 92 C 95.625 87.457031 99.316406 83.777344 103.871094 83.777344 L 119.117188 83.777344 C 123.671875 83.777344 127.359375 87.457031 127.359375 92 L 127.359375 138.429688 "/>
<path style=" stroke:none;fill-rule:nonzero;fill:rgb(81.17981%,91.758728%,91.758728%);fill-opacity:1;" d="M 105.714844 84.972656 C 105.714844 84.972656 102.769531 81.207031 104.480469 79.664062 C 104.480469 79.664062 107.300781 76.410156 117.988281 78.292969 C 117.988281 78.292969 121.347656 81.914062 116.800781 85.679688 C 116.800781 85.679688 113.65625 87.03125 105.714844 84.972656 "/>
<path style=" stroke:none;fill-rule:nonzero;fill:rgb(55.288696%,34.899902%,24.308777%);fill-opacity:1;" d="M 114.644531 79.835938 L 108.378906 79.835938 L 108.378906 69.988281 L 114.644531 69.988281 L 114.644531 79.835938 "/>
<path style=" stroke:none;fill-rule:nonzero;fill:rgb(46.269226%,29.019165%,19.999695%);fill-opacity:1;" d="M 98.109375 47.921875 C 99.0625 50.8125 98.214844 53.6875 96.21875 54.34375 C 94.222656 54.996094 91.832031 53.183594 90.878906 50.292969 C 89.925781 47.402344 90.773438 44.527344 92.769531 43.871094 C 94.769531 43.21875 97.15625 45.03125 98.109375 47.921875 "/>
<path style=" stroke:none;fill-rule:nonzero;fill:rgb(27.449036%,14.509583%,11.369324%);fill-opacity:1;" d="M 91.964844 49.054688 C 91.964844 49.054688 91.800781 42.664062 96.382812 46.871094 C 96.382812 46.871094 98.550781 53.5625 95.339844 53.300781 C 95.339844 53.300781 94.421875 52.671875 93.902344 51.125 C 93.367188 49.53125 93.414062 47.742188 95.378906 48.117188 C 95.378906 48.117188 93.351562 44.078125 91.964844 49.054688 "/>
<path style=" stroke:none;fill-rule:nonzero;fill:rgb(46.269226%,29.019165%,19.999695%);fill-opacity:1;" d="M 124.535156 47.921875 C 123.585938 50.8125 124.429688 53.6875 126.425781 54.34375 C 128.421875 54.996094 130.8125 53.183594 131.765625 50.292969 C 132.71875 47.402344 131.875 44.527344 129.875 43.871094 C 127.882812 43.21875 125.488281 45.03125 124.535156 47.921875 "/>
<path style=" stroke:none;fill-rule:nonzero;fill:rgb(27.449036%,14.509583%,11.369324%);fill-opacity:1;" d="M 130.683594 49.054688 C 130.683594 49.054688 130.847656 42.664062 126.265625 46.871094 C 126.265625 46.871094 124.097656 53.5625 127.308594 53.300781 C 127.308594 53.300781 128.222656 52.671875 128.742188 51.125 C 129.277344 49.53125 129.234375 47.742188 127.265625 48.117188 C 127.265625 48.117188 129.292969 44.078125 130.683594 49.054688 "/>
<path style=" stroke:none;fill-rule:nonzero;fill:rgb(65.879822%,42.349243%,29.019165%);fill-opacity:1;" d="M 118.816406 22.984375 L 104.171875 22.984375 C 99.886719 22.984375 96.382812 26.480469 96.382812 30.753906 L 96.382812 36.285156 C 96.382812 40.558594 96.632812 47.542969 96.9375 51.808594 L 97.890625 63.644531 C 98.191406 67.910156 101.949219 71.398438 106.234375 71.398438 L 106.691406 71.398438 C 107.054688 72.753906 109.105469 73.796875 111.59375 73.796875 C 114.082031 73.796875 116.132812 72.753906 116.496094 71.398438 L 116.753906 71.398438 C 121.039062 71.398438 124.796875 67.910156 125.105469 63.644531 L 126.050781 51.980469 C 126.355469 47.714844 126.605469 40.730469 126.605469 36.457031 L 126.605469 30.753906 C 126.605469 26.480469 123.101562 22.984375 118.816406 22.984375 "/>
<path style=" stroke:none;fill-rule:nonzero;fill:rgb(100%,100%,100%);fill-opacity:1;" d="M 109.203125 43.375 C 109.203125 45.390625 107.5625 46.628906 105.542969 46.628906 C 103.519531 46.628906 101.589844 44.761719 101.589844 42.746094 C 101.589844 40.726562 103.519531 39.316406 105.542969 39.316406 C 107.5625 39.316406 109.203125 41.351562 109.203125 43.375 "/>
<path style=" stroke:none;fill-rule:nonzero;fill:rgb(10.978699%,5.488586%,6.269836%);fill-opacity:1;" d="M 101.589844 42.746094 C 101.589844 42.746094 101.589844 42.699219 101.582031 42.609375 C 101.582031 42.523438 101.554688 42.398438 101.578125 42.230469 C 101.585938 42.066406 101.625 41.867188 101.675781 41.636719 C 101.714844 41.523438 101.757812 41.40625 101.800781 41.285156 C 101.855469 41.164062 101.914062 41.035156 101.988281 40.910156 C 102.140625 40.660156 102.328125 40.402344 102.578125 40.175781 C 102.824219 39.945312 103.109375 39.722656 103.4375 39.554688 C 103.757812 39.375 104.117188 39.230469 104.492188 39.144531 C 104.875 39.050781 105.253906 39.011719 105.671875 39.019531 L 105.953125 39.039062 L 106.265625 39.101562 C 106.464844 39.148438 106.652344 39.207031 106.835938 39.285156 C 107.207031 39.429688 107.519531 39.667969 107.808594 39.902344 C 108.085938 40.140625 108.320312 40.414062 108.507812 40.691406 C 108.695312 40.964844 108.839844 41.246094 108.945312 41.515625 C 109.054688 41.78125 109.121094 42.039062 109.164062 42.265625 C 109.203125 42.496094 109.222656 42.691406 109.226562 42.859375 C 109.246094 43.023438 109.21875 43.152344 109.214844 43.238281 C 109.207031 43.324219 109.203125 43.375 109.203125 43.375 C 109.203125 43.375 109.179688 43.1875 109.109375 42.875 C 109.074219 42.71875 109.019531 42.53125 108.945312 42.328125 C 108.859375 42.125 108.753906 41.898438 108.625 41.664062 C 108.496094 41.433594 108.332031 41.199219 108.140625 40.964844 C 107.945312 40.734375 107.71875 40.515625 107.464844 40.316406 C 107.207031 40.125 106.921875 39.949219 106.609375 39.832031 C 106.460938 39.769531 106.292969 39.722656 106.140625 39.6875 L 105.910156 39.644531 L 105.636719 39.628906 C 105.3125 39.617188 104.949219 39.640625 104.625 39.71875 C 104.292969 39.792969 103.96875 39.886719 103.679688 40.03125 C 103.382812 40.167969 103.113281 40.332031 102.878906 40.515625 C 102.640625 40.699219 102.445312 40.90625 102.277344 41.105469 C 102.117188 41.316406 101.992188 41.523438 101.890625 41.71875 C 101.804688 41.914062 101.730469 42.09375 101.695312 42.246094 C 101.648438 42.398438 101.636719 42.527344 101.617188 42.613281 C 101.601562 42.699219 101.589844 42.746094 101.589844 42.746094 "/>
<path style=" stroke:none;fill-rule:nonzero;fill:rgb(36.468506%,20.779419%,13.328552%);fill-opacity:1;" d="M 107.601562 44.199219 C 107.601562 45.164062 106.820312 45.941406 105.855469 45.941406 C 104.890625 45.941406 104.109375 45.164062 104.109375 44.199219 C 104.109375 43.238281 104.890625 42.457031 105.855469 42.457031 C 106.820312 42.457031 107.601562 43.238281 107.601562 44.199219 "/>
<path style=" stroke:none;fill-rule:nonzero;fill:rgb(100%,100%,100%);fill-opacity:1;" d="M 114.644531 43.375 C 114.644531 45.390625 116.28125 46.628906 118.308594 46.628906 C 120.332031 46.628906 122.257812 44.761719 122.257812 42.746094 C 122.257812 40.726562 120.332031 39.316406 118.308594 39.316406 C 116.28125 39.316406 114.644531 41.351562 114.644531 43.375 "/>
<path style=" stroke:none;fill-rule:nonzero;fill:rgb(10.978699%,5.488586%,6.269836%);fill-opacity:1;" d="M 122.257812 42.746094 C 122.257812 42.746094 122.25 42.699219 122.234375 42.613281 C 122.214844 42.527344 122.199219 42.398438 122.152344 42.246094 C 122.117188 42.09375 122.046875 41.914062 121.960938 41.71875 C 121.859375 41.523438 121.734375 41.316406 121.570312 41.105469 C 121.402344 40.90625 121.207031 40.699219 120.96875 40.515625 C 120.738281 40.332031 120.464844 40.167969 120.171875 40.03125 C 119.878906 39.886719 119.554688 39.792969 119.222656 39.71875 C 118.898438 39.640625 118.535156 39.617188 118.214844 39.628906 L 117.941406 39.644531 L 117.710938 39.6875 C 117.554688 39.722656 117.386719 39.769531 117.238281 39.832031 C 116.925781 39.949219 116.644531 40.125 116.382812 40.316406 C 116.128906 40.515625 115.902344 40.734375 115.707031 40.964844 C 115.515625 41.199219 115.355469 41.433594 115.21875 41.664062 C 115.089844 41.898438 114.988281 42.125 114.90625 42.328125 C 114.828125 42.53125 114.773438 42.71875 114.742188 42.875 C 114.667969 43.1875 114.644531 43.375 114.644531 43.375 C 114.644531 43.375 114.636719 43.324219 114.632812 43.238281 C 114.632812 43.152344 114.605469 43.023438 114.621094 42.859375 C 114.625 42.691406 114.648438 42.496094 114.6875 42.265625 C 114.730469 42.039062 114.792969 41.78125 114.902344 41.515625 C 115.011719 41.246094 115.148438 40.964844 115.339844 40.691406 C 115.53125 40.414062 115.757812 40.140625 116.039062 39.902344 C 116.324219 39.667969 116.636719 39.429688 117.011719 39.285156 C 117.191406 39.207031 117.382812 39.148438 117.585938 39.101562 L 117.898438 39.039062 L 118.175781 39.019531 C 118.59375 39.011719 118.976562 39.050781 119.355469 39.144531 C 119.734375 39.230469 120.089844 39.375 120.414062 39.554688 C 120.742188 39.71875 121.027344 39.941406 121.269531 40.175781 C 121.519531 40.398438 121.707031 40.660156 121.859375 40.910156 C 121.933594 41.035156 121.992188 41.164062 122.050781 41.285156 C 122.09375 41.40625 122.132812 41.523438 122.171875 41.636719 C 122.222656 41.867188 122.261719 42.066406 122.269531 42.230469 C 122.292969 42.398438 122.265625 42.523438 122.265625 42.609375 C 122.261719 42.699219 122.257812 42.746094 122.257812 42.746094 "/>
<path style=" stroke:none;fill-rule:nonzero;fill:rgb(36.468506%,20.779419%,13.328552%);fill-opacity:1;" d="M 116.246094 44.199219 C 116.246094 45.164062 117.027344 45.941406 117.988281 45.941406 C 118.957031 45.941406 119.734375 45.164062 119.734375 44.199219 C 119.734375 43.238281 118.957031 42.457031 117.988281 42.457031 C 117.027344 42.457031 116.246094 43.238281 116.246094 44.199219 "/>
<path style=" stroke:none;fill-rule:nonzero;fill:rgb(10.978699%,5.488586%,6.269836%);fill-opacity:1;" d="M 100.511719 36 L 100.761719 38.175781 L 108.832031 37.148438 L 108.617188 34.363281 L 100.511719 36 "/>
<path style=" stroke:none;fill-rule:nonzero;fill:rgb(10.978699%,5.488586%,6.269836%);fill-opacity:1;" d="M 123.84375 35.910156 L 123.59375 38.085938 L 115.523438 37.058594 L 115.738281 34.273438 L 123.84375 35.910156 "/>
<path style=" stroke:none;fill-rule:nonzero;fill:rgb(38.038635%,21.958923%,16.079712%);fill-opacity:1;" d="M 112.785156 51.066406 C 112.785156 51.066406 113.511719 54.921875 110.039062 55.351562 C 110.039062 55.351562 114.414062 56.59375 114.628906 53.980469 C 114.6875 53.289062 114.632812 52.179688 112.785156 51.066406 "/>
<path style=" stroke:none;fill-rule:nonzero;fill:rgb(10.978699%,5.488586%,6.269836%);fill-opacity:1;" d="M 92.878906 21.300781 C 92.878906 21.300781 89.683594 34.667969 96.617188 45.941406 C 96.617188 45.941406 99.386719 38.511719 98.613281 34.273438 C 98.613281 34.273438 98.1875 28.921875 99.558594 27.382812 C 99.558594 27.382812 101.523438 25.613281 105.855469 27.054688 C 105.855469 27.054688 110.75 30.957031 124.148438 27.324219 C 124.148438 27.324219 125.574219 33.386719 125.320312 34.667969 C 125.0625 35.945312 125.03125 44.886719 126.375 45.941406 C 126.375 45.941406 130.683594 31.980469 128.933594 21.300781 C 128.933594 21.300781 109.894531 14.386719 92.878906 21.300781 "/>
<path style=" stroke:none;fill-rule:nonzero;fill:rgb(29.40979%,15.289307%,9.799194%);fill-opacity:1;" d="M 99.242188 27.863281 L 99.246094 27.867188 L 99.261719 27.84375 Z M 99.242188 27.863281 "/>
<path style=" stroke:none;fill-rule:nonzero;fill:rgb(27.449036%,49.409485%,28.239441%);fill-opacity:1;" d="M 104.671875 121.8125 L 100.511719 121.8125 L 100.511719 83.777344 L 104.671875 83.777344 L 104.671875 121.8125 "/>
<path style=" stroke:none;fill-rule:nonzero;fill:rgb(27.449036%,49.409485%,28.239441%);fill-opacity:1;" d="M 122.726562 121.8125 L 118.566406 121.8125 L 118.566406 83.777344 L 122.726562 83.777344 L 122.726562 121.8125 "/>
<path style=" stroke:none;fill-rule:nonzero;fill:rgb(19.999695%,42.349243%,54.119873%);fill-opacity:1;" d="M 105.414062 205.421875 L 97.8125 205.421875 L 96.46875 144.769531 L 106.511719 144.769531 L 105.414062 205.421875 "/>
<path style=" stroke:none;fill-rule:nonzero;fill:rgb(27.449036%,49.409485%,28.239441%);fill-opacity:1;" d="M 126.0625 127.292969 L 122.726562 100.910156 L 100.621094 100.910156 L 97.28125 127.292969 L 95.625 127.292969 L 95.625 146.484375 C 95.625 147.859375 95.972656 149.152344 96.566406 150.292969 L 97.570312 205.421875 L 105.167969 205.421875 L 106.292969 154.707031 L 116.738281 154.707031 L 117.65625 205.421875 L 125.257812 205.421875 L 126.484375 150.164062 C 127.042969 149.054688 127.359375 147.808594 127.359375 146.484375 L 127.359375 127.292969 L 126.0625 127.292969 "/>
<path style=" stroke:none;fill-rule:nonzero;fill:rgb(20.779419%,37.649536%,21.179199%);fill-opacity:1;" d="M 103.164062 115.558594 C 103.164062 120.148438 106.894531 123.867188 111.496094 123.867188 C 116.09375 123.867188 119.824219 120.148438 119.824219 115.558594 L 119.824219 107.933594 L 103.164062 107.933594 L 103.164062 115.558594 "/>
<path style=" stroke:none;fill-rule:nonzero;fill:rgb(16.079712%,27.839661%,15.289307%);fill-opacity:1;" d="M 120.644531 110.277344 L 102.59375 110.277344 L 102.050781 107.308594 L 121.167969 106.507812 L 120.644531 110.277344 "/>
<path style=" stroke:none;fill-rule:nonzero;fill:rgb(40.779114%,30.589294%,20.779419%);fill-opacity:1;" d="M 94.582031 182.003906 C 94.582031 182.003906 101.289062 179.292969 107.8125 181.804688 L 106.011719 210.5625 C 106.011719 210.5625 108.179688 218.101562 106.972656 219.429688 C 106.972656 219.429688 96.46875 224.699219 90.734375 219.242188 C 90.734375 219.242188 88.253906 215.929688 95.882812 210.390625 L 94.582031 182.003906 "/>
<path style=" stroke:none;fill-rule:nonzero;fill:rgb(75.289917%,67.059326%,58.428955%);fill-opacity:1;" d="M 107.175781 218.746094 L 107.128906 218.765625 C 106.617188 218.996094 102.09375 220.910156 97.601562 220.902344 C 96.339844 220.902344 95.082031 220.753906 93.917969 220.390625 C 92.753906 220.023438 91.6875 219.441406 90.769531 218.574219 C 90.523438 218.339844 90.136719 218.347656 89.902344 218.59375 C 89.671875 218.839844 89.679688 219.226562 89.925781 219.457031 C 90.992188 220.472656 92.238281 221.144531 93.550781 221.558594 C 94.863281 221.96875 96.246094 222.125 97.601562 222.128906 C 100.175781 222.125 102.683594 221.558594 104.558594 220.996094 C 106.429688 220.429688 107.667969 219.867188 107.6875 219.859375 C 107.996094 219.71875 108.128906 219.355469 107.988281 219.046875 C 107.851562 218.742188 107.484375 218.605469 107.175781 218.746094 "/>
<path style=" stroke:none;fill-rule:nonzero;fill:rgb(40.779114%,30.589294%,20.779419%);fill-opacity:1;" d="M 128.15625 182.003906 C 128.15625 182.003906 121.449219 179.292969 114.925781 181.804688 L 116.71875 210.558594 C 116.71875 210.558594 114.554688 218.101562 115.761719 219.429688 C 115.761719 219.429688 126.265625 224.695312 132.003906 219.242188 C 132.003906 219.242188 134.480469 215.929688 126.851562 210.390625 L 128.15625 182.003906 "/>
<path style=" stroke:none;fill-rule:nonzero;fill:rgb(75.289917%,67.059326%,58.428955%);fill-opacity:1;" d="M 115.050781 219.855469 C 115.070312 219.863281 116.308594 220.425781 118.179688 220.992188 C 120.054688 221.558594 122.558594 222.125 125.132812 222.125 C 126.492188 222.125 127.871094 221.96875 129.183594 221.554688 C 130.496094 221.140625 131.746094 220.46875 132.808594 219.457031 C 133.054688 219.226562 133.066406 218.835938 132.828125 218.59375 C 132.597656 218.347656 132.207031 218.339844 131.964844 218.574219 C 131.050781 219.441406 129.980469 220.019531 128.816406 220.386719 C 127.652344 220.753906 126.398438 220.902344 125.132812 220.902344 C 122.742188 220.902344 120.332031 220.363281 118.535156 219.820312 C 117.632812 219.550781 116.886719 219.28125 116.367188 219.078125 C 116.105469 218.976562 115.902344 218.890625 115.765625 218.832031 C 115.695312 218.804688 115.644531 218.78125 115.609375 218.765625 L 115.558594 218.746094 C 115.253906 218.605469 114.886719 218.738281 114.746094 219.042969 C 114.605469 219.351562 114.742188 219.714844 115.050781 219.855469 "/>
<path style=" stroke:none;fill-rule:nonzero;fill:rgb(10.978699%,5.488586%,6.269836%);fill-opacity:1;" d="M 102.9375 65.9375 C 102.117188 63.609375 100.933594 59.582031 101.589844 57.339844 C 101.589844 57.339844 105.113281 55.011719 110.90625 57.339844 L 111.238281 57.339844 C 117.03125 55.011719 120.546875 57.339844 120.546875 57.339844 C 121.253906 59.738281 119.851562 64.171875 119.046875 66.394531 C 112.28125 68.316406 105.6875 66.78125 102.9375 65.9375 Z M 125.546875 43.246094 C 125.546875 49.785156 125.238281 54.375 124.808594 57.601562 C 124.703125 57.109375 124.554688 56.636719 124.328125 56.21875 C 122.535156 52.882812 113.492188 55.378906 111.070312 56.113281 C 108.652344 55.378906 99.605469 52.882812 97.8125 56.21875 C 97.066406 50.605469 97.097656 44.53125 97.097656 44.53125 L 96.382812 44.199219 C 96.382812 44.199219 94.875 63.019531 96.46875 68.222656 C 98.167969 73.765625 111.117188 74.382812 111.117188 74.382812 C 124.75 74.65625 125.546875 69.386719 125.546875 69.386719 C 126.578125 67.128906 126.605469 44.199219 126.605469 44.199219 L 125.546875 43.246094 "/>
<path style=" stroke:none;fill-rule:nonzero;fill:rgb(100%,100%,100%);fill-opacity:1;" d="M 105.90625 58.289062 L 116.4375 58.289062 C 116.4375 58.289062 116.078125 62.714844 111.175781 62.878906 C 111.175781 62.878906 105.972656 62.890625 105.90625 58.289062 "/>
<path style=" stroke:none;fill-rule:nonzero;fill:rgb(87.449646%,27.839661%,15.289307%);fill-opacity:1;" d="M 92.652344 158.90625 C 90.089844 157.78125 88.734375 155.546875 88.054688 153.929688 C 89.058594 152.585938 90.117188 152.167969 90.371094 152.085938 C 90.691406 153.246094 90.75 154.535156 90.082031 155.640625 C 89.84375 156.03125 89.96875 156.535156 90.355469 156.769531 C 90.492188 156.851562 90.636719 156.886719 90.785156 156.886719 C 91.0625 156.886719 91.335938 156.75 91.488281 156.492188 C 92.890625 154.183594 92.09375 151.511719 91.238281 149.753906 C 90.746094 147.816406 88.828125 145.496094 88.828125 145.496094 L 90.886719 134.710938 C 84.679688 129.78125 79.402344 135.382812 79.402344 135.382812 L 83.460938 146.140625 C 83.070312 147.121094 82.8125 148.027344 82.660156 148.863281 C 82.230469 150.394531 81.375 154.675781 84.042969 158.367188 C 84.203125 158.589844 84.457031 158.707031 84.710938 158.707031 C 84.878906 158.707031 85.046875 158.65625 85.195312 158.554688 C 85.359375 158.433594 85.457031 158.261719 85.5 158.074219 C 85.761719 158.421875 86.039062 158.761719 86.367188 159.085938 C 86.523438 159.246094 86.738281 159.328125 86.949219 159.328125 C 87.160156 159.328125 87.371094 159.25 87.527344 159.089844 C 87.617188 159.003906 87.679688 158.898438 87.71875 158.789062 C 88.109375 159.207031 88.550781 159.609375 89.054688 159.976562 C 89.203125 160.085938 89.371094 160.136719 89.539062 160.136719 C 89.796875 160.136719 90.042969 160.019531 90.203125 159.796875 C 90.277344 159.703125 90.320312 159.59375 90.34375 159.480469 C 90.839844 159.832031 91.382812 160.144531 91.988281 160.410156 C 92.097656 160.457031 92.210938 160.480469 92.316406 160.480469 C 92.632812 160.480469 92.9375 160.296875 93.074219 159.988281 C 93.253906 159.574219 93.066406 159.085938 92.652344 158.90625 "/>
<path style=" stroke:none;fill-rule:nonzero;fill:rgb(87.449646%,27.839661%,15.289307%);fill-opacity:1;" d="M 128.828125 158.90625 C 131.390625 157.78125 132.746094 155.546875 133.425781 153.929688 C 132.417969 152.585938 131.363281 152.167969 131.109375 152.085938 C 130.789062 153.246094 130.726562 154.535156 131.398438 155.640625 C 131.636719 156.03125 131.511719 156.535156 131.125 156.769531 C 130.988281 156.851562 130.839844 156.886719 130.695312 156.886719 C 130.417969 156.886719 130.144531 156.75 129.992188 156.492188 C 128.585938 154.183594 129.386719 151.511719 130.238281 149.753906 C 130.734375 147.816406 132.648438 145.496094 132.648438 145.496094 L 130.59375 134.710938 C 136.796875 129.78125 142.078125 135.382812 142.078125 135.382812 L 138.015625 146.140625 C 138.410156 147.121094 138.667969 148.027344 138.820312 148.863281 C 139.25 150.394531 140.101562 154.675781 137.433594 158.367188 C 137.273438 158.589844 137.023438 158.707031 136.765625 158.707031 C 136.601562 158.707031 136.433594 158.65625 136.285156 158.554688 C 136.121094 158.433594 136.023438 158.261719 135.976562 158.074219 C 135.714844 158.421875 135.4375 158.761719 135.113281 159.085938 C 134.953125 159.246094 134.742188 159.328125 134.53125 159.328125 C 134.320312 159.328125 134.109375 159.25 133.949219 159.089844 C 133.859375 159.003906 133.804688 158.898438 133.757812 158.789062 C 133.367188 159.207031 132.929688 159.609375 132.425781 159.976562 C 132.277344 160.085938 132.109375 160.136719 131.941406 160.136719 C 131.683594 160.136719 131.4375 160.019531 131.277344 159.796875 C 131.203125 159.703125 131.160156 159.59375 131.136719 159.480469 C 130.640625 159.832031 130.097656 160.144531 129.492188 160.410156 C 129.386719 160.457031 129.273438 160.480469 129.160156 160.480469 C 128.84375 160.480469 128.542969 160.296875 128.40625 159.988281 C 128.222656 159.574219 128.414062 159.085938 128.828125 158.90625 "/>
</g>
</svg>
