<?xml version="1.0" encoding="UTF-8"?>
<svg xmlns="http://www.w3.org/2000/svg" xmlns:xlink="http://www.w3.org/1999/xlink" width="224.87999pt" height="225pt" viewBox="0 0 224.87999 225" version="1.2">
<defs>
<clipPath id="clip1">
  <path d="M 134 105 L 172.738281 105 L 172.738281 118 L 134 118 Z M 134 105 "/>
</clipPath>
<clipPath id="clip2">
  <path d="M 117 210 L 137 210 L 137 224.9375 L 117 224.9375 Z M 117 210 "/>
</clipPath>
</defs>
<g id="surface1">
<path style=" stroke:none;fill-rule:nonzero;fill:rgb(74.508667%,46.269226%,30.589294%);fill-opacity:1;" d="M 133.175781 95.171875 L 149.992188 106.179688 L 154.25 102.195312 C 154.25 102.195312 143.863281 92.214844 136.585938 91.199219 L 133.175781 95.171875 "/>
<path style=" stroke:none;fill-rule:nonzero;fill:rgb(37.249756%,46.669006%,49.798584%);fill-opacity:1;" d="M 167.90625 112.386719 L 140.597656 103.078125 C 140.597656 103.078125 140.582031 101.808594 141.019531 100.308594 L 149.992188 106.179688 L 152.570312 103.765625 C 153.570312 103.964844 154.527344 104.089844 155.390625 104.089844 C 158.667969 104.089844 160.609375 102.363281 158.476562 96.871094 C 159.816406 96.972656 161.097656 97.058594 162.222656 97.121094 L 166.699219 104.40625 L 167.90625 112.386719 "/>
<path style=" stroke:none;fill-rule:nonzero;fill:rgb(27.059937%,25.878906%,23.139954%);fill-opacity:1;" d="M 149.992188 106.179688 L 141.019531 100.308594 C 141.09375 100.0625 141.175781 99.808594 141.273438 99.554688 C 143.085938 100.457031 148.226562 102.886719 152.570312 103.765625 L 149.992188 106.179688 "/>
<path style=" stroke:none;fill-rule:nonzero;fill:rgb(46.269226%,76.469421%,18.818665%);fill-opacity:1;" d="M 139.863281 97.367188 C 139.863281 97.367188 137.996094 95.207031 138.277344 93.894531 C 138.277344 93.894531 138.835938 95.351562 139.253906 95.398438 C 139.253906 95.398438 141.078125 95.398438 140.5625 97.367188 C 140.5625 97.367188 140.46875 97.601562 139.863281 97.367188 "/>
<path style=" stroke:none;fill-rule:nonzero;fill:rgb(46.269226%,76.469421%,18.818665%);fill-opacity:1;" d="M 140.152344 97.71875 C 140.152344 97.71875 137.3125 97.519531 136.585938 96.390625 C 136.585938 96.390625 138.007812 97.023438 138.335938 96.757812 C 138.335938 96.757812 139.625 95.464844 140.648438 97.21875 C 140.648438 97.21875 140.746094 97.453125 140.152344 97.71875 "/>
<path style=" stroke:none;fill-rule:nonzero;fill:rgb(46.269226%,76.469421%,18.818665%);fill-opacity:1;" d="M 142.867188 97.84375 C 142.867188 97.84375 145.707031 97.644531 146.4375 96.515625 C 146.4375 96.515625 145.015625 97.144531 144.683594 96.882812 C 144.683594 96.882812 143.398438 95.585938 142.371094 97.34375 C 142.371094 97.34375 142.273438 97.578125 142.867188 97.84375 "/>
<path style=" stroke:none;fill-rule:nonzero;fill:rgb(46.269226%,76.469421%,18.818665%);fill-opacity:1;" d="M 143.324219 97.488281 C 143.324219 97.488281 145.191406 95.332031 144.914062 94.019531 C 144.914062 94.019531 144.351562 95.472656 143.929688 95.519531 C 143.929688 95.519531 142.109375 95.519531 142.621094 97.488281 C 142.621094 97.488281 142.71875 97.726562 143.324219 97.488281 "/>
<path style=" stroke:none;fill-rule:nonzero;fill:rgb(46.269226%,76.469421%,18.818665%);fill-opacity:1;" d="M 143.324219 97.488281 C 143.324219 97.488281 145.191406 95.332031 144.914062 94.019531 C 144.914062 94.019531 144.351562 95.472656 143.929688 95.519531 C 143.929688 95.519531 142.109375 95.519531 142.621094 97.488281 C 142.621094 97.488281 142.71875 97.726562 143.324219 97.488281 "/>
<path style=" stroke:none;fill-rule:nonzero;fill:rgb(46.269226%,76.469421%,18.818665%);fill-opacity:1;" d="M 142.390625 97.078125 C 142.390625 97.078125 143.730469 94.554688 143.164062 93.335938 C 143.164062 93.335938 142.941406 94.878906 142.542969 95.019531 C 142.542969 95.019531 140.765625 95.429688 141.707031 97.234375 C 141.707031 97.234375 141.851562 97.441406 142.390625 97.078125 "/>
<path style=" stroke:none;fill-rule:nonzero;fill:rgb(46.269226%,76.469421%,18.818665%);fill-opacity:1;" d="M 140.632812 97.078125 C 140.632812 97.078125 139.289062 94.554688 139.855469 93.335938 C 139.855469 93.335938 140.078125 94.878906 140.480469 95.019531 C 140.480469 95.019531 142.253906 95.429688 141.3125 97.234375 C 141.3125 97.234375 141.171875 97.441406 140.632812 97.078125 "/>
<path style=" stroke:none;fill-rule:nonzero;fill:rgb(72.938538%,16.079712%,16.859436%);fill-opacity:1;" d="M 148.648438 103.097656 C 148.648438 107.105469 147.347656 110.238281 141.429688 110.261719 C 135.273438 110.289062 134.214844 107.105469 134.214844 103.097656 C 134.214844 99.09375 137.367188 96.777344 141.351562 96.777344 C 145.335938 96.777344 148.648438 99.09375 148.648438 103.097656 "/>
<path style=" stroke:none;fill-rule:nonzero;fill:rgb(46.269226%,76.469421%,18.818665%);fill-opacity:1;" d="M 158.460938 89.28125 C 158.460938 89.28125 157.488281 86.589844 158.222656 85.464844 C 158.222656 85.464844 158.222656 87.023438 158.597656 87.222656 C 158.597656 87.222656 160.300781 87.878906 159.113281 89.53125 C 159.113281 89.53125 158.941406 89.71875 158.460938 89.28125 "/>
<path style=" stroke:none;fill-rule:nonzero;fill:rgb(46.269226%,76.469421%,18.818665%);fill-opacity:1;" d="M 158.601562 89.714844 C 158.601562 89.714844 156.023438 88.5 155.75 87.183594 C 155.75 87.183594 156.851562 88.289062 157.253906 88.160156 C 157.253906 88.160156 158.917969 87.417969 159.246094 89.425781 C 159.246094 89.425781 159.253906 89.679688 158.601562 89.714844 "/>
<path style=" stroke:none;fill-rule:nonzero;fill:rgb(46.269226%,76.469421%,18.818665%);fill-opacity:1;" d="M 161.09375 90.808594 C 161.09375 90.808594 163.816406 91.652344 164.898438 90.859375 C 164.898438 90.859375 163.347656 90.933594 163.132812 90.566406 C 163.132812 90.566406 162.394531 88.894531 160.8125 90.167969 C 160.8125 90.167969 160.636719 90.347656 161.09375 90.808594 "/>
<path style=" stroke:none;fill-rule:nonzero;fill:rgb(46.269226%,76.469421%,18.818665%);fill-opacity:1;" d="M 161.644531 90.644531 C 161.644531 90.644531 164.160156 89.308594 164.371094 87.976562 C 164.371094 87.976562 163.324219 89.136719 162.914062 89.027344 C 162.914062 89.027344 161.21875 88.371094 160.988281 90.390625 C 160.988281 90.390625 160.992188 90.644531 161.644531 90.644531 "/>
<path style=" stroke:none;fill-rule:nonzero;fill:rgb(46.269226%,76.469421%,18.818665%);fill-opacity:1;" d="M 161.644531 90.644531 C 161.644531 90.644531 164.160156 89.308594 164.371094 87.976562 C 164.371094 87.976562 163.324219 89.136719 162.914062 89.027344 C 162.914062 89.027344 161.21875 88.371094 160.988281 90.390625 C 160.988281 90.390625 160.992188 90.644531 161.644531 90.644531 "/>
<path style=" stroke:none;fill-rule:nonzero;fill:rgb(46.269226%,76.469421%,18.818665%);fill-opacity:1;" d="M 160.921875 89.921875 C 160.921875 89.921875 163.074219 88.050781 162.980469 86.710938 C 162.980469 86.710938 162.222656 88.070312 161.800781 88.058594 C 161.800781 88.058594 159.996094 87.796875 160.226562 89.824219 C 160.226562 89.824219 160.285156 90.070312 160.921875 89.921875 "/>
<path style=" stroke:none;fill-rule:nonzero;fill:rgb(46.269226%,76.469421%,18.818665%);fill-opacity:1;" d="M 159.277344 89.289062 C 159.277344 89.289062 158.933594 86.449219 159.894531 85.515625 C 159.894531 85.515625 159.550781 87.039062 159.875 87.3125 C 159.875 87.3125 161.382812 88.339844 159.859375 89.679688 C 159.859375 89.679688 159.652344 89.824219 159.277344 89.289062 "/>
<path style=" stroke:none;fill-rule:nonzero;fill:rgb(72.938538%,16.079712%,16.859436%);fill-opacity:1;" d="M 164.605469 97.800781 C 163.171875 101.539062 160.835938 103.988281 155.308594 101.878906 C 149.554688 99.679688 149.703125 96.324219 151.136719 92.585938 C 152.570312 88.847656 156.339844 87.828125 160.058594 89.269531 C 163.777344 90.710938 166.039062 94.066406 164.605469 97.800781 "/>
<path style=" stroke:none;fill-rule:nonzero;fill:rgb(46.269226%,76.469421%,18.818665%);fill-opacity:1;" d="M 153.117188 95.824219 C 153.117188 95.824219 152.144531 93.132812 152.878906 92.007812 C 152.878906 92.007812 152.878906 93.566406 153.253906 93.765625 C 153.253906 93.765625 154.953125 94.421875 153.769531 96.074219 C 153.769531 96.074219 153.597656 96.261719 153.117188 95.824219 "/>
<path style=" stroke:none;fill-rule:nonzero;fill:rgb(46.269226%,76.469421%,18.818665%);fill-opacity:1;" d="M 153.257812 96.257812 C 153.257812 96.257812 150.679688 95.042969 150.40625 93.726562 C 150.40625 93.726562 151.507812 94.832031 151.910156 94.703125 C 151.910156 94.703125 153.574219 93.960938 153.902344 95.96875 C 153.902344 95.96875 153.910156 96.222656 153.257812 96.257812 "/>
<path style=" stroke:none;fill-rule:nonzero;fill:rgb(46.269226%,76.469421%,18.818665%);fill-opacity:1;" d="M 155.75 97.355469 C 155.75 97.355469 158.472656 98.195312 159.554688 97.402344 C 159.554688 97.402344 158.003906 97.476562 157.789062 97.109375 C 157.789062 97.109375 157.050781 95.4375 155.464844 96.710938 C 155.464844 96.710938 155.289062 96.886719 155.75 97.355469 "/>
<path style=" stroke:none;fill-rule:nonzero;fill:rgb(46.269226%,76.469421%,18.818665%);fill-opacity:1;" d="M 156.300781 97.1875 C 156.300781 97.1875 158.816406 95.851562 159.023438 94.519531 C 159.023438 94.519531 157.980469 95.679688 157.570312 95.570312 C 157.570312 95.570312 155.875 94.914062 155.648438 96.933594 C 155.648438 96.933594 155.648438 97.1875 156.300781 97.1875 "/>
<path style=" stroke:none;fill-rule:nonzero;fill:rgb(46.269226%,76.469421%,18.818665%);fill-opacity:1;" d="M 156.300781 97.1875 C 156.300781 97.1875 158.816406 95.851562 159.023438 94.519531 C 159.023438 94.519531 157.980469 95.679688 157.570312 95.570312 C 157.570312 95.570312 155.875 94.914062 155.648438 96.933594 C 155.648438 96.933594 155.648438 97.1875 156.300781 97.1875 "/>
<path style=" stroke:none;fill-rule:nonzero;fill:rgb(46.269226%,76.469421%,18.818665%);fill-opacity:1;" d="M 155.578125 96.464844 C 155.578125 96.464844 157.730469 94.59375 157.636719 93.253906 C 157.636719 93.253906 156.878906 94.613281 156.457031 94.601562 C 156.457031 94.601562 154.652344 94.339844 154.882812 96.367188 C 154.882812 96.367188 154.941406 96.613281 155.578125 96.464844 "/>
<path style=" stroke:none;fill-rule:nonzero;fill:rgb(46.269226%,76.469421%,18.818665%);fill-opacity:1;" d="M 153.933594 95.832031 C 153.933594 95.832031 153.589844 92.992188 154.550781 92.058594 C 154.550781 92.058594 154.207031 93.582031 154.527344 93.855469 C 154.527344 93.855469 156.039062 94.878906 154.515625 96.222656 C 154.515625 96.222656 154.308594 96.367188 153.933594 95.832031 "/>
<path style=" stroke:none;fill-rule:nonzero;fill:rgb(66.668701%,15.289307%,15.289307%);fill-opacity:1;" d="M 159.261719 104.34375 C 157.828125 108.082031 155.492188 110.53125 149.964844 108.421875 C 144.207031 106.222656 144.359375 102.867188 145.792969 99.128906 C 147.226562 95.394531 150.996094 94.371094 154.714844 95.8125 C 158.433594 97.253906 160.695312 100.609375 159.261719 104.34375 "/>
<path style=" stroke:none;fill-rule:nonzero;fill:rgb(46.269226%,76.469421%,18.818665%);fill-opacity:1;" d="M 161.089844 98.410156 C 161.089844 98.410156 158.691406 96.871094 158.589844 95.53125 C 158.589844 95.53125 159.535156 96.765625 159.953125 96.691406 C 159.953125 96.691406 161.703125 96.175781 161.761719 98.210938 C 161.761719 98.210938 161.738281 98.464844 161.089844 98.410156 "/>
<path style=" stroke:none;fill-rule:nonzero;fill:rgb(46.269226%,76.469421%,18.818665%);fill-opacity:1;" d="M 161.464844 98.664062 C 161.464844 98.664062 158.683594 99.28125 157.671875 98.40625 C 157.671875 98.40625 159.210938 98.605469 159.453125 98.257812 C 159.453125 98.257812 160.324219 96.648438 161.800781 98.046875 C 161.800781 98.046875 161.960938 98.242188 161.464844 98.664062 "/>
<path style=" stroke:none;fill-rule:nonzero;fill:rgb(46.269226%,76.469421%,18.818665%);fill-opacity:1;" d="M 164.105469 98.015625 C 164.105469 98.015625 166.777344 97.019531 167.15625 95.730469 C 167.15625 95.730469 165.972656 96.738281 165.578125 96.574219 C 165.578125 96.574219 163.980469 95.699219 163.492188 97.679688 C 163.492188 97.679688 163.460938 97.929688 164.105469 98.015625 "/>
<path style=" stroke:none;fill-rule:nonzero;fill:rgb(46.269226%,76.469421%,18.818665%);fill-opacity:1;" d="M 164.445312 97.546875 C 164.445312 97.546875 165.628906 94.949219 164.992188 93.765625 C 164.992188 93.765625 164.863281 95.324219 164.472656 95.484375 C 164.472656 95.484375 162.726562 96.003906 163.769531 97.746094 C 163.769531 97.746094 163.929688 97.945312 164.445312 97.546875 "/>
<path style=" stroke:none;fill-rule:nonzero;fill:rgb(46.269226%,76.469421%,18.818665%);fill-opacity:1;" d="M 164.445312 97.546875 C 164.445312 97.546875 165.628906 94.949219 164.992188 93.765625 C 164.992188 93.765625 164.863281 95.324219 164.472656 95.484375 C 164.472656 95.484375 162.726562 96.003906 163.769531 97.746094 C 163.769531 97.746094 163.929688 97.945312 164.445312 97.546875 "/>
<path style=" stroke:none;fill-rule:nonzero;fill:rgb(46.269226%,76.469421%,18.818665%);fill-opacity:1;" d="M 163.429688 97.417969 C 163.429688 97.417969 164.007812 94.617188 163.121094 93.609375 C 163.121094 93.609375 163.34375 95.152344 163 95.402344 C 163 95.402344 161.410156 96.296875 162.820312 97.761719 C 162.820312 97.761719 163.019531 97.921875 163.429688 97.417969 "/>
<path style=" stroke:none;fill-rule:nonzero;fill:rgb(46.269226%,76.469421%,18.818665%);fill-opacity:1;" d="M 161.746094 97.914062 C 161.746094 97.914062 159.75 95.871094 159.949219 94.542969 C 159.949219 94.542969 160.597656 95.960938 161.019531 95.988281 C 161.019531 95.988281 162.839844 95.875 162.441406 97.871094 C 162.441406 97.871094 162.363281 98.113281 161.746094 97.914062 "/>
<path style=" stroke:none;fill-rule:nonzero;fill:rgb(72.938538%,16.079712%,16.859436%);fill-opacity:1;" d="M 171.128906 101.417969 C 172.253906 105.261719 171.882812 108.636719 166.214844 110.335938 C 160.3125 112.109375 158.402344 109.351562 157.28125 105.511719 C 156.15625 101.667969 158.53125 98.554688 162.355469 97.421875 C 166.179688 96.292969 170.003906 97.574219 171.128906 101.417969 "/>
<g clip-path="url(#clip1)" clip-rule="nonzero">
<path style=" stroke:none;fill-rule:nonzero;fill:rgb(74.899292%,47.44873%,32.159424%);fill-opacity:1;" d="M 172.632812 105.882812 L 172.632812 107.339844 L 169.097656 115.777344 C 160.914062 118.199219 148.445312 118.695312 137.695312 115.777344 L 134.160156 107.339844 L 134.160156 105.882812 C 134.160156 105.882812 155.113281 108.511719 172.632812 105.882812 "/>
</g>
<path style=" stroke:none;fill-rule:nonzero;fill:rgb(89.019775%,70.588684%,28.239441%);fill-opacity:1;" d="M 90.757812 24.769531 C 90.757812 24.769531 88.757812 18.535156 90.355469 15.1875 C 91.957031 11.835938 97.691406 5.542969 106.757812 7.148438 C 106.757812 7.148438 111.824219 9.628906 114.324219 13.378906 L 90.757812 24.769531 "/>
<path style=" stroke:none;fill-rule:nonzero;fill:rgb(69.018555%,47.839355%,19.219971%);fill-opacity:1;" d="M 84.070312 28.621094 C 84.070312 28.621094 51.699219 51.671875 75.515625 48.972656 C 75.515625 48.972656 124.527344 38.378906 137.246094 12.363281 C 137.246094 12.363281 146.679688 0.0546875 119.074219 12.363281 L 84.070312 28.621094 "/>
<path style=" stroke:none;fill-rule:nonzero;fill:rgb(23.139954%,10.978699%,9.01947%);fill-opacity:1;" d="M 111.269531 45.410156 C 111.269531 45.410156 113.429688 49.371094 116.730469 54.769531 C 120.027344 60.167969 117.472656 67.800781 117.472656 67.800781 C 115.117188 90.472656 82.757812 84.988281 82.757812 84.988281 C 91.546875 84.890625 85.996094 76.160156 85.996094 76.160156 C 79.996094 67.980469 88.039062 57.722656 92.230469 53.8125 C 96.152344 50.148438 93.550781 41.449219 93.550781 41.449219 C 93.550781 41.449219 90.644531 36.730469 93.007812 32.570312 L 98.015625 32.570312 L 111.269531 45.410156 "/>
<path style=" stroke:none;fill-rule:nonzero;fill:rgb(15.289307%,7.058716%,6.669617%);fill-opacity:1;" d="M 79.464844 214.371094 C 79.464844 214.371094 78.832031 215.125 79.289062 217.894531 C 79.289062 217.894531 79.320312 219.257812 84.59375 219.460938 C 84.59375 219.460938 87.660156 220.140625 89.304688 220.882812 C 90.953125 221.628906 96.277344 222.503906 98.917969 221.761719 C 98.917969 221.761719 99.527344 219.832031 97.238281 218.316406 C 97.238281 218.316406 92.664062 217.316406 88.285156 213.457031 C 88.285156 213.457031 84.449219 201.800781 79.464844 214.371094 "/>
<g clip-path="url(#clip2)" clip-rule="nonzero">
<path style=" stroke:none;fill-rule:nonzero;fill:rgb(15.289307%,7.058716%,6.669617%);fill-opacity:1;" d="M 118.230469 216.800781 C 118.230469 216.800781 117.597656 217.554688 118.054688 220.324219 C 118.054688 220.324219 117.238281 221.65625 122.507812 221.863281 C 122.507812 221.863281 125.578125 222.539062 127.222656 223.285156 C 128.871094 224.03125 134.195312 224.902344 136.835938 224.164062 C 136.835938 224.164062 137.445312 222.230469 135.152344 220.71875 C 135.152344 220.71875 130.414062 219.152344 126.035156 215.292969 C 126.035156 215.292969 121.601562 204.300781 118.230469 216.800781 "/>
</g>
<path style=" stroke:none;fill-rule:nonzero;fill:rgb(82.749939%,50.979614%,33.729553%);fill-opacity:1;" d="M 100.585938 179.257812 C 100.585938 179.257812 98.339844 172.445312 94.554688 173.640625 C 91.945312 174.464844 87.480469 195.890625 83.949219 208.148438 L 88.59375 213.082031 C 88.59375 213.082031 99.523438 182.988281 100.585938 179.257812 "/>
<path style=" stroke:none;fill-rule:nonzero;fill:rgb(74.508667%,46.269226%,30.589294%);fill-opacity:1;" d="M 122.65625 174.5625 C 122.65625 174.5625 119.792969 173.09375 116.757812 175.777344 C 114.664062 177.621094 118.734375 201.152344 120.003906 213.902344 L 124.542969 212.964844 C 124.542969 212.964844 123.050781 178.433594 122.65625 174.5625 "/>
<path style=" stroke:none;fill-rule:nonzero;fill:rgb(74.508667%,46.269226%,30.589294%);fill-opacity:1;" d="M 108.261719 121.757812 C 108.261719 121.757812 113.191406 167.261719 116.070312 179.257812 L 122.933594 178.5625 C 122.933594 178.5625 123.15625 134.445312 121.234375 120.445312 L 108.261719 121.757812 "/>
<path style=" stroke:none;fill-rule:nonzero;fill:rgb(82.749939%,50.979614%,33.729553%);fill-opacity:1;" d="M 95.046875 109.21875 C 95.046875 109.21875 91.3125 119.882812 94 132.007812 C 94 132.007812 116.539062 133.511719 121.410156 131.03125 C 121.410156 131.03125 124.511719 113.824219 120.9375 108.714844 L 95.046875 109.21875 "/>
<path style=" stroke:none;fill-rule:nonzero;fill:rgb(82.749939%,50.979614%,33.729553%);fill-opacity:1;" d="M 93.863281 121.96875 C 93.863281 121.96875 92.28125 167.761719 93.414062 180.105469 L 100.300781 180.621094 C 100.300781 180.621094 109.574219 137.308594 109.789062 123.160156 L 93.863281 121.96875 "/>
<path style=" stroke:none;fill-rule:nonzero;fill:rgb(16.859436%,14.509583%,11.369324%);fill-opacity:1;" d="M 93.78125 112.9375 C 93.78125 112.9375 91.148438 126.4375 92.269531 132.457031 C 92.269531 132.457031 91.136719 134.757812 92.269531 136.398438 C 92.269531 136.398438 90.101562 168.214844 91.757812 174.160156 C 91.757812 174.160156 88.851562 175.839844 91.136719 177.976562 C 91.136719 177.976562 82.679688 207.472656 81.757812 208.632812 C 81.757812 208.632812 86.84375 215.90625 89.847656 213.082031 C 89.847656 213.082031 101.640625 182.15625 102.796875 175.1875 L 109.113281 135.078125 C 109.113281 135.078125 113.316406 174.507812 115.457031 179.257812 C 115.457031 179.257812 114.304688 179.632812 115.601562 180.621094 C 115.601562 180.621094 114.859375 181.683594 115.601562 182.386719 C 115.601562 182.386719 117.515625 201.59375 119.445312 213.898438 C 119.445312 213.898438 121.910156 215.753906 125.300781 213.082031 C 125.300781 213.082031 123.640625 133.6875 122.660156 126.796875 C 122.660156 126.796875 123.546875 126.203125 122.941406 125.089844 C 122.941406 125.089844 123.128906 114.253906 122.941406 112.9375 L 93.78125 112.9375 "/>
<path style=" stroke:none;fill-rule:nonzero;fill:rgb(74.508667%,46.269226%,30.589294%);fill-opacity:1;" d="M 123.96875 59.890625 C 123.96875 59.890625 134.527344 83.605469 138.394531 92.1875 C 138.394531 92.1875 137.816406 97.101562 133.175781 95.171875 C 133.175781 95.171875 124.417969 84.957031 119.609375 73.386719 C 119.609375 73.386719 115.535156 57.191406 123.96875 59.890625 "/>
<path style=" stroke:none;fill-rule:nonzero;fill:rgb(69.018555%,18.03894%,18.818665%);fill-opacity:1;" d="M 125.753906 87.976562 C 125.753906 87.976562 133.316406 84.523438 134.855469 81.117188 L 123.96875 59.890625 L 115.601562 65.011719 L 125.753906 87.976562 "/>
<path style=" stroke:none;fill-rule:nonzero;fill:rgb(82.749939%,50.979614%,33.729553%);fill-opacity:1;" d="M 103.398438 56.53125 C 103.398438 56.53125 93.027344 57.421875 88.773438 61.390625 C 88.773438 61.390625 88.261719 81.425781 96.0625 92.574219 C 96.0625 92.574219 97.257812 104.265625 93.96875 113.40625 C 93.96875 113.40625 115.78125 117.566406 122.214844 112.148438 C 122.214844 112.148438 119.5 96.539062 121.039062 90.097656 C 121.039062 90.097656 126.6875 76.46875 122.976562 59.585938 L 112.382812 57.304688 L 103.398438 56.53125 "/>
<path style=" stroke:none;fill-rule:nonzero;fill:rgb(91.758728%,26.669312%,21.569824%);fill-opacity:1;" d="M 88.261719 62.214844 C 88.261719 62.214844 87.328125 82.3125 96.0625 93.25 C 96.0625 93.25 95.550781 105.5 94.164062 108.714844 C 94.164062 108.714844 91.726562 113.449219 93.640625 115.246094 C 93.640625 115.246094 118.121094 119.792969 122.941406 114.933594 C 122.941406 114.933594 124.546875 111.332031 122.941406 108.714844 C 121.339844 106.097656 120.828125 97.296875 121.058594 91.453125 C 121.058594 91.453125 129.269531 82.949219 123.96875 59.890625 C 123.96875 59.890625 115.894531 56.398438 103.257812 56.214844 C 103.257812 56.214844 89.910156 57.40625 88.261719 62.214844 "/>
<path style=" stroke:none;fill-rule:nonzero;fill:rgb(82.749939%,50.979614%,33.729553%);fill-opacity:1;" d="M 101.234375 40.925781 C 101.234375 40.925781 103.394531 55.722656 101.234375 57.421875 C 101.234375 57.421875 112.65625 64.933594 116.316406 59.207031 L 112.382812 57.304688 C 112.382812 57.304688 110.945312 53.359375 112.179688 48.597656 L 101.234375 40.925781 "/>
<path style=" stroke:none;fill-rule:nonzero;fill:rgb(94.898987%,62.348938%,40.388489%);fill-opacity:1;" d="M 88.261719 62.214844 C 88.261719 62.214844 91.890625 76.761719 109.058594 97.808594 C 109.058594 97.808594 112.515625 97.488281 114.210938 95.734375 C 114.210938 95.734375 95.992188 48.054688 88.261719 62.214844 "/>
<path style=" stroke:none;fill-rule:nonzero;fill:rgb(79.60968%,23.139954%,20.779419%);fill-opacity:1;" d="M 112.085938 85.730469 C 112.085938 85.730469 106.503906 91.453125 101.398438 90.640625 C 101.398438 90.640625 87.65625 68.339844 88.230469 62.882812 C 88.230469 62.882812 87.308594 59.980469 92.507812 58.933594 C 92.507812 58.933594 103.679688 63.640625 112.085938 85.730469 "/>
<path style=" stroke:none;fill-rule:nonzero;fill:rgb(94.898987%,62.348938%,40.388489%);fill-opacity:1;" d="M 109.058594 97.808594 C 109.058594 97.808594 112.046875 102.121094 136.480469 112.222656 L 138.996094 108.691406 C 138.996094 108.691406 122.15625 98.304688 111.246094 93.25 L 109.058594 97.808594 "/>
<path style=" stroke:none;fill-rule:nonzero;fill:rgb(94.898987%,62.348938%,40.388489%);fill-opacity:1;" d="M 136.179688 112.097656 C 136.179688 112.097656 140.535156 115.4375 143.894531 115.773438 C 143.894531 115.773438 149 117.277344 150.441406 117.171875 C 150.441406 117.171875 151.457031 116.890625 150.601562 116.507812 C 150.601562 116.507812 145.640625 115.15625 144.554688 114.84375 C 144.554688 114.84375 145.320312 114.878906 145.511719 114.796875 C 145.511719 114.796875 151.105469 116.210938 151.808594 115.988281 C 151.808594 115.988281 152.953125 115.699219 151.855469 115.085938 L 145.378906 113.40625 C 145.378906 113.40625 152.089844 114.667969 152.90625 114.480469 C 152.90625 114.480469 153.859375 114.109375 153.109375 113.664062 L 145.972656 112.207031 C 145.972656 112.207031 151.847656 112.835938 152.292969 112.945312 C 152.292969 112.945312 153.265625 112.664062 152.519531 112.007812 C 152.519531 112.007812 147.089844 110.96875 146.230469 110.804688 C 146.230469 110.804688 143.726562 109.230469 143.039062 109.066406 C 143.039062 109.066406 143.605469 108.683594 144.191406 108.398438 C 144.191406 108.398438 146.125 108.226562 146.101562 107.265625 C 146.101562 107.265625 144.265625 107.378906 143.902344 107.289062 C 143.902344 107.289062 140.789062 107.691406 140.304688 108.085938 C 140.304688 108.085938 138.847656 108.507812 138.082031 108.183594 L 136.179688 112.097656 "/>
<path style=" stroke:none;fill-rule:nonzero;fill:rgb(94.898987%,62.348938%,40.388489%);fill-opacity:1;" d="M 123.949219 35.832031 C 123.949219 26.425781 122.882812 18.835938 112.710938 19.246094 C 105.839844 19.523438 100.070312 26.871094 100.261719 36.273438 C 100.265625 36.460938 100.269531 36.640625 100.277344 36.824219 C 99.40625 35.996094 98.410156 35.628906 97.566406 35.945312 C 96.078125 36.503906 95.617188 38.96875 96.539062 41.449219 C 97.460938 43.933594 99.414062 45.492188 100.902344 44.933594 C 101.085938 44.863281 101.25 44.765625 101.398438 44.648438 C 105.105469 56.070312 115.175781 55.125 115.175781 55.125 C 124.902344 53.976562 123.949219 35.832031 123.949219 35.832031 "/>
<path style=" stroke:none;fill-rule:nonzero;fill:rgb(11.759949%,5.879211%,5.879211%);fill-opacity:1;" d="M 108.011719 34.660156 C 108.011719 34.660156 108.058594 34.558594 108.167969 34.40625 C 108.277344 34.25 108.453125 34.03125 108.710938 33.824219 C 108.835938 33.710938 108.984375 33.609375 109.148438 33.507812 C 109.316406 33.417969 109.492188 33.308594 109.691406 33.238281 C 109.890625 33.167969 110.097656 33.089844 110.320312 33.054688 C 110.539062 33.003906 110.769531 33.007812 111 32.988281 C 111.226562 32.996094 111.453125 33.023438 111.675781 33.050781 C 111.890625 33.097656 112.101562 33.160156 112.300781 33.226562 C 112.492188 33.300781 112.675781 33.394531 112.847656 33.472656 C 113.015625 33.5625 113.160156 33.667969 113.292969 33.761719 C 113.574219 33.933594 113.753906 34.148438 113.890625 34.277344 C 114.023438 34.414062 114.09375 34.492188 114.09375 34.492188 C 114.09375 34.492188 113.988281 34.457031 113.816406 34.390625 C 113.632812 34.332031 113.410156 34.203125 113.109375 34.117188 C 112.964844 34.0625 112.808594 34.011719 112.644531 33.953125 C 112.476562 33.910156 112.304688 33.871094 112.125 33.816406 C 111.949219 33.773438 111.757812 33.761719 111.570312 33.71875 C 111.382812 33.703125 111.1875 33.6875 111 33.6875 C 110.808594 33.699219 110.613281 33.683594 110.429688 33.722656 C 110.242188 33.746094 110.054688 33.773438 109.878906 33.824219 C 109.527344 33.910156 109.199219 34.03125 108.925781 34.160156 C 108.371094 34.414062 108.011719 34.660156 108.011719 34.660156 "/>
<path style=" stroke:none;fill-rule:nonzero;fill:rgb(11.759949%,5.879211%,5.879211%);fill-opacity:1;" d="M 119.074219 34.492188 C 119.074219 34.492188 119.109375 34.167969 119.378906 33.769531 C 119.507812 33.566406 119.707031 33.355469 119.976562 33.175781 C 120.117188 33.105469 120.261719 33.007812 120.4375 32.976562 C 120.605469 32.921875 120.785156 32.917969 120.964844 32.910156 C 121.140625 32.933594 121.320312 32.960938 121.480469 33.019531 C 121.632812 33.085938 121.792969 33.148438 121.914062 33.246094 C 122.175781 33.414062 122.363281 33.625 122.507812 33.8125 C 122.65625 33.992188 122.730469 34.179688 122.796875 34.296875 C 122.851562 34.417969 122.882812 34.492188 122.882812 34.492188 C 122.882812 34.492188 122.808594 34.457031 122.691406 34.390625 C 122.574219 34.328125 122.425781 34.210938 122.238281 34.109375 C 122.144531 34.054688 122.042969 34 121.945312 33.9375 C 121.84375 33.878906 121.726562 33.84375 121.621094 33.785156 C 121.511719 33.710938 121.386719 33.714844 121.277344 33.664062 C 121.164062 33.625 121.046875 33.621094 120.929688 33.609375 C 120.820312 33.609375 120.703125 33.597656 120.589844 33.632812 C 120.480469 33.644531 120.367188 33.6875 120.257812 33.71875 C 120.152344 33.777344 120.039062 33.808594 119.945312 33.871094 C 119.84375 33.925781 119.753906 33.988281 119.664062 34.042969 C 119.316406 34.285156 119.074219 34.492188 119.074219 34.492188 "/>
<path style=" stroke:none;fill-rule:nonzero;fill:rgb(23.139954%,10.978699%,9.01947%);fill-opacity:1;" d="M 119.148438 40.515625 L 119.808594 41.15625 C 120.015625 41.367188 120.230469 41.554688 120.4375 41.757812 L 120.558594 41.875 L 120.519531 42.007812 C 120.445312 42.25 120.339844 42.453125 120.226562 42.664062 C 120.105469 42.871094 119.960938 43.058594 119.800781 43.230469 C 119.628906 43.402344 119.441406 43.550781 119.226562 43.65625 C 119.117188 43.699219 119.007812 43.746094 118.894531 43.769531 C 118.785156 43.808594 118.664062 43.800781 118.554688 43.8125 C 118.765625 43.722656 118.957031 43.625 119.121094 43.484375 C 119.277344 43.339844 119.421875 43.1875 119.539062 43.015625 C 119.660156 42.84375 119.757812 42.65625 119.84375 42.464844 C 119.933594 42.277344 120.007812 42.066406 120.058594 41.882812 L 120.136719 42.132812 C 120.015625 42.023438 119.882812 41.929688 119.777344 41.808594 C 119.667969 41.6875 119.5625 41.5625 119.476562 41.425781 C 119.386719 41.292969 119.3125 41.144531 119.253906 40.992188 C 119.203125 40.839844 119.152344 40.683594 119.148438 40.515625 "/>
<path style=" stroke:none;fill-rule:nonzero;fill:rgb(23.139954%,10.978699%,9.01947%);fill-opacity:1;" d="M 97.234375 39.746094 C 97.203125 39.542969 97.199219 39.335938 97.210938 39.125 C 97.226562 38.917969 97.246094 38.707031 97.300781 38.492188 C 97.324219 38.390625 97.359375 38.285156 97.410156 38.179688 C 97.449219 38.078125 97.511719 37.976562 97.585938 37.878906 C 97.644531 37.773438 97.757812 37.695312 97.859375 37.613281 C 97.964844 37.539062 98.105469 37.503906 98.234375 37.460938 C 98.363281 37.457031 98.5 37.449219 98.628906 37.464844 C 98.742188 37.496094 98.863281 37.53125 98.980469 37.570312 C 99.089844 37.609375 99.179688 37.675781 99.28125 37.726562 C 99.378906 37.78125 99.484375 37.835938 99.566406 37.90625 C 99.734375 38.039062 99.917969 38.164062 100.066406 38.316406 L 100.515625 38.769531 L 100.542969 38.808594 L 100.550781 38.820312 C 100.789062 39.21875 100.964844 39.617188 101.125 40.042969 C 101.269531 40.46875 101.386719 40.910156 101.421875 41.371094 C 101.445312 41.597656 101.4375 41.832031 101.417969 42.066406 L 101.34375 42.410156 C 101.316406 42.523438 101.265625 42.632812 101.222656 42.742188 C 101.191406 42.851562 101.105469 42.945312 101.046875 43.046875 C 100.988281 43.144531 100.90625 43.230469 100.816406 43.304688 C 100.730469 43.378906 100.652344 43.460938 100.550781 43.507812 L 100.257812 43.660156 L 100.480469 43.425781 C 100.5625 43.359375 100.609375 43.257812 100.664062 43.175781 C 100.722656 43.089844 100.777344 43.007812 100.804688 42.90625 C 100.835938 42.8125 100.890625 42.730469 100.894531 42.625 C 100.914062 42.527344 100.9375 42.433594 100.945312 42.335938 L 100.949219 42.039062 C 100.933594 41.839844 100.925781 41.644531 100.875 41.445312 C 100.789062 41.054688 100.671875 40.660156 100.503906 40.28125 C 100.355469 39.902344 100.160156 39.523438 99.960938 39.179688 L 100 39.230469 L 99.597656 38.808594 C 99.46875 38.660156 99.3125 38.5625 99.179688 38.425781 C 99.109375 38.351562 99.035156 38.3125 98.960938 38.261719 C 98.882812 38.21875 98.808594 38.15625 98.738281 38.121094 C 98.660156 38.09375 98.585938 38.0625 98.511719 38.027344 L 98.300781 37.992188 C 98.238281 38.015625 98.167969 38.007812 98.105469 38.042969 C 98.046875 38.085938 97.972656 38.101562 97.917969 38.171875 C 97.792969 38.277344 97.699219 38.445312 97.609375 38.609375 C 97.425781 38.953125 97.328125 39.347656 97.234375 39.746094 "/>
<path style=" stroke:none;fill-rule:nonzero;fill:rgb(23.139954%,10.978699%,9.01947%);fill-opacity:1;" d="M 98.699219 40.691406 C 98.699219 40.691406 98.570312 40.527344 98.484375 40.222656 C 98.445312 40.070312 98.410156 39.886719 98.449219 39.671875 C 98.46875 39.566406 98.492188 39.445312 98.5625 39.339844 C 98.621094 39.230469 98.710938 39.136719 98.816406 39.058594 C 98.925781 39 99.046875 38.929688 99.160156 38.921875 C 99.277344 38.898438 99.390625 38.894531 99.488281 38.910156 C 99.699219 38.921875 99.863281 39 100.011719 39.054688 C 100.148438 39.113281 100.25 39.203125 100.324219 39.242188 C 100.398438 39.292969 100.4375 39.328125 100.4375 39.328125 C 100.4375 39.328125 100.386719 39.335938 100.296875 39.332031 C 100.210938 39.328125 100.089844 39.320312 99.945312 39.3125 C 99.890625 39.316406 99.835938 39.316406 99.777344 39.3125 C 99.683594 39.308594 99.582031 39.308594 99.488281 39.324219 C 99.402344 39.316406 99.332031 39.347656 99.261719 39.359375 C 99.183594 39.367188 99.136719 39.414062 99.078125 39.441406 C 99.027344 39.480469 98.972656 39.519531 98.941406 39.574219 C 98.90625 39.628906 98.867188 39.695312 98.847656 39.765625 C 98.792969 39.90625 98.773438 40.066406 98.75 40.203125 C 98.710938 40.480469 98.699219 40.691406 98.699219 40.691406 "/>
<path style=" stroke:none;fill-rule:nonzero;fill:rgb(23.139954%,10.978699%,9.01947%);fill-opacity:1;" d="M 113.304688 37.976562 C 113.304688 38.910156 112.773438 39.667969 112.113281 39.667969 C 111.457031 39.667969 110.921875 38.910156 110.921875 37.976562 C 110.921875 37.046875 111.457031 36.289062 112.113281 36.289062 C 112.773438 36.289062 113.304688 37.046875 113.304688 37.976562 "/>
<path style=" stroke:none;fill-rule:nonzero;fill:rgb(23.139954%,10.978699%,9.01947%);fill-opacity:1;" d="M 121.058594 37.976562 C 121.058594 38.910156 120.714844 39.667969 120.289062 39.667969 C 119.863281 39.667969 119.515625 38.910156 119.515625 37.976562 C 119.515625 37.046875 119.863281 36.289062 120.289062 36.289062 C 120.714844 36.289062 121.058594 37.046875 121.058594 37.976562 "/>
<path style=" stroke:none;fill-rule:nonzero;fill:rgb(23.139954%,10.978699%,9.01947%);fill-opacity:1;" d="M 100.261719 37.175781 C 100.261719 37.175781 110.234375 35.785156 110.097656 22.285156 C 110.097656 22.285156 114.167969 35.859375 123.992188 36.289062 C 123.992188 36.289062 130.421875 15.613281 110.019531 16.777344 C 110.019531 16.777344 92.855469 18.054688 96.335938 37.300781 C 96.335938 37.300781 97.304688 35.386719 98.609375 36.023438 C 98.984375 36.203125 99.5625 36.554688 100.261719 37.175781 "/>
<path style=" stroke:none;fill-rule:nonzero;fill:rgb(23.139954%,7.058716%,7.058716%);fill-opacity:1;" d="M 113.074219 45.210938 C 113.074219 45.210938 117.113281 45.472656 119.515625 45.394531 L 118.679688 47.867188 C 118.679688 47.867188 113.742188 48.34375 113.074219 45.210938 "/>
<path style=" stroke:none;fill-rule:nonzero;fill:rgb(89.019775%,36.468506%,51.368713%);fill-opacity:1;" d="M 116.648438 47.804688 C 116.300781 45.464844 114.074219 45.566406 113.222656 45.691406 C 113.792969 47.097656 115.34375 47.621094 116.648438 47.804688 "/>
<path style=" stroke:none;fill-rule:nonzero;fill:rgb(100%,100%,100%);fill-opacity:1;" d="M 119.558594 45.300781 L 119.355469 46.242188 C 119.355469 46.242188 114.332031 46.65625 113.074219 45.210938 C 113.074219 45.210938 118.261719 45.398438 119.558594 45.300781 "/>
<path style=" stroke:none;fill-rule:nonzero;fill:rgb(81.568909%,54.508972%,25.489807%);fill-opacity:1;" d="M 121.058594 16.730469 C 121.058594 16.730469 103.527344 37.300781 85.222656 37.300781 C 85.222656 37.300781 71.816406 37.398438 67.882812 43.8125 C 67.882812 43.8125 80.222656 16.078125 136.179688 6.789062 C 136.179688 6.789062 124.527344 11.339844 121.058594 16.730469 "/>
<path style=" stroke:none;fill-rule:nonzero;fill:rgb(77.648926%,78.039551%,77.249146%);fill-opacity:1;" d="M 97.238281 218.316406 C 97.21875 218.3125 92.855469 217.355469 88.578125 213.710938 C 88.578125 213.710938 88.582031 213.707031 88.582031 213.707031 C 92.859375 217.347656 97.21875 218.3125 97.238281 218.316406 M 79.472656 214.355469 C 79.472656 214.351562 79.472656 214.351562 79.472656 214.347656 C 79.472656 214.351562 79.472656 214.351562 79.472656 214.355469 M 79.476562 214.34375 C 79.480469 214.339844 79.480469 214.335938 79.480469 214.332031 C 79.480469 214.335938 79.476562 214.339844 79.476562 214.34375 M 79.480469 214.332031 C 80.042969 212.921875 80.585938 211.824219 81.113281 210.976562 C 80.585938 211.824219 80.042969 212.921875 79.480469 214.332031 M 89.667969 213.234375 C 89.730469 213.1875 89.789062 213.136719 89.847656 213.082031 C 89.847656 213.082031 101.640625 182.15625 102.796875 175.1875 C 101.640625 182.15625 89.847656 213.082031 89.847656 213.082031 C 89.789062 213.136719 89.730469 213.1875 89.667969 213.234375 M 81.117188 210.972656 L 81.117188 210.972656 M 92.265625 132.445312 C 92.265625 132.445312 92.265625 132.445312 92.265625 132.441406 C 92.265625 132.445312 92.265625 132.445312 92.265625 132.445312 M 92.265625 132.4375 C 91.664062 129.167969 92.15625 123.707031 92.738281 119.394531 C 92.15625 123.707031 91.664062 129.167969 92.265625 132.4375 M 96.046875 93.230469 C 96.042969 93.226562 96.042969 93.222656 96.039062 93.21875 C 96.042969 93.222656 96.046875 93.226562 96.046875 93.230469 M 96.027344 93.203125 C 96.023438 93.199219 96.019531 93.195312 96.015625 93.1875 C 96.019531 93.195312 96.023438 93.199219 96.027344 93.203125 M 96.011719 93.179688 C 96.003906 93.175781 95.996094 93.164062 95.988281 93.15625 C 95.996094 93.164062 96.003906 93.175781 96.011719 93.179688 M 95.988281 93.152344 C 95.976562 93.136719 95.964844 93.121094 95.953125 93.109375 C 95.964844 93.125 95.976562 93.136719 95.988281 93.152344 M 95.945312 93.101562 C 95.941406 93.09375 95.933594 93.089844 95.929688 93.078125 C 95.933594 93.089844 95.941406 93.09375 95.945312 93.101562 M 95.921875 93.070312 C 95.921875 93.066406 95.917969 93.066406 95.914062 93.058594 C 95.917969 93.066406 95.921875 93.066406 95.921875 93.070312 M 95.898438 93.039062 C 95.898438 93.039062 95.894531 93.035156 95.890625 93.035156 C 95.894531 93.035156 95.898438 93.039062 95.898438 93.039062 M 95.878906 93.011719 C 95.875 93.011719 95.875 93.011719 95.875 93.007812 C 95.875 93.011719 95.875 93.011719 95.878906 93.011719 M 92.242188 53.800781 L 92.242188 53.800781 M 75.164062 49.011719 C 75.28125 49 75.398438 48.988281 75.515625 48.972656 C 75.398438 48.988281 75.28125 49 75.164062 49.011719 M 75.519531 48.972656 L 75.519531 48.972656 M 75.519531 48.972656 L 75.523438 48.972656 L 75.519531 48.972656 M 68.425781 48.671875 L 68.425781 48.671875 M 68.410156 48.664062 C 68.40625 48.664062 68.40625 48.660156 68.40625 48.660156 C 68.40625 48.664062 68.40625 48.664062 68.410156 48.664062 M 68.398438 48.65625 C 68.398438 48.65625 68.398438 48.65625 68.394531 48.65625 C 68.394531 48.65625 68.398438 48.65625 68.398438 48.65625 M 68.390625 48.65625 C 68.386719 48.652344 68.378906 48.652344 68.371094 48.648438 C 68.378906 48.652344 68.386719 48.652344 68.390625 48.65625 M 68.371094 48.648438 C 66.429688 47.839844 66.414062 46.203125 67.488281 44.195312 C 66.410156 46.203125 66.425781 47.839844 68.371094 48.648438 M 94.394531 47.472656 C 94.402344 45.96875 94.207031 44.523438 94.003906 43.425781 C 90.292969 44.777344 86.882812 45.871094 84.027344 46.71875 C 86.882812 45.871094 90.292969 44.777344 94.003906 43.425781 C 94.207031 44.519531 94.402344 45.96875 94.394531 47.472656 M 84.011719 46.722656 C 84.015625 46.722656 84.015625 46.722656 84.019531 46.71875 C 84.015625 46.722656 84.015625 46.722656 84.011719 46.722656 M 67.492188 44.191406 L 67.492188 44.191406 "/>
<path style=" stroke:none;fill-rule:nonzero;fill:rgb(54.119873%,37.649536%,16.079712%);fill-opacity:1;" d="M 72.066406 49.191406 C 70.460938 49.191406 69.269531 49.007812 68.425781 48.671875 C 68.421875 48.667969 68.421875 48.667969 68.414062 48.664062 C 68.414062 48.664062 68.410156 48.664062 68.410156 48.664062 C 68.40625 48.664062 68.40625 48.664062 68.40625 48.660156 C 68.402344 48.660156 68.402344 48.65625 68.398438 48.65625 C 68.398438 48.65625 68.394531 48.65625 68.394531 48.65625 C 68.390625 48.65625 68.390625 48.65625 68.390625 48.65625 C 68.386719 48.652344 68.378906 48.652344 68.371094 48.648438 C 66.425781 47.839844 66.410156 46.203125 67.488281 44.195312 C 67.488281 44.195312 67.488281 44.191406 67.492188 44.191406 C 67.785156 43.644531 68.15625 43.078125 68.589844 42.488281 C 68.097656 43.335938 67.882812 43.8125 67.882812 43.8125 C 71.816406 37.398438 85.222656 37.300781 85.222656 37.300781 C 87.535156 37.300781 89.832031 36.972656 92.082031 36.402344 C 92.152344 39.179688 93.550781 41.449219 93.550781 41.449219 C 93.550781 41.449219 93.78125 42.230469 94.003906 43.425781 C 90.292969 44.777344 86.882812 45.871094 84.027344 46.71875 C 84.027344 46.71875 84.023438 46.71875 84.019531 46.71875 C 84.015625 46.722656 84.015625 46.722656 84.011719 46.722656 C 78.980469 48.214844 75.683594 48.9375 75.523438 48.972656 L 75.519531 48.972656 C 75.519531 48.972656 75.515625 48.972656 75.515625 48.972656 C 75.398438 48.988281 75.28125 49 75.164062 49.011719 C 73.996094 49.136719 72.964844 49.191406 72.066406 49.191406 "/>
<path style=" stroke:none;fill-rule:nonzero;fill:rgb(18.429565%,8.628845%,7.449341%);fill-opacity:1;" d="M 90.925781 85.570312 C 86.203125 85.570312 82.757812 84.988281 82.757812 84.988281 C 86.640625 84.945312 87.726562 83.214844 87.726562 81.296875 C 87.726562 78.878906 85.996094 76.160156 85.996094 76.160156 C 84.464844 74.074219 83.847656 71.855469 83.847656 69.640625 C 83.847656 63.164062 89.105469 56.726562 92.230469 53.8125 C 92.234375 53.808594 92.238281 53.804688 92.242188 53.800781 C 93.894531 52.246094 94.382812 49.796875 94.394531 47.484375 C 94.394531 47.480469 94.394531 47.480469 94.394531 47.472656 C 94.402344 45.96875 94.207031 44.519531 94.003906 43.425781 C 93.78125 42.230469 93.550781 41.449219 93.550781 41.449219 C 93.550781 41.449219 92.152344 39.179688 92.082031 36.402344 C 93.414062 36.0625 94.730469 35.640625 96.023438 35.144531 C 96.097656 35.835938 96.203125 36.554688 96.335938 37.300781 C 95.925781 38.375 95.964844 39.910156 96.539062 41.449219 C 97.335938 43.589844 98.898438 45.042969 100.269531 45.042969 C 100.488281 45.042969 100.699219 45.007812 100.902344 44.933594 C 101.085938 44.863281 101.25 44.765625 101.398438 44.648438 C 101.53125 45.050781 101.671875 45.4375 101.816406 45.808594 C 102.175781 49.46875 102.453125 54.199219 101.8125 56.386719 C 99.421875 56.703125 94.585938 57.519531 91.34375 59.226562 C 87.453125 60.4375 88.230469 62.882812 88.230469 62.882812 C 88.207031 63.113281 88.210938 63.371094 88.234375 63.652344 C 88.21875 67.269531 88.511719 77.039062 91.796875 85.5625 C 91.5 85.566406 91.210938 85.570312 90.925781 85.570312 "/>
<path style=" stroke:none;fill-rule:nonzero;fill:rgb(12.159729%,6.269836%,5.879211%);fill-opacity:1;" d="M 96.335938 222.042969 C 93.683594 222.042969 90.511719 221.429688 89.304688 220.882812 C 87.660156 220.140625 84.59375 219.460938 84.59375 219.460938 C 79.332031 219.257812 79.289062 217.902344 79.289062 217.894531 C 79.167969 217.15625 79.125 216.5625 79.125 216.089844 C 79.125 214.777344 79.464844 214.371094 79.464844 214.371094 C 79.464844 214.367188 79.46875 214.359375 79.472656 214.355469 C 79.472656 214.351562 79.472656 214.351562 79.472656 214.347656 C 79.476562 214.347656 79.476562 214.34375 79.476562 214.34375 C 79.476562 214.339844 79.480469 214.335938 79.480469 214.332031 C 80.042969 212.921875 80.585938 211.824219 81.113281 210.976562 C 81.113281 210.976562 81.113281 210.972656 81.117188 210.972656 C 81.535156 210.296875 81.945312 209.78125 82.339844 209.40625 C 83.46875 210.832031 86.042969 213.734375 88.25 213.734375 C 88.359375 213.734375 88.46875 213.726562 88.578125 213.710938 C 92.855469 217.355469 97.21875 218.3125 97.238281 218.316406 C 98.734375 219.304688 98.992188 220.472656 98.992188 221.164062 C 98.992188 221.53125 98.917969 221.761719 98.917969 221.761719 C 98.210938 221.964844 97.308594 222.042969 96.335938 222.042969 "/>
<path style=" stroke:none;fill-rule:nonzero;fill:rgb(13.729858%,11.369324%,9.408569%);fill-opacity:1;" d="M 88.25 213.734375 C 86.042969 213.734375 83.46875 210.832031 82.339844 209.40625 C 81.976562 208.945312 81.761719 208.640625 81.757812 208.632812 C 82.679688 207.472656 91.136719 177.976562 91.136719 177.976562 C 90.488281 177.375 90.257812 176.804688 90.257812 176.304688 C 90.261719 175.027344 91.757812 174.160156 91.757812 174.160156 C 91.300781 172.519531 91.132812 168.898438 91.132812 164.519531 C 91.132812 153.054688 92.269531 136.398438 92.269531 136.398438 C 91.890625 135.851562 91.765625 135.226562 91.765625 134.640625 C 91.765625 133.476562 92.269531 132.457031 92.269531 132.457031 C 92.269531 132.453125 92.265625 132.449219 92.265625 132.445312 C 92.265625 132.445312 92.265625 132.445312 92.265625 132.441406 C 92.265625 132.441406 92.265625 132.4375 92.265625 132.4375 C 91.664062 129.167969 92.15625 123.707031 92.738281 119.394531 C 92.972656 117.675781 93.21875 116.136719 93.410156 114.992188 C 93.476562 115.082031 93.554688 115.167969 93.640625 115.246094 C 93.640625 115.246094 101.40625 116.6875 109.054688 117.082031 L 109.054688 135.488281 L 102.796875 175.1875 C 101.640625 182.15625 89.847656 213.082031 89.847656 213.082031 C 89.789062 213.136719 89.730469 213.1875 89.667969 213.234375 C 89.667969 213.238281 89.667969 213.238281 89.667969 213.238281 C 89.324219 213.507812 88.960938 213.652344 88.582031 213.707031 C 88.582031 213.707031 88.578125 213.710938 88.578125 213.710938 C 88.46875 213.726562 88.359375 213.734375 88.25 213.734375 "/>
<path style=" stroke:none;fill-rule:nonzero;fill:rgb(72.158813%,22.349548%,18.818665%);fill-opacity:1;" d="M 109.054688 117.082031 C 101.40625 116.6875 93.640625 115.246094 93.640625 115.246094 C 93.554688 115.167969 93.476562 115.082031 93.410156 114.992188 C 93.410156 114.988281 93.410156 114.984375 93.414062 114.976562 C 91.957031 113.027344 94.15625 108.734375 94.164062 108.714844 C 95.550781 105.5 96.0625 93.25 96.0625 93.25 C 96.058594 93.242188 96.054688 93.238281 96.046875 93.230469 C 96.046875 93.226562 96.042969 93.222656 96.039062 93.21875 C 96.035156 93.214844 96.03125 93.207031 96.027344 93.203125 C 96.023438 93.199219 96.019531 93.195312 96.015625 93.1875 C 96.011719 93.1875 96.011719 93.183594 96.011719 93.179688 C 96.003906 93.175781 95.996094 93.164062 95.988281 93.15625 C 95.988281 93.15625 95.988281 93.15625 95.988281 93.152344 C 95.976562 93.136719 95.964844 93.125 95.953125 93.109375 C 95.949219 93.109375 95.949219 93.105469 95.945312 93.101562 C 95.941406 93.09375 95.933594 93.089844 95.929688 93.078125 C 95.929688 93.078125 95.925781 93.074219 95.921875 93.070312 C 95.921875 93.066406 95.917969 93.066406 95.914062 93.058594 C 95.910156 93.050781 95.902344 93.046875 95.898438 93.039062 C 95.898438 93.039062 95.894531 93.035156 95.890625 93.035156 C 95.886719 93.027344 95.882812 93.019531 95.878906 93.011719 C 95.875 93.011719 95.875 93.011719 95.875 93.007812 C 94.164062 90.804688 92.839844 88.246094 91.804688 85.5625 C 91.800781 85.5625 91.796875 85.5625 91.796875 85.5625 C 88.511719 77.039062 88.21875 67.269531 88.234375 63.652344 C 88.785156 70.171875 101.398438 90.640625 101.398438 90.640625 C 101.738281 90.695312 102.078125 90.71875 102.417969 90.71875 C 102.789062 90.71875 103.160156 90.6875 103.523438 90.632812 C 105.191406 92.921875 107.027344 95.316406 109.054688 97.796875 L 109.054688 117.082031 M 109.054688 78.6875 C 101.222656 62.605469 92.507812 58.933594 92.507812 58.933594 C 92.078125 59.019531 91.691406 59.117188 91.34375 59.226562 C 94.585938 57.519531 99.421875 56.703125 101.8125 56.386719 C 101.667969 56.871094 101.480469 57.230469 101.234375 57.421875 C 101.234375 57.421875 105.097656 59.964844 109.054688 60.964844 L 109.054688 78.6875 "/>
<path style=" stroke:none;fill-rule:nonzero;fill:rgb(64.709473%,40.388489%,27.839661%);fill-opacity:1;" d="M 109.054688 60.964844 C 105.097656 59.964844 101.234375 57.421875 101.234375 57.421875 C 101.480469 57.230469 101.667969 56.871094 101.8125 56.386719 C 102.453125 54.199219 102.175781 49.46875 101.816406 45.808594 C 103.59375 50.351562 106.441406 52.695312 109.054688 53.898438 L 109.054688 60.964844 "/>
<path style=" stroke:none;fill-rule:nonzero;fill:rgb(74.119568%,50.588989%,34.118652%);fill-opacity:1;" d="M 109.054688 97.796875 C 107.027344 95.316406 105.191406 92.921875 103.523438 90.632812 C 105.546875 90.332031 107.515625 89.28125 109.054688 88.226562 L 109.054688 97.796875 "/>
<path style=" stroke:none;fill-rule:nonzero;fill:rgb(62.748718%,18.03894%,17.649841%);fill-opacity:1;" d="M 102.417969 90.71875 C 102.078125 90.71875 101.738281 90.695312 101.398438 90.640625 C 101.398438 90.640625 88.785156 70.171875 88.234375 63.652344 C 88.210938 63.371094 88.207031 63.113281 88.230469 62.882812 C 88.230469 62.882812 87.453125 60.4375 91.34375 59.226562 C 91.691406 59.117188 92.078125 59.019531 92.507812 58.933594 C 92.507812 58.933594 101.222656 62.605469 109.054688 78.6875 L 109.054688 88.226562 C 107.515625 89.28125 105.546875 90.332031 103.523438 90.632812 C 103.160156 90.6875 102.789062 90.71875 102.417969 90.71875 "/>
<path style=" stroke:none;fill-rule:nonzero;fill:rgb(74.119568%,50.588989%,34.118652%);fill-opacity:1;" d="M 109.054688 53.898438 C 106.441406 52.695312 103.59375 50.351562 101.816406 45.808594 C 101.671875 45.4375 101.53125 45.050781 101.398438 44.648438 C 101.25 44.765625 101.085938 44.863281 100.902344 44.933594 C 100.699219 45.007812 100.488281 45.042969 100.269531 45.042969 C 98.898438 45.042969 97.335938 43.589844 96.539062 41.449219 C 95.964844 39.910156 95.925781 38.375 96.335938 37.296875 C 96.335938 37.300781 96.335938 37.300781 96.335938 37.300781 C 96.335938 37.300781 97.050781 35.894531 98.074219 35.894531 C 98.246094 35.894531 98.421875 35.933594 98.609375 36.023438 C 98.984375 36.203125 99.5625 36.554688 100.261719 37.175781 C 100.261719 37.175781 106.519531 36.300781 109.054688 29.238281 L 109.054688 33.570312 C 108.925781 33.652344 108.8125 33.734375 108.710938 33.824219 C 108.453125 34.03125 108.277344 34.25 108.167969 34.40625 C 108.058594 34.558594 108.011719 34.660156 108.011719 34.660156 C 108.011719 34.660156 108.371094 34.414062 108.925781 34.160156 C 108.964844 34.140625 109.007812 34.121094 109.054688 34.101562 L 109.054688 53.898438 M 100.039062 39.316406 C 100.210938 39.625 100.375 39.953125 100.503906 40.28125 C 100.671875 40.660156 100.789062 41.054688 100.875 41.445312 C 100.925781 41.644531 100.933594 41.839844 100.949219 42.039062 L 100.945312 42.335938 C 100.9375 42.433594 100.914062 42.527344 100.894531 42.625 C 100.890625 42.730469 100.835938 42.8125 100.804688 42.90625 C 100.777344 43.007812 100.722656 43.089844 100.664062 43.175781 C 100.609375 43.257812 100.5625 43.359375 100.480469 43.425781 L 100.257812 43.660156 L 100.550781 43.507812 C 100.652344 43.460938 100.730469 43.378906 100.816406 43.304688 C 100.90625 43.230469 100.988281 43.144531 101.046875 43.046875 C 101.105469 42.945312 101.191406 42.851562 101.222656 42.742188 C 101.265625 42.632812 101.316406 42.523438 101.34375 42.410156 L 101.417969 42.066406 C 101.4375 41.832031 101.445312 41.597656 101.421875 41.371094 C 101.386719 40.910156 101.269531 40.46875 101.125 40.042969 C 100.964844 39.617188 100.789062 39.21875 100.550781 38.820312 L 100.542969 38.808594 L 100.515625 38.769531 L 100.066406 38.316406 C 99.917969 38.164062 99.734375 38.039062 99.566406 37.90625 C 99.484375 37.835938 99.378906 37.78125 99.28125 37.726562 C 99.179688 37.675781 99.089844 37.609375 98.980469 37.570312 C 98.863281 37.53125 98.742188 37.496094 98.628906 37.464844 C 98.570312 37.460938 98.511719 37.457031 98.453125 37.457031 C 98.378906 37.457031 98.304688 37.460938 98.234375 37.460938 C 98.105469 37.503906 97.964844 37.539062 97.859375 37.613281 C 97.757812 37.695312 97.644531 37.773438 97.585938 37.878906 C 97.511719 37.976562 97.449219 38.078125 97.410156 38.179688 C 97.359375 38.285156 97.324219 38.390625 97.300781 38.492188 C 97.246094 38.707031 97.226562 38.917969 97.210938 39.125 C 97.199219 39.335938 97.203125 39.542969 97.234375 39.746094 C 97.328125 39.347656 97.425781 38.953125 97.609375 38.609375 C 97.699219 38.445312 97.792969 38.277344 97.917969 38.171875 C 97.972656 38.101562 98.046875 38.085938 98.105469 38.042969 C 98.167969 38.007812 98.238281 38.015625 98.300781 37.992188 L 98.511719 38.027344 C 98.585938 38.0625 98.660156 38.09375 98.738281 38.121094 C 98.808594 38.15625 98.882812 38.21875 98.960938 38.261719 C 99.035156 38.3125 99.109375 38.351562 99.179688 38.425781 C 99.3125 38.5625 99.46875 38.660156 99.597656 38.808594 L 99.738281 38.957031 C 99.664062 38.933594 99.578125 38.917969 99.488281 38.910156 C 99.449219 38.90625 99.40625 38.902344 99.363281 38.902344 C 99.296875 38.902344 99.226562 38.910156 99.160156 38.921875 C 99.046875 38.929688 98.925781 39 98.816406 39.058594 C 98.710938 39.136719 98.621094 39.230469 98.5625 39.339844 C 98.492188 39.445312 98.46875 39.566406 98.449219 39.671875 C 98.410156 39.886719 98.445312 40.070312 98.484375 40.222656 C 98.570312 40.527344 98.699219 40.691406 98.699219 40.691406 C 98.699219 40.691406 98.710938 40.480469 98.75 40.203125 C 98.773438 40.066406 98.792969 39.90625 98.847656 39.765625 C 98.867188 39.695312 98.90625 39.628906 98.941406 39.574219 C 98.972656 39.519531 99.027344 39.480469 99.078125 39.441406 C 99.136719 39.414062 99.183594 39.367188 99.261719 39.359375 C 99.328125 39.351562 99.394531 39.324219 99.46875 39.324219 C 99.476562 39.324219 99.480469 39.324219 99.488281 39.324219 C 99.546875 39.3125 99.605469 39.308594 99.664062 39.308594 C 99.703125 39.308594 99.742188 39.3125 99.777344 39.3125 C 99.816406 39.316406 99.851562 39.316406 99.886719 39.316406 C 99.90625 39.316406 99.925781 39.316406 99.945312 39.3125 C 99.980469 39.316406 100.011719 39.316406 100.039062 39.316406 "/>
<path style=" stroke:none;fill-rule:nonzero;fill:rgb(9.799194%,5.099487%,5.099487%);fill-opacity:1;" d="M 108.011719 34.660156 C 108.011719 34.660156 108.058594 34.558594 108.167969 34.40625 C 108.277344 34.25 108.453125 34.03125 108.710938 33.824219 C 108.8125 33.734375 108.925781 33.652344 109.054688 33.570312 L 109.054688 34.101562 C 109.007812 34.121094 108.964844 34.140625 108.925781 34.160156 C 108.371094 34.414062 108.011719 34.660156 108.011719 34.660156 "/>
<path style=" stroke:none;fill-rule:nonzero;fill:rgb(18.429565%,8.628845%,7.449341%);fill-opacity:1;" d="M 100.257812 43.660156 L 100.480469 43.425781 C 100.5625 43.359375 100.609375 43.257812 100.664062 43.175781 C 100.722656 43.089844 100.777344 43.007812 100.804688 42.90625 C 100.835938 42.8125 100.890625 42.730469 100.894531 42.625 C 100.914062 42.527344 100.9375 42.433594 100.945312 42.335938 L 100.949219 42.039062 C 100.933594 41.839844 100.925781 41.644531 100.875 41.445312 C 100.789062 41.054688 100.671875 40.660156 100.503906 40.28125 C 100.375 39.953125 100.210938 39.625 100.039062 39.316406 C 100.144531 39.324219 100.230469 39.328125 100.296875 39.332031 C 100.3125 39.332031 100.332031 39.332031 100.34375 39.332031 C 100.40625 39.332031 100.4375 39.328125 100.4375 39.328125 C 100.4375 39.328125 100.398438 39.292969 100.324219 39.242188 C 100.25 39.203125 100.148438 39.113281 100.011719 39.054688 C 99.925781 39.023438 99.839844 38.984375 99.738281 38.957031 L 99.597656 38.808594 C 99.46875 38.660156 99.3125 38.5625 99.179688 38.425781 C 99.109375 38.351562 99.035156 38.3125 98.960938 38.261719 C 98.882812 38.21875 98.808594 38.15625 98.738281 38.121094 C 98.660156 38.09375 98.585938 38.0625 98.511719 38.027344 L 98.300781 37.992188 C 98.238281 38.015625 98.167969 38.007812 98.105469 38.042969 C 98.046875 38.085938 97.972656 38.101562 97.917969 38.171875 C 97.792969 38.277344 97.699219 38.445312 97.609375 38.609375 C 97.425781 38.953125 97.328125 39.347656 97.234375 39.746094 C 97.203125 39.542969 97.199219 39.335938 97.210938 39.125 C 97.226562 38.917969 97.246094 38.707031 97.300781 38.492188 C 97.324219 38.390625 97.359375 38.285156 97.410156 38.179688 C 97.449219 38.078125 97.511719 37.976562 97.585938 37.878906 C 97.644531 37.773438 97.757812 37.695312 97.859375 37.613281 C 97.964844 37.539062 98.105469 37.503906 98.234375 37.460938 C 98.304688 37.460938 98.378906 37.457031 98.453125 37.457031 C 98.511719 37.457031 98.570312 37.460938 98.628906 37.464844 C 98.742188 37.496094 98.863281 37.53125 98.980469 37.570312 C 99.089844 37.609375 99.179688 37.675781 99.28125 37.726562 C 99.378906 37.78125 99.484375 37.835938 99.566406 37.90625 C 99.734375 38.039062 99.917969 38.164062 100.066406 38.316406 L 100.515625 38.769531 L 100.542969 38.808594 L 100.550781 38.820312 C 100.789062 39.21875 100.964844 39.617188 101.125 40.042969 C 101.269531 40.46875 101.386719 40.910156 101.421875 41.371094 C 101.445312 41.597656 101.4375 41.832031 101.417969 42.066406 L 101.34375 42.410156 C 101.316406 42.523438 101.265625 42.632812 101.222656 42.742188 C 101.191406 42.851562 101.105469 42.945312 101.046875 43.046875 C 100.988281 43.144531 100.90625 43.230469 100.816406 43.304688 C 100.730469 43.378906 100.652344 43.460938 100.550781 43.507812 L 100.257812 43.660156 "/>
<path style=" stroke:none;fill-rule:nonzero;fill:rgb(18.429565%,8.628845%,7.449341%);fill-opacity:1;" d="M 98.699219 40.691406 C 98.699219 40.691406 98.570312 40.527344 98.484375 40.222656 C 98.445312 40.070312 98.410156 39.886719 98.449219 39.671875 C 98.46875 39.566406 98.492188 39.445312 98.5625 39.339844 C 98.621094 39.230469 98.710938 39.136719 98.816406 39.058594 C 98.925781 39 99.046875 38.929688 99.160156 38.921875 C 99.226562 38.910156 99.296875 38.902344 99.363281 38.902344 C 99.40625 38.902344 99.449219 38.90625 99.488281 38.910156 C 99.578125 38.917969 99.664062 38.933594 99.738281 38.957031 C 99.839844 38.984375 99.925781 39.023438 100.011719 39.054688 C 100.148438 39.113281 100.25 39.203125 100.324219 39.242188 C 100.398438 39.292969 100.4375 39.328125 100.4375 39.328125 C 100.4375 39.328125 100.40625 39.332031 100.34375 39.332031 C 100.332031 39.332031 100.3125 39.332031 100.296875 39.332031 C 100.230469 39.328125 100.144531 39.324219 100.039062 39.316406 C 100.011719 39.316406 99.980469 39.316406 99.945312 39.3125 C 99.925781 39.316406 99.90625 39.316406 99.886719 39.316406 C 99.851562 39.316406 99.816406 39.316406 99.777344 39.3125 C 99.742188 39.3125 99.703125 39.308594 99.664062 39.308594 C 99.605469 39.308594 99.546875 39.3125 99.488281 39.324219 C 99.480469 39.324219 99.476562 39.324219 99.46875 39.324219 C 99.394531 39.324219 99.328125 39.351562 99.261719 39.359375 C 99.183594 39.367188 99.136719 39.414062 99.078125 39.441406 C 99.027344 39.480469 98.972656 39.519531 98.941406 39.574219 C 98.90625 39.628906 98.867188 39.695312 98.847656 39.765625 C 98.792969 39.90625 98.773438 40.066406 98.75 40.203125 C 98.710938 40.480469 98.699219 40.691406 98.699219 40.691406 "/>
<path style=" stroke:none;fill-rule:nonzero;fill:rgb(18.429565%,8.628845%,7.449341%);fill-opacity:1;" d="M 96.335938 37.300781 C 96.203125 36.554688 96.097656 35.835938 96.023438 35.144531 C 100.796875 33.324219 105.257812 30.570312 109.054688 27.738281 L 109.054688 29.238281 C 106.519531 36.300781 100.261719 37.175781 100.261719 37.175781 C 99.5625 36.554688 98.984375 36.203125 98.609375 36.023438 C 98.421875 35.933594 98.246094 35.894531 98.074219 35.894531 C 97.050781 35.894531 96.335938 37.300781 96.335938 37.300781 "/>
<path style=" stroke:none;fill-rule:nonzero;fill:rgb(77.648926%,78.039551%,77.249146%);fill-opacity:1;" d="M 89.753906 17.863281 C 89.808594 16.898438 89.984375 15.976562 90.347656 15.207031 C 89.984375 15.976562 89.808594 16.902344 89.753906 17.863281 M 90.347656 15.207031 C 90.347656 15.203125 90.351562 15.199219 90.351562 15.195312 C 90.351562 15.199219 90.347656 15.203125 90.347656 15.207031 M 90.382812 15.128906 C 91.839844 12.136719 96.523438 6.890625 103.886719 6.890625 C 96.523438 6.890625 91.839844 12.140625 90.382812 15.128906 "/>
<path style=" stroke:none;fill-rule:nonzero;fill:rgb(69.40918%,56.079102%,23.919678%);fill-opacity:1;" d="M 90.179688 22.464844 C 89.910156 21.148438 89.667969 19.449219 89.753906 17.863281 C 89.808594 16.902344 89.984375 15.976562 90.347656 15.207031 C 90.347656 15.203125 90.351562 15.199219 90.351562 15.195312 C 90.355469 15.195312 90.355469 15.1875 90.355469 15.1875 C 90.367188 15.167969 90.375 15.148438 90.382812 15.128906 C 91.839844 12.140625 96.523438 6.890625 103.886719 6.890625 C 104.800781 6.890625 105.761719 6.972656 106.757812 7.148438 C 106.765625 7.15625 107.746094 7.632812 109.054688 8.492188 L 109.054688 13.671875 C 101.539062 16.367188 95.3125 19.394531 90.179688 22.464844 "/>
<path style=" stroke:none;fill-rule:nonzero;fill:rgb(63.529968%,43.528748%,21.569824%);fill-opacity:1;" d="M 67.882812 43.8125 C 67.882812 43.8125 68.097656 43.335938 68.589844 42.488281 C 68.589844 42.488281 68.589844 42.484375 68.59375 42.484375 C 70.464844 39.265625 76.386719 30.71875 90.179688 22.46875 C 90.179688 22.46875 90.179688 22.46875 90.179688 22.464844 C 95.3125 19.394531 101.539062 16.367188 109.054688 13.671875 L 109.054688 27.738281 C 105.257812 30.570312 100.796875 33.324219 96.023438 35.144531 C 94.730469 35.640625 93.414062 36.0625 92.082031 36.402344 C 89.832031 36.972656 87.535156 37.300781 85.222656 37.300781 C 85.222656 37.300781 71.816406 37.398438 67.882812 43.8125 "/>
</g>
</svg>
