<?xml version="1.0" encoding="UTF-8"?>
<svg xmlns="http://www.w3.org/2000/svg" xmlns:xlink="http://www.w3.org/1999/xlink" width="224.87999pt" height="225pt" viewBox="0 0 224.87999 225" version="1.2">
<defs>
<clipPath id="clip1">
  <path d="M 214 118 L 224.761719 118 L 224.761719 126 L 214 126 Z M 214 118 "/>
</clipPath>
<clipPath id="clip2">
  <path d="M 0 30.320312 L 32 30.320312 L 32 58 L 0 58 Z M 0 30.320312 "/>
</clipPath>
<clipPath id="clip3">
  <path d="M 59 30.320312 L 92 30.320312 L 92 58 L 59 58 Z M 59 30.320312 "/>
</clipPath>
</defs>
<g id="surface1">
<path style=" stroke:none;fill-rule:nonzero;fill:rgb(43.919373%,33.329773%,20.388794%);fill-opacity:1;" d="M 81.929688 120.21875 C 81.917969 118.417969 81.886719 116.769531 81.839844 115.308594 C 81.789062 113.84375 81.722656 112.566406 81.65625 111.515625 C 81.542969 109.417969 81.410156 108.214844 81.410156 108.214844 L 62.320312 108.214844 C 62.320312 108.214844 62.191406 109.417969 62.074219 111.515625 C 62.011719 112.566406 61.945312 113.84375 61.894531 115.308594 C 61.847656 116.769531 61.816406 118.417969 61.800781 120.21875 C 61.789062 122.019531 61.796875 123.96875 61.832031 126.035156 C 61.867188 128.097656 61.933594 130.273438 62.019531 132.523438 C 62.121094 134.773438 62.234375 137.101562 62.386719 139.464844 C 62.453125 140.644531 62.554688 141.835938 62.636719 143.03125 C 62.75 144.230469 62.691406 145.429688 63.199219 146.628906 C 63.65625 147.832031 64.527344 149.03125 65.117188 150.226562 C 65.414062 150.820312 65.632812 151.421875 65.753906 152.015625 C 65.882812 152.609375 65.886719 153.203125 65.9375 153.796875 C 66.085938 156.15625 66.066406 158.480469 65.902344 160.730469 C 65.710938 162.984375 65.527344 165.160156 65.351562 167.222656 C 65.203125 169.285156 65.171875 171.238281 65.238281 173.039062 C 65.316406 174.839844 65.4375 176.488281 65.746094 177.953125 C 66.054688 179.414062 66.496094 180.691406 66.964844 181.742188 C 67.433594 182.789062 67.914062 183.617188 68.3125 184.179688 C 68.683594 184.742188 68.957031 185.042969 68.957031 185.042969 L 74.777344 185.042969 C 74.777344 185.042969 75.046875 184.742188 75.417969 184.179688 C 75.820312 183.617188 76.300781 182.789062 76.765625 181.742188 C 77.238281 180.691406 77.675781 179.414062 77.984375 177.953125 C 78.296875 176.488281 78.417969 174.839844 78.496094 173.039062 C 78.5625 171.238281 78.527344 169.285156 78.378906 167.222656 C 78.203125 165.160156 78.023438 162.984375 77.832031 160.730469 C 77.667969 158.480469 77.648438 156.15625 77.792969 153.796875 C 77.84375 153.203125 77.851562 152.609375 77.976562 152.015625 C 78.101562 151.421875 78.316406 150.820312 78.613281 150.226562 C 79.207031 149.03125 80.074219 147.832031 80.535156 146.628906 C 81.042969 145.429688 80.984375 144.230469 81.097656 143.03125 C 81.179688 141.835938 81.28125 140.644531 81.34375 139.464844 C 81.5 137.101562 81.613281 134.773438 81.710938 132.523438 C 81.800781 130.273438 81.867188 128.097656 81.898438 126.035156 C 81.933594 123.96875 81.945312 122.019531 81.929688 120.21875 "/>
<path style=" stroke:none;fill-rule:nonzero;fill:rgb(43.919373%,33.329773%,20.388794%);fill-opacity:1;" d="M 167.984375 183.769531 C 167.984375 183.769531 168.46875 172.292969 169.542969 170.375 C 170.035156 169.410156 170.574219 168.40625 170.785156 167.308594 C 170.980469 166.207031 171.125 165.058594 171.308594 163.882812 C 171.65625 161.535156 172.019531 159.054688 172.398438 156.492188 C 172.773438 153.925781 173.148438 151.285156 173.425781 148.589844 C 173.707031 145.898438 173.890625 143.15625 173.90625 140.433594 C 173.914062 139.066406 173.882812 137.714844 173.804688 136.386719 C 173.71875 135.070312 173.605469 133.757812 173.398438 132.597656 C 173.347656 132.308594 173.304688 132.003906 173.234375 131.761719 L 173.144531 131.382812 L 173.105469 131.191406 L 173.097656 131.167969 C 173.105469 131.578125 173.09375 131.265625 173.097656 131.347656 L 173.0625 131.160156 C 172.996094 130.625 172.949219 130.984375 172.902344 130.855469 L 172.703125 130.535156 C 172.398438 130.074219 171.96875 129.476562 171.417969 128.855469 C 170.316406 127.597656 168.804688 126.292969 167.191406 125.164062 C 165.585938 124.019531 163.863281 123.035156 162.210938 122.195312 C 160.539062 121.363281 158.929688 120.679688 157.453125 120.152344 C 155.980469 119.617188 154.652344 119.226562 153.546875 118.953125 C 152.449219 118.675781 151.5625 118.53125 150.984375 118.464844 C 150.410156 118.382812 150.136719 118.421875 150.230469 118.476562 L 169.210938 91.449219 C 169.300781 91.503906 169.597656 91.945312 170.074219 92.636719 C 170.515625 93.316406 171.167969 94.3125 171.996094 95.578125 C 172.789062 96.796875 173.757812 98.273438 174.859375 99.972656 C 175.953125 101.65625 177.183594 103.53125 178.492188 105.628906 C 179.808594 107.710938 181.199219 110.011719 182.621094 112.566406 C 184.019531 115.144531 185.472656 117.957031 186.683594 121.386719 C 187.277344 123.105469 187.804688 125 188.089844 127.152344 C 188.15625 127.699219 188.214844 128.25 188.238281 128.824219 C 188.273438 129.363281 188.296875 130.398438 188.246094 130.542969 L 188.238281 130.671875 L 188.230469 130.738281 C 188.230469 130.839844 188.222656 130.550781 188.230469 130.976562 L 188.222656 131.015625 L 188.179688 131.335938 L 188.078125 131.976562 C 188.015625 132.417969 187.933594 132.796875 187.855469 133.191406 C 187.695312 133.992188 187.523438 134.71875 187.359375 135.46875 C 187.191406 136.191406 187.019531 136.917969 186.847656 137.644531 C 186.503906 139.054688 186.167969 140.46875 185.824219 141.886719 C 185.164062 144.683594 184.570312 147.449219 184.046875 150.171875 C 183.515625 152.894531 183.058594 155.574219 182.582031 158.15625 C 182.109375 160.742188 181.660156 163.238281 181.179688 165.59375 C 180.949219 166.773438 180.699219 167.914062 180.503906 169.023438 C 180.324219 170.140625 180.480469 171.277344 180.601562 172.367188 C 180.742188 173.457031 180.746094 174.480469 180.570312 175.417969 C 180.417969 176.363281 173.878906 183.894531 173.878906 183.894531 L 167.984375 183.769531 "/>
<path style=" stroke:none;fill-rule:nonzero;fill:rgb(80.389404%,49.409485%,48.629761%);fill-opacity:1;" d="M 159.335938 147.457031 C 159.121094 148.171875 158.359375 148.578125 157.644531 148.363281 C 156.925781 148.148438 156.519531 147.390625 156.734375 146.675781 L 159.648438 136.984375 C 159.863281 136.269531 160.621094 135.863281 161.335938 136.078125 C 162.058594 136.292969 162.464844 137.050781 162.25 137.765625 L 159.335938 147.457031 "/>
<path style=" stroke:none;fill-rule:nonzero;fill:rgb(80.389404%,49.409485%,48.629761%);fill-opacity:1;" d="M 175.269531 147.761719 C 175.4375 148.488281 174.976562 149.214844 174.25 149.382812 C 173.519531 149.550781 172.789062 149.09375 172.625 148.363281 L 170.359375 138.503906 C 170.191406 137.773438 170.652344 137.046875 171.378906 136.878906 C 172.109375 136.714844 172.839844 137.167969 173.007812 137.898438 L 175.269531 147.761719 "/>
<path style=" stroke:none;fill-rule:nonzero;fill:rgb(88.62915%,64.309692%,62.748718%);fill-opacity:1;" d="M 187.992188 127.546875 C 187.992188 136.683594 179.46875 144.09375 168.964844 144.09375 C 158.453125 144.09375 149.933594 136.683594 149.933594 127.546875 C 149.933594 118.414062 158.453125 111.003906 168.964844 111.003906 C 179.46875 111.003906 187.992188 118.414062 187.992188 127.546875 "/>
<path style=" stroke:none;fill-rule:nonzero;fill:rgb(88.62915%,64.309692%,62.748718%);fill-opacity:1;" d="M 166.703125 149.6875 C 166.550781 150.421875 165.828125 150.886719 165.097656 150.730469 C 164.363281 150.574219 163.894531 149.855469 164.046875 149.125 L 166.148438 139.226562 C 166.304688 138.492188 167.027344 138.027344 167.757812 138.183594 C 168.492188 138.339844 168.960938 139.058594 168.804688 139.789062 L 166.703125 149.6875 "/>
<path style=" stroke:none;fill-rule:nonzero;fill:rgb(88.62915%,64.309692%,62.748718%);fill-opacity:1;" d="M 181 145.960938 C 181.335938 146.613281 181.085938 147.4375 180.449219 147.800781 C 179.808594 148.160156 179.015625 147.921875 178.679688 147.273438 L 174.136719 138.457031 C 173.800781 137.808594 174.046875 136.988281 174.691406 136.625 C 175.328125 136.261719 176.121094 136.496094 176.457031 137.148438 L 181 145.960938 "/>
<path style=" stroke:none;fill-rule:nonzero;fill:rgb(61.959839%,47.44873%,29.019165%);fill-opacity:1;" d="M 33.027344 58.476562 C 33.027344 58.476562 54.390625 42.515625 74.734375 45.921875 C 94.617188 49.246094 106.761719 52.035156 121.484375 56.09375 C 137.59375 60.539062 146.992188 58.269531 164.101562 54.570312 C 181.757812 50.753906 192.332031 56.371094 195.429688 67.378906 C 198.527344 78.390625 208.257812 100.011719 198.527344 121.25 C 194.847656 129.277344 198.058594 129.195312 171.625 126.824219 C 162.257812 125.984375 156.566406 130.890625 141.429688 136.640625 C 122.097656 143.980469 109.574219 139.429688 77.03125 138.808594 C 73.761719 138.746094 61.113281 130.960938 57.789062 127.445312 C 46.972656 127.644531 41.550781 110.554688 41.550781 110.554688 C 41.550781 110.554688 33.027344 102.769531 33.027344 58.476562 "/>
<path style=" stroke:none;fill-rule:nonzero;fill:rgb(61.959839%,47.44873%,29.019165%);fill-opacity:1;" d="M 101.96875 129.867188 C 101.953125 128.070312 101.917969 126.417969 101.871094 124.957031 C 101.824219 123.492188 101.753906 122.21875 101.691406 121.164062 C 101.578125 119.066406 101.445312 117.867188 101.445312 117.867188 L 82.355469 117.867188 C 82.355469 117.867188 82.222656 119.066406 82.109375 121.164062 C 82.046875 122.21875 81.976562 123.492188 81.929688 124.957031 C 81.886719 126.417969 81.847656 128.070312 81.832031 129.867188 C 81.824219 131.667969 81.832031 133.621094 81.867188 135.683594 C 81.898438 137.746094 81.96875 139.921875 82.054688 142.171875 C 82.15625 144.425781 82.269531 146.75 82.421875 149.113281 C 82.484375 150.296875 82.585938 151.484375 82.671875 152.679688 C 82.785156 153.878906 82.726562 155.078125 83.234375 156.277344 C 83.691406 157.480469 84.5625 158.679688 85.152344 159.875 C 85.449219 160.472656 85.667969 161.070312 85.789062 161.664062 C 85.914062 162.257812 85.921875 162.851562 85.976562 163.445312 C 86.121094 165.808594 86.101562 168.132812 85.933594 170.382812 C 85.746094 172.632812 85.5625 174.8125 85.390625 176.871094 C 85.238281 178.933594 85.207031 180.886719 85.269531 182.6875 C 85.351562 184.488281 85.46875 186.140625 85.785156 187.601562 C 86.09375 189.0625 86.53125 190.339844 87 191.390625 C 87.46875 192.441406 87.949219 193.265625 88.34375 193.828125 C 88.722656 194.390625 88.992188 194.691406 88.992188 194.691406 L 94.808594 194.691406 C 94.808594 194.691406 95.082031 194.390625 95.457031 193.828125 C 95.855469 193.265625 96.332031 192.441406 96.804688 191.390625 C 97.269531 190.339844 97.710938 189.0625 98.019531 187.601562 C 98.332031 186.140625 98.453125 184.488281 98.53125 182.6875 C 98.59375 180.886719 98.5625 178.933594 98.410156 176.871094 C 98.238281 174.8125 98.058594 172.632812 97.867188 170.382812 C 97.703125 168.132812 97.683594 165.808594 97.828125 163.445312 C 97.878906 162.851562 97.886719 162.257812 98.015625 161.664062 C 98.132812 161.070312 98.355469 160.472656 98.648438 159.875 C 99.242188 158.679688 100.113281 157.480469 100.566406 156.277344 C 101.078125 155.078125 101.019531 153.878906 101.132812 152.679688 C 101.214844 151.484375 101.3125 150.296875 101.378906 149.113281 C 101.53125 146.75 101.644531 144.425781 101.746094 142.171875 C 101.832031 139.921875 101.898438 137.746094 101.9375 135.683594 C 101.96875 133.621094 101.976562 131.667969 101.96875 129.867188 "/>
<path style=" stroke:none;fill-rule:nonzero;fill:rgb(61.959839%,47.44873%,29.019165%);fill-opacity:1;" d="M 185.574219 193.433594 C 185.574219 193.433594 185.542969 193.046875 185.542969 192.324219 C 185.539062 191.597656 185.566406 190.539062 185.6875 189.207031 C 185.804688 187.882812 186.003906 186.28125 186.328125 184.46875 C 186.492188 183.5625 186.675781 182.605469 186.90625 181.597656 C 187.027344 181.097656 187.113281 180.574219 187.304688 180.0625 C 187.492188 179.550781 187.753906 179.039062 188.089844 178.53125 C 188.765625 177.515625 189.613281 176.492188 189.960938 175.316406 C 190.269531 174.132812 190.445312 172.878906 190.699219 171.605469 C 191.15625 169.054688 191.636719 166.367188 192.070312 163.585938 C 192.515625 160.808594 192.890625 157.933594 193.078125 155.023438 C 193.257812 152.132812 193.25 149.152344 192.890625 146.464844 C 192.804688 145.796875 192.683594 145.167969 192.539062 144.59375 C 192.402344 144.023438 191.523438 143 191.523438 143 L 190.957031 142.019531 L 190.433594 141.246094 C 190.058594 140.699219 189.6875 140.152344 189.320312 139.609375 C 188.910156 139.023438 188.5 138.441406 188.09375 137.863281 C 187.25 136.699219 153.042969 111.003906 153.042969 111.003906 L 192.554688 94.859375 C 192.554688 94.859375 192.625 95.292969 192.777344 96.039062 C 192.9375 96.792969 193.15625 97.898438 193.472656 99.277344 C 193.796875 100.652344 194.199219 102.3125 194.707031 104.191406 C 195.210938 106.066406 195.796875 108.175781 196.492188 110.445312 C 196.828125 111.585938 197.195312 112.757812 197.589844 113.972656 C 197.964844 115.195312 198.382812 116.441406 198.8125 117.722656 C 199.230469 119.015625 199.691406 120.316406 200.160156 121.664062 C 200.632812 123.007812 201.117188 124.378906 201.605469 125.773438 C 202.648438 128.644531 203.722656 131.609375 204.816406 134.621094 L 205.269531 135.886719 L 205.773438 137.527344 L 205.8125 137.660156 L 205.835938 137.730469 C 205.820312 137.691406 205.996094 138.140625 205.933594 137.996094 L 205.960938 138.082031 L 206.152344 138.796875 C 206.21875 139.054688 206.234375 139.214844 206.273438 139.429688 C 206.304688 139.621094 206.34375 139.832031 206.363281 140.015625 C 206.390625 140.355469 206.429688 140.71875 206.441406 141.03125 C 206.480469 142.289062 206.398438 143.300781 206.296875 144.257812 C 206.179688 145.207031 206.042969 146.101562 205.898438 146.960938 C 205.289062 150.371094 204.574219 153.460938 203.949219 156.515625 C 203.316406 159.558594 202.738281 162.515625 202.195312 165.371094 C 201.628906 168.222656 201.074219 170.964844 200.515625 173.554688 C 200.257812 174.855469 199.925781 176.101562 199.730469 177.335938 C 199.585938 178.574219 199.941406 179.878906 200.140625 181.101562 C 200.230469 181.714844 193.679688 194.609375 193.679688 194.609375 L 185.574219 193.433594 "/>
<path style=" stroke:none;fill-rule:nonzero;fill:rgb(61.959839%,47.44873%,29.019165%);fill-opacity:1;" d="M 195.113281 65.773438 C 195.113281 65.773438 195.253906 65.996094 195.515625 66.414062 C 195.761719 66.816406 196.109375 67.40625 196.53125 68.164062 C 197.371094 69.667969 198.496094 71.839844 199.671875 74.515625 C 200.851562 77.191406 202.078125 80.371094 203.121094 83.863281 C 204.171875 87.347656 205.03125 91.144531 205.546875 94.992188 C 205.808594 96.910156 205.976562 98.84375 206.050781 100.746094 C 206.09375 101.675781 206.132812 102.597656 206.171875 103.507812 C 206.226562 104.386719 206.296875 105.257812 206.398438 106.121094 C 206.796875 109.558594 207.621094 112.714844 208.949219 115.082031 C 209.617188 116.253906 210.382812 117.25 211.207031 117.957031 C 212.015625 118.6875 212.855469 119.148438 213.585938 119.429688 C 214.320312 119.710938 214.933594 119.816406 215.351562 119.863281 C 215.761719 119.90625 216.007812 119.898438 216.03125 119.90625 L 215.984375 120.566406 C 216.007812 120.5625 215.777344 120.585938 215.304688 120.574219 C 214.839844 120.5625 214.152344 120.5 213.308594 120.25 C 212.46875 120 211.484375 119.550781 210.511719 118.804688 C 209.527344 118.082031 208.59375 117.046875 207.761719 115.816406 C 206.105469 113.328125 204.972656 110.027344 204.277344 106.457031 C 204.097656 105.566406 203.953125 104.644531 203.820312 103.707031 C 203.714844 102.796875 203.605469 101.875 203.492188 100.949219 C 203.285156 99.136719 202.984375 97.304688 202.597656 95.492188 C 201.839844 91.871094 200.75 88.324219 199.507812 85.089844 C 198.273438 81.855469 196.886719 78.929688 195.589844 76.496094 C 194.292969 74.054688 193.085938 72.101562 192.207031 70.777344 C 191.773438 70.113281 191.417969 69.605469 191.175781 69.269531 C 190.945312 68.949219 190.816406 68.78125 190.816406 68.78125 L 195.113281 65.773438 "/>
<g clip-path="url(#clip1)" clip-rule="nonzero">
<path style=" stroke:none;fill-rule:nonzero;fill:rgb(20.779419%,12.159729%,9.01947%);fill-opacity:1;" d="M 216.109375 118.597656 C 216.109375 118.597656 216.160156 118.605469 216.25 118.625 C 216.363281 118.644531 216.515625 118.679688 216.679688 118.722656 C 217.019531 118.8125 217.488281 118.957031 218.023438 119.167969 C 218.292969 119.269531 218.582031 119.390625 218.875 119.53125 C 219.175781 119.660156 219.476562 119.835938 219.792969 120 C 220.402344 120.359375 221.039062 120.765625 221.605469 121.257812 L 222.027344 121.621094 L 222.421875 122.011719 C 222.683594 122.257812 222.90625 122.542969 223.121094 122.808594 C 223.34375 123.066406 223.519531 123.351562 223.6875 123.609375 C 223.863281 123.863281 224.007812 124.117188 224.121094 124.363281 C 224.238281 124.601562 224.355469 124.8125 224.4375 125.015625 C 224.507812 125.214844 224.570312 125.390625 224.625 125.535156 C 224.730469 125.820312 224.789062 125.984375 224.789062 125.984375 C 224.789062 125.984375 224.683594 125.84375 224.5 125.601562 C 224.410156 125.480469 224.300781 125.335938 224.175781 125.171875 C 224.046875 125.011719 223.875 124.847656 223.699219 124.664062 C 223.613281 124.570312 223.523438 124.476562 223.429688 124.378906 C 223.328125 124.289062 223.222656 124.199219 223.109375 124.109375 C 222.890625 123.921875 222.667969 123.722656 222.402344 123.5625 C 222.148438 123.386719 221.890625 123.207031 221.601562 123.066406 L 221.179688 122.839844 L 220.734375 122.652344 C 220.152344 122.394531 219.535156 122.222656 218.960938 122.089844 C 218.667969 122.035156 218.394531 121.96875 218.125 121.941406 C 217.859375 121.902344 217.605469 121.875 217.375 121.863281 C 216.914062 121.828125 216.53125 121.832031 216.277344 121.84375 C 216.140625 121.847656 216.058594 121.859375 216.011719 121.867188 C 215.945312 121.875 215.90625 121.875 215.90625 121.875 C 214.992188 121.964844 214.179688 121.296875 214.089844 120.378906 C 214.003906 119.46875 214.671875 118.652344 215.585938 118.5625 C 215.753906 118.546875 215.917969 118.558594 216.078125 118.589844 L 216.109375 118.597656 "/>
</g>
<path style=" stroke:none;fill-rule:nonzero;fill:rgb(96.469116%,52.938843%,7.058716%);fill-opacity:1;" d="M 55.132812 51.164062 C 55.019531 51.246094 54.910156 51.332031 54.796875 51.414062 C 57.894531 53.125 74.710938 63.804688 68.652344 91.0625 C 61.988281 121.03125 48.300781 115.640625 42.535156 112.617188 C 37.050781 109.742188 28.738281 92.3125 35.914062 73.84375 C 26.582031 94.765625 36.078125 115.011719 42.269531 118.257812 C 48.570312 121.5625 63.511719 127.445312 70.785156 94.722656 C 78.054688 62.007812 55.132812 51.164062 55.132812 51.164062 "/>
<path style=" stroke:none;fill-rule:nonzero;fill:rgb(64.309692%,45.098877%,26.269531%);fill-opacity:1;" d="M 63.78125 49.355469 C 63.78125 49.355469 87.519531 53.351562 89.59375 69.457031 C 76.304688 75.886719 62.1875 55.753906 62.1875 55.753906 L 63.78125 49.355469 "/>
<path style=" stroke:none;fill-rule:nonzero;fill:rgb(88.62915%,64.309692%,62.748718%);fill-opacity:1;" d="M 63.792969 49.332031 C 63.792969 49.332031 79.089844 51.910156 80.429688 62.285156 C 71.863281 66.429688 62.765625 53.457031 62.765625 53.457031 L 63.792969 49.332031 "/>
<path style=" stroke:none;fill-rule:nonzero;fill:rgb(64.309692%,45.098877%,26.269531%);fill-opacity:1;" d="M 25.972656 49.355469 C 25.972656 49.355469 2.234375 53.351562 0.15625 69.457031 C 13.449219 75.886719 27.566406 55.753906 27.566406 55.753906 L 25.972656 49.355469 "/>
<path style=" stroke:none;fill-rule:nonzero;fill:rgb(88.62915%,64.309692%,62.748718%);fill-opacity:1;" d="M 25.957031 49.332031 C 25.957031 49.332031 10.660156 51.910156 9.320312 62.285156 C 17.890625 66.429688 26.984375 53.457031 26.984375 53.457031 L 25.957031 49.332031 "/>
<g clip-path="url(#clip2)" clip-rule="nonzero">
<path style=" stroke:none;fill-rule:nonzero;fill:rgb(74.899292%,69.799805%,56.469727%);fill-opacity:1;" d="M 31.183594 57.191406 C 31.183594 57.191406 30.53125 57.128906 29.378906 57.011719 C 28.21875 56.90625 26.46875 56.789062 24.289062 56.574219 C 22.113281 56.363281 19.503906 56.035156 16.699219 55.359375 C 15.292969 55.007812 13.847656 54.5625 12.40625 53.980469 C 10.964844 53.398438 9.53125 52.644531 8.203125 51.738281 C 6.867188 50.84375 5.648438 49.75 4.636719 48.542969 C 4.105469 47.964844 3.6875 47.304688 3.25 46.6875 C 2.882812 46.027344 2.472656 45.40625 2.191406 44.734375 C 2.042969 44.410156 1.886719 44.089844 1.753906 43.765625 C 1.632812 43.433594 1.515625 43.109375 1.402344 42.785156 C 1.148438 42.152344 1.023438 41.503906 0.847656 40.894531 C 0.5625 39.65625 0.382812 38.484375 0.289062 37.40625 C 0.21875 36.871094 0.214844 36.355469 0.191406 35.867188 C 0.183594 35.378906 0.140625 34.921875 0.160156 34.488281 C 0.195312 33.625 0.183594 32.878906 0.242188 32.265625 C 0.347656 31.046875 0.402344 30.347656 0.402344 30.347656 L 1.003906 30.347656 C 1.003906 30.347656 1.101562 31.03125 1.265625 32.21875 C 1.339844 32.8125 1.511719 33.523438 1.664062 34.332031 C 1.734375 34.738281 1.871094 35.15625 1.980469 35.601562 C 2.101562 36.046875 2.210938 36.515625 2.386719 36.984375 C 2.6875 37.9375 3.082031 38.9375 3.566406 39.933594 C 3.835938 40.417969 4.054688 40.941406 4.382812 41.410156 C 4.539062 41.648438 4.691406 41.890625 4.847656 42.132812 C 5.011719 42.371094 5.195312 42.589844 5.371094 42.820312 C 5.703125 43.292969 6.132812 43.691406 6.511719 44.121094 C 6.953125 44.503906 7.359375 44.917969 7.839844 45.242188 C 8.761719 45.9375 9.777344 46.5 10.871094 46.910156 C 11.957031 47.324219 13.085938 47.632812 14.246094 47.816406 C 15.40625 47.996094 16.578125 48.082031 17.730469 48.109375 C 20.042969 48.136719 22.269531 47.925781 24.226562 47.679688 C 26.179688 47.433594 27.867188 47.164062 29.117188 47 C 30.378906 46.847656 31.097656 46.757812 31.097656 46.757812 L 31.183594 57.191406 "/>
</g>
<g clip-path="url(#clip3)" clip-rule="nonzero">
<path style=" stroke:none;fill-rule:nonzero;fill:rgb(74.899292%,69.799805%,56.469727%);fill-opacity:1;" d="M 59.996094 57.191406 C 59.996094 57.191406 60.65625 57.128906 61.804688 57.011719 C 62.964844 56.90625 64.71875 56.789062 66.898438 56.574219 C 69.070312 56.363281 71.679688 56.035156 74.484375 55.359375 C 75.890625 55.007812 77.335938 54.5625 78.78125 53.980469 C 80.21875 53.398438 81.652344 52.644531 82.980469 51.738281 C 84.320312 50.84375 85.539062 49.75 86.546875 48.542969 C 87.078125 47.964844 87.496094 47.304688 87.933594 46.6875 C 88.304688 46.027344 88.714844 45.40625 88.996094 44.734375 C 89.140625 44.410156 89.300781 44.089844 89.433594 43.765625 C 89.550781 43.433594 89.667969 43.109375 89.785156 42.785156 C 90.035156 42.152344 90.160156 41.503906 90.335938 40.894531 C 90.625 39.65625 90.800781 38.484375 90.894531 37.40625 C 90.964844 36.871094 90.972656 36.355469 90.992188 35.867188 C 91 35.378906 91.042969 34.921875 91.019531 34.488281 C 90.988281 33.625 91 32.878906 90.941406 32.265625 C 90.839844 31.046875 90.777344 30.347656 90.777344 30.347656 L 90.179688 30.347656 C 90.179688 30.347656 90.085938 31.03125 89.914062 32.21875 C 89.84375 32.8125 89.671875 33.523438 89.523438 34.332031 C 89.453125 34.738281 89.3125 35.15625 89.203125 35.601562 C 89.082031 36.046875 88.976562 36.515625 88.800781 36.984375 C 88.496094 37.9375 88.105469 38.9375 87.617188 39.933594 C 87.347656 40.417969 87.125 40.941406 86.800781 41.410156 C 86.648438 41.648438 86.492188 41.890625 86.339844 42.132812 C 86.171875 42.371094 85.984375 42.589844 85.816406 42.820312 C 85.484375 43.292969 85.050781 43.691406 84.667969 44.121094 C 84.226562 44.503906 83.828125 44.917969 83.339844 45.242188 C 82.421875 45.9375 81.398438 46.5 80.3125 46.910156 C 79.226562 47.324219 78.101562 47.632812 76.941406 47.816406 C 75.78125 47.996094 74.605469 48.082031 73.453125 48.109375 C 71.140625 48.136719 68.914062 47.925781 66.957031 47.679688 C 65.007812 47.433594 63.316406 47.164062 62.066406 47 C 60.804688 46.847656 60.089844 46.757812 60.089844 46.757812 L 59.996094 57.191406 "/>
</g>
<path style=" stroke:none;fill-rule:nonzero;fill:rgb(88.62915%,64.309692%,62.748718%);fill-opacity:1;" d="M 45.753906 82.984375 C 45.253906 89.492188 37.664062 88.496094 33.058594 91.453125 L 33.070312 91.460938 C 32.664062 92.804688 32.445312 94.226562 32.445312 95.699219 C 32.445312 103.835938 39.042969 110.433594 47.179688 110.433594 C 55.320312 110.433594 61.914062 103.835938 61.914062 95.699219 C 61.914062 94.4375 61.742188 93.210938 61.445312 92.039062 C 55.101562 90.695312 47.351562 89.914062 45.753906 82.984375 "/>
<path style=" stroke:none;fill-rule:nonzero;fill:rgb(74.899292%,57.649231%,35.688782%);fill-opacity:1;" d="M 72.808594 70.066406 C 72.808594 55.910156 61.335938 44.4375 47.179688 44.4375 C 33.023438 44.4375 21.546875 55.910156 21.546875 70.066406 C 21.546875 79.003906 26.125 86.867188 33.058594 91.453125 C 37.664062 88.496094 45.253906 89.492188 45.753906 82.984375 C 47.351562 89.914062 55.101562 90.695312 61.445312 92.039062 C 61.390625 91.847656 61.347656 91.652344 61.292969 91.460938 C 68.230469 86.875 72.808594 79.007812 72.808594 70.066406 "/>
<path style=" stroke:none;fill-rule:nonzero;fill:rgb(13.729858%,12.159729%,12.548828%);fill-opacity:1;" d="M 33.792969 74.078125 C 34.042969 72.085938 33.089844 69.945312 30.765625 69.855469 C 28.671875 69.773438 27.644531 71.472656 27.304688 73.28125 L 27.289062 73.433594 L 29.386719 73.433594 C 29.386719 73.433594 29.796875 75.550781 30 75.988281 C 30.257812 76.539062 31.519531 77.457031 32.105469 77.457031 C 35.035156 77.457031 35.753906 75.441406 35.503906 74.636719 C 35.503906 74.636719 33.859375 74.078125 33.792969 74.078125 "/>
<path style=" stroke:none;fill-rule:nonzero;fill:rgb(100%,100%,100%);fill-opacity:1;" d="M 33.34375 73.582031 C 33.34375 73.089844 32.945312 72.683594 32.445312 72.683594 C 31.949219 72.683594 31.542969 73.089844 31.542969 73.582031 C 31.542969 74.082031 31.949219 74.484375 32.445312 74.484375 C 32.945312 74.484375 33.34375 74.082031 33.34375 73.582031 "/>
<path style=" stroke:none;fill-rule:nonzero;fill:rgb(13.729858%,12.159729%,12.548828%);fill-opacity:1;" d="M 58.515625 74.078125 C 58.269531 72.085938 59.21875 69.945312 61.546875 69.855469 C 63.640625 69.773438 64.671875 71.472656 65.007812 73.28125 L 65.023438 73.433594 L 62.925781 73.433594 C 62.925781 73.433594 62.515625 75.550781 62.316406 75.988281 C 62.0625 76.539062 60.796875 77.457031 60.210938 77.457031 C 57.277344 77.457031 56.558594 75.441406 56.808594 74.636719 C 56.808594 74.636719 58.457031 74.078125 58.515625 74.078125 "/>
<path style=" stroke:none;fill-rule:nonzero;fill:rgb(100%,100%,100%);fill-opacity:1;" d="M 58.96875 73.582031 C 58.96875 73.089844 59.371094 72.683594 59.867188 72.683594 C 60.367188 72.683594 60.769531 73.089844 60.769531 73.582031 C 60.769531 74.082031 60.367188 74.484375 59.867188 74.484375 C 59.371094 74.484375 58.96875 74.082031 58.96875 73.582031 "/>
<path style=" stroke:none;fill-rule:nonzero;fill:rgb(80.389404%,49.409485%,48.629761%);fill-opacity:1;" d="M 52.375 105.15625 C 51.523438 106.003906 50.386719 106.246094 49.832031 105.691406 C 49.277344 105.136719 49.515625 103.996094 50.367188 103.148438 C 51.214844 102.296875 52.355469 102.058594 52.90625 102.613281 C 53.460938 103.167969 53.222656 104.308594 52.375 105.15625 "/>
<path style=" stroke:none;fill-rule:nonzero;fill:rgb(80.389404%,49.409485%,48.629761%);fill-opacity:1;" d="M 41.398438 105.15625 C 42.246094 106.003906 43.382812 106.246094 43.9375 105.691406 C 44.492188 105.136719 44.253906 103.996094 43.402344 103.148438 C 42.554688 102.296875 41.414062 102.058594 40.859375 102.613281 C 40.304688 103.167969 40.546875 104.308594 41.398438 105.15625 "/>
<path style=" stroke:none;fill-rule:nonzero;fill:rgb(80.389404%,43.919373%,5.879211%);fill-opacity:1;" d="M 53.585938 120.910156 C 53.585938 123.148438 57.53125 128.085938 49.53125 128.085938 C 41.53125 128.085938 45.476562 123.148438 45.476562 120.910156 C 45.476562 118.667969 47.292969 116.855469 49.53125 116.855469 C 51.773438 116.855469 53.585938 118.667969 53.585938 120.910156 "/>
<path style=" stroke:none;fill-rule:nonzero;fill:rgb(74.899292%,57.649231%,35.688782%);fill-opacity:1;" d="M 23.851562 61.007812 C 23.851562 61.007812 21.484375 54.382812 26.253906 49.816406 C 31.027344 45.25 35.898438 46.4375 35.898438 46.4375 C 35.898438 46.4375 38.792969 43.578125 45.054688 43.109375 C 52.714844 42.535156 56.605469 46.4375 56.605469 46.4375 C 56.605469 46.4375 62.4375 45.953125 66.320312 48.847656 C 71.558594 52.75 70.984375 61.007812 70.984375 61.007812 C 70.984375 61.007812 57.65625 55.742188 45.054688 55.742188 C 32.453125 55.742188 23.851562 61.007812 23.851562 61.007812 "/>
<path style=" stroke:none;fill-rule:nonzero;fill:rgb(74.899292%,57.649231%,35.688782%);fill-opacity:1;" d="M 88.992188 194.691406 C 88.992188 194.691406 83.742188 198.8125 81.9375 203.347656 C 85.183594 203.679688 86.152344 203.417969 86.152344 203.417969 L 85.464844 206.441406 C 85.464844 206.441406 90.601562 207.992188 95.023438 204.230469 C 99.449219 200.46875 98.28125 201.230469 98.394531 199.3125 C 98.503906 197.394531 95.457031 193.828125 95.457031 193.828125 L 88.992188 194.691406 "/>
<path style=" stroke:none;fill-rule:nonzero;fill:rgb(62.348938%,47.839355%,29.40979%);fill-opacity:1;" d="M 68.882812 184.917969 C 68.882812 184.917969 66 189.070312 63.15625 191.945312 C 65.789062 192.214844 66.574219 192 66.574219 192 L 66.019531 194.457031 C 66.019531 194.457031 70.1875 195.714844 73.777344 192.660156 C 77.367188 189.609375 76.421875 190.226562 76.511719 188.667969 C 76.605469 187.113281 74.777344 185.042969 74.777344 185.042969 L 68.882812 184.917969 "/>
<path style=" stroke:none;fill-rule:nonzero;fill:rgb(74.899292%,57.649231%,35.688782%);fill-opacity:1;" d="M 185.773438 193.542969 C 185.773438 193.542969 180.523438 197.664062 178.71875 202.199219 C 181.960938 202.53125 182.929688 202.269531 182.929688 202.269531 L 182.242188 205.296875 C 182.242188 205.296875 187.378906 206.84375 191.804688 203.085938 C 196.230469 199.324219 195.058594 200.085938 195.171875 198.167969 C 195.285156 196.246094 193.679688 194.609375 193.679688 194.609375 L 185.773438 193.542969 "/>
<path style=" stroke:none;fill-rule:nonzero;fill:rgb(62.348938%,47.839355%,29.40979%);fill-opacity:1;" d="M 167.984375 183.769531 C 167.984375 183.769531 165.105469 187.921875 162.257812 190.796875 C 164.890625 191.066406 165.679688 190.851562 165.679688 190.851562 L 165.121094 193.308594 C 165.121094 193.308594 169.289062 194.566406 172.878906 191.515625 C 176.472656 188.460938 175.523438 189.082031 175.613281 187.519531 C 175.707031 185.964844 173.878906 183.894531 173.878906 183.894531 L 167.984375 183.769531 "/>
</g>
</svg>
