<?xml version="1.0" encoding="UTF-8"?>
<svg xmlns="http://www.w3.org/2000/svg" xmlns:xlink="http://www.w3.org/1999/xlink" width="224.87999pt" height="225pt" viewBox="0 0 224.87999 225" version="1.2">
<defs>
<clipPath id="clip1">
  <path d="M 89.050781 215 L 111 215 L 111 224.539062 L 89.050781 224.539062 Z M 89.050781 215 "/>
</clipPath>
<clipPath id="clip2">
  <path d="M 89.050781 222 L 111 222 L 111 224.539062 L 89.050781 224.539062 Z M 89.050781 222 "/>
</clipPath>
<clipPath id="clip3">
  <path d="M 121 215 L 143 215 L 143 224.539062 L 121 224.539062 Z M 121 215 "/>
</clipPath>
<clipPath id="clip4">
  <path d="M 121 222 L 143 222 L 143 224.539062 L 121 224.539062 Z M 121 222 "/>
</clipPath>
<clipPath id="clip5">
  <path d="M 132 79 L 148 79 L 148 141.410156 L 132 141.410156 Z M 132 79 "/>
</clipPath>
<clipPath id="clip6">
  <path d="M 83 27 L 148.191406 27 L 148.191406 42 L 83 42 Z M 83 27 "/>
</clipPath>
<clipPath id="clip7">
  <path d="M 96 11.140625 L 136 11.140625 L 136 30 L 96 30 Z M 96 11.140625 "/>
</clipPath>
<clipPath id="clip8">
  <path d="M 83 27 L 148.191406 27 L 148.191406 33 L 83 33 Z M 83 27 "/>
</clipPath>
<clipPath id="clip9">
  <path d="M 77 69 L 82 69 L 82 224.539062 L 77 224.539062 Z M 77 69 "/>
</clipPath>
<clipPath id="clip10">
  <path d="M 62.738281 42 L 97 42 L 97 78 L 62.738281 78 Z M 62.738281 42 "/>
</clipPath>
</defs>
<g id="surface1">
<path style=" stroke:none;fill-rule:nonzero;fill:rgb(92.939758%,79.219055%,64.309692%);fill-opacity:1;" d="M 110.703125 211.132812 L 100.363281 211.132812 L 100.527344 215.742188 L 110.410156 216.445312 L 110.703125 211.132812 "/>
<path style=" stroke:none;fill-rule:nonzero;fill:rgb(92.939758%,79.219055%,64.309692%);fill-opacity:1;" d="M 121.070312 211.132812 L 121.355469 216.445312 L 131.238281 215.742188 L 131.410156 211.132812 L 121.070312 211.132812 "/>
<g clip-path="url(#clip1)" clip-rule="nonzero">
<path style=" stroke:none;fill-rule:nonzero;fill:rgb(41.958618%,27.449036%,15.289307%);fill-opacity:1;" d="M 110.410156 216.445312 L 110.234375 222.371094 L 110.199219 223.394531 L 110.199219 223.453125 C 110.199219 224.050781 109.714844 224.539062 109.105469 224.539062 L 90.164062 224.539062 C 89.554688 224.539062 89.070312 224.050781 89.070312 223.453125 L 89.070312 222.371094 C 89.070312 220.589844 89.417969 218.101562 92.09375 216.730469 C 92.285156 216.636719 92.492188 216.542969 92.710938 216.460938 C 92.894531 216.386719 93.085938 216.308594 93.296875 216.25 C 94.394531 215.910156 95.789062 215.714844 97.53125 215.734375 L 100.527344 215.742188 L 110.410156 216.445312 "/>
</g>
<g clip-path="url(#clip2)" clip-rule="nonzero">
<path style=" stroke:none;fill-rule:nonzero;fill:rgb(29.798889%,21.179199%,14.898682%);fill-opacity:1;" d="M 89.0625 223.453125 C 89.0625 224.050781 89.554688 224.539062 90.164062 224.539062 L 109.105469 224.539062 C 109.714844 224.539062 110.199219 224.050781 110.199219 223.453125 L 110.199219 223.394531 L 110.234375 222.371094 L 89.070312 222.371094 L 89.0625 223.453125 "/>
</g>
<g clip-path="url(#clip3)" clip-rule="nonzero">
<path style=" stroke:none;fill-rule:nonzero;fill:rgb(41.958618%,27.449036%,15.289307%);fill-opacity:1;" d="M 121.355469 216.445312 L 121.535156 222.371094 L 121.570312 223.394531 L 121.570312 223.453125 C 121.570312 224.050781 122.054688 224.539062 122.660156 224.539062 L 141.605469 224.539062 C 142.214844 224.539062 142.703125 224.050781 142.703125 223.453125 L 142.699219 222.371094 C 142.699219 220.589844 142.351562 218.101562 139.667969 216.730469 C 139.476562 216.636719 139.277344 216.542969 139.058594 216.460938 C 138.875 216.386719 138.675781 216.308594 138.472656 216.25 C 137.371094 215.910156 135.976562 215.714844 134.238281 215.734375 L 131.238281 215.742188 L 121.355469 216.445312 "/>
</g>
<g clip-path="url(#clip4)" clip-rule="nonzero">
<path style=" stroke:none;fill-rule:nonzero;fill:rgb(29.798889%,21.179199%,14.898682%);fill-opacity:1;" d="M 142.703125 223.453125 C 142.703125 224.050781 142.214844 224.539062 141.605469 224.539062 L 122.660156 224.539062 C 122.054688 224.539062 121.570312 224.050781 121.570312 223.453125 L 121.570312 223.394531 L 121.535156 222.371094 L 142.699219 222.371094 L 142.703125 223.453125 "/>
</g>
<g clip-path="url(#clip5)" clip-rule="nonzero">
<path style=" stroke:none;fill-rule:nonzero;fill:rgb(92.939758%,79.219055%,64.309692%);fill-opacity:1;" d="M 143.382812 141.351562 C 141.03125 141.351562 139.070312 139.519531 138.941406 137.164062 C 138.933594 136.992188 138.054688 120.554688 137.003906 110.886719 C 135.28125 95.015625 132.523438 85.203125 132.496094 85.101562 C 131.832031 82.753906 133.207031 80.3125 135.570312 79.648438 C 137.929688 78.980469 140.390625 80.347656 141.058594 82.695312 C 141.183594 83.113281 144.042969 93.25 145.851562 109.941406 C 146.925781 119.847656 147.792969 136.011719 147.828125 136.695312 C 147.957031 139.132812 146.078125 141.214844 143.621094 141.34375 C 143.546875 141.34375 143.464844 141.351562 143.382812 141.351562 "/>
</g>
<path style=" stroke:none;fill-rule:nonzero;fill:rgb(92.939758%,79.219055%,64.309692%);fill-opacity:1;" d="M 80.71875 138.792969 C 79.234375 138.792969 77.78125 138.058594 76.941406 136.714844 C 75.636719 134.644531 76.273438 131.917969 78.355469 130.621094 C 84.425781 126.855469 85.59375 120.023438 86.679688 110.023438 C 88.449219 93.71875 89.492188 83.546875 89.507812 83.445312 C 89.757812 81.023438 91.9375 79.253906 94.382812 79.503906 C 96.828125 79.75 98.609375 81.921875 98.355469 84.347656 C 98.34375 84.449219 97.296875 94.640625 95.523438 110.964844 C 94.9375 116.394531 94.320312 121.253906 92.738281 125.730469 C 90.789062 131.238281 87.628906 135.296875 83.066406 138.121094 C 82.335938 138.574219 81.523438 138.792969 80.71875 138.792969 "/>
<path style=" stroke:none;fill-rule:nonzero;fill:rgb(91.758728%,89.7995%,86.268616%);fill-opacity:1;" d="M 133.992188 117.929688 C 134.183594 122.222656 134.324219 126.035156 134.421875 129.070312 C 134.320312 129.082031 128.035156 129.949219 115.921875 129.949219 C 103.703125 129.949219 97.421875 129.070312 97.421875 129.070312 C 97.515625 126.035156 97.660156 122.222656 97.851562 117.929688 C 97.921875 116.3125 97.996094 114.628906 98.078125 112.894531 C 98.214844 110.070312 98.363281 107.113281 98.535156 104.085938 C 98.625 102.425781 98.726562 100.75 98.828125 99.058594 C 99.003906 96.085938 99.140625 93.375 99.257812 90.847656 C 99.257812 90.84375 99.265625 90.835938 99.265625 90.828125 C 99.265625 90.820312 99.265625 90.816406 99.265625 90.816406 C 99.265625 90.816406 92.550781 88.609375 88.535156 86.691406 C 89.566406 76.402344 95.066406 70.996094 101 68.160156 C 102.542969 67.421875 104.113281 66.855469 105.644531 66.421875 C 105.839844 66.367188 106.039062 66.316406 106.238281 66.265625 C 106.960938 66.078125 107.679688 65.914062 108.375 65.785156 C 111.515625 65.167969 114.269531 65.066406 115.921875 65.066406 C 117.574219 65.066406 120.324219 65.167969 123.460938 65.785156 C 124.164062 65.921875 124.875 66.082031 125.605469 66.28125 C 125.796875 66.328125 125.996094 66.382812 126.183594 66.4375 C 127.722656 66.871094 129.300781 67.441406 130.84375 68.195312 C 136.703125 71.035156 142.117188 76.453125 143.148438 86.691406 C 139.179688 88.589844 132.578125 90.816406 132.578125 90.816406 C 132.578125 90.816406 132.578125 90.820312 132.578125 90.828125 C 132.578125 90.835938 132.578125 90.84375 132.578125 90.847656 C 132.699219 93.378906 132.835938 96.074219 133.015625 99.058594 C 133.117188 100.75 133.210938 102.425781 133.308594 104.085938 C 133.472656 107.113281 133.628906 110.070312 133.765625 112.894531 L 133.800781 113.625 C 133.867188 115.09375 133.929688 116.515625 133.992188 117.894531 L 133.992188 117.929688 "/>
<path style=" stroke:none;fill-rule:nonzero;fill:rgb(16.468811%,42.749023%,49.798584%);fill-opacity:1;" d="M 134.421875 129.070312 L 131.492188 213.214844 L 121.105469 213.414062 L 117.355469 143.414062 L 114.488281 143.414062 L 110.664062 213.414062 L 100.277344 213.214844 L 97.421875 129.070312 C 96.78125 116.828125 99.164062 91.875 99.257812 90.847656 C 99.257812 90.84375 99.265625 90.835938 99.265625 90.828125 C 99.265625 90.820312 99.265625 90.816406 99.265625 90.816406 C 99.265625 90.816406 101.449219 85.144531 101 68.160156 C 102.542969 67.421875 104.113281 66.855469 105.644531 66.421875 C 105.839844 66.367188 106.039062 66.316406 106.238281 66.265625 C 106.3125 68.1875 106.449219 72.148438 106.539062 76.160156 C 106.714844 84.164062 106.367188 89.632812 115.921875 89.632812 C 125.476562 89.632812 125.128906 84.164062 125.304688 76.160156 C 125.386719 72.164062 125.53125 68.199219 125.605469 66.28125 C 125.796875 66.328125 125.996094 66.382812 126.183594 66.4375 C 127.722656 66.871094 129.300781 67.441406 130.84375 68.195312 C 130.390625 85.148438 132.578125 90.816406 132.578125 90.816406 C 132.578125 90.816406 132.578125 90.820312 132.578125 90.828125 C 132.578125 90.835938 132.578125 90.84375 132.578125 90.847656 C 132.671875 91.894531 134.878906 116.625 134.421875 129.070312 "/>
<path style=" stroke:none;fill-rule:nonzero;fill:rgb(23.919678%,51.368713%,57.649231%);fill-opacity:1;" d="M 131.957031 139.78125 C 128.917969 139.136719 126.453125 137.0625 124.820312 133.777344 C 123.609375 131.34375 123.289062 129.125 123.277344 129.027344 L 124.53125 128.851562 C 124.546875 128.933594 125.804688 137.183594 132.222656 138.546875 L 131.957031 139.78125 "/>
<path style=" stroke:none;fill-rule:nonzero;fill:rgb(23.919678%,51.368713%,57.649231%);fill-opacity:1;" d="M 99.886719 139.78125 L 99.621094 138.546875 C 106.039062 137.183594 107.296875 128.933594 107.308594 128.851562 L 108.566406 129.027344 C 108.554688 129.125 108.230469 131.34375 107.023438 133.777344 C 105.390625 137.0625 102.925781 139.136719 99.886719 139.78125 "/>
<path style=" stroke:none;fill-rule:nonzero;fill:rgb(23.919678%,51.368713%,57.649231%);fill-opacity:1;" d="M 119.363281 102.601562 L 112.480469 102.601562 C 108.847656 102.601562 105.894531 99.675781 105.894531 96.066406 L 105.894531 90.847656 L 125.941406 90.847656 L 125.941406 96.066406 C 125.941406 99.675781 122.996094 102.601562 119.363281 102.601562 "/>
<path style=" stroke:none;fill-rule:nonzero;fill:rgb(92.939758%,79.219055%,64.309692%);fill-opacity:1;" d="M 123.460938 65.785156 C 122.203125 70.820312 119.617188 75.011719 115.921875 78.515625 C 111.90625 74.605469 109.214844 70.40625 108.375 65.785156 C 111.515625 65.167969 114.269531 65.066406 115.921875 65.066406 C 117.574219 65.066406 120.324219 65.167969 123.460938 65.785156 "/>
<path style=" stroke:none;fill-rule:nonzero;fill:rgb(77.648926%,75.689697%,72.938538%);fill-opacity:1;" d="M 121.34375 63.21875 L 110.5 63.21875 C 104.6875 63.722656 102.9375 77.550781 102.9375 77.550781 C 102.9375 77.550781 110.5625 74.882812 115.921875 78.515625 C 115.921875 78.515625 107.460938 68.914062 110.5 65.75 L 121.34375 65.75 C 124.382812 68.914062 115.921875 78.515625 115.921875 78.515625 C 121.28125 74.882812 128.902344 77.550781 128.902344 77.550781 C 128.902344 77.550781 127.15625 63.722656 121.34375 63.21875 "/>
<path style=" stroke:none;fill-rule:nonzero;fill:rgb(92.939758%,79.219055%,64.309692%);fill-opacity:1;" d="M 121.34375 57.101562 L 110.5 57.101562 L 110.5 66.199219 L 121.34375 66.199219 L 121.34375 57.101562 "/>
<path style=" stroke:none;fill-rule:nonzero;fill:rgb(85.879517%,70.199585%,55.288696%);fill-opacity:1;" d="M 110.5 63.207031 L 121.34375 63.125 C 121.34375 63.125 118.90625 64.976562 115.921875 64.976562 C 112.945312 64.976562 110.5 63.207031 110.5 63.207031 "/>
<path style=" stroke:none;fill-rule:nonzero;fill:rgb(23.919678%,51.368713%,57.649231%);fill-opacity:1;" d="M 98.800781 210.304688 L 111.433594 210.304688 L 111.433594 213.414062 L 98.800781 213.414062 L 98.800781 210.304688 "/>
<path style=" stroke:none;fill-rule:nonzero;fill:rgb(23.919678%,51.368713%,57.649231%);fill-opacity:1;" d="M 120.40625 210.304688 L 133.042969 210.304688 L 133.042969 213.414062 L 120.40625 213.414062 L 120.40625 210.304688 "/>
<g clip-path="url(#clip6)" clip-rule="nonzero">
<path style=" stroke:none;fill-rule:nonzero;fill:rgb(86.669922%,65.098572%,36.859131%);fill-opacity:1;" d="M 148.3125 32.59375 C 148.3125 35.320312 141.257812 41.164062 115.921875 41.164062 C 90.585938 41.164062 83.53125 35.320312 83.53125 32.59375 C 83.53125 29.867188 98.027344 27.660156 115.921875 27.660156 C 133.8125 27.660156 148.3125 29.867188 148.3125 32.59375 "/>
</g>
<path style=" stroke:none;fill-rule:nonzero;fill:rgb(92.939758%,79.219055%,64.309692%);fill-opacity:1;" d="M 100.9375 51.542969 C 100.9375 51.542969 98.71875 52.746094 96.308594 51.414062 C 93.890625 50.085938 92.757812 44.75 95.917969 43.523438 C 99.085938 42.296875 100.007812 46.25 100.007812 46.25 L 100.9375 51.542969 "/>
<path style=" stroke:none;fill-rule:nonzero;fill:rgb(85.879517%,70.199585%,55.288696%);fill-opacity:1;" d="M 99.492188 49.910156 C 99.492188 49.910156 98.5625 44.066406 96.199219 46.046875 C 94.75 47.261719 95.578125 49 96.902344 49.726562 C 97.734375 50.179688 98.820312 50.234375 99.492188 49.910156 "/>
<path style=" stroke:none;fill-rule:nonzero;fill:rgb(92.939758%,79.219055%,64.309692%);fill-opacity:1;" d="M 130.605469 51.542969 C 130.605469 51.542969 132.816406 52.746094 135.234375 51.414062 C 137.644531 50.085938 138.785156 44.75 135.617188 43.523438 C 132.453125 42.296875 131.53125 46.25 131.53125 46.25 L 130.605469 51.542969 "/>
<path style=" stroke:none;fill-rule:nonzero;fill:rgb(85.879517%,70.199585%,55.288696%);fill-opacity:1;" d="M 132.042969 49.910156 C 132.042969 49.910156 132.980469 44.066406 135.34375 46.046875 C 136.789062 47.261719 135.957031 49 134.632812 49.726562 C 133.800781 50.179688 132.714844 50.234375 132.042969 49.910156 "/>
<path style=" stroke:none;fill-rule:nonzero;fill:rgb(92.939758%,79.219055%,64.309692%);fill-opacity:1;" d="M 132.441406 25.6875 L 99.367188 25.6875 C 99.367188 25.6875 90.09375 60.382812 115.894531 63.75 C 141.707031 60.382812 132.441406 25.6875 132.441406 25.6875 "/>
<path style=" stroke:none;fill-rule:nonzero;fill:rgb(85.879517%,70.199585%,55.288696%);fill-opacity:1;" d="M 118.105469 54.9375 L 113.277344 54.9375 L 115.6875 45.707031 Z M 118.105469 54.9375 "/>
<path style=" stroke:none;fill-rule:nonzero;fill:rgb(85.879517%,70.199585%,55.288696%);fill-opacity:1;" d="M 110.144531 57.5625 C 110.144531 57.730469 110.265625 57.875 110.4375 57.90625 C 111.679688 58.136719 113.503906 58.371094 115.757812 58.371094 C 118.128906 58.371094 120.054688 58.113281 121.324219 57.867188 C 121.488281 57.839844 121.609375 57.691406 121.609375 57.519531 C 121.609375 57.296875 121.40625 57.132812 121.1875 57.175781 C 119.945312 57.414062 118.050781 57.671875 115.757812 57.671875 C 113.570312 57.671875 111.78125 57.433594 110.566406 57.210938 C 110.347656 57.167969 110.144531 57.339844 110.144531 57.5625 "/>
<path style=" stroke:none;fill-rule:nonzero;fill:rgb(61.959839%,43.528748%,29.798889%);fill-opacity:1;" d="M 121.792969 59.273438 C 120.167969 59.726562 118.214844 60.011719 115.878906 60.011719 C 113.539062 60.011719 111.585938 59.726562 109.960938 59.273438 C 109.945312 59.246094 108.300781 55.242188 112.445312 55.351562 L 119.308594 55.351562 C 123.460938 55.242188 121.800781 59.257812 121.792969 59.273438 Z M 131.089844 37.785156 C 131.15625 39.390625 131.019531 41.671875 131.019531 41.671875 C 131.039062 43.007812 130.609375 50.273438 129.441406 53.484375 L 129.457031 53.484375 L 129.441406 53.484375 C 129.441406 53.484375 129.183594 54.195312 128.433594 55.144531 L 128.425781 55.144531 C 126.792969 56.800781 125.523438 55.113281 125.523438 55.113281 C 124.144531 53.097656 116.605469 53.28125 116.605469 53.28125 L 115.148438 53.28125 C 115.148438 53.28125 107.609375 53.097656 106.230469 55.113281 C 106.230469 55.113281 104.960938 56.800781 103.328125 55.144531 C 102.578125 54.195312 102.3125 53.484375 102.3125 53.484375 C 101.144531 50.273438 100.726562 43.808594 100.726562 43.808594 C 100.726562 43.808594 100.605469 41.441406 100.882812 37.695312 L 97.375 38.199219 C 97.789062 42.824219 97.921875 43.300781 97.921875 43.300781 C 98.289062 46.558594 99.65625 57.167969 103.355469 60.757812 C 106.175781 63.492188 109.746094 63.425781 109.746094 63.425781 C 110.648438 64.882812 113.25 65.066406 115.878906 65.066406 C 118.503906 65.066406 121.105469 64.882812 122.007812 63.425781 C 122.007812 63.425781 125.046875 63.429688 127.789062 61.292969 C 131.804688 58.171875 133.464844 46.558594 133.839844 43.300781 C 133.839844 43.300781 134.011719 42.824219 134.421875 38.199219 L 131.089844 37.785156 "/>
<path style=" stroke:none;fill-rule:nonzero;fill:rgb(41.958618%,27.449036%,15.289307%);fill-opacity:1;" d="M 134.613281 31.390625 C 134.292969 23.570312 133.238281 20.753906 133.238281 20.753906 C 131.089844 19.859375 127.761719 19.421875 127.761719 19.421875 C 129.449219 18.839844 130.863281 19.132812 130.863281 19.132812 C 130.152344 18.738281 129.273438 18.167969 128.28125 17.753906 C 125.09375 16.445312 121.597656 16.371094 121.597656 16.371094 C 123.011719 15.691406 124.582031 15.710938 124.582031 15.710938 C 123.425781 15.453125 121.980469 15.222656 119.363281 15.140625 C 116.742188 15.0625 107.734375 15.371094 104.269531 19.632812 C 104.269531 19.632812 101.894531 19.546875 98.816406 20.636719 C 98.816406 20.636719 97.59375 24.917969 97.183594 31.289062 C 97.101562 32.578125 96.957031 33.835938 97.046875 35.386719 C 97.1875 37.660156 97.757812 42.105469 97.757812 42.105469 L 100.707031 41.679688 C 100.707031 41.679688 100.796875 39.859375 100.917969 38.679688 C 101.511719 33.210938 104.132812 31.25 104.132812 31.25 C 104.132812 31.25 111.085938 36.121094 120.324219 35.625 C 126.5 35.292969 129.683594 34.28125 130.523438 36.066406 C 131.363281 37.84375 131.019531 41.671875 131.019531 41.671875 L 134.023438 42.097656 C 134.023438 42.097656 134.695312 37.933594 134.75 35.386719 C 134.777344 34.003906 134.695312 32.660156 134.613281 31.390625 "/>
<path style=" stroke:none;fill-rule:nonzero;fill:rgb(41.958618%,27.449036%,15.289307%);fill-opacity:1;" d="M 102.277344 41.140625 C 102.277344 41.140625 105.765625 41.527344 106.632812 41.625 C 107.882812 41.757812 109.535156 42.1875 109.5625 42.222656 C 109.5625 42.222656 109.652344 40.347656 109.425781 39.941406 C 109.203125 39.535156 106.394531 39.203125 104.652344 39.214844 C 102.917969 39.230469 102.761719 39.195312 102.277344 41.140625 "/>
<path style=" stroke:none;fill-rule:nonzero;fill:rgb(41.958618%,27.449036%,15.289307%);fill-opacity:1;" d="M 129.203125 41.140625 C 129.203125 41.140625 125.722656 41.527344 124.847656 41.625 C 123.605469 41.757812 121.953125 42.1875 121.917969 42.222656 C 121.917969 42.222656 121.828125 40.347656 122.0625 39.941406 C 122.285156 39.535156 125.09375 39.203125 126.828125 39.214844 C 128.570312 39.230469 128.726562 39.195312 129.203125 41.140625 "/>
<path style=" stroke:none;fill-rule:nonzero;fill:rgb(31.759644%,18.03894%,10.5896%);fill-opacity:1;" d="M 109.070312 44.148438 C 109.773438 45.199219 109.488281 46.632812 108.421875 47.332031 C 107.359375 48.035156 105.921875 47.742188 105.21875 46.691406 C 104.511719 45.632812 104.796875 44.210938 105.863281 43.503906 C 106.925781 42.804688 108.363281 43.089844 109.070312 44.148438 "/>
<path style=" stroke:none;fill-rule:nonzero;fill:rgb(31.759644%,18.03894%,10.5896%);fill-opacity:1;" d="M 122.414062 44.148438 C 121.707031 45.199219 121.992188 46.632812 123.058594 47.332031 C 124.125 48.035156 125.558594 47.742188 126.265625 46.691406 C 126.976562 45.632812 126.683594 44.210938 125.617188 43.503906 C 124.558594 42.804688 123.121094 43.089844 122.414062 44.148438 "/>
<g clip-path="url(#clip7)" clip-rule="nonzero">
<path style=" stroke:none;fill-rule:nonzero;fill:rgb(86.669922%,65.098572%,36.859131%);fill-opacity:1;" d="M 115.988281 11.132812 C 96.027344 11.132812 96.027344 22.699219 96.027344 22.699219 C 96.027344 25.632812 96.457031 27.9375 96.902344 29.539062 L 134.914062 29.464844 C 135.40625 27.753906 135.890625 25.367188 135.882812 22.699219 C 135.882812 22.699219 135.957031 11.132812 115.988281 11.132812 "/>
</g>
<path style=" stroke:none;fill-rule:nonzero;fill:rgb(81.959534%,82.749939%,74.508667%);fill-opacity:1;" d="M 116.425781 25.175781 C 105.929688 25.175781 96.746094 26.507812 96.320312 26.765625 C 96.480469 27.84375 96.691406 28.773438 96.902344 29.539062 L 134.890625 29.539062 C 135.132812 28.707031 135.371094 27.707031 135.5625 26.59375 C 135.207031 26.378906 126.921875 25.175781 116.425781 25.175781 "/>
<path style=" stroke:none;fill-rule:nonzero;fill:rgb(57.249451%,57.649231%,46.269226%);fill-opacity:1;" d="M 97.203125 30.503906 C 99.496094 30.144531 102.863281 29.710938 107.007812 29.425781 C 113.605469 28.976562 123.453125 28.828125 134.625 30.410156 C 134.824219 29.796875 135.050781 29.039062 135.246094 28.167969 C 123.714844 26.519531 113.542969 26.675781 106.75 27.144531 C 102.40625 27.441406 98.945312 27.898438 96.59375 28.265625 C 96.785156 29.160156 96.996094 29.914062 97.203125 30.503906 "/>
<g clip-path="url(#clip8)" clip-rule="nonzero">
<path style=" stroke:none;fill-rule:nonzero;fill:rgb(96.859741%,74.899292%,42.749023%);fill-opacity:1;" d="M 148.3125 32.59375 C 148.3125 32.59375 146.652344 30.164062 115.957031 30.164062 C 85.257812 30.164062 83.53125 32.59375 83.53125 32.59375 C 83.53125 29.867188 98.027344 27.660156 115.921875 27.660156 C 133.8125 27.660156 148.3125 29.867188 148.3125 32.59375 "/>
</g>
<g clip-path="url(#clip9)" clip-rule="nonzero">
<path style=" stroke:none;fill-rule:nonzero;fill:rgb(61.959839%,43.528748%,29.798889%);fill-opacity:1;" d="M 79.488281 224.539062 C 78.121094 224.539062 77.015625 223.441406 77.015625 222.089844 L 77.015625 72.015625 C 77.015625 70.664062 78.121094 69.566406 79.488281 69.566406 C 80.847656 69.566406 81.953125 70.664062 81.953125 72.015625 L 81.953125 222.089844 C 81.953125 223.441406 80.847656 224.539062 79.488281 224.539062 "/>
</g>
<g clip-path="url(#clip10)" clip-rule="nonzero">
<path style=" stroke:none;fill-rule:nonzero;fill:rgb(22.349548%,23.529053%,23.919678%);fill-opacity:1;" d="M 93.433594 42.222656 C 91.929688 42.222656 90.714844 43.429688 90.714844 44.914062 L 90.714844 61.496094 C 90.714844 63.988281 88.679688 66.007812 86.175781 66.007812 L 82.199219 66.007812 L 82.199219 44.914062 C 82.199219 43.429688 80.984375 42.222656 79.488281 42.222656 C 77.984375 42.222656 76.769531 43.429688 76.769531 44.914062 L 76.769531 66.007812 L 72.796875 66.007812 C 70.289062 66.007812 68.253906 63.988281 68.253906 61.496094 L 68.253906 44.914062 C 68.253906 43.429688 67.039062 42.222656 65.542969 42.222656 C 64.039062 42.222656 62.824219 43.429688 62.824219 44.914062 L 62.824219 61.496094 C 62.824219 66.964844 67.292969 71.402344 72.796875 71.402344 L 76.769531 71.402344 L 76.769531 77.53125 L 82.199219 77.53125 L 82.199219 71.402344 L 86.175781 71.402344 C 91.683594 71.402344 96.144531 66.964844 96.144531 61.496094 L 96.144531 44.914062 C 96.144531 43.429688 94.929688 42.222656 93.433594 42.222656 "/>
</g>
</g>
</svg>
