<?xml version="1.0" encoding="UTF-8"?>
<svg xmlns="http://www.w3.org/2000/svg" xmlns:xlink="http://www.w3.org/1999/xlink" width="224.87999pt" height="225pt" viewBox="0 0 224.87999 225" version="1.2">
<defs>
<clipPath id="clip1">
  <path d="M 2.292969 110 L 126 110 L 126 113 L 2.292969 113 Z M 2.292969 110 "/>
</clipPath>
<clipPath id="clip2">
  <path d="M 2.292969 103 L 126 103 L 126 106 L 2.292969 106 Z M 2.292969 103 "/>
</clipPath>
<clipPath id="clip3">
  <path d="M 2.292969 105 L 126 105 L 126 111 L 2.292969 111 Z M 2.292969 105 "/>
</clipPath>
<clipPath id="clip4">
  <path d="M 2.292969 177 L 126 177 L 126 180 L 2.292969 180 Z M 2.292969 177 "/>
</clipPath>
<clipPath id="clip5">
  <path d="M 2.292969 170 L 126 170 L 126 173 L 2.292969 173 Z M 2.292969 170 "/>
</clipPath>
<clipPath id="clip6">
  <path d="M 2.292969 172 L 126 172 L 126 178 L 2.292969 178 Z M 2.292969 172 "/>
</clipPath>
<clipPath id="clip7">
  <path d="M 218 45 L 222.675781 45 L 222.675781 49 L 218 49 Z M 218 45 "/>
</clipPath>
<clipPath id="clip8">
  <path d="M 218 47 L 222.675781 47 L 222.675781 52 L 218 52 Z M 218 47 "/>
</clipPath>
<clipPath id="clip9">
  <path d="M 218 50 L 222.675781 50 L 222.675781 55 L 218 55 Z M 218 50 "/>
</clipPath>
<clipPath id="clip10">
  <path d="M 218 53 L 222.675781 53 L 222.675781 57 L 218 57 Z M 218 53 "/>
</clipPath>
<clipPath id="clip11">
  <path d="M 218 55 L 222.675781 55 L 222.675781 60 L 218 60 Z M 218 55 "/>
</clipPath>
<clipPath id="clip12">
  <path d="M 199.15625 51.402344 L 205.167969 51.402344 L 205.167969 77.238281 L 199.15625 77.238281 Z M 199.15625 51.402344 "/>
</clipPath>
<clipPath id="clip13">
  <path d="M 200.789062 77.171875 C 200.0625 77.171875 199.222656 76.617188 199.175781 76.1875 C 199.113281 75.65625 199.40625 72.679688 199.925781 71.734375 C 200.445312 70.789062 201.078125 71.917969 202.167969 67.378906 C 203.261719 62.839844 204.351562 52.078125 204.6875 51.53125 C 204.742188 51.441406 204.789062 51.402344 204.832031 51.402344 C 205.046875 51.402344 205.101562 52.363281 205.101562 52.363281 L 202.464844 72.332031 C 202.464844 72.332031 202.054688 76.679688 201.285156 77.0625 C 201.132812 77.136719 200.964844 77.171875 200.789062 77.171875 "/>
</clipPath>
<clipPath id="clip14">
  <path d="M 141 205 L 171 205 L 171 224.9375 L 141 224.9375 Z M 141 205 "/>
</clipPath>
</defs>
<g id="surface1">
<path style=" stroke:none;fill-rule:nonzero;fill:rgb(43.919373%,29.40979%,17.248535%);fill-opacity:1;" d="M 12.476562 206.601562 L 6.5 206.601562 L 6.5 98.945312 L 12.476562 98.945312 L 12.476562 206.601562 "/>
<path style=" stroke:none;fill-rule:nonzero;fill:rgb(43.919373%,29.40979%,17.248535%);fill-opacity:1;" d="M 120.675781 206.601562 L 114.703125 206.601562 L 114.703125 98.945312 L 120.675781 98.945312 L 120.675781 206.601562 "/>
<g clip-path="url(#clip1)" clip-rule="nonzero">
<path style=" stroke:none;fill-rule:nonzero;fill:rgb(58.81958%,28.239441%,11.369324%);fill-opacity:1;" d="M 2.320312 112.679688 L 125.476562 112.679688 L 125.476562 110.835938 L 2.320312 110.835938 L 2.320312 112.679688 "/>
</g>
<g clip-path="url(#clip2)" clip-rule="nonzero">
<path style=" stroke:none;fill-rule:nonzero;fill:rgb(89.7995%,55.288696%,21.179199%);fill-opacity:1;" d="M 2.320312 103.445312 L 2.320312 105.292969 L 125.476562 105.292969 L 125.476562 103.445312 L 2.320312 103.445312 "/>
</g>
<g clip-path="url(#clip3)" clip-rule="nonzero">
<path style=" stroke:none;fill-rule:nonzero;fill:rgb(74.119568%,35.289001%,11.759949%);fill-opacity:1;" d="M 2.320312 110.835938 L 125.476562 110.835938 L 125.476562 105.292969 L 2.320312 105.292969 L 2.320312 110.835938 "/>
</g>
<g clip-path="url(#clip4)" clip-rule="nonzero">
<path style=" stroke:none;fill-rule:nonzero;fill:rgb(58.81958%,28.239441%,11.369324%);fill-opacity:1;" d="M 2.320312 179.730469 L 125.476562 179.730469 L 125.476562 177.882812 L 2.320312 177.882812 L 2.320312 179.730469 "/>
</g>
<g clip-path="url(#clip5)" clip-rule="nonzero">
<path style=" stroke:none;fill-rule:nonzero;fill:rgb(89.7995%,55.288696%,21.179199%);fill-opacity:1;" d="M 2.320312 170.496094 L 2.320312 172.34375 L 125.476562 172.34375 L 125.476562 170.496094 L 2.320312 170.496094 "/>
</g>
<g clip-path="url(#clip6)" clip-rule="nonzero">
<path style=" stroke:none;fill-rule:nonzero;fill:rgb(74.119568%,35.289001%,11.759949%);fill-opacity:1;" d="M 2.320312 177.882812 L 125.476562 177.882812 L 125.476562 172.34375 L 2.320312 172.34375 L 2.320312 177.882812 "/>
</g>
<path style=" stroke:none;fill-rule:nonzero;fill:rgb(30.979919%,27.839661%,25.878906%);fill-opacity:1;" d="M 7.972656 106.222656 C 7.972656 106.472656 7.769531 106.679688 7.519531 106.679688 C 7.265625 106.679688 7.0625 106.472656 7.0625 106.222656 C 7.0625 105.972656 7.265625 105.769531 7.519531 105.769531 C 7.769531 105.769531 7.972656 105.972656 7.972656 106.222656 "/>
<path style=" stroke:none;fill-rule:nonzero;fill:rgb(30.979919%,27.839661%,25.878906%);fill-opacity:1;" d="M 7.972656 109.863281 C 7.972656 110.113281 7.769531 110.316406 7.515625 110.316406 C 7.265625 110.316406 7.0625 110.113281 7.0625 109.863281 C 7.0625 109.609375 7.265625 109.40625 7.515625 109.40625 C 7.769531 109.40625 7.972656 109.609375 7.972656 109.863281 "/>
<path style=" stroke:none;fill-rule:nonzero;fill:rgb(30.979919%,27.839661%,25.878906%);fill-opacity:1;" d="M 7.972656 173.328125 C 7.972656 173.582031 7.769531 173.785156 7.515625 173.785156 C 7.265625 173.785156 7.0625 173.582031 7.0625 173.328125 C 7.0625 173.078125 7.265625 172.875 7.515625 172.875 C 7.769531 172.875 7.972656 173.078125 7.972656 173.328125 "/>
<path style=" stroke:none;fill-rule:nonzero;fill:rgb(30.979919%,27.839661%,25.878906%);fill-opacity:1;" d="M 7.972656 176.96875 C 7.972656 177.21875 7.769531 177.421875 7.515625 177.421875 C 7.265625 177.421875 7.0625 177.21875 7.0625 176.96875 C 7.0625 176.714844 7.265625 176.511719 7.515625 176.511719 C 7.769531 176.511719 7.972656 176.714844 7.972656 176.96875 "/>
<path style=" stroke:none;fill-rule:nonzero;fill:rgb(30.979919%,27.839661%,25.878906%);fill-opacity:1;" d="M 119.640625 173.328125 C 119.640625 173.582031 119.4375 173.785156 119.183594 173.785156 C 118.933594 173.785156 118.730469 173.582031 118.730469 173.328125 C 118.730469 173.078125 118.933594 172.875 119.183594 172.875 C 119.4375 172.875 119.640625 173.078125 119.640625 173.328125 "/>
<path style=" stroke:none;fill-rule:nonzero;fill:rgb(30.979919%,27.839661%,25.878906%);fill-opacity:1;" d="M 119.640625 176.964844 C 119.640625 177.21875 119.4375 177.421875 119.183594 177.421875 C 118.933594 177.421875 118.730469 177.21875 118.730469 176.964844 C 118.730469 176.714844 118.933594 176.511719 119.183594 176.511719 C 119.4375 176.511719 119.640625 176.714844 119.640625 176.964844 "/>
<path style=" stroke:none;fill-rule:nonzero;fill:rgb(30.979919%,27.839661%,25.878906%);fill-opacity:1;" d="M 119.636719 106.246094 C 119.636719 106.496094 119.433594 106.699219 119.183594 106.699219 C 118.933594 106.699219 118.730469 106.496094 118.730469 106.246094 C 118.730469 105.996094 118.933594 105.792969 119.183594 105.792969 C 119.433594 105.792969 119.636719 105.996094 119.636719 106.246094 "/>
<path style=" stroke:none;fill-rule:nonzero;fill:rgb(30.979919%,27.839661%,25.878906%);fill-opacity:1;" d="M 119.636719 109.882812 C 119.636719 110.132812 119.433594 110.339844 119.183594 110.339844 C 118.933594 110.339844 118.730469 110.132812 118.730469 109.882812 C 118.730469 109.632812 118.933594 109.429688 119.183594 109.429688 C 119.433594 109.429688 119.636719 109.632812 119.636719 109.882812 "/>
<path style=" stroke:none;fill-rule:nonzero;fill:rgb(58.428955%,57.649231%,55.288696%);fill-opacity:1;" d="M 93.765625 162.324219 L 93.765625 152.132812 C 93.765625 152.132812 99.640625 152.714844 101.628906 157.816406 C 103.621094 162.917969 103.183594 173.753906 103.183594 173.753906 L 93.765625 173.753906 L 93.765625 162.324219 "/>
<path style=" stroke:none;fill-rule:nonzero;fill:rgb(74.508667%,74.119568%,73.329163%);fill-opacity:1;" d="M 94.105469 152.414062 C 94.105469 152.414062 98.695312 153.578125 100.660156 156.710938 C 102.625 159.847656 102.808594 168.042969 102.808594 170.121094 C 102.808594 172.199219 102.808594 173.328125 102.808594 173.328125 L 101.789062 173.328125 C 101.789062 173.328125 102.273438 163.835938 101.125 159.605469 C 99.75 154.089844 94.105469 152.414062 94.105469 152.414062 "/>
<path style=" stroke:none;fill-rule:nonzero;fill:rgb(58.428955%,57.649231%,55.288696%);fill-opacity:1;" d="M 93.765625 162.324219 L 93.765625 152.132812 C 93.765625 152.132812 87.890625 152.714844 85.902344 157.816406 C 83.910156 162.917969 84.347656 173.753906 84.347656 173.753906 L 93.765625 173.753906 L 93.765625 162.324219 "/>
<path style=" stroke:none;fill-rule:nonzero;fill:rgb(70.979309%,57.649231%,24.308777%);fill-opacity:1;" d="M 94.300781 209.269531 C 94.300781 209.269531 91.679688 209.222656 91.582031 203.050781 C 91.503906 198.011719 92.265625 187.144531 92.546875 183.324219 L 92.117188 183.324219 C 92.117188 183.324219 90.949219 198.242188 91.046875 204.410156 C 91.144531 210.582031 93.765625 210.632812 93.765625 210.632812 C 93.765625 210.632812 95.300781 210.601562 96.066406 207.824219 C 95.28125 209.253906 94.300781 209.269531 94.300781 209.269531 "/>
<path style=" stroke:none;fill-rule:nonzero;fill:rgb(81.17981%,68.238831%,31.369019%);fill-opacity:1;" d="M 95.417969 183.324219 L 92.546875 183.324219 C 92.265625 187.144531 91.503906 198.011719 91.582031 203.050781 C 91.679688 209.222656 94.300781 209.269531 94.300781 209.269531 C 94.300781 209.269531 95.28125 209.253906 96.066406 207.824219 C 96.300781 206.972656 96.460938 205.863281 96.484375 204.414062 C 96.582031 198.242188 95.417969 183.324219 95.417969 183.324219 "/>
<path style=" stroke:none;fill-rule:nonzero;fill:rgb(87.059021%,73.329163%,38.819885%);fill-opacity:1;" d="M 94.625 205.664062 C 94.144531 205.664062 93.644531 205.261719 93.28125 204.230469 C 92.332031 201.535156 93.28125 183.570312 93.28125 183.570312 L 95.101562 183.570312 C 95.101562 183.570312 96.007812 201.679688 96.066406 203.5 C 96.097656 204.625 95.394531 205.664062 94.625 205.664062 "/>
<path style=" stroke:none;fill-rule:nonzero;fill:rgb(49.01886%,49.01886%,48.629761%);fill-opacity:1;" d="M 92.636719 182.761719 C 92.445312 182.761719 92.296875 182.601562 92.3125 182.410156 L 92.972656 173.753906 L 92.503906 173.753906 L 91.804688 182.976562 C 91.789062 183.164062 91.9375 183.324219 92.125 183.324219 L 95.40625 183.324219 C 95.597656 183.324219 95.746094 183.164062 95.730469 182.976562 L 95.714844 182.761719 L 92.636719 182.761719 "/>
<path style=" stroke:none;fill-rule:nonzero;fill:rgb(67.449951%,66.268921%,61.569214%);fill-opacity:1;" d="M 93.765625 173.753906 L 92.972656 173.753906 L 92.3125 182.414062 C 92.296875 182.601562 92.449219 182.761719 92.636719 182.761719 L 95.714844 182.761719 L 95.03125 173.753906 L 93.765625 173.753906 "/>
<path style=" stroke:none;fill-rule:nonzero;fill:rgb(58.81958%,58.039856%,55.288696%);fill-opacity:1;" d="M 94.828125 173.910156 L 95.519531 182.640625 L 95.175781 182.640625 L 94.609375 173.910156 L 94.828125 173.910156 "/>
<path style=" stroke:none;fill-rule:nonzero;fill:rgb(92.549133%,92.158508%,91.369629%);fill-opacity:1;" d="M 94.464844 173.910156 L 95.066406 182.640625 L 94.609375 182.640625 L 94.230469 173.910156 L 94.464844 173.910156 "/>
<path style=" stroke:none;fill-rule:nonzero;fill:rgb(74.508667%,74.119568%,73.329163%);fill-opacity:1;" d="M 93.117188 173.914062 L 92.480469 182.640625 L 93.117188 182.640625 L 93.425781 173.914062 L 93.117188 173.914062 "/>
<path style=" stroke:none;fill-rule:nonzero;fill:rgb(67.449951%,66.268921%,61.569214%);fill-opacity:1;" d="M 95.488281 165.277344 C 95.273438 163.664062 94.425781 162.765625 94.003906 162.410156 C 93.867188 162.292969 93.667969 162.292969 93.527344 162.410156 C 93.109375 162.765625 92.261719 163.664062 92.042969 165.277344 C 91.753906 167.445312 92.503906 173.753906 92.503906 173.753906 L 95.03125 173.753906 C 95.03125 173.753906 95.78125 167.445312 95.488281 165.277344 "/>
<path style=" stroke:none;fill-rule:nonzero;fill:rgb(49.01886%,49.01886%,48.629761%);fill-opacity:1;" d="M 93.765625 162.433594 C 93.765625 162.433594 92.714844 163 92.296875 164.546875 C 91.878906 166.09375 92.125 168.171875 92.226562 169.675781 C 92.324219 171.179688 92.582031 173.753906 92.582031 173.753906 L 92.96875 173.753906 C 92.96875 173.753906 92.398438 168.554688 92.34375 166.722656 C 92.289062 164.894531 92.78125 163.527344 93.28125 163.042969 C 93.78125 162.5625 93.765625 162.433594 93.765625 162.433594 "/>
<path style=" stroke:none;fill-rule:nonzero;fill:rgb(74.508667%,74.119568%,73.329163%);fill-opacity:1;" d="M 93.917969 162.742188 C 93.917969 162.742188 94.960938 163.707031 95.230469 166.113281 C 95.496094 168.519531 94.753906 173.621094 94.753906 173.621094 L 94.320312 173.621094 C 94.320312 173.621094 94.972656 168.378906 94.828125 166.167969 C 94.683594 163.957031 93.898438 163.398438 93.84375 163.0625 C 93.789062 162.722656 93.917969 162.742188 93.917969 162.742188 "/>
<path style=" stroke:none;fill-rule:nonzero;fill:rgb(40.779114%,41.178894%,40.388489%);fill-opacity:1;" d="M 93.425781 152.414062 C 93.425781 152.414062 88.839844 153.578125 86.871094 156.710938 C 84.90625 159.847656 84.722656 168.046875 84.722656 170.121094 C 84.722656 172.199219 84.722656 173.328125 84.722656 173.328125 L 85.746094 173.328125 C 85.746094 173.328125 85.257812 163.835938 86.410156 159.609375 C 87.78125 154.089844 93.425781 152.414062 93.425781 152.414062 "/>
<path style=" stroke:none;fill-rule:nonzero;fill:rgb(58.428955%,57.649231%,55.288696%);fill-opacity:1;" d="M 105.601562 162.433594 L 105.941406 148.828125 C 105.941406 148.828125 107.640625 148.878906 108.902344 156.3125 C 110.164062 163.746094 108.707031 173.402344 108.707031 173.402344 L 105.601562 173.402344 L 105.601562 162.433594 "/>
<path style=" stroke:none;fill-rule:nonzero;fill:rgb(74.508667%,74.119568%,73.329163%);fill-opacity:1;" d="M 108.488281 173.074219 C 108.488281 173.074219 109.335938 167.984375 109.046875 161.753906 C 108.761719 155.519531 107.375 151.28125 106.960938 150.527344 C 106.546875 149.777344 106.140625 149.316406 106.140625 149.316406 C 106.140625 149.316406 107.375 151.550781 107.980469 155.65625 C 108.585938 159.761719 108.5625 164.109375 108.394531 167.265625 C 108.222656 170.425781 108.152344 171.664062 107.835938 172.246094 C 107.519531 172.832031 106.675781 172.925781 106.675781 172.925781 L 106.578125 173.296875 L 108.453125 173.296875 L 108.488281 173.074219 "/>
<path style=" stroke:none;fill-rule:nonzero;fill:rgb(58.428955%,57.649231%,55.288696%);fill-opacity:1;" d="M 106.296875 162.433594 L 105.957031 148.828125 C 105.957031 148.828125 104.261719 148.878906 103 156.3125 C 101.734375 163.746094 103.191406 173.402344 103.191406 173.402344 L 106.296875 173.402344 L 106.296875 162.433594 "/>
<path style=" stroke:none;fill-rule:nonzero;fill:rgb(70.979309%,57.649231%,24.308777%);fill-opacity:1;" d="M 106.484375 209.269531 C 106.484375 209.269531 103.863281 209.222656 103.765625 203.050781 C 103.6875 198.011719 104.449219 187.144531 104.730469 183.324219 L 104.296875 183.324219 C 104.296875 183.324219 103.132812 198.242188 103.230469 204.414062 C 103.328125 210.582031 105.949219 210.632812 105.949219 210.632812 C 105.949219 210.632812 107.484375 210.601562 108.25 207.824219 C 107.464844 209.253906 106.484375 209.269531 106.484375 209.269531 "/>
<path style=" stroke:none;fill-rule:nonzero;fill:rgb(81.17981%,68.238831%,31.369019%);fill-opacity:1;" d="M 107.601562 183.324219 L 104.730469 183.324219 C 104.449219 187.144531 103.6875 198.011719 103.765625 203.050781 C 103.863281 209.222656 106.484375 209.269531 106.484375 209.269531 C 106.484375 209.269531 107.464844 209.253906 108.25 207.824219 C 108.484375 206.972656 108.644531 205.859375 108.667969 204.410156 C 108.765625 198.242188 107.601562 183.324219 107.601562 183.324219 "/>
<path style=" stroke:none;fill-rule:nonzero;fill:rgb(87.059021%,73.329163%,38.819885%);fill-opacity:1;" d="M 106.804688 205.664062 C 106.328125 205.664062 105.828125 205.261719 105.464844 204.230469 C 104.519531 201.535156 105.464844 183.570312 105.464844 183.570312 L 107.285156 183.570312 C 107.285156 183.570312 108.191406 201.679688 108.25 203.5 C 108.285156 204.625 107.578125 205.664062 106.804688 205.664062 "/>
<path style=" stroke:none;fill-rule:nonzero;fill:rgb(49.01886%,49.01886%,48.629761%);fill-opacity:1;" d="M 104.820312 182.761719 C 104.628906 182.761719 104.484375 182.601562 104.496094 182.414062 L 105.15625 173.753906 L 104.6875 173.753906 L 103.988281 182.976562 C 103.972656 183.164062 104.121094 183.324219 104.308594 183.324219 L 107.59375 183.324219 C 107.78125 183.324219 107.929688 183.164062 107.914062 182.976562 L 107.898438 182.761719 L 104.820312 182.761719 "/>
<path style=" stroke:none;fill-rule:nonzero;fill:rgb(67.449951%,66.268921%,61.569214%);fill-opacity:1;" d="M 105.949219 173.753906 L 105.15625 173.753906 L 104.496094 182.414062 C 104.480469 182.601562 104.628906 182.761719 104.820312 182.761719 L 107.898438 182.761719 L 107.210938 173.753906 L 105.949219 173.753906 "/>
<path style=" stroke:none;fill-rule:nonzero;fill:rgb(58.81958%,58.039856%,55.288696%);fill-opacity:1;" d="M 107.011719 173.910156 L 107.703125 182.640625 L 107.359375 182.640625 L 106.792969 173.910156 L 107.011719 173.910156 "/>
<path style=" stroke:none;fill-rule:nonzero;fill:rgb(92.549133%,92.158508%,91.369629%);fill-opacity:1;" d="M 106.648438 173.910156 L 107.25 182.640625 L 106.792969 182.640625 L 106.410156 173.910156 L 106.648438 173.910156 "/>
<path style=" stroke:none;fill-rule:nonzero;fill:rgb(74.508667%,74.119568%,73.329163%);fill-opacity:1;" d="M 105.300781 173.910156 L 104.664062 182.640625 L 105.300781 182.640625 L 105.609375 173.910156 L 105.300781 173.910156 "/>
<path style=" stroke:none;fill-rule:nonzero;fill:rgb(67.449951%,66.268921%,61.569214%);fill-opacity:1;" d="M 107.035156 165.277344 C 106.898438 163.664062 106.363281 162.765625 106.101562 162.410156 C 106.011719 162.292969 105.886719 162.292969 105.800781 162.410156 C 105.535156 162.765625 105.003906 163.664062 104.867188 165.277344 C 104.683594 167.445312 105.15625 173.753906 105.15625 173.753906 L 106.742188 173.753906 C 106.742188 173.753906 107.21875 167.445312 107.035156 165.277344 "/>
<path style=" stroke:none;fill-rule:nonzero;fill:rgb(49.01886%,49.01886%,48.629761%);fill-opacity:1;" d="M 105.949219 162.433594 C 105.949219 162.433594 105.289062 162.996094 105.027344 164.546875 C 104.761719 166.09375 104.917969 168.171875 104.980469 169.675781 C 105.042969 171.179688 105.203125 173.753906 105.203125 173.753906 L 105.449219 173.753906 C 105.449219 173.753906 105.089844 168.554688 105.054688 166.722656 C 105.019531 164.894531 105.328125 163.527344 105.644531 163.042969 C 105.960938 162.5625 105.949219 162.433594 105.949219 162.433594 "/>
<path style=" stroke:none;fill-rule:nonzero;fill:rgb(74.508667%,74.119568%,73.329163%);fill-opacity:1;" d="M 106.046875 162.742188 C 106.046875 162.742188 106.703125 163.707031 106.871094 166.113281 C 107.039062 168.519531 106.570312 173.621094 106.570312 173.621094 L 106.296875 173.621094 C 106.296875 173.621094 106.710938 168.378906 106.617188 166.167969 C 106.527344 163.957031 106.035156 163.398438 106 163.0625 C 105.964844 162.726562 106.046875 162.742188 106.046875 162.742188 "/>
<path style=" stroke:none;fill-rule:nonzero;fill:rgb(58.428955%,57.649231%,55.288696%);fill-opacity:1;" d="M 107.25 173.402344 L 104.6875 173.402344 L 104.6875 173.753906 L 107.25 173.753906 L 107.25 173.402344 "/>
<path style=" stroke:none;fill-rule:nonzero;fill:rgb(40.779114%,41.178894%,40.388489%);fill-opacity:1;" d="M 103.410156 173.074219 C 103.410156 173.074219 102.566406 167.988281 102.851562 161.753906 C 103.136719 155.519531 104.527344 151.28125 104.941406 150.53125 C 105.351562 149.777344 105.761719 149.316406 105.761719 149.316406 C 105.761719 149.316406 104.527344 151.550781 103.917969 155.65625 C 103.3125 159.761719 103.335938 164.109375 103.507812 167.265625 C 103.679688 170.425781 103.75 171.664062 104.066406 172.246094 C 104.382812 172.832031 105.226562 172.925781 105.226562 172.925781 L 105.324219 173.300781 L 103.445312 173.300781 L 103.410156 173.074219 "/>
<path style=" stroke:none;fill-rule:nonzero;fill:rgb(39.608765%,39.219666%,39.608765%);fill-opacity:1;" d="M 111.109375 162.414062 C 111.109375 162.414062 115.445312 161.4375 118.5625 162.535156 C 121.675781 163.636719 122.277344 165.113281 122.277344 165.113281 L 121.570312 165.113281 C 121.570312 165.113281 119.824219 163.023438 116.691406 162.707031 C 113.5625 162.390625 112.449219 163.363281 112.449219 163.363281 L 111.109375 162.414062 "/>
<path style=" stroke:none;fill-rule:nonzero;fill:rgb(49.01886%,49.01886%,48.629761%);fill-opacity:1;" d="M 113.847656 162.507812 C 113.847656 162.507812 118.183594 161.527344 121.300781 162.625 C 124.414062 163.726562 125.011719 165.203125 125.011719 165.203125 L 124.308594 165.203125 C 124.308594 165.203125 122.5625 163.113281 119.429688 162.796875 C 116.296875 162.480469 115.183594 163.453125 115.183594 163.453125 L 113.847656 162.507812 "/>
<path style=" stroke:none;fill-rule:nonzero;fill:rgb(70.979309%,57.649231%,24.308777%);fill-opacity:1;" d="M 115.472656 209.269531 C 115.472656 209.269531 112.851562 209.222656 112.753906 203.050781 C 112.675781 198.011719 113.4375 187.144531 113.71875 183.324219 L 113.289062 183.324219 C 113.289062 183.324219 112.125 198.242188 112.222656 204.410156 C 112.316406 210.582031 114.941406 210.632812 114.941406 210.632812 C 114.941406 210.632812 116.472656 210.601562 117.238281 207.824219 C 116.457031 209.253906 115.472656 209.269531 115.472656 209.269531 "/>
<path style=" stroke:none;fill-rule:nonzero;fill:rgb(81.17981%,68.238831%,31.369019%);fill-opacity:1;" d="M 116.589844 183.324219 L 113.71875 183.324219 C 113.4375 187.144531 112.675781 198.011719 112.753906 203.050781 C 112.851562 209.222656 115.472656 209.269531 115.472656 209.269531 C 115.472656 209.269531 116.453125 209.253906 117.238281 207.824219 C 117.472656 206.972656 117.636719 205.863281 117.660156 204.410156 C 117.753906 198.242188 116.589844 183.324219 116.589844 183.324219 "/>
<path style=" stroke:none;fill-rule:nonzero;fill:rgb(87.059021%,73.329163%,38.819885%);fill-opacity:1;" d="M 115.796875 205.664062 C 115.320312 205.664062 114.816406 205.261719 114.453125 204.230469 C 113.507812 201.535156 114.453125 183.570312 114.453125 183.570312 L 116.273438 183.570312 C 116.273438 183.570312 117.183594 201.679688 117.238281 203.5 C 117.273438 204.625 116.566406 205.664062 115.796875 205.664062 "/>
<path style=" stroke:none;fill-rule:nonzero;fill:rgb(49.01886%,49.01886%,48.629761%);fill-opacity:1;" d="M 113.808594 182.324219 C 113.617188 182.324219 113.46875 182.039062 113.484375 181.707031 L 114.144531 166.367188 L 113.675781 166.367188 L 112.976562 182.707031 C 112.960938 183.042969 113.109375 183.324219 113.296875 183.324219 L 116.582031 183.324219 C 116.769531 183.324219 116.917969 183.042969 116.902344 182.707031 L 116.886719 182.324219 L 113.808594 182.324219 "/>
<path style=" stroke:none;fill-rule:nonzero;fill:rgb(67.449951%,66.268921%,61.569214%);fill-opacity:1;" d="M 114.9375 166.371094 L 114.144531 166.371094 L 113.484375 181.707031 C 113.472656 182.039062 113.617188 182.324219 113.808594 182.324219 L 116.886719 182.324219 L 116.203125 166.371094 L 114.9375 166.371094 "/>
<path style=" stroke:none;fill-rule:nonzero;fill:rgb(58.81958%,58.039856%,55.288696%);fill-opacity:1;" d="M 116 166.648438 L 116.695312 182.109375 L 116.347656 182.109375 L 115.78125 166.648438 L 116 166.648438 "/>
<path style=" stroke:none;fill-rule:nonzero;fill:rgb(92.549133%,92.158508%,91.369629%);fill-opacity:1;" d="M 115.636719 166.648438 L 116.238281 182.109375 L 115.78125 182.109375 L 115.402344 166.648438 L 115.636719 166.648438 "/>
<path style=" stroke:none;fill-rule:nonzero;fill:rgb(74.508667%,74.119568%,73.329163%);fill-opacity:1;" d="M 114.289062 166.648438 L 113.652344 182.109375 L 114.289062 182.109375 L 114.597656 166.648438 L 114.289062 166.648438 "/>
<path style=" stroke:none;fill-rule:nonzero;fill:rgb(58.428955%,57.649231%,55.288696%);fill-opacity:1;" d="M 113.675781 166.367188 L 113.675781 165.105469 L 103.09375 165.105469 C 103.09375 165.105469 102.023438 165.03125 103.09375 164.449219 C 104.164062 163.867188 111.347656 162.09375 112.78125 162.117188 C 114.210938 162.140625 115.667969 163.210938 115.984375 163.964844 C 116.300781 164.71875 116.203125 166.367188 116.203125 166.367188 L 113.675781 166.367188 "/>
<path style=" stroke:none;fill-rule:nonzero;fill:rgb(58.428955%,57.649231%,55.288696%);fill-opacity:1;" d="M 115.570312 164.242188 C 115.570312 164.242188 117.683594 162.917969 121.105469 162.992188 C 124.527344 163.066406 126.785156 165.203125 126.785156 165.203125 L 127.394531 165.203125 C 127.394531 165.203125 125.691406 162.796875 121.589844 162.3125 C 117.488281 161.828125 114.9375 163.257812 114.9375 163.257812 L 115.570312 164.242188 "/>
<path style=" stroke:none;fill-rule:nonzero;fill:rgb(67.83905%,67.449951%,65.879822%);fill-opacity:1;" d="M 115.976562 166.148438 L 115.085938 166.148438 C 115.085938 166.148438 115.753906 164.925781 114.941406 164.347656 C 114.71875 164.191406 113.945312 164.128906 112.898438 164.128906 C 109.679688 164.128906 103.890625 164.691406 103.890625 164.691406 L 104.070312 164.566406 C 104.070312 164.566406 111.046875 163.507812 114.070312 163.507812 C 114.542969 163.507812 114.917969 163.535156 115.15625 163.59375 L 115.570312 164.242188 C 115.570312 164.242188 115.617188 164.214844 115.707031 164.164062 C 116.085938 164.988281 115.976562 166.148438 115.976562 166.148438 "/>
<path style=" stroke:none;fill-rule:nonzero;fill:rgb(67.83905%,67.449951%,65.879822%);fill-opacity:1;" d="M 115.570312 164.242188 L 115.15625 163.59375 C 115.269531 163.625 115.355469 163.660156 115.398438 163.707031 C 115.527344 163.835938 115.628906 163.992188 115.707031 164.167969 C 115.617188 164.214844 115.570312 164.242188 115.570312 164.242188 "/>
<path style=" stroke:none;fill-rule:nonzero;fill:rgb(58.428955%,57.649231%,55.288696%);fill-opacity:1;" d="M 76.003906 196.984375 L 76.003906 212.851562 C 76.003906 212.851562 82.84375 211.945312 85.164062 204 C 87.480469 196.058594 86.96875 179.1875 86.96875 179.1875 L 76.003906 179.1875 L 76.003906 196.984375 "/>
<path style=" stroke:none;fill-rule:nonzero;fill:rgb(74.508667%,74.119568%,73.329163%);fill-opacity:1;" d="M 76.398438 212.417969 C 76.398438 212.417969 81.742188 210.601562 84.03125 205.722656 C 86.320312 200.84375 86.53125 188.078125 86.53125 184.84375 C 86.53125 181.609375 86.53125 179.851562 86.53125 179.851562 L 85.347656 179.851562 C 85.347656 179.851562 85.910156 194.628906 84.570312 201.214844 C 82.972656 209.804688 76.398438 212.417969 76.398438 212.417969 "/>
<path style=" stroke:none;fill-rule:nonzero;fill:rgb(58.428955%,57.649231%,55.288696%);fill-opacity:1;" d="M 76.003906 196.984375 L 76.003906 212.851562 C 76.003906 212.851562 69.164062 211.941406 66.84375 204 C 64.527344 196.058594 65.035156 179.1875 65.035156 179.1875 L 76.003906 179.1875 L 76.003906 196.984375 "/>
<path style=" stroke:none;fill-rule:nonzero;fill:rgb(40.779114%,41.178894%,40.388489%);fill-opacity:1;" d="M 75.605469 212.417969 C 75.605469 212.417969 70.265625 210.601562 67.976562 205.722656 C 65.6875 200.84375 65.472656 188.078125 65.472656 184.84375 C 65.472656 181.609375 65.472656 179.851562 65.472656 179.851562 L 66.660156 179.851562 C 66.660156 179.851562 66.09375 194.628906 67.4375 201.214844 C 69.035156 209.804688 75.605469 212.417969 75.605469 212.417969 "/>
<path style=" stroke:none;fill-rule:nonzero;fill:rgb(49.01886%,49.01886%,48.629761%);fill-opacity:1;" d="M 74.164062 169.679688 C 73.855469 169.679688 73.617188 169.910156 73.636719 170.183594 L 74.710938 182.683594 L 73.949219 182.683594 L 72.808594 169.367188 C 72.785156 169.09375 73.027344 168.863281 73.335938 168.863281 L 78.671875 168.863281 C 78.976562 168.863281 79.21875 169.09375 79.195312 169.367188 L 79.167969 169.679688 L 74.164062 169.679688 "/>
<path style=" stroke:none;fill-rule:nonzero;fill:rgb(67.449951%,66.268921%,61.569214%);fill-opacity:1;" d="M 76.003906 182.683594 L 74.710938 182.683594 L 73.636719 170.183594 C 73.617188 169.910156 73.855469 169.679688 74.164062 169.679688 L 79.167969 169.679688 L 78.054688 182.683594 L 76.003906 182.683594 "/>
<path style=" stroke:none;fill-rule:nonzero;fill:rgb(58.81958%,58.039856%,55.288696%);fill-opacity:1;" d="M 77.730469 182.453125 L 78.855469 169.855469 L 78.292969 169.855469 L 77.375 182.453125 L 77.730469 182.453125 "/>
<path style=" stroke:none;fill-rule:nonzero;fill:rgb(92.549133%,92.158508%,91.369629%);fill-opacity:1;" d="M 77.136719 182.453125 L 78.113281 169.855469 L 77.375 169.855469 L 76.753906 182.453125 L 77.136719 182.453125 "/>
<path style=" stroke:none;fill-rule:nonzero;fill:rgb(74.508667%,74.119568%,73.329163%);fill-opacity:1;" d="M 74.949219 182.453125 L 73.910156 169.855469 L 74.949219 169.855469 L 75.449219 182.453125 L 74.949219 182.453125 "/>
<path style=" stroke:none;fill-rule:nonzero;fill:rgb(67.449951%,66.268921%,61.569214%);fill-opacity:1;" d="M 78.824219 194.765625 C 78.46875 197.066406 77.082031 198.34375 76.394531 198.847656 C 76.167969 199.015625 75.839844 199.015625 75.613281 198.847656 C 74.925781 198.34375 73.539062 197.066406 73.183594 194.765625 C 72.707031 191.675781 73.9375 182.683594 73.9375 182.683594 L 78.070312 182.683594 C 78.070312 182.683594 79.300781 191.675781 78.824219 194.765625 "/>
<path style=" stroke:none;fill-rule:nonzero;fill:rgb(49.01886%,49.01886%,48.629761%);fill-opacity:1;" d="M 76.003906 198.816406 C 76.003906 198.816406 74.285156 198.011719 73.601562 195.804688 C 72.914062 193.597656 73.316406 190.636719 73.480469 188.496094 C 73.644531 186.351562 74.0625 182.683594 74.0625 182.683594 L 74.703125 182.683594 C 74.703125 182.683594 73.765625 190.09375 73.675781 192.703125 C 73.585938 195.3125 74.390625 197.257812 75.207031 197.945312 C 76.027344 198.636719 76.003906 198.816406 76.003906 198.816406 "/>
<path style=" stroke:none;fill-rule:nonzero;fill:rgb(74.508667%,74.119568%,73.329163%);fill-opacity:1;" d="M 76.25 198.375 C 76.25 198.375 77.960938 197 78.394531 193.570312 C 78.832031 190.144531 77.621094 182.875 77.621094 182.875 L 76.90625 182.875 C 76.90625 182.875 77.980469 190.34375 77.742188 193.492188 C 77.503906 196.644531 76.222656 197.441406 76.132812 197.921875 C 76.042969 198.402344 76.25 198.375 76.25 198.375 "/>
<path style=" stroke:none;fill-rule:nonzero;fill:rgb(81.17981%,68.238831%,31.369019%);fill-opacity:1;" d="M 78.664062 168.863281 L 73.339844 168.863281 L 73.339844 107.195312 L 78.664062 107.195312 L 78.664062 168.863281 "/>
<path style=" stroke:none;fill-rule:nonzero;fill:rgb(70.979309%,57.649231%,24.308777%);fill-opacity:1;" d="M 75.015625 168.863281 L 73.339844 168.863281 L 73.339844 107.195312 L 75.015625 107.195312 L 75.015625 168.863281 "/>
<path style=" stroke:none;fill-rule:nonzero;fill:rgb(87.059021%,73.329163%,38.819885%);fill-opacity:1;" d="M 77.753906 168.863281 L 76.605469 168.863281 L 76.605469 107.195312 L 77.753906 107.195312 L 77.753906 168.863281 "/>
<path style=" stroke:none;fill-rule:nonzero;fill:rgb(67.449951%,66.268921%,61.569214%);fill-opacity:1;" d="M 76.003906 107.195312 L 76.003906 94.984375 C 76.003906 94.984375 72.480469 95.164062 70.992188 92.089844 C 69.503906 89.015625 69.84375 87.160156 69.84375 87.160156 L 76.003906 87.160156 L 76.003906 84.808594 L 68 84.808594 C 67.410156 84.808594 66.945312 85.464844 66.980469 86.25 C 67.070312 88.261719 67.511719 91.953125 69.4375 94.53125 C 72.210938 98.242188 73.339844 98.375 73.339844 98.375 L 73.339844 107.195312 L 76.003906 107.195312 "/>
<path style=" stroke:none;fill-rule:nonzero;fill:rgb(53.729248%,52.938843%,50.19989%);fill-opacity:1;" d="M 74.847656 106.902344 L 73.679688 106.902344 C 73.679688 106.902344 73.882812 98.488281 73.679688 98.195312 C 73.476562 97.902344 71.175781 96.652344 69.386719 93.851562 C 67.597656 91.054688 67.207031 87.589844 67.171875 86.414062 C 67.140625 85.238281 67.882812 85.011719 67.882812 85.011719 C 67.882812 85.011719 67.460938 85.339844 67.441406 85.992188 C 67.425781 86.652344 67.390625 88.394531 69.234375 92.292969 C 71.082031 96.191406 74.441406 96.65625 74.625 97.5625 C 74.8125 98.464844 74.847656 106.902344 74.847656 106.902344 "/>
<path style=" stroke:none;fill-rule:nonzero;fill:rgb(67.449951%,66.268921%,61.569214%);fill-opacity:1;" d="M 76.003906 107.195312 L 76.003906 94.984375 C 76.003906 94.984375 79.527344 95.164062 81.011719 92.089844 C 82.5 89.015625 82.164062 87.160156 82.164062 87.160156 L 76.003906 87.160156 L 76.003906 84.808594 L 84.007812 84.808594 C 84.59375 84.808594 85.058594 85.464844 85.023438 86.25 C 84.933594 88.257812 84.496094 91.953125 82.566406 94.53125 C 79.796875 98.242188 78.664062 98.375 78.664062 98.375 L 78.664062 107.195312 L 76.003906 107.195312 "/>
<path style=" stroke:none;fill-rule:nonzero;fill:rgb(85.099792%,83.918762%,79.60968%);fill-opacity:1;" d="M 84.121094 85.011719 C 84.121094 85.011719 84.867188 85.238281 84.832031 86.414062 C 84.800781 87.589844 84.410156 91.054688 82.621094 93.851562 C 80.828125 96.652344 78.53125 97.902344 78.328125 98.195312 C 78.125 98.488281 78.328125 106.902344 78.328125 106.902344 L 77.160156 106.902344 C 77.160156 106.902344 77.191406 98.464844 77.378906 97.5625 C 77.566406 96.65625 80.925781 96.191406 82.773438 92.292969 C 84.617188 88.394531 84.578125 86.652344 84.5625 85.992188 C 84.546875 85.339844 84.121094 85.011719 84.121094 85.011719 "/>
<path style=" stroke:none;fill-rule:nonzero;fill:rgb(58.428955%,57.649231%,55.288696%);fill-opacity:1;" d="M 55.367188 174.367188 C 55.367188 174.367188 55.539062 176.527344 57.023438 177.019531 C 58.511719 177.515625 63.039062 178.816406 63.355469 179.625 C 63.617188 180.296875 63.441406 202.09375 63.375 209.4375 C 63.363281 210.761719 62.605469 211.828125 61.671875 211.828125 L 52.839844 211.828125 L 52.839844 173.515625 L 55.367188 174.367188 "/>
<path style=" stroke:none;fill-rule:nonzero;fill:rgb(74.508667%,74.119568%,73.329163%);fill-opacity:1;" d="M 55.582031 175.808594 C 55.582031 175.808594 55.859375 176.902344 56.761719 177.304688 C 57.660156 177.710938 62.816406 179.054688 63.121094 179.800781 C 63.425781 180.542969 63.011719 208.617188 62.988281 209.425781 C 62.964844 210.234375 62.371094 210.839844 62.371094 210.839844 C 62.371094 210.839844 62.5625 181.90625 62.160156 180.589844 C 61.753906 179.277344 57.554688 179.074219 56.511719 178.570312 C 55.464844 178.0625 55.453125 177.960938 55.453125 177.960938 L 55.582031 175.808594 "/>
<path style=" stroke:none;fill-rule:nonzero;fill:rgb(58.428955%,57.649231%,55.288696%);fill-opacity:1;" d="M 50.316406 174.367188 C 50.316406 174.367188 50.144531 176.527344 48.65625 177.019531 C 47.171875 177.515625 42.644531 178.816406 42.328125 179.625 C 42.066406 180.296875 42.238281 202.09375 42.308594 209.4375 C 42.320312 210.761719 43.078125 211.828125 44.011719 211.828125 L 52.839844 211.828125 L 52.839844 173.515625 L 50.316406 174.367188 "/>
<path style=" stroke:none;fill-rule:nonzero;fill:rgb(49.01886%,49.01886%,48.629761%);fill-opacity:1;" d="M 51.121094 168.957031 C 50.832031 168.957031 50.605469 169.1875 50.628906 169.457031 L 51.628906 181.871094 L 50.921875 181.871094 L 49.851562 168.648438 C 49.832031 168.378906 50.058594 168.148438 50.34375 168.148438 L 55.339844 168.148438 C 55.625 168.148438 55.851562 168.378906 55.832031 168.648438 L 55.804688 168.957031 L 51.121094 168.957031 "/>
<path style=" stroke:none;fill-rule:nonzero;fill:rgb(67.449951%,66.268921%,61.569214%);fill-opacity:1;" d="M 52.839844 181.871094 L 51.628906 181.871094 L 50.628906 169.457031 C 50.605469 169.1875 50.832031 168.957031 51.121094 168.957031 L 55.804688 168.957031 L 54.761719 181.871094 L 52.839844 181.871094 "/>
<path style=" stroke:none;fill-rule:nonzero;fill:rgb(58.81958%,58.039856%,55.288696%);fill-opacity:1;" d="M 54.457031 181.644531 L 55.511719 169.132812 L 54.984375 169.132812 L 54.125 181.644531 L 54.457031 181.644531 "/>
<path style=" stroke:none;fill-rule:nonzero;fill:rgb(92.549133%,92.158508%,91.369629%);fill-opacity:1;" d="M 53.902344 181.644531 L 54.816406 169.132812 L 54.125 169.132812 L 53.542969 181.644531 L 53.902344 181.644531 "/>
<path style=" stroke:none;fill-rule:nonzero;fill:rgb(74.508667%,74.119568%,73.329163%);fill-opacity:1;" d="M 51.855469 181.644531 L 50.882812 169.132812 L 51.855469 169.132812 L 52.324219 181.644531 L 51.855469 181.644531 "/>
<path style=" stroke:none;fill-rule:nonzero;fill:rgb(67.449951%,66.268921%,61.569214%);fill-opacity:1;" d="M 55.480469 193.871094 C 55.148438 196.152344 53.847656 197.421875 53.207031 197.921875 C 52.996094 198.085938 52.6875 198.085938 52.476562 197.921875 C 51.832031 197.421875 50.535156 196.152344 50.199219 193.871094 C 49.753906 190.800781 50.90625 181.871094 50.90625 181.871094 L 54.773438 181.871094 C 54.773438 181.871094 55.925781 190.800781 55.480469 193.871094 "/>
<path style=" stroke:none;fill-rule:nonzero;fill:rgb(49.01886%,49.01886%,48.629761%);fill-opacity:1;" d="M 52.839844 197.890625 C 52.839844 197.890625 51.234375 197.09375 50.59375 194.902344 C 49.949219 192.707031 50.328125 189.769531 50.480469 187.640625 C 50.632812 185.515625 51.023438 181.871094 51.023438 181.871094 L 51.625 181.871094 C 51.625 181.871094 50.746094 189.226562 50.660156 191.820312 C 50.578125 194.410156 51.332031 196.34375 52.097656 197.027344 C 52.863281 197.710938 52.839844 197.890625 52.839844 197.890625 "/>
<path style=" stroke:none;fill-rule:nonzero;fill:rgb(74.508667%,74.119568%,73.329163%);fill-opacity:1;" d="M 53.074219 197.453125 C 53.074219 197.453125 54.671875 196.085938 55.082031 192.683594 C 55.488281 189.277344 54.355469 182.058594 54.355469 182.058594 L 53.6875 182.058594 C 53.6875 182.058594 54.691406 189.476562 54.46875 192.605469 C 54.246094 195.734375 53.046875 196.527344 52.960938 197.003906 C 52.878906 197.480469 53.074219 197.453125 53.074219 197.453125 "/>
<path style=" stroke:none;fill-rule:nonzero;fill:rgb(81.17981%,68.238831%,31.369019%);fill-opacity:1;" d="M 55.332031 168.148438 L 50.347656 168.148438 L 50.347656 106.914062 L 55.332031 106.914062 L 55.332031 168.148438 "/>
<path style=" stroke:none;fill-rule:nonzero;fill:rgb(70.979309%,57.649231%,24.308777%);fill-opacity:1;" d="M 51.917969 168.148438 L 50.347656 168.148438 L 50.347656 106.914062 L 51.917969 106.914062 L 51.917969 168.148438 "/>
<path style=" stroke:none;fill-rule:nonzero;fill:rgb(87.059021%,73.329163%,38.819885%);fill-opacity:1;" d="M 54.480469 168.148438 L 53.402344 168.148438 L 53.402344 106.914062 L 54.480469 106.914062 L 54.480469 168.148438 "/>
<path style=" stroke:none;fill-rule:nonzero;fill:rgb(67.449951%,66.268921%,61.569214%);fill-opacity:1;" d="M 52.839844 106.910156 L 52.839844 94.785156 C 52.839844 94.785156 49.542969 94.964844 48.152344 91.910156 C 46.757812 88.855469 47.074219 87.015625 47.074219 87.015625 L 52.839844 87.015625 L 52.839844 84.679688 L 45.347656 84.679688 C 44.800781 84.679688 44.363281 85.332031 44.394531 86.109375 C 44.480469 88.105469 44.890625 91.773438 46.695312 94.335938 C 49.289062 98.015625 50.347656 98.152344 50.347656 98.152344 L 50.347656 106.910156 L 52.839844 106.910156 "/>
<path style=" stroke:none;fill-rule:nonzero;fill:rgb(53.729248%,52.938843%,50.19989%);fill-opacity:1;" d="M 51.757812 106.617188 L 50.667969 106.617188 C 50.667969 106.617188 50.859375 98.265625 50.667969 97.972656 C 50.476562 97.679688 48.324219 96.441406 46.648438 93.660156 C 44.972656 90.878906 44.609375 87.441406 44.574219 86.273438 C 44.542969 85.105469 45.242188 84.878906 45.242188 84.878906 C 45.242188 84.878906 44.84375 85.203125 44.828125 85.855469 C 44.8125 86.507812 44.78125 88.238281 46.507812 92.109375 C 48.234375 95.984375 51.378906 96.445312 51.554688 97.34375 C 51.726562 98.242188 51.757812 106.617188 51.757812 106.617188 "/>
<path style=" stroke:none;fill-rule:nonzero;fill:rgb(67.449951%,66.268921%,61.569214%);fill-opacity:1;" d="M 52.839844 106.910156 L 52.839844 94.785156 C 52.839844 94.785156 56.140625 94.964844 57.53125 91.910156 C 58.925781 88.855469 58.609375 87.015625 58.609375 87.015625 L 52.839844 87.015625 L 52.839844 84.679688 L 60.335938 84.679688 C 60.882812 84.679688 61.320312 85.332031 61.289062 86.109375 C 61.203125 88.105469 60.789062 91.773438 58.988281 94.335938 C 56.394531 98.015625 55.332031 98.152344 55.332031 98.152344 L 55.332031 106.910156 L 52.839844 106.910156 "/>
<path style=" stroke:none;fill-rule:nonzero;fill:rgb(85.099792%,83.918762%,79.60968%);fill-opacity:1;" d="M 60.441406 84.882812 C 60.441406 84.882812 61.140625 85.105469 61.105469 86.273438 C 61.074219 87.441406 60.710938 90.878906 59.035156 93.660156 C 57.359375 96.441406 55.207031 97.679688 55.015625 97.972656 C 54.824219 98.265625 55.015625 106.617188 55.015625 106.617188 L 53.925781 106.617188 C 53.925781 106.617188 53.957031 98.242188 54.128906 97.34375 C 54.304688 96.445312 57.449219 95.984375 59.175781 92.113281 C 60.90625 88.238281 60.871094 86.511719 60.855469 85.859375 C 60.839844 85.207031 60.441406 84.882812 60.441406 84.882812 "/>
<path style=" stroke:none;fill-rule:nonzero;fill:rgb(40.779114%,41.178894%,40.388489%);fill-opacity:1;" d="M 50.097656 175.808594 C 50.097656 175.808594 49.824219 176.902344 48.921875 177.304688 C 48.019531 177.710938 42.867188 179.054688 42.5625 179.800781 C 42.257812 180.542969 42.667969 208.617188 42.691406 209.425781 C 42.714844 210.234375 43.308594 210.839844 43.308594 210.839844 C 43.308594 210.839844 43.121094 181.90625 43.523438 180.589844 C 43.925781 179.277344 48.128906 179.074219 49.171875 178.570312 C 50.214844 178.0625 50.230469 177.960938 50.230469 177.960938 L 50.097656 175.808594 "/>
<path style=" stroke:none;fill-rule:nonzero;fill:rgb(30.198669%,67.83905%,36.859131%);fill-opacity:1;" d="M 14.328125 90.121094 L 13.859375 90.121094 L 13.859375 59.960938 L 14.328125 59.960938 L 14.328125 90.121094 "/>
<path style=" stroke:none;fill-rule:nonzero;fill:rgb(30.198669%,67.83905%,36.859131%);fill-opacity:1;" d="M 12.660156 91.5 L 3.800781 62.757812 L 4.226562 62.480469 L 13.085938 91.222656 L 12.660156 91.5 "/>
<path style=" stroke:none;fill-rule:nonzero;fill:rgb(30.198669%,67.83905%,36.859131%);fill-opacity:1;" d="M 13.863281 94.296875 L 8.886719 60.644531 L 9.34375 60.503906 L 14.320312 94.152344 L 13.863281 94.296875 "/>
<path style=" stroke:none;fill-rule:nonzero;fill:rgb(30.198669%,67.83905%,36.859131%);fill-opacity:1;" d="M 14.539062 97.972656 L 6.132812 61.707031 L 6.578125 61.488281 L 13.644531 91.972656 L 11.371094 59.996094 L 11.835938 59.925781 L 14.539062 97.972656 "/>
<path style=" stroke:none;fill-rule:nonzero;fill:rgb(30.198669%,67.83905%,36.859131%);fill-opacity:1;" d="M 15.5625 91.5 L 15.132812 91.222656 L 23.992188 62.480469 L 24.417969 62.757812 L 15.5625 91.5 "/>
<path style=" stroke:none;fill-rule:nonzero;fill:rgb(30.198669%,67.83905%,36.859131%);fill-opacity:1;" d="M 14.355469 94.296875 L 13.898438 94.152344 L 18.875 60.503906 L 19.332031 60.644531 L 14.355469 94.296875 "/>
<path style=" stroke:none;fill-rule:nonzero;fill:rgb(30.198669%,67.83905%,36.859131%);fill-opacity:1;" d="M 13.679688 97.972656 L 16.382812 59.925781 L 16.847656 59.996094 L 14.574219 91.972656 L 21.644531 61.488281 L 22.085938 61.707031 L 13.679688 97.972656 "/>
<path style=" stroke:none;fill-rule:nonzero;fill:rgb(30.198669%,67.83905%,36.859131%);fill-opacity:1;" d="M 24.316406 63.0625 C 24.277344 63.03125 20.398438 60.265625 14.09375 60.265625 C 7.785156 60.265625 3.945312 63.03125 3.90625 63.0625 L 3.695312 62.453125 C 3.855469 62.335938 7.667969 59.585938 14.09375 59.585938 C 20.519531 59.585938 24.484375 62.421875 24.523438 62.453125 L 24.316406 63.0625 "/>
<path style=" stroke:none;fill-rule:nonzero;fill:rgb(30.198669%,67.83905%,36.859131%);fill-opacity:1;" d="M 7.46875 74.503906 L 7.199219 73.945312 C 7.273438 73.867188 9.113281 72.019531 13.898438 72.019531 C 18.6875 72.019531 20.441406 73.875 20.511719 73.949219 L 20.234375 74.496094 C 20.214844 74.480469 18.503906 72.699219 13.898438 72.699219 C 9.285156 72.699219 7.488281 74.484375 7.46875 74.503906 "/>
<path style=" stroke:none;fill-rule:nonzero;fill:rgb(30.198669%,67.83905%,36.859131%);fill-opacity:1;" d="M 4.15625 62.898438 L 3.800781 62.453125 L 6.84375 57.324219 L 7.199219 57.769531 L 4.15625 62.898438 "/>
<path style=" stroke:none;fill-rule:nonzero;fill:rgb(30.198669%,67.83905%,36.859131%);fill-opacity:1;" d="M 6.488281 61.789062 L 6.132812 61.34375 L 9.175781 56.210938 L 9.53125 56.65625 L 6.488281 61.789062 "/>
<path style=" stroke:none;fill-rule:nonzero;fill:rgb(30.198669%,67.83905%,36.859131%);fill-opacity:1;" d="M 9.242188 60.972656 L 8.886719 60.527344 L 11.929688 55.394531 L 12.285156 55.839844 L 9.242188 60.972656 "/>
<path style=" stroke:none;fill-rule:nonzero;fill:rgb(30.198669%,67.83905%,36.859131%);fill-opacity:1;" d="M 11.742188 60.503906 L 11.386719 60.058594 L 14.429688 54.925781 L 14.785156 55.371094 L 11.742188 60.503906 "/>
<path style=" stroke:none;fill-rule:nonzero;fill:rgb(30.198669%,67.83905%,36.859131%);fill-opacity:1;" d="M 14.253906 60.320312 L 13.898438 59.878906 L 16.941406 54.746094 L 17.296875 55.191406 L 14.253906 60.320312 "/>
<path style=" stroke:none;fill-rule:nonzero;fill:rgb(30.198669%,67.83905%,36.859131%);fill-opacity:1;" d="M 16.730469 60.503906 L 16.378906 60.058594 L 19.421875 54.925781 L 19.777344 55.371094 L 16.730469 60.503906 "/>
<path style=" stroke:none;fill-rule:nonzero;fill:rgb(30.198669%,67.83905%,36.859131%);fill-opacity:1;" d="M 19.167969 60.9375 L 18.8125 60.488281 L 21.859375 55.359375 L 22.210938 55.804688 L 19.167969 60.9375 "/>
<path style=" stroke:none;fill-rule:nonzero;fill:rgb(30.198669%,67.83905%,36.859131%);fill-opacity:1;" d="M 21.992188 61.84375 L 21.636719 61.398438 L 24.683594 56.265625 L 25.035156 56.710938 L 21.992188 61.84375 "/>
<path style=" stroke:none;fill-rule:nonzero;fill:rgb(30.198669%,67.83905%,36.859131%);fill-opacity:1;" d="M 24.160156 63.109375 L 23.808594 62.664062 L 26.851562 57.53125 L 27.207031 57.976562 L 24.160156 63.109375 "/>
<path style=" stroke:none;fill-rule:nonzero;fill:rgb(49.01886%,49.01886%,48.629761%);fill-opacity:1;" d="M 12.394531 103.175781 C 12.113281 103.175781 11.890625 102.941406 11.910156 102.671875 L 12.898438 90.121094 L 12.199219 90.121094 L 11.144531 103.488281 C 11.125 103.761719 11.347656 103.996094 11.628906 103.996094 L 16.554688 103.996094 C 16.839844 103.996094 17.0625 103.761719 17.039062 103.488281 L 17.015625 103.175781 L 12.394531 103.175781 "/>
<path style=" stroke:none;fill-rule:nonzero;fill:rgb(67.449951%,66.268921%,61.569214%);fill-opacity:1;" d="M 14.09375 90.121094 L 12.898438 90.121094 L 11.910156 102.671875 C 11.890625 102.941406 12.113281 103.175781 12.394531 103.175781 L 17.015625 103.175781 L 15.988281 90.121094 L 14.09375 90.121094 "/>
<path style=" stroke:none;fill-rule:nonzero;fill:rgb(58.81958%,58.039856%,55.288696%);fill-opacity:1;" d="M 15.6875 90.347656 L 16.726562 103 L 16.207031 103 L 15.359375 90.347656 L 15.6875 90.347656 "/>
<path style=" stroke:none;fill-rule:nonzero;fill:rgb(92.549133%,92.158508%,91.369629%);fill-opacity:1;" d="M 15.136719 90.347656 L 16.042969 103 L 15.359375 103 L 14.785156 90.347656 L 15.136719 90.347656 "/>
<path style=" stroke:none;fill-rule:nonzero;fill:rgb(74.508667%,74.119568%,73.329163%);fill-opacity:1;" d="M 13.117188 90.347656 L 12.160156 103 L 13.117188 103 L 13.582031 90.347656 L 13.117188 90.347656 "/>
<path style=" stroke:none;fill-rule:nonzero;fill:rgb(81.17981%,68.238831%,31.369019%);fill-opacity:1;" d="M 16.550781 103.996094 L 11.636719 103.996094 L 11.636719 213.125 L 16.550781 213.125 L 16.550781 103.996094 "/>
<path style=" stroke:none;fill-rule:nonzero;fill:rgb(70.979309%,57.649231%,24.308777%);fill-opacity:1;" d="M 13.179688 103.996094 L 11.636719 103.996094 L 11.636719 213.125 L 13.179688 213.125 L 13.179688 103.996094 "/>
<path style=" stroke:none;fill-rule:nonzero;fill:rgb(87.059021%,73.329163%,38.819885%);fill-opacity:1;" d="M 15.707031 213.125 L 14.648438 213.125 L 14.648438 103.996094 L 15.707031 103.996094 L 15.707031 213.125 "/>
<path style=" stroke:none;fill-rule:nonzero;fill:rgb(49.01886%,49.01886%,48.629761%);fill-opacity:1;" d="M 32.828125 97.3125 C 32.539062 97.3125 32.3125 97.066406 32.335938 96.78125 L 33.339844 83.472656 L 32.628906 83.472656 L 31.558594 97.648438 C 31.535156 97.9375 31.761719 98.183594 32.050781 98.183594 L 37.050781 98.183594 C 37.339844 98.183594 37.5625 97.9375 37.542969 97.648438 L 37.519531 97.3125 L 32.828125 97.3125 "/>
<path style=" stroke:none;fill-rule:nonzero;fill:rgb(67.449951%,66.268921%,61.569214%);fill-opacity:1;" d="M 34.550781 83.472656 L 33.339844 83.472656 L 32.335938 96.78125 C 32.3125 97.066406 32.539062 97.3125 32.828125 97.3125 L 37.519531 97.3125 L 36.472656 83.472656 L 34.550781 83.472656 "/>
<path style=" stroke:none;fill-rule:nonzero;fill:rgb(58.81958%,58.039856%,55.288696%);fill-opacity:1;" d="M 36.167969 83.714844 L 37.222656 97.128906 L 36.695312 97.128906 L 35.835938 83.714844 L 36.167969 83.714844 "/>
<path style=" stroke:none;fill-rule:nonzero;fill:rgb(92.549133%,92.158508%,91.369629%);fill-opacity:1;" d="M 35.613281 83.714844 L 36.53125 97.128906 L 35.835938 97.128906 L 35.253906 83.714844 L 35.613281 83.714844 "/>
<path style=" stroke:none;fill-rule:nonzero;fill:rgb(74.508667%,74.119568%,73.329163%);fill-opacity:1;" d="M 33.5625 83.714844 L 32.589844 97.128906 L 33.5625 97.128906 L 34.035156 83.714844 L 33.5625 83.714844 "/>
<path style=" stroke:none;fill-rule:nonzero;fill:rgb(81.17981%,68.238831%,31.369019%);fill-opacity:1;" d="M 37.042969 98.183594 L 32.054688 98.183594 L 32.054688 213.871094 L 37.042969 213.871094 L 37.042969 98.183594 "/>
<path style=" stroke:none;fill-rule:nonzero;fill:rgb(70.979309%,57.649231%,24.308777%);fill-opacity:1;" d="M 33.625 98.183594 L 32.054688 98.183594 L 32.054688 213.871094 L 33.625 213.871094 L 33.625 98.183594 "/>
<path style=" stroke:none;fill-rule:nonzero;fill:rgb(87.059021%,73.329163%,38.819885%);fill-opacity:1;" d="M 36.191406 213.871094 L 35.113281 213.871094 L 35.113281 98.183594 L 36.191406 98.183594 L 36.191406 213.871094 "/>
<path style=" stroke:none;fill-rule:nonzero;fill:rgb(30.198669%,67.83905%,36.859131%);fill-opacity:1;" d="M 36.472656 83.472656 L 36.472656 81.683594 L 33.3125 81.683594 L 25.753906 71.867188 C 25.753906 71.867188 31.945312 66.738281 32.054688 66.667969 C 32.167969 66.59375 34.355469 67.75 34.355469 67.75 C 34.355469 67.75 44.09375 66.730469 44.378906 66.664062 C 44.664062 66.59375 40.816406 62.261719 40.4375 62.1875 C 40.054688 62.117188 30.933594 65.222656 30.933594 65.222656 L 31.558594 65.945312 L 24.335938 72.082031 L 32.589844 82.191406 L 32.628906 83.472656 L 36.472656 83.472656 "/>
<path style=" stroke:none;fill-rule:nonzero;fill:rgb(94.119263%,23.139954%,30.198669%);fill-opacity:1;" d="M 129.46875 56.394531 C 129.46875 56.394531 123.332031 58.722656 117.570312 63.085938 C 111.816406 67.449219 103.8125 73.621094 103.8125 73.621094 C 103.8125 73.621094 106.339844 52.097656 105.777344 51.347656 C 105.214844 50.59375 98.476562 50.445312 97.773438 51.347656 C 97.070312 52.25 93.839844 72.265625 93 76.632812 C 92.15625 80.996094 94.824219 87.617188 99.457031 87.464844 C 104.089844 87.316406 123.15625 77.351562 123.15625 77.351562 L 129.46875 56.394531 "/>
<path style=" stroke:none;fill-rule:nonzero;fill:rgb(30.198669%,67.83905%,36.859131%);fill-opacity:1;" d="M 197.464844 51.027344 L 197.460938 50.542969 L 219.007812 50.449219 L 219.011719 50.9375 L 197.464844 51.027344 "/>
<path style=" stroke:none;fill-rule:nonzero;fill:rgb(30.198669%,67.83905%,36.859131%);fill-opacity:1;" d="M 196.46875 49.296875 L 216.96875 39.988281 L 217.167969 40.433594 L 196.667969 49.742188 L 196.46875 49.296875 "/>
<path style=" stroke:none;fill-rule:nonzero;fill:rgb(30.198669%,67.83905%,36.859131%);fill-opacity:1;" d="M 194.476562 50.558594 L 218.496094 45.277344 L 218.601562 45.753906 L 194.582031 51.035156 L 194.476562 50.558594 "/>
<path style=" stroke:none;fill-rule:nonzero;fill:rgb(30.198669%,67.83905%,36.859131%);fill-opacity:1;" d="M 191.851562 51.277344 L 217.730469 42.414062 L 217.886719 42.875 L 196.136719 50.324219 L 218.972656 47.859375 L 219.027344 48.34375 L 191.851562 51.277344 "/>
<path style=" stroke:none;fill-rule:nonzero;fill:rgb(30.198669%,67.83905%,36.859131%);fill-opacity:1;" d="M 196.480469 52.320312 L 196.675781 51.875 L 217.257812 61 L 217.058594 61.445312 L 196.480469 52.320312 "/>
<path style=" stroke:none;fill-rule:nonzero;fill:rgb(30.198669%,67.83905%,36.859131%);fill-opacity:1;" d="M 194.480469 51.070312 L 194.578125 50.59375 L 218.644531 55.671875 L 218.546875 56.148438 L 194.480469 51.070312 "/>
<path style=" stroke:none;fill-rule:nonzero;fill:rgb(30.198669%,67.83905%,36.859131%);fill-opacity:1;" d="M 191.851562 50.378906 L 219.046875 53.074219 L 218.996094 53.558594 L 196.140625 51.292969 L 217.957031 58.554688 L 217.800781 59.015625 L 191.851562 50.378906 "/>
<path style=" stroke:none;fill-rule:nonzero;fill:rgb(30.198669%,67.83905%,36.859131%);fill-opacity:1;" d="M 216.839844 61.339844 C 216.859375 61.300781 218.820312 57.257812 218.792969 50.695312 C 218.765625 44.132812 216.769531 40.140625 216.75 40.101562 L 217.183594 39.878906 C 217.265625 40.046875 219.25 44.003906 219.28125 50.691406 C 219.308594 57.378906 217.296875 61.515625 217.277344 61.554688 L 216.839844 61.339844 "/>
<path style=" stroke:none;fill-rule:nonzero;fill:rgb(30.198669%,67.83905%,36.859131%);fill-opacity:1;" d="M 208.59375 43.84375 L 208.988281 43.5625 C 209.042969 43.640625 210.375 45.546875 210.394531 50.527344 C 210.417969 55.511719 209.101562 57.34375 209.042969 57.417969 L 208.652344 57.125 C 208.667969 57.113281 209.929688 55.324219 209.910156 50.53125 C 209.886719 45.730469 208.605469 43.863281 208.59375 43.84375 "/>
<path style=" stroke:none;fill-rule:nonzero;fill:rgb(30.198669%,67.83905%,36.859131%);fill-opacity:1;" d="M 216.867188 40.359375 L 217.183594 39.988281 L 220.863281 43.140625 L 220.546875 43.511719 L 216.867188 40.359375 "/>
<path style=" stroke:none;fill-rule:nonzero;fill:rgb(30.198669%,67.83905%,36.859131%);fill-opacity:1;" d="M 217.671875 42.78125 L 217.988281 42.414062 L 221.667969 45.566406 L 221.351562 45.9375 L 217.671875 42.78125 "/>
<g clip-path="url(#clip7)" clip-rule="nonzero">
<path style=" stroke:none;fill-rule:nonzero;fill:rgb(30.198669%,67.83905%,36.859131%);fill-opacity:1;" d="M 218.265625 45.648438 L 218.582031 45.277344 L 222.265625 48.429688 L 221.945312 48.796875 L 218.265625 45.648438 "/>
</g>
<g clip-path="url(#clip8)" clip-rule="nonzero">
<path style=" stroke:none;fill-rule:nonzero;fill:rgb(30.198669%,67.83905%,36.859131%);fill-opacity:1;" d="M 218.613281 48.246094 L 218.929688 47.875 L 222.609375 51.03125 L 222.292969 51.398438 L 218.613281 48.246094 "/>
</g>
<g clip-path="url(#clip9)" clip-rule="nonzero">
<path style=" stroke:none;fill-rule:nonzero;fill:rgb(30.198669%,67.83905%,36.859131%);fill-opacity:1;" d="M 218.757812 50.859375 L 219.070312 50.488281 L 222.753906 53.640625 L 222.433594 54.011719 L 218.757812 50.859375 "/>
</g>
<g clip-path="url(#clip10)" clip-rule="nonzero">
<path style=" stroke:none;fill-rule:nonzero;fill:rgb(30.198669%,67.83905%,36.859131%);fill-opacity:1;" d="M 218.636719 53.441406 L 218.953125 53.070312 L 222.632812 56.222656 L 222.316406 56.59375 L 218.636719 53.441406 "/>
</g>
<g clip-path="url(#clip11)" clip-rule="nonzero">
<path style=" stroke:none;fill-rule:nonzero;fill:rgb(30.198669%,67.83905%,36.859131%);fill-opacity:1;" d="M 218.339844 55.976562 L 218.65625 55.609375 L 222.335938 58.757812 L 222.019531 59.128906 L 218.339844 55.976562 "/>
</g>
<path style=" stroke:none;fill-rule:nonzero;fill:rgb(30.198669%,67.83905%,36.859131%);fill-opacity:1;" d="M 217.703125 58.917969 L 218.019531 58.550781 L 221.699219 61.699219 L 221.382812 62.070312 L 217.703125 58.917969 "/>
<path style=" stroke:none;fill-rule:nonzero;fill:rgb(30.198669%,67.83905%,36.859131%);fill-opacity:1;" d="M 216.804688 61.179688 L 217.121094 60.808594 L 220.804688 63.960938 L 220.484375 64.332031 L 216.804688 61.179688 "/>
<path style=" stroke:none;fill-rule:nonzero;fill:rgb(49.01886%,49.01886%,48.629761%);fill-opacity:1;" d="M 188.125 49.058594 C 188.125 48.765625 188.289062 48.53125 188.484375 48.554688 L 197.457031 49.542969 L 197.453125 48.816406 L 187.894531 47.761719 C 187.699219 47.738281 187.535156 47.96875 187.539062 48.265625 L 187.546875 50.828125 L 187.558594 53.390625 C 187.558594 53.6875 187.726562 53.917969 187.921875 53.894531 L 188.148438 53.867188 L 188.136719 51.625 L 188.125 49.058594 "/>
<path style=" stroke:none;fill-rule:nonzero;fill:rgb(67.449951%,66.268921%,61.569214%);fill-opacity:1;" d="M 197.460938 50.785156 L 197.457031 49.542969 L 188.484375 48.550781 C 188.289062 48.53125 188.125 48.761719 188.125 49.058594 L 188.136719 51.621094 L 188.144531 53.867188 L 197.472656 52.757812 L 197.460938 50.785156 "/>
<path style=" stroke:none;fill-rule:nonzero;fill:rgb(58.81958%,58.039856%,55.288696%);fill-opacity:1;" d="M 197.304688 52.445312 L 188.273438 53.566406 L 188.269531 53.023438 L 197.304688 52.105469 L 197.304688 52.445312 "/>
<path style=" stroke:none;fill-rule:nonzero;fill:rgb(92.549133%,92.158508%,91.369629%);fill-opacity:1;" d="M 197.304688 51.875 L 188.269531 52.855469 L 188.265625 52.144531 L 197.300781 51.507812 L 197.304688 51.875 "/>
<path style=" stroke:none;fill-rule:nonzero;fill:rgb(74.508667%,74.119568%,73.329163%);fill-opacity:1;" d="M 197.292969 49.773438 L 188.25 48.816406 L 188.253906 49.8125 L 197.296875 50.253906 L 197.292969 49.773438 "/>
<path style=" stroke:none;fill-rule:nonzero;fill:rgb(81.17981%,68.238831%,31.369019%);fill-opacity:1;" d="M 187.558594 53.386719 L 187.539062 48.269531 L 38.066406 48.917969 L 38.089844 54.03125 L 187.558594 53.386719 "/>
<path style=" stroke:none;fill-rule:nonzero;fill:rgb(70.979309%,57.649231%,24.308777%);fill-opacity:1;" d="M 187.546875 49.878906 L 187.539062 48.273438 L 38.066406 48.917969 L 38.074219 50.523438 L 187.546875 49.878906 "/>
<path style=" stroke:none;fill-rule:nonzero;fill:rgb(94.509888%,87.449646%,67.059326%);fill-opacity:1;" d="M 38.085938 53.15625 L 38.082031 52.15625 L 38.085938 53.15625 "/>
<path style=" stroke:none;fill-rule:nonzero;fill:rgb(87.059021%,73.329163%,38.819885%);fill-opacity:1;" d="M 38.085938 53.15625 L 38.082031 52.15625 L 38.082031 52.050781 L 42.300781 52.035156 L 42.28125 53.035156 L 42.277344 53.136719 L 38.085938 53.15625 "/>
<path style=" stroke:none;fill-rule:nonzero;fill:rgb(87.059021%,73.329163%,38.819885%);fill-opacity:1;" d="M 161.242188 52.625 L 152.382812 52.449219 C 152.472656 52.160156 152.554688 51.863281 152.632812 51.558594 L 187.550781 51.40625 L 187.550781 51.511719 L 187.554688 52.507812 L 175.480469 52.5625 L 174.550781 52.4375 C 174.539062 52.433594 174.535156 52.433594 174.523438 52.433594 C 174.441406 52.433594 174.367188 52.484375 174.3125 52.566406 L 161.242188 52.625 "/>
<path style=" stroke:none;fill-rule:nonzero;fill:rgb(49.01886%,49.01886%,48.629761%);fill-opacity:1;" d="M 191 59.605469 C 191.039062 59.3125 191.234375 59.105469 191.425781 59.152344 L 200.179688 61.347656 L 200.273438 60.625 L 190.949219 58.285156 C 190.757812 58.238281 190.5625 58.445312 190.523438 58.738281 L 190.1875 61.277344 L 189.851562 63.820312 C 189.816406 64.113281 189.949219 64.363281 190.144531 64.367188 L 190.371094 64.371094 L 190.664062 62.144531 L 191 59.605469 "/>
<path style=" stroke:none;fill-rule:nonzero;fill:rgb(67.449951%,66.268921%,61.569214%);fill-opacity:1;" d="M 200.015625 62.578125 L 200.179688 61.34375 L 191.425781 59.152344 C 191.234375 59.101562 191.039062 59.3125 191 59.601562 L 190.664062 62.144531 L 190.371094 64.371094 L 199.761719 64.53125 L 200.015625 62.578125 "/>
<path style=" stroke:none;fill-rule:nonzero;fill:rgb(58.81958%,58.039856%,55.288696%);fill-opacity:1;" d="M 199.636719 64.199219 L 190.535156 64.085938 L 190.605469 63.550781 L 199.683594 63.863281 L 199.636719 64.199219 "/>
<path style=" stroke:none;fill-rule:nonzero;fill:rgb(92.549133%,92.158508%,91.369629%);fill-opacity:1;" d="M 199.710938 63.636719 L 190.628906 63.382812 L 190.722656 62.675781 L 199.761719 63.273438 L 199.710938 63.636719 "/>
<path style=" stroke:none;fill-rule:nonzero;fill:rgb(74.508667%,74.119568%,73.329163%);fill-opacity:1;" d="M 199.988281 61.550781 L 191.15625 59.378906 L 191.027344 60.367188 L 199.925781 62.03125 L 199.988281 61.550781 "/>
<path style=" stroke:none;fill-rule:nonzero;fill:rgb(81.17981%,68.238831%,31.369019%);fill-opacity:1;" d="M 189.851562 63.8125 L 190.523438 58.746094 L 42.339844 39.152344 L 41.671875 44.222656 L 189.851562 63.8125 "/>
<path style=" stroke:none;fill-rule:nonzero;fill:rgb(70.979309%,57.649231%,24.308777%);fill-opacity:1;" d="M 190.3125 60.335938 L 190.523438 58.746094 L 42.339844 39.152344 L 42.128906 40.746094 L 190.3125 60.335938 "/>
<path style=" stroke:none;fill-rule:nonzero;fill:rgb(87.059021%,73.329163%,38.819885%);fill-opacity:1;" d="M 189.96875 62.945312 L 147.46875 57.328125 C 147.820312 57.199219 148.171875 57.050781 148.515625 56.886719 L 153.269531 56.980469 L 190.113281 61.851562 L 189.96875 62.945312 "/>
<path style=" stroke:none;fill-rule:nonzero;fill:rgb(87.059021%,73.329163%,38.819885%);fill-opacity:1;" d="M 113.113281 51.671875 L 103.203125 51.476562 L 41.785156 43.355469 L 41.808594 43.195312 L 41.929688 42.261719 L 113.113281 51.671875 "/>
<path style=" stroke:none;fill-rule:nonzero;fill:rgb(30.198669%,67.83905%,36.859131%);fill-opacity:1;" d="M 198.695312 75.859375 L 202.183594 49.410156 C 202.292969 48.589844 203.042969 48.011719 203.863281 48.121094 L 204.660156 48.226562 C 205.480469 48.335938 206.058594 49.089844 205.949219 49.90625 L 202.457031 76.355469 C 202.351562 77.175781 201.597656 77.75 200.777344 77.640625 L 199.980469 77.539062 C 199.160156 77.429688 198.585938 76.675781 198.695312 75.859375 "/>
<path style=" stroke:none;fill-rule:nonzero;fill:rgb(20.388794%,48.629761%,24.708557%);fill-opacity:1;" d="M 202.332031 48.566406 L 201.777344 49.246094 L 198.214844 76.242188 L 198.617188 76.710938 L 202.332031 48.566406 "/>
<path style=" stroke:none;fill-rule:nonzero;fill:rgb(20.388794%,48.629761%,24.708557%);fill-opacity:1;" d="M 206.03125 49.296875 L 208.125 54.605469 L 208.039062 55.28125 L 205.945312 49.945312 L 206.03125 49.296875 "/>
<path style=" stroke:none;fill-rule:nonzero;fill:rgb(30.198669%,67.83905%,36.859131%);fill-opacity:1;" d="M 208.039062 55.28125 L 207.84375 55.257812 L 205.882812 50.410156 L 205.945312 49.945312 L 208.039062 55.28125 "/>
<path style=" stroke:none;fill-rule:nonzero;fill:rgb(20.388794%,48.629761%,24.708557%);fill-opacity:1;" d="M 205.621094 52.378906 L 207.71875 57.691406 L 207.628906 58.367188 L 205.535156 53.027344 L 205.621094 52.378906 "/>
<path style=" stroke:none;fill-rule:nonzero;fill:rgb(30.198669%,67.83905%,36.859131%);fill-opacity:1;" d="M 207.632812 58.367188 L 207.4375 58.339844 L 205.476562 53.496094 L 205.535156 53.027344 L 207.632812 58.367188 "/>
<path style=" stroke:none;fill-rule:nonzero;fill:rgb(20.388794%,48.629761%,24.708557%);fill-opacity:1;" d="M 205.15625 55.890625 L 207.257812 61.199219 L 207.167969 61.875 L 205.074219 56.535156 L 205.15625 55.890625 "/>
<path style=" stroke:none;fill-rule:nonzero;fill:rgb(30.198669%,67.83905%,36.859131%);fill-opacity:1;" d="M 207.167969 61.875 L 206.976562 61.847656 L 205.011719 57.003906 L 205.074219 56.535156 L 207.167969 61.875 "/>
<path style=" stroke:none;fill-rule:nonzero;fill:rgb(20.388794%,48.629761%,24.708557%);fill-opacity:1;" d="M 204.753906 58.972656 L 206.851562 64.28125 L 206.761719 64.957031 L 204.667969 59.617188 L 204.753906 58.972656 "/>
<path style=" stroke:none;fill-rule:nonzero;fill:rgb(30.198669%,67.83905%,36.859131%);fill-opacity:1;" d="M 206.761719 64.957031 L 206.566406 64.929688 L 204.605469 60.085938 L 204.667969 59.621094 L 206.761719 64.957031 "/>
<path style=" stroke:none;fill-rule:nonzero;fill:rgb(20.388794%,48.629761%,24.708557%);fill-opacity:1;" d="M 204.273438 62.605469 L 206.371094 67.914062 L 206.28125 68.59375 L 204.1875 63.253906 L 204.273438 62.605469 "/>
<path style=" stroke:none;fill-rule:nonzero;fill:rgb(30.198669%,67.83905%,36.859131%);fill-opacity:1;" d="M 206.28125 68.59375 L 206.085938 68.566406 L 204.125 63.71875 L 204.1875 63.253906 L 206.28125 68.59375 "/>
<path style=" stroke:none;fill-rule:nonzero;fill:rgb(20.388794%,48.629761%,24.708557%);fill-opacity:1;" d="M 203.867188 65.6875 L 205.964844 70.996094 L 205.871094 71.675781 L 203.78125 66.335938 L 203.867188 65.6875 "/>
<path style=" stroke:none;fill-rule:nonzero;fill:rgb(30.198669%,67.83905%,36.859131%);fill-opacity:1;" d="M 205.875 71.675781 L 205.679688 71.648438 L 203.71875 66.804688 L 203.78125 66.339844 L 205.875 71.675781 "/>
<path style=" stroke:none;fill-rule:nonzero;fill:rgb(20.388794%,48.629761%,24.708557%);fill-opacity:1;" d="M 203.402344 69.195312 L 205.5 74.507812 L 205.410156 75.183594 L 203.316406 69.84375 L 203.402344 69.195312 "/>
<path style=" stroke:none;fill-rule:nonzero;fill:rgb(30.198669%,67.83905%,36.859131%);fill-opacity:1;" d="M 205.410156 75.183594 L 205.21875 75.15625 L 203.253906 70.3125 L 203.316406 69.84375 L 205.410156 75.183594 "/>
<path style=" stroke:none;fill-rule:nonzero;fill:rgb(20.388794%,48.629761%,24.708557%);fill-opacity:1;" d="M 202.996094 72.28125 L 205.09375 77.589844 L 205.003906 78.265625 L 202.910156 72.929688 L 202.996094 72.28125 "/>
<path style=" stroke:none;fill-rule:nonzero;fill:rgb(30.198669%,67.83905%,36.859131%);fill-opacity:1;" d="M 205.003906 78.265625 L 204.8125 78.238281 L 202.847656 73.394531 L 202.910156 72.925781 L 205.003906 78.265625 "/>
<path style=" stroke:none;fill-rule:nonzero;fill:rgb(20.388794%,48.629761%,24.708557%);fill-opacity:1;" d="M 202.511719 75.949219 L 204.609375 81.261719 L 204.519531 81.9375 L 202.425781 76.597656 L 202.511719 75.949219 "/>
<path style=" stroke:none;fill-rule:nonzero;fill:rgb(30.198669%,67.83905%,36.859131%);fill-opacity:1;" d="M 204.519531 81.9375 L 204.328125 81.910156 L 202.363281 77.066406 L 202.425781 76.597656 L 204.519531 81.9375 "/>
<g clip-path="url(#clip12)" clip-rule="nonzero">
<g clip-path="url(#clip13)" clip-rule="nonzero">
<path style=" stroke:none;fill-rule:nonzero;fill:rgb(50.588989%,79.219055%,53.729248%);fill-opacity:1;" d="M 199.113281 51.402344 L 205.101562 51.402344 L 205.101562 77.167969 L 199.113281 77.167969 "/>
</g>
</g>
<path style=" stroke:none;fill-rule:nonzero;fill:rgb(49.01886%,49.01886%,48.629761%);fill-opacity:1;" d="M 174.726562 53.589844 C 174.730469 53.328125 174.878906 53.125 175.050781 53.148438 L 182.945312 54.214844 L 182.960938 53.570312 L 174.550781 52.4375 C 174.378906 52.414062 174.226562 52.613281 174.222656 52.875 L 174.175781 55.136719 L 174.132812 57.398438 C 174.128906 57.660156 174.269531 57.867188 174.441406 57.851562 L 174.640625 57.832031 L 174.679688 55.847656 L 174.726562 53.589844 "/>
<path style=" stroke:none;fill-rule:nonzero;fill:rgb(67.449951%,66.268921%,61.569214%);fill-opacity:1;" d="M 182.925781 55.308594 L 182.949219 54.214844 L 175.050781 53.148438 C 174.882812 53.125 174.730469 53.328125 174.722656 53.585938 L 174.679688 55.847656 L 174.640625 57.832031 L 182.890625 57.050781 L 182.925781 55.308594 "/>
<path style=" stroke:none;fill-rule:nonzero;fill:rgb(58.81958%,58.039856%,55.288696%);fill-opacity:1;" d="M 182.75 56.773438 L 174.757812 57.566406 L 174.765625 57.089844 L 182.757812 56.46875 L 182.75 56.773438 "/>
<path style=" stroke:none;fill-rule:nonzero;fill:rgb(92.549133%,92.158508%,91.369629%);fill-opacity:1;" d="M 182.761719 56.269531 L 174.769531 56.941406 L 174.78125 56.3125 L 182.769531 55.941406 L 182.761719 56.269531 "/>
<path style=" stroke:none;fill-rule:nonzero;fill:rgb(74.508667%,74.119568%,73.329163%);fill-opacity:1;" d="M 182.796875 54.414062 L 174.839844 53.378906 L 174.820312 54.253906 L 182.789062 54.839844 L 182.796875 54.414062 "/>
<path style=" stroke:none;fill-rule:nonzero;fill:rgb(81.17981%,68.238831%,31.369019%);fill-opacity:1;" d="M 174.132812 57.394531 L 174.222656 52.878906 L 42.335938 50.269531 L 42.246094 54.785156 L 174.132812 57.394531 "/>
<path style=" stroke:none;fill-rule:nonzero;fill:rgb(70.979309%,57.649231%,24.308777%);fill-opacity:1;" d="M 174.195312 54.296875 L 174.222656 52.878906 L 42.335938 50.269531 L 42.308594 51.691406 L 174.195312 54.296875 "/>
<path style=" stroke:none;fill-rule:nonzero;fill:rgb(94.509888%,87.449646%,67.059326%);fill-opacity:1;" d="M 174.148438 56.578125 L 174.167969 55.644531 L 174.164062 55.792969 L 174.148438 56.578125 "/>
<path style=" stroke:none;fill-rule:nonzero;fill:rgb(74.119568%,66.268921%,46.669006%);fill-opacity:1;" d="M 174.148438 56.621094 L 174.148438 56.578125 L 174.164062 55.792969 L 174.148438 56.621094 "/>
<path style=" stroke:none;fill-rule:nonzero;fill:rgb(87.059021%,73.329163%,38.819885%);fill-opacity:1;" d="M 42.261719 54.011719 L 42.277344 53.136719 L 42.261719 54.011719 "/>
<path style=" stroke:none;fill-rule:nonzero;fill:rgb(89.019775%,75.689697%,41.958618%);fill-opacity:1;" d="M 42.277344 53.140625 L 42.28125 53.039062 L 42.277344 53.140625 "/>
<path style=" stroke:none;fill-rule:nonzero;fill:rgb(87.059021%,73.329163%,38.819885%);fill-opacity:1;" d="M 174.148438 56.621094 L 149.789062 56.140625 C 150.179688 55.863281 150.546875 55.546875 150.878906 55.183594 L 174.167969 55.644531 L 174.148438 56.578125 L 174.148438 56.621094 M 134.226562 55.832031 L 42.261719 54.011719 L 42.277344 53.140625 L 42.28125 53.039062 L 133.371094 54.839844 C 133.652344 55.1875 133.9375 55.519531 134.226562 55.832031 "/>
<path style=" stroke:none;fill-rule:nonzero;fill:rgb(30.198669%,67.83905%,36.859131%);fill-opacity:1;" d="M 182.890625 57.050781 L 183.957031 57.070312 L 184.011719 54.210938 L 189.988281 47.488281 C 189.988281 47.488281 192.925781 53.148438 192.964844 53.25 C 193.007812 53.355469 192.28125 55.316406 192.28125 55.316406 C 192.28125 55.316406 192.710938 64.140625 192.746094 64.398438 C 192.785156 64.65625 195.429688 61.226562 195.480469 60.882812 C 195.527344 60.539062 193.84375 52.25 193.84375 52.25 L 193.40625 52.808594 L 189.882812 46.203125 L 183.722656 53.550781 L 182.960938 53.570312 L 182.890625 57.050781 "/>
<path style=" stroke:none;fill-rule:nonzero;fill:rgb(94.119263%,23.139954%,30.198669%);fill-opacity:1;" d="M 151.402344 57.382812 L 156.234375 59.289062 C 156.234375 59.289062 162.515625 61.992188 171.839844 72.394531 C 181.167969 82.796875 182.605469 92.296875 182.339844 93.496094 C 182.074219 94.695312 161.820312 111.632812 161.820312 111.632812 L 157.820312 104.226562 L 170.082031 90.695312 L 160.621094 79.894531 C 160.621094 79.894531 155.214844 95.582031 154.546875 99.363281 C 153.875 103.148438 122.484375 95.332031 122.484375 95.332031 L 127.4375 66.957031 L 131.304688 57.382812 L 133.703125 56.226562 L 151.402344 57.382812 "/>
<path style=" stroke:none;fill-rule:nonzero;fill:rgb(98.039246%,74.899292%,56.858826%);fill-opacity:1;" d="M 121.832031 183.164062 L 115.25 214.972656 L 106.707031 212.34375 L 110.019531 180.988281 L 121.832031 183.164062 "/>
<path style=" stroke:none;fill-rule:nonzero;fill:rgb(51.759338%,30.198669%,18.429565%);fill-opacity:1;" d="M 117.78125 205.074219 C 117.78125 205.074219 116.6875 220.140625 116.40625 220.34375 C 116.125 220.550781 114.039062 221.5625 111.988281 221.496094 C 109.933594 221.429688 108.417969 221.667969 107.8125 221.363281 C 107.203125 221.054688 100.902344 223.222656 94 222.640625 C 87.097656 222.058594 87.027344 219.753906 87.105469 219.46875 C 87.183594 219.183594 86.425781 217.003906 91.453125 216.015625 C 96.484375 215.027344 105.113281 210.632812 105.609375 210.074219 C 106.105469 209.515625 103.636719 204.835938 106.585938 204.714844 C 109.535156 204.59375 110.984375 205.503906 111.414062 206.597656 C 111.84375 207.6875 111.832031 208.121094 111.832031 208.121094 C 111.832031 208.121094 114.234375 205.679688 115.269531 205.355469 C 116.308594 205.027344 117.78125 205.074219 117.78125 205.074219 "/>
<path style=" stroke:none;fill-rule:nonzero;fill:rgb(98.039246%,74.899292%,56.858826%);fill-opacity:1;" d="M 152.382812 183.371094 L 151.445312 212.546875 L 142.34375 213.722656 L 139.691406 182.339844 L 152.382812 183.371094 "/>
<g clip-path="url(#clip14)" clip-rule="nonzero">
<path style=" stroke:none;fill-rule:nonzero;fill:rgb(51.759338%,30.198669%,18.429565%);fill-opacity:1;" d="M 141.09375 205.699219 C 141.09375 205.699219 141 220.804688 141.261719 221.035156 C 141.523438 221.265625 143.523438 222.453125 145.574219 222.566406 C 147.628906 222.675781 149.117188 223.046875 149.746094 222.792969 C 150.378906 222.539062 156.484375 225.246094 163.410156 225.261719 C 170.335938 225.277344 170.585938 222.988281 170.53125 222.699219 C 170.476562 222.410156 171.402344 220.300781 166.46875 218.878906 C 161.53125 217.460938 153.28125 212.335938 152.832031 211.734375 C 152.378906 211.132812 155.207031 206.683594 152.277344 206.308594 C 149.34375 205.933594 147.832031 206.714844 147.316406 207.765625 C 146.804688 208.816406 146.78125 209.246094 146.78125 209.246094 C 146.78125 209.246094 144.578125 206.609375 143.570312 206.195312 C 142.5625 205.777344 141.09375 205.699219 141.09375 205.699219 "/>
</g>
<path style=" stroke:none;fill-rule:nonzero;fill:rgb(41.178894%,61.569214%,74.508667%);fill-opacity:1;" d="M 152.46875 57.921875 C 152.46875 57.921875 146.480469 70.425781 145.207031 77.605469 C 143.929688 84.785156 142.976562 92.527344 142.976562 92.527344 L 127.46875 92.738281 L 126.167969 92.796875 C 126.167969 92.796875 126.511719 78.109375 128.613281 69.382812 C 130.714844 60.652344 133.066406 56.226562 133.066406 56.226562 L 129.46875 56.394531 C 129.46875 56.394531 125.101562 64.078125 122.710938 77.351562 C 120.316406 90.625 119.753906 95.109375 119.753906 95.109375 C 119.753906 95.109375 107.46875 176.597656 107.925781 177.65625 C 108.382812 178.714844 124.019531 180.507812 124.375 179.199219 C 124.730469 177.886719 133.058594 129.667969 133.058594 129.667969 L 134.703125 129.59375 L 136.59375 179.570312 C 136.59375 179.570312 154.894531 179.585938 154.816406 177.648438 C 154.734375 175.710938 155.65625 129.058594 155.273438 124.757812 C 154.886719 120.460938 156.449219 109.167969 155.863281 107.253906 C 155.277344 105.339844 155.027344 99.308594 155.027344 99.308594 L 150.089844 92.84375 C 150.089844 92.84375 148.171875 80.527344 150.890625 72.957031 C 153.605469 65.386719 156.234375 59.4375 156.234375 59.4375 L 152.46875 57.921875 "/>
<path style=" stroke:none;fill-rule:nonzero;fill:rgb(51.759338%,77.249146%,71.759033%);fill-opacity:1;" d="M 154.824219 175.195312 C 154.824219 175.195312 150.855469 176.464844 145.179688 176.726562 C 139.5 176.988281 136.109375 176.210938 136.011719 177.152344 C 135.914062 178.089844 136.230469 184.046875 136.796875 184.449219 C 137.363281 184.855469 141.773438 185.445312 146.960938 184.917969 C 152.148438 184.390625 155.355469 184.027344 155.5 182.507812 C 155.640625 180.992188 155.882812 175.351562 155.804688 175.148438 C 155.730469 174.945312 154.824219 175.195312 154.824219 175.195312 "/>
<path style=" stroke:none;fill-rule:nonzero;fill:rgb(51.759338%,77.249146%,71.759033%);fill-opacity:1;" d="M 125.375 176.921875 C 125.375 176.921875 125.015625 183.054688 124.6875 183.425781 C 124.363281 183.800781 118.703125 184.496094 114.222656 183.910156 C 109.742188 183.324219 107.460938 181.289062 107.183594 181.222656 C 106.90625 181.15625 107.246094 174.414062 107.769531 174.136719 C 108.296875 173.859375 111.292969 176.21875 117.078125 176.84375 C 122.863281 177.46875 125.375 176.921875 125.375 176.921875 "/>
<path style=" stroke:none;fill-rule:nonzero;fill:rgb(51.759338%,77.249146%,71.759033%);fill-opacity:1;" d="M 146.941406 95.820312 C 146.59375 94.910156 123.582031 95.40625 123.308594 96.242188 C 123.035156 97.078125 122.285156 108.019531 122.535156 109.039062 C 122.785156 110.054688 146.210938 111.90625 146.710938 109.3125 C 147.214844 106.714844 146.941406 95.820312 146.941406 95.820312 "/>
<path style=" stroke:none;fill-rule:nonzero;fill:rgb(76.078796%,15.689087%,18.818665%);fill-opacity:1;" d="M 151.402344 57.382812 C 151.402344 57.382812 142.34375 68.445312 141.917969 68.152344 C 141.496094 67.863281 139.242188 61.171875 138.78125 61.191406 C 138.324219 61.210938 134.480469 67.347656 133.742188 66.96875 C 133.007812 66.589844 133.066406 56.230469 133.066406 56.230469 L 139.234375 53.863281 L 148.945312 54.878906 L 151.402344 57.382812 "/>
<path style=" stroke:none;fill-rule:nonzero;fill:rgb(76.078796%,15.689087%,18.818665%);fill-opacity:1;" d="M 157.820312 104.226562 C 157.820312 104.226562 156.03125 105.226562 155.855469 105.921875 C 155.679688 106.617188 159.960938 113.5625 160.511719 113.675781 C 161.066406 113.789062 163.34375 111.703125 163.34375 111.703125 L 157.820312 104.226562 "/>
<path style=" stroke:none;fill-rule:nonzero;fill:rgb(98.039246%,74.899292%,56.858826%);fill-opacity:1;" d="M 154.25 37.089844 C 154.25 37.089844 155.617188 36.378906 156.039062 37.265625 C 156.460938 38.152344 154.609375 41.644531 153.722656 42.628906 C 152.832031 43.617188 151.3125 45.335938 151.3125 45.335938 L 132.058594 43.761719 L 130.902344 40.496094 C 130.902344 40.496094 128.484375 37.421875 128.941406 35.726562 C 129.398438 34.03125 130.375 33.71875 130.375 33.71875 C 130.375 33.71875 127.449219 26.605469 136.667969 23.429688 C 145.886719 20.253906 157.320312 25.007812 157.320312 25.007812 L 153.707031 30.417969 L 154.25 37.089844 "/>
<path style=" stroke:none;fill-rule:nonzero;fill:rgb(49.01886%,27.059937%,18.03894%);fill-opacity:1;" d="M 152.429688 24.949219 C 152.429688 24.949219 148.925781 27.941406 144.453125 28.695312 C 139.980469 29.449219 137.578125 28.597656 137.578125 28.597656 L 138.742188 27.074219 C 138.742188 27.074219 137.441406 28.289062 135.328125 28.542969 C 133.21875 28.800781 129.753906 27.28125 129.753906 27.28125 C 129.753906 27.28125 134.085938 22.109375 141.417969 22.703125 C 148.75 23.296875 152.429688 24.949219 152.429688 24.949219 "/>
<path style=" stroke:none;fill-rule:nonzero;fill:rgb(49.01886%,27.059937%,18.03894%);fill-opacity:1;" d="M 152.332031 25.953125 C 152.332031 25.953125 151.929688 30.714844 152.230469 31.703125 C 152.53125 32.691406 153.785156 34.902344 153.785156 34.902344 L 154.25 37.089844 C 154.25 37.089844 155.90625 35.082031 156.21875 32.480469 C 156.527344 29.882812 156.257812 28.535156 156.257812 28.535156 L 153.386719 25.546875 L 152.332031 25.953125 "/>
<path style=" stroke:none;fill-rule:nonzero;fill:rgb(49.01886%,27.059937%,18.03894%);fill-opacity:1;" d="M 132.523438 26.644531 C 132.523438 26.644531 131.304688 32.847656 131.222656 33.6875 C 131.144531 34.527344 131.648438 35.703125 131.648438 35.703125 C 131.648438 35.703125 128.800781 34.246094 128.46875 32.40625 C 128.140625 30.566406 128.386719 27.980469 128.386719 27.980469 L 131.019531 26.066406 L 132.523438 26.644531 "/>
<path style=" stroke:none;fill-rule:nonzero;fill:rgb(91.369629%,83.918762%,32.159424%);fill-opacity:1;" d="M 152.765625 22.609375 L 154.9375 17.652344 C 154.9375 17.652344 154.929688 14.179688 154.484375 13.546875 C 154.039062 12.910156 150.15625 10.164062 142.125 10.070312 C 134.097656 9.972656 130.734375 11.511719 130.351562 12.828125 C 129.972656 14.148438 129.988281 16.605469 129.988281 16.605469 L 135.355469 19.746094 L 152.765625 22.609375 "/>
<path style=" stroke:none;fill-rule:nonzero;fill:rgb(68.238831%,61.178589%,16.859436%);fill-opacity:1;" d="M 155.203125 20.132812 L 154.933594 17.652344 C 154.933594 17.652344 149.679688 15.113281 141.308594 15.070312 C 132.933594 15.027344 129.988281 16.605469 129.988281 16.605469 L 129.699219 19.625 L 155.203125 20.132812 "/>
<path style=" stroke:none;fill-rule:nonzero;fill:rgb(91.369629%,83.918762%,32.159424%);fill-opacity:1;" d="M 142.90625 16.917969 C 142.90625 16.917969 129.632812 17.671875 125.558594 19.566406 C 121.484375 21.457031 119.210938 24.878906 121.503906 26.542969 C 123.796875 28.203125 128.6875 29.265625 128.980469 28.871094 C 129.269531 28.476562 131.074219 23.820312 142.851562 24.53125 C 154.628906 25.246094 155.179688 29.191406 155.976562 29.691406 C 156.777344 30.195312 166.199219 31.609375 166.613281 27.328125 C 167.023438 23.050781 160.246094 19.605469 153.09375 18.324219 C 145.941406 17.039062 142.90625 16.917969 142.90625 16.917969 "/>
<path style=" stroke:none;fill-rule:nonzero;fill:rgb(49.01886%,27.059937%,18.03894%);fill-opacity:1;" d="M 141.558594 41.796875 C 141.558594 41.796875 139.503906 40.242188 137.210938 40.644531 C 134.917969 41.042969 133.105469 41.660156 133.105469 41.660156 C 133.105469 41.660156 132.269531 41.410156 131.945312 40.476562 C 131.621094 39.539062 131.367188 38.667969 131.367188 38.667969 C 131.367188 38.667969 129.625 45.050781 129.808594 47.835938 C 129.992188 50.617188 134.035156 56.652344 136.792969 57.878906 C 139.554688 59.105469 140.261719 60.753906 140.261719 60.753906 C 140.261719 60.753906 141.683594 59.253906 142.648438 58.613281 C 143.609375 57.96875 149.875 58.027344 151.929688 53.617188 C 153.988281 49.203125 153.269531 40.046875 153.269531 40.046875 C 153.269531 40.046875 151.785156 42.78125 150.710938 42.792969 C 149.640625 42.800781 148.277344 41.710938 146.199219 41.621094 C 144.121094 41.535156 141.558594 41.796875 141.558594 41.796875 "/>
<path style=" stroke:none;fill-rule:nonzero;fill:rgb(27.059937%,23.919678%,22.349548%);fill-opacity:1;" d="M 148.078125 35.566406 C 148.023438 36.136719 148.441406 36.644531 149.015625 36.699219 C 149.582031 36.753906 150.09375 36.335938 150.148438 35.765625 C 150.203125 35.191406 149.785156 34.683594 149.210938 34.632812 C 148.640625 34.574219 148.136719 34.992188 148.078125 35.566406 "/>
<path style=" stroke:none;fill-rule:nonzero;fill:rgb(27.059937%,23.919678%,22.349548%);fill-opacity:1;" d="M 136.117188 34.414062 C 136.0625 34.984375 136.480469 35.492188 137.050781 35.546875 C 137.625 35.605469 138.132812 35.183594 138.1875 34.613281 C 138.242188 34.042969 137.820312 33.535156 137.25 33.476562 C 136.679688 33.425781 136.171875 33.84375 136.117188 34.414062 "/>
<path style=" stroke:none;fill-rule:nonzero;fill:rgb(86.669922%,50.19989%,41.569519%);fill-opacity:1;" d="M 143.527344 41.464844 C 141.933594 41.464844 139.636719 40.773438 139.285156 40.492188 C 138.796875 40.09375 141.511719 35.039062 142.617188 35.039062 C 142.632812 35.039062 142.652344 35.039062 142.667969 35.042969 C 142.667969 35.042969 142.757812 35.039062 142.890625 35.039062 C 143.144531 35.039062 143.578125 35.058594 143.902344 35.164062 C 144.394531 35.324219 145.722656 39.96875 144.945312 41.035156 C 144.714844 41.347656 144.179688 41.464844 143.527344 41.464844 "/>
<path style=" stroke:none;fill-rule:nonzero;fill:rgb(27.059937%,23.919678%,22.349548%);fill-opacity:1;" d="M 138.261719 42.472656 C 138.234375 44.441406 139.617188 46.183594 141.613281 46.40625 C 142.574219 46.511719 143.542969 46.246094 144.304688 45.652344 C 145.074219 45.058594 145.480469 44.265625 145.757812 43.351562 C 145.773438 43.296875 145.859375 43.320312 145.851562 43.375 C 145.621094 45.421875 143.476562 46.800781 141.527344 46.585938 C 139.464844 46.359375 137.875 44.527344 137.976562 42.445312 C 137.980469 42.257812 138.265625 42.289062 138.261719 42.472656 "/>
<path style=" stroke:none;fill-rule:nonzero;fill:rgb(49.01886%,27.059937%,18.03894%);fill-opacity:1;" d="M 146.953125 30.808594 C 148.179688 30.753906 149.359375 30.921875 150.472656 31.46875 C 151.332031 31.890625 152.476562 32.566406 152.511719 33.632812 C 152.519531 33.867188 152.253906 34.015625 152.054688 34.007812 C 151.289062 33.984375 150.582031 33.296875 149.882812 33.015625 C 149.054688 32.679688 148.15625 32.527344 147.265625 32.601562 C 146.09375 32.699219 145.800781 30.863281 146.953125 30.808594 "/>
<path style=" stroke:none;fill-rule:nonzero;fill:rgb(49.01886%,27.059937%,18.03894%);fill-opacity:1;" d="M 134.691406 31.371094 C 136.046875 29.777344 138.4375 29.296875 140.382812 29.996094 C 141.347656 30.34375 140.773438 31.703125 139.820312 31.460938 C 138.222656 31.050781 136.859375 31.5 135.488281 32.335938 C 134.9375 32.671875 134.285156 31.847656 134.691406 31.371094 "/>
<path style=" stroke:none;fill-rule:nonzero;fill:rgb(98.039246%,74.899292%,56.858826%);fill-opacity:1;" d="M 155.9375 106.332031 C 155.9375 106.332031 150.203125 110.664062 149.71875 111.40625 C 149.238281 112.144531 149.375 113.683594 149.375 113.683594 C 149.375 113.683594 148.933594 114.597656 149.226562 115.0625 C 149.523438 115.53125 150.113281 115.675781 150.113281 115.675781 C 150.113281 115.675781 149.90625 116.40625 150.15625 116.703125 C 150.410156 117 151.257812 117.546875 151.257812 117.546875 C 151.257812 117.546875 151.726562 118.863281 152.78125 119.46875 C 153.835938 120.074219 155.390625 120.347656 157.070312 119.589844 C 158.753906 118.828125 159.132812 118.089844 158.769531 117.660156 C 158.40625 117.230469 156.488281 117.96875 156.109375 117.984375 C 155.734375 118 155.585938 117.769531 155.585938 117.769531 C 155.585938 117.769531 157.125 116.886719 158.171875 115.753906 C 159.21875 114.625 159.964844 113.109375 159.964844 113.109375 L 155.9375 106.332031 "/>
<path style=" stroke:none;fill-rule:nonzero;fill:rgb(98.039246%,74.899292%,56.858826%);fill-opacity:1;" d="M 96.417969 46.300781 C 96.417969 46.300781 98.082031 45.027344 99.472656 45.027344 C 100.863281 45.027344 101.316406 45.664062 101.316406 45.664062 C 101.316406 45.664062 102.59375 45.101562 103.273438 45.027344 C 103.945312 44.949219 104.585938 45.664062 104.585938 45.664062 C 104.585938 45.664062 105.152344 45.695312 105.488281 45.660156 C 105.828125 45.628906 106.128906 46.042969 106.128906 46.042969 C 106.128906 46.042969 106.242188 45.851562 106.917969 46.078125 C 107.59375 46.304688 110.753906 48.433594 110.679688 51.152344 C 110.601562 53.867188 109.023438 55.652344 106.054688 56.226562 C 103.082031 56.800781 96.351562 56.625 96.953125 55.867188 C 97.558594 55.105469 102.96875 53.566406 101.238281 51.195312 C 99.511719 48.824219 96.417969 46.300781 96.417969 46.300781 "/>
</g>
</svg>
